G04 #@! TF.GenerationSoftware,KiCad,Pcbnew,6.0.11-3.fc36*
G04 #@! TF.CreationDate,2023-02-22T18:11:36-05:00*
G04 #@! TF.ProjectId,kb40,6b623430-2e6b-4696-9361-645f70636258,rev?*
G04 #@! TF.SameCoordinates,Original*
G04 #@! TF.FileFunction,Soldermask,Bot*
G04 #@! TF.FilePolarity,Negative*
%FSLAX46Y46*%
G04 Gerber Fmt 4.6, Leading zero omitted, Abs format (unit mm)*
G04 Created by KiCad (PCBNEW 6.0.11-3.fc36) date 2023-02-22 18:11:36*
%MOMM*%
%LPD*%
G01*
G04 APERTURE LIST*
G04 Aperture macros list*
%AMRoundRect*
0 Rectangle with rounded corners*
0 $1 Rounding radius*
0 $2 $3 $4 $5 $6 $7 $8 $9 X,Y pos of 4 corners*
0 Add a 4 corners polygon primitive as box body*
4,1,4,$2,$3,$4,$5,$6,$7,$8,$9,$2,$3,0*
0 Add four circle primitives for the rounded corners*
1,1,$1+$1,$2,$3*
1,1,$1+$1,$4,$5*
1,1,$1+$1,$6,$7*
1,1,$1+$1,$8,$9*
0 Add four rect primitives between the rounded corners*
20,1,$1+$1,$2,$3,$4,$5,0*
20,1,$1+$1,$4,$5,$6,$7,0*
20,1,$1+$1,$6,$7,$8,$9,0*
20,1,$1+$1,$8,$9,$2,$3,0*%
%AMRotRect*
0 Rectangle, with rotation*
0 The origin of the aperture is its center*
0 $1 length*
0 $2 width*
0 $3 Rotation angle, in degrees counterclockwise*
0 Add horizontal line*
21,1,$1,$2,0,0,$3*%
%AMFreePoly0*
4,1,6,0.600000,0.200000,0.000000,-0.400000,-0.600000,0.200000,-0.600000,0.500000,0.600000,0.500000,0.600000,0.200000,0.600000,0.200000,$1*%
%AMFreePoly1*
4,1,6,0.600000,-0.250000,-0.600000,-0.250000,-0.600000,1.000000,0.000000,0.400000,0.600000,1.000000,0.600000,-0.250000,0.600000,-0.250000,$1*%
%AMFreePoly2*
4,1,6,1.000000,0.000000,0.500000,-0.750000,-0.500000,-0.750000,-0.500000,0.750000,0.500000,0.750000,1.000000,0.000000,1.000000,0.000000,$1*%
%AMFreePoly3*
4,1,6,0.500000,-0.750000,-0.650000,-0.750000,-0.150000,0.000000,-0.650000,0.750000,0.500000,0.750000,0.500000,-0.750000,0.500000,-0.750000,$1*%
G04 Aperture macros list end*
%ADD10C,1.701800*%
%ADD11C,3.000000*%
%ADD12C,0.990600*%
%ADD13C,3.429000*%
%ADD14R,2.600000X2.600000*%
%ADD15RoundRect,0.300000X0.124041X0.614544X-0.583668X-0.228871X-0.124041X-0.614544X0.583668X0.228871X0*%
%ADD16RoundRect,0.300000X-0.300000X0.550500X-0.300000X-0.550500X0.300000X-0.550500X0.300000X0.550500X0*%
%ADD17R,1.400000X0.820000*%
%ADD18RoundRect,0.205000X0.495000X0.205000X-0.495000X0.205000X-0.495000X-0.205000X0.495000X-0.205000X0*%
%ADD19RotRect,2.600000X2.600000X340.000000*%
%ADD20RoundRect,0.300000X-0.178989X0.600844X-0.407900X-0.476097X0.178989X-0.600844X0.407900X0.476097X0*%
%ADD21R,1.700000X1.700000*%
%ADD22O,1.700000X1.700000*%
%ADD23RotRect,2.600000X2.600000X320.000000*%
%ADD24RoundRect,0.300000X-0.093626X0.619907X-0.470190X-0.414695X0.093626X-0.619907X0.470190X0.414695X0*%
%ADD25RotRect,2.600000X2.600000X348.000000*%
%ADD26RotRect,1.400000X0.820000X140.000000*%
%ADD27RoundRect,0.205000X0.510963X-0.161141X-0.247421X0.475219X-0.510963X0.161141X0.247421X-0.475219X0*%
%ADD28RotRect,1.400000X0.820000X168.000000*%
%ADD29RoundRect,0.205000X0.526805X0.097604X-0.441561X0.303437X-0.526805X-0.097604X0.441561X-0.303437X0*%
%ADD30C,1.752600*%
%ADD31FreePoly0,180.000000*%
%ADD32O,3.700000X1.700000*%
%ADD33C,1.200000*%
%ADD34FreePoly0,0.000000*%
%ADD35FreePoly1,0.000000*%
%ADD36O,2.200000X1.700000*%
%ADD37FreePoly1,180.000000*%
%ADD38RotRect,1.400000X0.820000X160.000000*%
%ADD39RoundRect,0.205000X0.535262X0.023337X-0.395034X0.361937X-0.535262X-0.023337X0.395034X-0.361937X0*%
%ADD40FreePoly2,90.000000*%
%ADD41FreePoly3,90.000000*%
G04 APERTURE END LIST*
D10*
X140000000Y-61500000D03*
D11*
X145500000Y-67450000D03*
D12*
X140280000Y-57300000D03*
D11*
X140500000Y-65250000D03*
D10*
X151000000Y-61500000D03*
D13*
X145500000Y-61500000D03*
D12*
X150720000Y-57300000D03*
D11*
X150500000Y-65250000D03*
D14*
X148775000Y-67450000D03*
X137225000Y-65250000D03*
D15*
X202068357Y-132678843D03*
X199431643Y-135821157D03*
D16*
X136500000Y-101699000D03*
X136500000Y-105801000D03*
D11*
X168500000Y-84250000D03*
D10*
X169000000Y-80500000D03*
D13*
X163500000Y-80500000D03*
D12*
X158280000Y-76300000D03*
D11*
X158500000Y-84250000D03*
D10*
X158000000Y-80500000D03*
D11*
X163500000Y-86450000D03*
D12*
X168720000Y-76300000D03*
D14*
X166775000Y-86450000D03*
X155225000Y-84250000D03*
D13*
X109500000Y-59500000D03*
D12*
X114720000Y-55300000D03*
D10*
X104000000Y-59500000D03*
D12*
X104280000Y-55300000D03*
D11*
X109500000Y-65450000D03*
X104500000Y-63250000D03*
X114500000Y-63250000D03*
D10*
X115000000Y-59500000D03*
D14*
X112775000Y-65450000D03*
X101225000Y-63250000D03*
D17*
X94200000Y-68050000D03*
X88800000Y-68050000D03*
D18*
X88800000Y-69550000D03*
D17*
X94200000Y-69550000D03*
D11*
X91500000Y-113450000D03*
X96500000Y-111250000D03*
X86500000Y-111250000D03*
D13*
X91500000Y-107500000D03*
D10*
X97000000Y-107500000D03*
D12*
X96720000Y-103300000D03*
X86280000Y-103300000D03*
D10*
X86000000Y-107500000D03*
D14*
X94775000Y-113450000D03*
X83225000Y-111250000D03*
D17*
X148200000Y-56050000D03*
X142800000Y-56050000D03*
D18*
X142800000Y-57550000D03*
D17*
X148200000Y-57550000D03*
X94200000Y-85050000D03*
X88800000Y-85050000D03*
D18*
X88800000Y-86550000D03*
D17*
X94200000Y-86550000D03*
X148200000Y-73050000D03*
X142800000Y-73050000D03*
D18*
X142800000Y-74550000D03*
D17*
X148200000Y-74550000D03*
D10*
X179060815Y-122797666D03*
D12*
X170423795Y-115184501D03*
D11*
X171857486Y-126507726D03*
D12*
X180234186Y-118755191D03*
D13*
X173892506Y-120916555D03*
D11*
X177308394Y-126150503D03*
X167911467Y-122730302D03*
D10*
X168724197Y-119035444D03*
D19*
X174934979Y-127627842D03*
X164833974Y-121610186D03*
D16*
X82500000Y-68449000D03*
X82500000Y-72551000D03*
D11*
X109500000Y-116450000D03*
D12*
X104280000Y-106300000D03*
D10*
X115000000Y-110500000D03*
D12*
X114720000Y-106300000D03*
D10*
X104000000Y-110500000D03*
D11*
X104500000Y-114250000D03*
D13*
X109500000Y-110500000D03*
D11*
X114500000Y-114250000D03*
D14*
X112775000Y-116450000D03*
X101225000Y-114250000D03*
D16*
X118500000Y-66449000D03*
X118500000Y-70551000D03*
X172000000Y-74949000D03*
X172000000Y-79051000D03*
D17*
X112200000Y-54050000D03*
X106800000Y-54050000D03*
D18*
X106800000Y-55550000D03*
D17*
X112200000Y-55550000D03*
D20*
X164468373Y-111837552D03*
X163615519Y-115849914D03*
D17*
X130200000Y-65100000D03*
X124800000Y-65100000D03*
D18*
X124800000Y-66600000D03*
D17*
X130200000Y-66600000D03*
D10*
X97000000Y-73500000D03*
D12*
X86280000Y-69300000D03*
D11*
X91500000Y-79450000D03*
X96500000Y-77250000D03*
D12*
X96720000Y-69300000D03*
D11*
X86500000Y-77250000D03*
D10*
X86000000Y-73500000D03*
D13*
X91500000Y-73500000D03*
D14*
X94775000Y-79450000D03*
X83225000Y-77250000D03*
D17*
X130200000Y-48100000D03*
X124800000Y-48100000D03*
D18*
X124800000Y-49600000D03*
D17*
X130200000Y-49600000D03*
X76200000Y-107050000D03*
X70800000Y-107050000D03*
D18*
X70800000Y-108550000D03*
D17*
X76200000Y-108550000D03*
D12*
X150720000Y-91300000D03*
D13*
X145500000Y-95500000D03*
D10*
X151000000Y-95500000D03*
D11*
X140500000Y-99250000D03*
D10*
X140000000Y-95500000D03*
D11*
X150500000Y-99250000D03*
D12*
X140280000Y-91300000D03*
D11*
X145500000Y-101450000D03*
D14*
X148775000Y-101450000D03*
X137225000Y-99250000D03*
D21*
X186800000Y-87825000D03*
D22*
X184260000Y-87825000D03*
X181720000Y-87825000D03*
X179180000Y-87825000D03*
D16*
X154500000Y-56481500D03*
X154500000Y-60583500D03*
D10*
X115000000Y-76500000D03*
D12*
X104280000Y-72300000D03*
D11*
X104500000Y-80250000D03*
D12*
X114720000Y-72300000D03*
D11*
X109500000Y-82450000D03*
D10*
X104000000Y-76500000D03*
D13*
X109500000Y-76500000D03*
D11*
X114500000Y-80250000D03*
D14*
X112775000Y-82450000D03*
X101225000Y-80250000D03*
D16*
X100500000Y-85268000D03*
X100500000Y-89370000D03*
D10*
X133000000Y-104500000D03*
D12*
X122280000Y-100300000D03*
X132720000Y-100300000D03*
D11*
X122500000Y-108250000D03*
D10*
X122000000Y-104500000D03*
D13*
X127500000Y-104500000D03*
D11*
X132500000Y-108250000D03*
X127500000Y-110450000D03*
D14*
X130775000Y-110450000D03*
X119225000Y-108250000D03*
D17*
X112200000Y-88050000D03*
X106800000Y-88050000D03*
D18*
X106800000Y-89550000D03*
D17*
X112200000Y-89550000D03*
D11*
X122500000Y-91300000D03*
X127500000Y-93500000D03*
X132500000Y-91300000D03*
D10*
X133000000Y-87550000D03*
D12*
X132720000Y-83350000D03*
D10*
X122000000Y-87550000D03*
D12*
X122280000Y-83350000D03*
D13*
X127500000Y-87550000D03*
D14*
X130775000Y-93500000D03*
X119225000Y-91300000D03*
D16*
X154500000Y-90481500D03*
X154500000Y-94583500D03*
X82500000Y-85449000D03*
X82500000Y-89551000D03*
D17*
X148200000Y-90050000D03*
X142800000Y-90050000D03*
D18*
X142800000Y-91550000D03*
D17*
X148200000Y-91550000D03*
D16*
X136500000Y-67749000D03*
X136500000Y-71851000D03*
D17*
X184200000Y-92050000D03*
X178800000Y-92050000D03*
D18*
X178800000Y-93550000D03*
D17*
X184200000Y-93550000D03*
D16*
X118500000Y-49449000D03*
X118500000Y-53551000D03*
X118500000Y-83449000D03*
X118500000Y-87551000D03*
X118500000Y-100449000D03*
X118500000Y-104551000D03*
D13*
X191988865Y-131467462D03*
D12*
X198687325Y-131605427D03*
D11*
X185748189Y-131126191D03*
D12*
X190689821Y-124894724D03*
D11*
X193408634Y-137554067D03*
D10*
X196202109Y-135002794D03*
D11*
X188164279Y-136025426D03*
D10*
X187775621Y-127932130D03*
D23*
X190673074Y-138130556D03*
X183239394Y-129021061D03*
D24*
X183778447Y-118607492D03*
X182375481Y-122462112D03*
D12*
X68280000Y-108300000D03*
D11*
X68500000Y-116250000D03*
D10*
X68000000Y-112500000D03*
D11*
X73500000Y-118450000D03*
X78500000Y-116250000D03*
D13*
X73500000Y-112500000D03*
D10*
X79000000Y-112500000D03*
D12*
X78720000Y-108300000D03*
D14*
X76775000Y-118450000D03*
X65225000Y-116250000D03*
D16*
X136500000Y-84749000D03*
X136500000Y-88851000D03*
D17*
X166200000Y-92050000D03*
X160800000Y-92050000D03*
D18*
X160800000Y-93550000D03*
D17*
X166200000Y-93550000D03*
X112200000Y-105050000D03*
X106800000Y-105050000D03*
D18*
X106800000Y-106550000D03*
D17*
X112200000Y-106550000D03*
D10*
X133000000Y-70550000D03*
D11*
X132500000Y-74300000D03*
D12*
X132720000Y-66350000D03*
D13*
X127500000Y-70550000D03*
D10*
X122000000Y-70550000D03*
D11*
X122500000Y-74300000D03*
D12*
X122280000Y-66350000D03*
D11*
X127500000Y-76500000D03*
D14*
X130775000Y-76500000D03*
X119225000Y-74300000D03*
D11*
X73500000Y-84450000D03*
X78500000Y-82250000D03*
D12*
X78720000Y-74300000D03*
D10*
X79000000Y-78500000D03*
X68000000Y-78500000D03*
D13*
X73500000Y-78500000D03*
D12*
X68280000Y-74300000D03*
D11*
X68500000Y-82250000D03*
D14*
X76775000Y-84450000D03*
X65225000Y-82250000D03*
D16*
X172000000Y-57949000D03*
X172000000Y-62051000D03*
D13*
X145500000Y-78500000D03*
D12*
X150720000Y-74300000D03*
X140280000Y-74300000D03*
D10*
X140000000Y-78500000D03*
D11*
X150500000Y-82250000D03*
X145500000Y-84450000D03*
X140500000Y-82250000D03*
D10*
X151000000Y-78500000D03*
D14*
X148775000Y-84450000D03*
X137225000Y-82250000D03*
D12*
X150767299Y-110306481D03*
X160979160Y-112477079D03*
D11*
X153762925Y-121319978D03*
D10*
X160379812Y-116643514D03*
D13*
X155000000Y-115500000D03*
D11*
X149329593Y-118128495D03*
X159111069Y-120207612D03*
D10*
X149620188Y-114356486D03*
D25*
X156966359Y-122000889D03*
X146126160Y-117447584D03*
D17*
X112200000Y-71050000D03*
X106800000Y-71050000D03*
D18*
X106800000Y-72550000D03*
D17*
X112200000Y-72550000D03*
X130200000Y-99050000D03*
X124800000Y-99050000D03*
D18*
X124800000Y-100550000D03*
D17*
X130200000Y-100550000D03*
D11*
X163500000Y-69450000D03*
X168500000Y-67250000D03*
D10*
X158000000Y-63500000D03*
X169000000Y-63500000D03*
D12*
X168720000Y-59300000D03*
D11*
X158500000Y-67250000D03*
D12*
X158280000Y-59300000D03*
D13*
X163500000Y-63500000D03*
D14*
X166775000Y-69450000D03*
X155225000Y-67250000D03*
D12*
X104280000Y-89300000D03*
X114720000Y-89300000D03*
D10*
X104000000Y-93500000D03*
X115000000Y-93500000D03*
D13*
X109500000Y-93500000D03*
D11*
X109500000Y-99450000D03*
X114500000Y-97250000D03*
X104500000Y-97250000D03*
D14*
X112775000Y-99450000D03*
X101225000Y-97250000D03*
D26*
X197560379Y-129028046D03*
X193423739Y-125556993D03*
D27*
X192459557Y-126706060D03*
D26*
X196596197Y-130177113D03*
D17*
X76200000Y-90050000D03*
X70800000Y-90050000D03*
D18*
X70800000Y-91550000D03*
D17*
X76200000Y-91550000D03*
D28*
X158774117Y-110730457D03*
X153492120Y-109607734D03*
D29*
X153180253Y-111074955D03*
D28*
X158462250Y-112197678D03*
D16*
X190000000Y-91949000D03*
X190000000Y-96051000D03*
D30*
X176784000Y-51562000D03*
X190500000Y-52802000D03*
X176784000Y-54102000D03*
X190500000Y-55342000D03*
X176784000Y-56642000D03*
X190500000Y-57882000D03*
X190500000Y-60422000D03*
X176784000Y-59182000D03*
X176784000Y-61722000D03*
X190500000Y-62962000D03*
X176784000Y-64262000D03*
X190500000Y-65502000D03*
X176784000Y-66802000D03*
X190500000Y-68042000D03*
X190500000Y-70582000D03*
X176784000Y-69342000D03*
X190500000Y-73122000D03*
X176784000Y-71882000D03*
X176784000Y-74422000D03*
X190500000Y-75662000D03*
X190500000Y-78202000D03*
X176784000Y-76962000D03*
X176784000Y-79502000D03*
X190500000Y-80742000D03*
X192024000Y-79502000D03*
X175260000Y-80742000D03*
X175260000Y-78202000D03*
X192024000Y-76962000D03*
X192024000Y-74422000D03*
X175260000Y-75662000D03*
X175260000Y-73122000D03*
X192024000Y-71882000D03*
X175260000Y-70582000D03*
X192024000Y-69342000D03*
X192024000Y-66802000D03*
X175260000Y-68042000D03*
X192024000Y-64262000D03*
X175260000Y-65502000D03*
X192024000Y-61722000D03*
X175260000Y-62962000D03*
X192024000Y-59182000D03*
X175260000Y-60422000D03*
X192024000Y-56642000D03*
X175260000Y-57882000D03*
X175260000Y-55342000D03*
X192024000Y-54102000D03*
X175260000Y-52802000D03*
X192024000Y-51562000D03*
D13*
X127500000Y-53550000D03*
D11*
X132500000Y-57300000D03*
D10*
X122000000Y-53550000D03*
X133000000Y-53550000D03*
D11*
X122500000Y-57300000D03*
X127500000Y-59500000D03*
D12*
X122280000Y-49350000D03*
X132720000Y-49350000D03*
D14*
X130775000Y-59500000D03*
X119225000Y-57300000D03*
D17*
X166200000Y-75050000D03*
X160800000Y-75050000D03*
D18*
X160800000Y-76550000D03*
D17*
X166200000Y-76550000D03*
D31*
X183134000Y-112014000D03*
D32*
X182244000Y-109406000D03*
X182244000Y-113606000D03*
D33*
X191794000Y-111506000D03*
X184794000Y-111506000D03*
D34*
X181356000Y-110998000D03*
D35*
X181356000Y-112014000D03*
D36*
X189994000Y-113606000D03*
X186994000Y-113606000D03*
D37*
X183134000Y-110998000D03*
D16*
X100500000Y-68268000D03*
X100500000Y-72370000D03*
D10*
X79000000Y-95500000D03*
D13*
X73500000Y-95500000D03*
D11*
X68500000Y-99250000D03*
X78500000Y-99250000D03*
D12*
X68280000Y-91300000D03*
D11*
X73500000Y-101450000D03*
D10*
X68000000Y-95500000D03*
D12*
X78720000Y-91300000D03*
D14*
X76775000Y-101450000D03*
X65225000Y-99250000D03*
D16*
X82500000Y-102449000D03*
X82500000Y-106551000D03*
D17*
X76200000Y-73050000D03*
X70800000Y-73050000D03*
D18*
X70800000Y-74550000D03*
D17*
X76200000Y-74550000D03*
D11*
X91500000Y-96450000D03*
D13*
X91500000Y-90500000D03*
D11*
X96500000Y-94250000D03*
D12*
X96720000Y-86300000D03*
D10*
X97000000Y-90500000D03*
X86000000Y-90500000D03*
D12*
X86280000Y-86300000D03*
D11*
X86500000Y-94250000D03*
D14*
X94775000Y-96450000D03*
X83225000Y-94250000D03*
D17*
X130200000Y-82100000D03*
X124800000Y-82100000D03*
D18*
X124800000Y-83600000D03*
D17*
X130200000Y-83600000D03*
X94200000Y-102050000D03*
X88800000Y-102050000D03*
D18*
X88800000Y-103550000D03*
D17*
X94200000Y-103550000D03*
D16*
X154500000Y-73481500D03*
X154500000Y-77583500D03*
D17*
X166200000Y-58050000D03*
X160800000Y-58050000D03*
D18*
X160800000Y-59550000D03*
D17*
X166200000Y-59550000D03*
D16*
X100500000Y-102268000D03*
X100500000Y-106370000D03*
D38*
X178293685Y-116718685D03*
X173219345Y-114871776D03*
D39*
X172706315Y-116281315D03*
D38*
X177780655Y-118128224D03*
D16*
X136500000Y-50749000D03*
X136500000Y-54851000D03*
D11*
X168500000Y-101250000D03*
D12*
X168720000Y-93300000D03*
D10*
X158000000Y-97500000D03*
D12*
X158280000Y-93300000D03*
D11*
X158500000Y-101250000D03*
D13*
X163500000Y-97500000D03*
D10*
X169000000Y-97500000D03*
D11*
X163500000Y-103450000D03*
D14*
X166775000Y-103450000D03*
X155225000Y-101250000D03*
D16*
X172000000Y-91949000D03*
X172000000Y-96051000D03*
D12*
X176280000Y-93300000D03*
X186720000Y-93300000D03*
D11*
X181500000Y-103450000D03*
D13*
X181500000Y-97500000D03*
D11*
X176500000Y-101250000D03*
X186500000Y-101250000D03*
D10*
X187000000Y-97500000D03*
X176000000Y-97500000D03*
D14*
X184775000Y-103450000D03*
X173225000Y-101250000D03*
D40*
X184600000Y-84925000D03*
D41*
X184600000Y-83475000D03*
D40*
X187400000Y-84925000D03*
D41*
X187400000Y-83475000D03*
D40*
X178600000Y-84925000D03*
D41*
X178600000Y-83475000D03*
D40*
X181400000Y-84925000D03*
D41*
X181400000Y-83475000D03*
M02*
