%TF.GenerationSoftware,KiCad,Pcbnew,6.0.11-3.fc36*%
%TF.CreationDate,2023-02-22T18:11:41-05:00*%
%TF.ProjectId,kb40,6b623430-2e6b-4696-9361-645f70636258,rev?*%
%TF.SameCoordinates,Original*%
%TF.FileFunction,Drillmap*%
%TF.FilePolarity,Positive*%
%FSLAX45Y45*%
G04 Gerber Fmt 4.5, Leading zero omitted, Abs format (unit mm)*
G04 Created by KiCad (PCBNEW 6.0.11-3.fc36) date 2023-02-22 18:11:41*
%MOMM*%
%LPD*%
G01*
G04 APERTURE LIST*
%ADD10C,0.100000*%
%ADD11C,0.200000*%
%ADD12C,0.099060*%
%ADD13C,0.120000*%
%ADD14C,0.170180*%
%ADD15C,0.300000*%
%ADD16C,0.342900*%
G04 APERTURE END LIST*
D10*
X9850000Y-12100000D02*
X12050000Y-12100000D01*
X13950000Y-5000000D02*
X15750000Y-5000000D01*
X19380200Y-12000000D02*
X19380200Y-8900000D01*
X17322800Y-4978400D02*
X17322800Y-5200000D01*
X7950000Y-6200000D02*
X9750000Y-6200000D01*
X19380200Y-12000000D02*
X19380000Y-12105000D01*
X15750000Y-5000000D02*
X15750000Y-5200000D01*
X19250000Y-4978400D02*
X19380200Y-4978400D01*
X15750000Y-5200000D02*
X17322800Y-5200000D01*
X19380200Y-5120000D02*
X19380200Y-5300000D01*
X9750000Y-6200000D02*
X9750000Y-4800000D01*
X6250000Y-12300000D02*
X8450000Y-12300000D01*
X19483529Y-14570171D02*
X20677146Y-13163011D01*
X7950000Y-6700000D02*
X7950000Y-6200000D01*
X20677146Y-13163011D02*
X19380000Y-12105000D01*
X6250000Y-6700000D02*
X7950000Y-6700000D01*
X17322800Y-4978400D02*
X19250000Y-4978400D01*
X19380200Y-8900000D02*
X19380200Y-5300000D01*
X9850000Y-12100000D02*
X8450000Y-12100000D01*
X8450000Y-12100000D02*
X8450000Y-12300000D01*
X19483529Y-14570171D02*
G75*
G03*
X13450000Y-12150000I-6883529J-8429829D01*
G01*
X6250000Y-12100000D02*
X6250000Y-7000000D01*
X11550000Y-4200000D02*
X13950000Y-4200000D01*
X13950000Y-4200000D02*
X13950000Y-5000000D01*
X6250000Y-12100000D02*
X6250000Y-12300000D01*
X11550000Y-4800000D02*
X11550000Y-4200000D01*
X6250000Y-7000000D02*
X6250000Y-6700000D01*
X19380200Y-4978400D02*
X19380200Y-5120000D01*
X9750000Y-4800000D02*
X11550000Y-4800000D01*
X12050000Y-12100000D02*
X13450000Y-12150000D01*
D11*
D12*
X6778470Y-7380470D02*
X6877530Y-7479530D01*
X6877530Y-7380470D02*
X6778470Y-7479530D01*
X6778470Y-9080470D02*
X6877530Y-9179530D01*
X6877530Y-9080470D02*
X6778470Y-9179530D01*
X6778470Y-10780470D02*
X6877530Y-10879530D01*
X6877530Y-10780470D02*
X6778470Y-10879530D01*
X7822470Y-7380470D02*
X7921530Y-7479530D01*
X7921530Y-7380470D02*
X7822470Y-7479530D01*
X7822470Y-9080470D02*
X7921530Y-9179530D01*
X7921530Y-9080470D02*
X7822470Y-9179530D01*
X7822470Y-10780470D02*
X7921530Y-10879530D01*
X7921530Y-10780470D02*
X7822470Y-10879530D01*
X8578470Y-6880470D02*
X8677530Y-6979530D01*
X8677530Y-6880470D02*
X8578470Y-6979530D01*
X8578470Y-8580470D02*
X8677530Y-8679530D01*
X8677530Y-8580470D02*
X8578470Y-8679530D01*
X8578470Y-10280470D02*
X8677530Y-10379530D01*
X8677530Y-10280470D02*
X8578470Y-10379530D01*
X9622470Y-6880470D02*
X9721530Y-6979530D01*
X9721530Y-6880470D02*
X9622470Y-6979530D01*
X9622470Y-8580470D02*
X9721530Y-8679530D01*
X9721530Y-8580470D02*
X9622470Y-8679530D01*
X9622470Y-10280470D02*
X9721530Y-10379530D01*
X9721530Y-10280470D02*
X9622470Y-10379530D01*
X10378470Y-5480470D02*
X10477530Y-5579530D01*
X10477530Y-5480470D02*
X10378470Y-5579530D01*
X10378470Y-7180470D02*
X10477530Y-7279530D01*
X10477530Y-7180470D02*
X10378470Y-7279530D01*
X10378470Y-8880470D02*
X10477530Y-8979530D01*
X10477530Y-8880470D02*
X10378470Y-8979530D01*
X10378470Y-10580470D02*
X10477530Y-10679530D01*
X10477530Y-10580470D02*
X10378470Y-10679530D01*
X11422470Y-5480470D02*
X11521530Y-5579530D01*
X11521530Y-5480470D02*
X11422470Y-5579530D01*
X11422470Y-7180470D02*
X11521530Y-7279530D01*
X11521530Y-7180470D02*
X11422470Y-7279530D01*
X11422470Y-8880470D02*
X11521530Y-8979530D01*
X11521530Y-8880470D02*
X11422470Y-8979530D01*
X11422470Y-10580470D02*
X11521530Y-10679530D01*
X11521530Y-10580470D02*
X11422470Y-10679530D01*
X12178470Y-4885470D02*
X12277530Y-4984530D01*
X12277530Y-4885470D02*
X12178470Y-4984530D01*
X12178470Y-6585470D02*
X12277530Y-6684530D01*
X12277530Y-6585470D02*
X12178470Y-6684530D01*
X12178470Y-8285470D02*
X12277530Y-8384530D01*
X12277530Y-8285470D02*
X12178470Y-8384530D01*
X12178470Y-9980470D02*
X12277530Y-10079530D01*
X12277530Y-9980470D02*
X12178470Y-10079530D01*
X13222470Y-4885470D02*
X13321530Y-4984530D01*
X13321530Y-4885470D02*
X13222470Y-4984530D01*
X13222470Y-6585470D02*
X13321530Y-6684530D01*
X13321530Y-6585470D02*
X13222470Y-6684530D01*
X13222470Y-8285470D02*
X13321530Y-8384530D01*
X13321530Y-8285470D02*
X13222470Y-8384530D01*
X13222470Y-9980470D02*
X13321530Y-10079530D01*
X13321530Y-9980470D02*
X13222470Y-10079530D01*
X13978470Y-5680470D02*
X14077530Y-5779530D01*
X14077530Y-5680470D02*
X13978470Y-5779530D01*
X13978470Y-7380470D02*
X14077530Y-7479530D01*
X14077530Y-7380470D02*
X13978470Y-7479530D01*
X13978470Y-9080470D02*
X14077530Y-9179530D01*
X14077530Y-9080470D02*
X13978470Y-9179530D01*
X15022470Y-5680470D02*
X15121530Y-5779530D01*
X15121530Y-5680470D02*
X15022470Y-5779530D01*
X15022470Y-7380470D02*
X15121530Y-7479530D01*
X15121530Y-7380470D02*
X15022470Y-7479530D01*
X15022470Y-9080470D02*
X15121530Y-9179530D01*
X15121530Y-9080470D02*
X15022470Y-9179530D01*
X15027200Y-10981118D02*
X15126260Y-11080178D01*
X15126260Y-10981118D02*
X15027200Y-11080178D01*
X15778470Y-5880470D02*
X15877530Y-5979530D01*
X15877530Y-5880470D02*
X15778470Y-5979530D01*
X15778470Y-7580470D02*
X15877530Y-7679530D01*
X15877530Y-7580470D02*
X15778470Y-7679530D01*
X15778470Y-9280470D02*
X15877530Y-9379530D01*
X15877530Y-9280470D02*
X15778470Y-9379530D01*
X16048386Y-11198178D02*
X16147446Y-11297238D01*
X16147446Y-11198178D02*
X16048386Y-11297238D01*
X16822470Y-5880470D02*
X16921530Y-5979530D01*
X16921530Y-5880470D02*
X16822470Y-5979530D01*
X16822470Y-7580470D02*
X16921530Y-7679530D01*
X16921530Y-7580470D02*
X16822470Y-7679530D01*
X16822470Y-9280470D02*
X16921530Y-9379530D01*
X16921530Y-9280470D02*
X16822470Y-9379530D01*
X16992850Y-11468920D02*
X17091910Y-11567980D01*
X17091910Y-11468920D02*
X16992850Y-11567980D01*
X17578470Y-9280470D02*
X17677530Y-9379530D01*
X17677530Y-9280470D02*
X17578470Y-9379530D01*
X17973889Y-11825989D02*
X18072949Y-11925049D01*
X18072949Y-11825989D02*
X17973889Y-11925049D01*
X18622470Y-9280470D02*
X18721530Y-9379530D01*
X18721530Y-9280470D02*
X18622470Y-9379530D01*
X19019452Y-12439942D02*
X19118512Y-12539002D01*
X19118512Y-12439942D02*
X19019452Y-12539002D01*
X19819203Y-13111013D02*
X19918263Y-13210073D01*
X19918263Y-13111013D02*
X19819203Y-13210073D01*
D13*
X18539400Y-11150600D02*
G75*
G03*
X18539400Y-11150600I-60000J0D01*
G01*
X19239400Y-11150600D02*
G75*
G03*
X19239400Y-11150600I-60000J0D01*
G01*
D14*
X6800000Y-7764910D02*
X6800000Y-7935090D01*
X6714910Y-7850000D02*
X6885090Y-7850000D01*
X6800000Y-9464910D02*
X6800000Y-9635090D01*
X6714910Y-9550000D02*
X6885090Y-9550000D01*
X6800000Y-11164910D02*
X6800000Y-11335090D01*
X6714910Y-11250000D02*
X6885090Y-11250000D01*
X7900000Y-7764910D02*
X7900000Y-7935090D01*
X7814910Y-7850000D02*
X7985090Y-7850000D01*
X7900000Y-9464910D02*
X7900000Y-9635090D01*
X7814910Y-9550000D02*
X7985090Y-9550000D01*
X7900000Y-11164910D02*
X7900000Y-11335090D01*
X7814910Y-11250000D02*
X7985090Y-11250000D01*
X8600000Y-7264910D02*
X8600000Y-7435090D01*
X8514910Y-7350000D02*
X8685090Y-7350000D01*
X8600000Y-8964910D02*
X8600000Y-9135090D01*
X8514910Y-9050000D02*
X8685090Y-9050000D01*
X8600000Y-10664910D02*
X8600000Y-10835090D01*
X8514910Y-10750000D02*
X8685090Y-10750000D01*
X9700000Y-7264910D02*
X9700000Y-7435090D01*
X9614910Y-7350000D02*
X9785090Y-7350000D01*
X9700000Y-8964910D02*
X9700000Y-9135090D01*
X9614910Y-9050000D02*
X9785090Y-9050000D01*
X9700000Y-10664910D02*
X9700000Y-10835090D01*
X9614910Y-10750000D02*
X9785090Y-10750000D01*
X10400000Y-5864910D02*
X10400000Y-6035090D01*
X10314910Y-5950000D02*
X10485090Y-5950000D01*
X10400000Y-7564910D02*
X10400000Y-7735090D01*
X10314910Y-7650000D02*
X10485090Y-7650000D01*
X10400000Y-9264910D02*
X10400000Y-9435090D01*
X10314910Y-9350000D02*
X10485090Y-9350000D01*
X10400000Y-10964910D02*
X10400000Y-11135090D01*
X10314910Y-11050000D02*
X10485090Y-11050000D01*
X11500000Y-5864910D02*
X11500000Y-6035090D01*
X11414910Y-5950000D02*
X11585090Y-5950000D01*
X11500000Y-7564910D02*
X11500000Y-7735090D01*
X11414910Y-7650000D02*
X11585090Y-7650000D01*
X11500000Y-9264910D02*
X11500000Y-9435090D01*
X11414910Y-9350000D02*
X11585090Y-9350000D01*
X11500000Y-10964910D02*
X11500000Y-11135090D01*
X11414910Y-11050000D02*
X11585090Y-11050000D01*
X12200000Y-5269910D02*
X12200000Y-5440090D01*
X12114910Y-5355000D02*
X12285090Y-5355000D01*
X12200000Y-6969910D02*
X12200000Y-7140090D01*
X12114910Y-7055000D02*
X12285090Y-7055000D01*
X12200000Y-8669910D02*
X12200000Y-8840090D01*
X12114910Y-8755000D02*
X12285090Y-8755000D01*
X12200000Y-10364910D02*
X12200000Y-10535090D01*
X12114910Y-10450000D02*
X12285090Y-10450000D01*
X13300000Y-5269910D02*
X13300000Y-5440090D01*
X13214910Y-5355000D02*
X13385090Y-5355000D01*
X13300000Y-6969910D02*
X13300000Y-7140090D01*
X13214910Y-7055000D02*
X13385090Y-7055000D01*
X13300000Y-8669910D02*
X13300000Y-8840090D01*
X13214910Y-8755000D02*
X13385090Y-8755000D01*
X13300000Y-10364910D02*
X13300000Y-10535090D01*
X13214910Y-10450000D02*
X13385090Y-10450000D01*
X14000000Y-6064910D02*
X14000000Y-6235090D01*
X13914910Y-6150000D02*
X14085090Y-6150000D01*
X14000000Y-7764910D02*
X14000000Y-7935090D01*
X13914910Y-7850000D02*
X14085090Y-7850000D01*
X14000000Y-9464910D02*
X14000000Y-9635090D01*
X13914910Y-9550000D02*
X14085090Y-9550000D01*
X14962019Y-11350559D02*
X14962019Y-11520739D01*
X14876929Y-11435649D02*
X15047109Y-11435649D01*
X15100000Y-6064910D02*
X15100000Y-6235090D01*
X15014910Y-6150000D02*
X15185090Y-6150000D01*
X15100000Y-7764910D02*
X15100000Y-7935090D01*
X15014910Y-7850000D02*
X15185090Y-7850000D01*
X15100000Y-9464910D02*
X15100000Y-9635090D01*
X15014910Y-9550000D02*
X15185090Y-9550000D01*
X15800000Y-6264910D02*
X15800000Y-6435090D01*
X15714910Y-6350000D02*
X15885090Y-6350000D01*
X15800000Y-7964910D02*
X15800000Y-8135090D01*
X15714910Y-8050000D02*
X15885090Y-8050000D01*
X15800000Y-9664910D02*
X15800000Y-9835090D01*
X15714910Y-9750000D02*
X15885090Y-9750000D01*
X16037981Y-11579261D02*
X16037981Y-11749441D01*
X15952891Y-11664351D02*
X16123071Y-11664351D01*
X16872420Y-11818454D02*
X16872420Y-11988634D01*
X16787330Y-11903544D02*
X16957510Y-11903544D01*
X16900000Y-6264910D02*
X16900000Y-6435090D01*
X16814910Y-6350000D02*
X16985090Y-6350000D01*
X16900000Y-7964910D02*
X16900000Y-8135090D01*
X16814910Y-8050000D02*
X16985090Y-8050000D01*
X16900000Y-9664910D02*
X16900000Y-9835090D01*
X16814910Y-9750000D02*
X16985090Y-9750000D01*
X17600000Y-9664910D02*
X17600000Y-9835090D01*
X17514910Y-9750000D02*
X17685090Y-9750000D01*
X17906082Y-12194677D02*
X17906082Y-12364857D01*
X17820992Y-12279767D02*
X17991172Y-12279767D01*
X18700000Y-9664910D02*
X18700000Y-9835090D01*
X18614910Y-9750000D02*
X18785090Y-9750000D01*
X18777562Y-12708123D02*
X18777562Y-12878303D01*
X18692472Y-12793213D02*
X18862652Y-12793213D01*
X19620211Y-13415189D02*
X19620211Y-13585369D01*
X19535121Y-13500279D02*
X19705301Y-13500279D01*
D15*
X6956067Y-8331067D02*
X6956067Y-8118933D01*
X6743933Y-8118933D01*
X6743933Y-8331067D01*
X6956067Y-8331067D01*
X6956067Y-10031067D02*
X6956067Y-9818933D01*
X6743933Y-9818933D01*
X6743933Y-10031067D01*
X6956067Y-10031067D01*
X6956067Y-11731067D02*
X6956067Y-11518933D01*
X6743933Y-11518933D01*
X6743933Y-11731067D01*
X6956067Y-11731067D01*
X7456067Y-8551067D02*
X7456067Y-8338933D01*
X7243933Y-8338933D01*
X7243933Y-8551067D01*
X7456067Y-8551067D01*
X7456067Y-10251067D02*
X7456067Y-10038933D01*
X7243933Y-10038933D01*
X7243933Y-10251067D01*
X7456067Y-10251067D01*
X7456067Y-11951067D02*
X7456067Y-11738933D01*
X7243933Y-11738933D01*
X7243933Y-11951067D01*
X7456067Y-11951067D01*
X7956067Y-8331067D02*
X7956067Y-8118933D01*
X7743933Y-8118933D01*
X7743933Y-8331067D01*
X7956067Y-8331067D01*
X7956067Y-10031067D02*
X7956067Y-9818933D01*
X7743933Y-9818933D01*
X7743933Y-10031067D01*
X7956067Y-10031067D01*
X7956067Y-11731067D02*
X7956067Y-11518933D01*
X7743933Y-11518933D01*
X7743933Y-11731067D01*
X7956067Y-11731067D01*
X8756067Y-7831067D02*
X8756067Y-7618933D01*
X8543933Y-7618933D01*
X8543933Y-7831067D01*
X8756067Y-7831067D01*
X8756067Y-9531067D02*
X8756067Y-9318933D01*
X8543933Y-9318933D01*
X8543933Y-9531067D01*
X8756067Y-9531067D01*
X8756067Y-11231067D02*
X8756067Y-11018933D01*
X8543933Y-11018933D01*
X8543933Y-11231067D01*
X8756067Y-11231067D01*
X9256067Y-8051067D02*
X9256067Y-7838933D01*
X9043933Y-7838933D01*
X9043933Y-8051067D01*
X9256067Y-8051067D01*
X9256067Y-9751067D02*
X9256067Y-9538933D01*
X9043933Y-9538933D01*
X9043933Y-9751067D01*
X9256067Y-9751067D01*
X9256067Y-11451067D02*
X9256067Y-11238933D01*
X9043933Y-11238933D01*
X9043933Y-11451067D01*
X9256067Y-11451067D01*
X9756067Y-7831067D02*
X9756067Y-7618933D01*
X9543933Y-7618933D01*
X9543933Y-7831067D01*
X9756067Y-7831067D01*
X9756067Y-9531067D02*
X9756067Y-9318933D01*
X9543933Y-9318933D01*
X9543933Y-9531067D01*
X9756067Y-9531067D01*
X9756067Y-11231067D02*
X9756067Y-11018933D01*
X9543933Y-11018933D01*
X9543933Y-11231067D01*
X9756067Y-11231067D01*
X10556067Y-6431067D02*
X10556067Y-6218933D01*
X10343933Y-6218933D01*
X10343933Y-6431067D01*
X10556067Y-6431067D01*
X10556067Y-8131067D02*
X10556067Y-7918933D01*
X10343933Y-7918933D01*
X10343933Y-8131067D01*
X10556067Y-8131067D01*
X10556067Y-9831067D02*
X10556067Y-9618933D01*
X10343933Y-9618933D01*
X10343933Y-9831067D01*
X10556067Y-9831067D01*
X10556067Y-11531067D02*
X10556067Y-11318933D01*
X10343933Y-11318933D01*
X10343933Y-11531067D01*
X10556067Y-11531067D01*
X11056067Y-6651067D02*
X11056067Y-6438933D01*
X10843933Y-6438933D01*
X10843933Y-6651067D01*
X11056067Y-6651067D01*
X11056067Y-8351067D02*
X11056067Y-8138933D01*
X10843933Y-8138933D01*
X10843933Y-8351067D01*
X11056067Y-8351067D01*
X11056067Y-10051067D02*
X11056067Y-9838933D01*
X10843933Y-9838933D01*
X10843933Y-10051067D01*
X11056067Y-10051067D01*
X11056067Y-11751067D02*
X11056067Y-11538933D01*
X10843933Y-11538933D01*
X10843933Y-11751067D01*
X11056067Y-11751067D01*
X11556067Y-6431067D02*
X11556067Y-6218933D01*
X11343933Y-6218933D01*
X11343933Y-6431067D01*
X11556067Y-6431067D01*
X11556067Y-8131067D02*
X11556067Y-7918933D01*
X11343933Y-7918933D01*
X11343933Y-8131067D01*
X11556067Y-8131067D01*
X11556067Y-9831067D02*
X11556067Y-9618933D01*
X11343933Y-9618933D01*
X11343933Y-9831067D01*
X11556067Y-9831067D01*
X11556067Y-11531067D02*
X11556067Y-11318933D01*
X11343933Y-11318933D01*
X11343933Y-11531067D01*
X11556067Y-11531067D01*
X12356067Y-5836067D02*
X12356067Y-5623933D01*
X12143933Y-5623933D01*
X12143933Y-5836067D01*
X12356067Y-5836067D01*
X12356067Y-7536067D02*
X12356067Y-7323933D01*
X12143933Y-7323933D01*
X12143933Y-7536067D01*
X12356067Y-7536067D01*
X12356067Y-9236067D02*
X12356067Y-9023933D01*
X12143933Y-9023933D01*
X12143933Y-9236067D01*
X12356067Y-9236067D01*
X12356067Y-10931067D02*
X12356067Y-10718933D01*
X12143933Y-10718933D01*
X12143933Y-10931067D01*
X12356067Y-10931067D01*
X12856067Y-6056067D02*
X12856067Y-5843933D01*
X12643933Y-5843933D01*
X12643933Y-6056067D01*
X12856067Y-6056067D01*
X12856067Y-7756067D02*
X12856067Y-7543933D01*
X12643933Y-7543933D01*
X12643933Y-7756067D01*
X12856067Y-7756067D01*
X12856067Y-9456067D02*
X12856067Y-9243933D01*
X12643933Y-9243933D01*
X12643933Y-9456067D01*
X12856067Y-9456067D01*
X12856067Y-11151067D02*
X12856067Y-10938933D01*
X12643933Y-10938933D01*
X12643933Y-11151067D01*
X12856067Y-11151067D01*
X13356067Y-5836067D02*
X13356067Y-5623933D01*
X13143933Y-5623933D01*
X13143933Y-5836067D01*
X13356067Y-5836067D01*
X13356067Y-7536067D02*
X13356067Y-7323933D01*
X13143933Y-7323933D01*
X13143933Y-7536067D01*
X13356067Y-7536067D01*
X13356067Y-9236067D02*
X13356067Y-9023933D01*
X13143933Y-9023933D01*
X13143933Y-9236067D01*
X13356067Y-9236067D01*
X13356067Y-10931067D02*
X13356067Y-10718933D01*
X13143933Y-10718933D01*
X13143933Y-10931067D01*
X13356067Y-10931067D01*
X14156067Y-6631067D02*
X14156067Y-6418933D01*
X13943933Y-6418933D01*
X13943933Y-6631067D01*
X14156067Y-6631067D01*
X14156067Y-8331067D02*
X14156067Y-8118933D01*
X13943933Y-8118933D01*
X13943933Y-8331067D01*
X14156067Y-8331067D01*
X14156067Y-10031067D02*
X14156067Y-9818933D01*
X13943933Y-9818933D01*
X13943933Y-10031067D01*
X14156067Y-10031067D01*
X14656067Y-6851067D02*
X14656067Y-6638933D01*
X14443933Y-6638933D01*
X14443933Y-6851067D01*
X14656067Y-6851067D01*
X14656067Y-8551067D02*
X14656067Y-8338933D01*
X14443933Y-8338933D01*
X14443933Y-8551067D01*
X14656067Y-8551067D01*
X14656067Y-10251067D02*
X14656067Y-10038933D01*
X14443933Y-10038933D01*
X14443933Y-10251067D01*
X14656067Y-10251067D01*
X15039026Y-11918916D02*
X15039026Y-11706782D01*
X14826892Y-11706782D01*
X14826892Y-11918916D01*
X15039026Y-11918916D01*
X15156067Y-6631067D02*
X15156067Y-6418933D01*
X14943933Y-6418933D01*
X14943933Y-6631067D01*
X15156067Y-6631067D01*
X15156067Y-8331067D02*
X15156067Y-8118933D01*
X14943933Y-8118933D01*
X14943933Y-8331067D01*
X15156067Y-8331067D01*
X15156067Y-10031067D02*
X15156067Y-9818933D01*
X14943933Y-9818933D01*
X14943933Y-10031067D01*
X15156067Y-10031067D01*
X15482359Y-12238065D02*
X15482359Y-12025931D01*
X15270225Y-12025931D01*
X15270225Y-12238065D01*
X15482359Y-12238065D01*
X15956067Y-6831067D02*
X15956067Y-6618933D01*
X15743933Y-6618933D01*
X15743933Y-6831067D01*
X15956067Y-6831067D01*
X15956067Y-8531067D02*
X15956067Y-8318933D01*
X15743933Y-8318933D01*
X15743933Y-8531067D01*
X15956067Y-8531067D01*
X15956067Y-10231067D02*
X15956067Y-10018933D01*
X15743933Y-10018933D01*
X15743933Y-10231067D01*
X15956067Y-10231067D01*
X16017174Y-12126828D02*
X16017174Y-11914694D01*
X15805040Y-11914694D01*
X15805040Y-12126828D01*
X16017174Y-12126828D01*
X16456067Y-7051067D02*
X16456067Y-6838933D01*
X16243933Y-6838933D01*
X16243933Y-7051067D01*
X16456067Y-7051067D01*
X16456067Y-8751067D02*
X16456067Y-8538933D01*
X16243933Y-8538933D01*
X16243933Y-8751067D01*
X16456067Y-8751067D01*
X16456067Y-10451067D02*
X16456067Y-10238933D01*
X16243933Y-10238933D01*
X16243933Y-10451067D01*
X16456067Y-10451067D01*
X16897214Y-12379097D02*
X16897214Y-12166963D01*
X16685080Y-12166963D01*
X16685080Y-12379097D01*
X16897214Y-12379097D01*
X16956067Y-6831067D02*
X16956067Y-6618933D01*
X16743933Y-6618933D01*
X16743933Y-6831067D01*
X16956067Y-6831067D01*
X16956067Y-8531067D02*
X16956067Y-8318933D01*
X16743933Y-8318933D01*
X16743933Y-8531067D01*
X16956067Y-8531067D01*
X16956067Y-10231067D02*
X16956067Y-10018933D01*
X16743933Y-10018933D01*
X16743933Y-10231067D01*
X16956067Y-10231067D01*
X17291816Y-12756840D02*
X17291816Y-12544706D01*
X17079682Y-12544706D01*
X17079682Y-12756840D01*
X17291816Y-12756840D01*
X17756067Y-10231067D02*
X17756067Y-10018933D01*
X17543933Y-10018933D01*
X17543933Y-10231067D01*
X17756067Y-10231067D01*
X17836906Y-12721117D02*
X17836906Y-12508983D01*
X17624772Y-12508983D01*
X17624772Y-12721117D01*
X17836906Y-12721117D01*
X18256067Y-10451067D02*
X18256067Y-10238933D01*
X18043933Y-10238933D01*
X18043933Y-10451067D01*
X18256067Y-10451067D01*
X18680886Y-13218686D02*
X18680886Y-13006552D01*
X18468752Y-13006552D01*
X18468752Y-13218686D01*
X18680886Y-13218686D01*
X18756067Y-10231067D02*
X18756067Y-10018933D01*
X18543933Y-10018933D01*
X18543933Y-10231067D01*
X18756067Y-10231067D01*
X18922495Y-13708610D02*
X18922495Y-13496476D01*
X18710361Y-13496476D01*
X18710361Y-13708610D01*
X18922495Y-13708610D01*
X19446930Y-13861474D02*
X19446930Y-13649340D01*
X19234796Y-13649340D01*
X19234796Y-13861474D01*
X19446930Y-13861474D01*
D16*
X7350000Y-8021450D02*
X7521450Y-7850000D01*
X7350000Y-7678550D01*
X7178550Y-7850000D01*
X7350000Y-8021450D01*
X7350000Y-9721450D02*
X7521450Y-9550000D01*
X7350000Y-9378550D01*
X7178550Y-9550000D01*
X7350000Y-9721450D01*
X7350000Y-11421450D02*
X7521450Y-11250000D01*
X7350000Y-11078550D01*
X7178550Y-11250000D01*
X7350000Y-11421450D01*
X9150000Y-7521450D02*
X9321450Y-7350000D01*
X9150000Y-7178550D01*
X8978550Y-7350000D01*
X9150000Y-7521450D01*
X9150000Y-9221450D02*
X9321450Y-9050000D01*
X9150000Y-8878550D01*
X8978550Y-9050000D01*
X9150000Y-9221450D01*
X9150000Y-10921450D02*
X9321450Y-10750000D01*
X9150000Y-10578550D01*
X8978550Y-10750000D01*
X9150000Y-10921450D01*
X10950000Y-6121450D02*
X11121450Y-5950000D01*
X10950000Y-5778550D01*
X10778550Y-5950000D01*
X10950000Y-6121450D01*
X10950000Y-7821450D02*
X11121450Y-7650000D01*
X10950000Y-7478550D01*
X10778550Y-7650000D01*
X10950000Y-7821450D01*
X10950000Y-9521450D02*
X11121450Y-9350000D01*
X10950000Y-9178550D01*
X10778550Y-9350000D01*
X10950000Y-9521450D01*
X10950000Y-11221450D02*
X11121450Y-11050000D01*
X10950000Y-10878550D01*
X10778550Y-11050000D01*
X10950000Y-11221450D01*
X12750000Y-5526450D02*
X12921450Y-5355000D01*
X12750000Y-5183550D01*
X12578550Y-5355000D01*
X12750000Y-5526450D01*
X12750000Y-7226450D02*
X12921450Y-7055000D01*
X12750000Y-6883550D01*
X12578550Y-7055000D01*
X12750000Y-7226450D01*
X12750000Y-8926450D02*
X12921450Y-8755000D01*
X12750000Y-8583550D01*
X12578550Y-8755000D01*
X12750000Y-8926450D01*
X12750000Y-10621450D02*
X12921450Y-10450000D01*
X12750000Y-10278550D01*
X12578550Y-10450000D01*
X12750000Y-10621450D01*
X14550000Y-6321450D02*
X14721450Y-6150000D01*
X14550000Y-5978550D01*
X14378550Y-6150000D01*
X14550000Y-6321450D01*
X14550000Y-8021450D02*
X14721450Y-7850000D01*
X14550000Y-7678550D01*
X14378550Y-7850000D01*
X14550000Y-8021450D01*
X14550000Y-9721450D02*
X14721450Y-9550000D01*
X14550000Y-9378550D01*
X14378550Y-9550000D01*
X14550000Y-9721450D01*
X15500000Y-11721450D02*
X15671450Y-11550000D01*
X15500000Y-11378550D01*
X15328550Y-11550000D01*
X15500000Y-11721450D01*
X16350000Y-6521450D02*
X16521450Y-6350000D01*
X16350000Y-6178550D01*
X16178550Y-6350000D01*
X16350000Y-6521450D01*
X16350000Y-8221450D02*
X16521450Y-8050000D01*
X16350000Y-7878550D01*
X16178550Y-8050000D01*
X16350000Y-8221450D01*
X16350000Y-9921450D02*
X16521450Y-9750000D01*
X16350000Y-9578550D01*
X16178550Y-9750000D01*
X16350000Y-9921450D01*
X17389251Y-12263105D02*
X17560701Y-12091655D01*
X17389251Y-11920205D01*
X17217801Y-12091655D01*
X17389251Y-12263105D01*
X18150000Y-9921450D02*
X18321450Y-9750000D01*
X18150000Y-9578550D01*
X17978550Y-9750000D01*
X18150000Y-9921450D01*
X19198887Y-13318196D02*
X19370337Y-13146746D01*
X19198887Y-12975296D01*
X19027437Y-13146746D01*
X19198887Y-13318196D01*
D11*
X6502619Y-14885647D02*
X6502619Y-14685647D01*
X6550238Y-14685647D01*
X6578809Y-14695171D01*
X6597857Y-14714218D01*
X6607381Y-14733266D01*
X6616905Y-14771361D01*
X6616905Y-14799932D01*
X6607381Y-14838028D01*
X6597857Y-14857075D01*
X6578809Y-14876123D01*
X6550238Y-14885647D01*
X6502619Y-14885647D01*
X6702619Y-14885647D02*
X6702619Y-14752313D01*
X6702619Y-14790409D02*
X6712143Y-14771361D01*
X6721667Y-14761837D01*
X6740714Y-14752313D01*
X6759762Y-14752313D01*
X6826428Y-14885647D02*
X6826428Y-14752313D01*
X6826428Y-14685647D02*
X6816905Y-14695171D01*
X6826428Y-14704694D01*
X6835952Y-14695171D01*
X6826428Y-14685647D01*
X6826428Y-14704694D01*
X6950238Y-14885647D02*
X6931190Y-14876123D01*
X6921667Y-14857075D01*
X6921667Y-14685647D01*
X7055000Y-14885647D02*
X7035952Y-14876123D01*
X7026428Y-14857075D01*
X7026428Y-14685647D01*
X7283571Y-14885647D02*
X7283571Y-14685647D01*
X7350238Y-14828504D01*
X7416905Y-14685647D01*
X7416905Y-14885647D01*
X7597857Y-14885647D02*
X7597857Y-14780885D01*
X7588333Y-14761837D01*
X7569286Y-14752313D01*
X7531190Y-14752313D01*
X7512143Y-14761837D01*
X7597857Y-14876123D02*
X7578809Y-14885647D01*
X7531190Y-14885647D01*
X7512143Y-14876123D01*
X7502619Y-14857075D01*
X7502619Y-14838028D01*
X7512143Y-14818980D01*
X7531190Y-14809456D01*
X7578809Y-14809456D01*
X7597857Y-14799932D01*
X7693095Y-14752313D02*
X7693095Y-14952313D01*
X7693095Y-14761837D02*
X7712143Y-14752313D01*
X7750238Y-14752313D01*
X7769286Y-14761837D01*
X7778809Y-14771361D01*
X7788333Y-14790409D01*
X7788333Y-14847551D01*
X7778809Y-14866599D01*
X7769286Y-14876123D01*
X7750238Y-14885647D01*
X7712143Y-14885647D01*
X7693095Y-14876123D01*
X7874048Y-14866599D02*
X7883571Y-14876123D01*
X7874048Y-14885647D01*
X7864524Y-14876123D01*
X7874048Y-14866599D01*
X7874048Y-14885647D01*
X7874048Y-14761837D02*
X7883571Y-14771361D01*
X7874048Y-14780885D01*
X7864524Y-14771361D01*
X7874048Y-14761837D01*
X7874048Y-14780885D01*
D12*
X6145940Y-15165641D02*
X6245000Y-15264701D01*
X6245000Y-15165641D02*
X6145940Y-15264701D01*
D11*
X6540714Y-15105647D02*
X6559762Y-15105647D01*
X6578809Y-15115171D01*
X6588333Y-15124694D01*
X6597857Y-15143742D01*
X6607381Y-15181837D01*
X6607381Y-15229456D01*
X6597857Y-15267551D01*
X6588333Y-15286599D01*
X6578809Y-15296123D01*
X6559762Y-15305647D01*
X6540714Y-15305647D01*
X6521667Y-15296123D01*
X6512143Y-15286599D01*
X6502619Y-15267551D01*
X6493095Y-15229456D01*
X6493095Y-15181837D01*
X6502619Y-15143742D01*
X6512143Y-15124694D01*
X6521667Y-15115171D01*
X6540714Y-15105647D01*
X6693095Y-15286599D02*
X6702619Y-15296123D01*
X6693095Y-15305647D01*
X6683571Y-15296123D01*
X6693095Y-15286599D01*
X6693095Y-15305647D01*
X6797857Y-15305647D02*
X6835952Y-15305647D01*
X6855000Y-15296123D01*
X6864524Y-15286599D01*
X6883571Y-15258028D01*
X6893095Y-15219932D01*
X6893095Y-15143742D01*
X6883571Y-15124694D01*
X6874048Y-15115171D01*
X6855000Y-15105647D01*
X6816905Y-15105647D01*
X6797857Y-15115171D01*
X6788333Y-15124694D01*
X6778809Y-15143742D01*
X6778809Y-15191361D01*
X6788333Y-15210409D01*
X6797857Y-15219932D01*
X6816905Y-15229456D01*
X6855000Y-15229456D01*
X6874048Y-15219932D01*
X6883571Y-15210409D01*
X6893095Y-15191361D01*
X6988333Y-15305647D02*
X7026428Y-15305647D01*
X7045476Y-15296123D01*
X7055000Y-15286599D01*
X7074048Y-15258028D01*
X7083571Y-15219932D01*
X7083571Y-15143742D01*
X7074048Y-15124694D01*
X7064524Y-15115171D01*
X7045476Y-15105647D01*
X7007381Y-15105647D01*
X6988333Y-15115171D01*
X6978809Y-15124694D01*
X6969286Y-15143742D01*
X6969286Y-15191361D01*
X6978809Y-15210409D01*
X6988333Y-15219932D01*
X7007381Y-15229456D01*
X7045476Y-15229456D01*
X7064524Y-15219932D01*
X7074048Y-15210409D01*
X7083571Y-15191361D01*
X7274048Y-15305647D02*
X7159762Y-15305647D01*
X7216905Y-15305647D02*
X7216905Y-15105647D01*
X7197857Y-15134218D01*
X7178809Y-15153266D01*
X7159762Y-15162790D01*
X7359762Y-15305647D02*
X7359762Y-15172313D01*
X7359762Y-15191361D02*
X7369286Y-15181837D01*
X7388333Y-15172313D01*
X7416905Y-15172313D01*
X7435952Y-15181837D01*
X7445476Y-15200885D01*
X7445476Y-15305647D01*
X7445476Y-15200885D02*
X7455000Y-15181837D01*
X7474048Y-15172313D01*
X7502619Y-15172313D01*
X7521667Y-15181837D01*
X7531190Y-15200885D01*
X7531190Y-15305647D01*
X7626428Y-15305647D02*
X7626428Y-15172313D01*
X7626428Y-15191361D02*
X7635952Y-15181837D01*
X7655000Y-15172313D01*
X7683571Y-15172313D01*
X7702619Y-15181837D01*
X7712143Y-15200885D01*
X7712143Y-15305647D01*
X7712143Y-15200885D02*
X7721667Y-15181837D01*
X7740714Y-15172313D01*
X7769286Y-15172313D01*
X7788333Y-15181837D01*
X7797857Y-15200885D01*
X7797857Y-15305647D01*
X8188333Y-15096123D02*
X8016905Y-15353266D01*
X8445476Y-15105647D02*
X8464524Y-15105647D01*
X8483571Y-15115171D01*
X8493095Y-15124694D01*
X8502619Y-15143742D01*
X8512143Y-15181837D01*
X8512143Y-15229456D01*
X8502619Y-15267551D01*
X8493095Y-15286599D01*
X8483571Y-15296123D01*
X8464524Y-15305647D01*
X8445476Y-15305647D01*
X8426429Y-15296123D01*
X8416905Y-15286599D01*
X8407381Y-15267551D01*
X8397857Y-15229456D01*
X8397857Y-15181837D01*
X8407381Y-15143742D01*
X8416905Y-15124694D01*
X8426429Y-15115171D01*
X8445476Y-15105647D01*
X8597857Y-15286599D02*
X8607381Y-15296123D01*
X8597857Y-15305647D01*
X8588333Y-15296123D01*
X8597857Y-15286599D01*
X8597857Y-15305647D01*
X8731190Y-15105647D02*
X8750238Y-15105647D01*
X8769286Y-15115171D01*
X8778810Y-15124694D01*
X8788333Y-15143742D01*
X8797857Y-15181837D01*
X8797857Y-15229456D01*
X8788333Y-15267551D01*
X8778810Y-15286599D01*
X8769286Y-15296123D01*
X8750238Y-15305647D01*
X8731190Y-15305647D01*
X8712143Y-15296123D01*
X8702619Y-15286599D01*
X8693095Y-15267551D01*
X8683571Y-15229456D01*
X8683571Y-15181837D01*
X8693095Y-15143742D01*
X8702619Y-15124694D01*
X8712143Y-15115171D01*
X8731190Y-15105647D01*
X8864524Y-15105647D02*
X8988333Y-15105647D01*
X8921667Y-15181837D01*
X8950238Y-15181837D01*
X8969286Y-15191361D01*
X8978810Y-15200885D01*
X8988333Y-15219932D01*
X8988333Y-15267551D01*
X8978810Y-15286599D01*
X8969286Y-15296123D01*
X8950238Y-15305647D01*
X8893095Y-15305647D01*
X8874048Y-15296123D01*
X8864524Y-15286599D01*
X9083571Y-15305647D02*
X9121667Y-15305647D01*
X9140714Y-15296123D01*
X9150238Y-15286599D01*
X9169286Y-15258028D01*
X9178810Y-15219932D01*
X9178810Y-15143742D01*
X9169286Y-15124694D01*
X9159762Y-15115171D01*
X9140714Y-15105647D01*
X9102619Y-15105647D01*
X9083571Y-15115171D01*
X9074048Y-15124694D01*
X9064524Y-15143742D01*
X9064524Y-15191361D01*
X9074048Y-15210409D01*
X9083571Y-15219932D01*
X9102619Y-15229456D01*
X9140714Y-15229456D01*
X9159762Y-15219932D01*
X9169286Y-15210409D01*
X9178810Y-15191361D01*
X9302619Y-15105647D02*
X9321667Y-15105647D01*
X9340714Y-15115171D01*
X9350238Y-15124694D01*
X9359762Y-15143742D01*
X9369286Y-15181837D01*
X9369286Y-15229456D01*
X9359762Y-15267551D01*
X9350238Y-15286599D01*
X9340714Y-15296123D01*
X9321667Y-15305647D01*
X9302619Y-15305647D01*
X9283571Y-15296123D01*
X9274048Y-15286599D01*
X9264524Y-15267551D01*
X9255000Y-15229456D01*
X9255000Y-15181837D01*
X9264524Y-15143742D01*
X9274048Y-15124694D01*
X9283571Y-15115171D01*
X9302619Y-15105647D01*
X9445476Y-15105647D02*
X9445476Y-15143742D01*
X9521667Y-15105647D02*
X9521667Y-15143742D01*
X9816905Y-15381837D02*
X9807381Y-15372313D01*
X9788333Y-15343742D01*
X9778810Y-15324694D01*
X9769286Y-15296123D01*
X9759762Y-15248504D01*
X9759762Y-15210409D01*
X9769286Y-15162790D01*
X9778810Y-15134218D01*
X9788333Y-15115171D01*
X9807381Y-15086599D01*
X9816905Y-15077075D01*
X9978810Y-15172313D02*
X9978810Y-15305647D01*
X9931190Y-15096123D02*
X9883571Y-15238980D01*
X10007381Y-15238980D01*
X10112143Y-15191361D02*
X10093095Y-15181837D01*
X10083571Y-15172313D01*
X10074048Y-15153266D01*
X10074048Y-15143742D01*
X10083571Y-15124694D01*
X10093095Y-15115171D01*
X10112143Y-15105647D01*
X10150238Y-15105647D01*
X10169286Y-15115171D01*
X10178810Y-15124694D01*
X10188333Y-15143742D01*
X10188333Y-15153266D01*
X10178810Y-15172313D01*
X10169286Y-15181837D01*
X10150238Y-15191361D01*
X10112143Y-15191361D01*
X10093095Y-15200885D01*
X10083571Y-15210409D01*
X10074048Y-15229456D01*
X10074048Y-15267551D01*
X10083571Y-15286599D01*
X10093095Y-15296123D01*
X10112143Y-15305647D01*
X10150238Y-15305647D01*
X10169286Y-15296123D01*
X10178810Y-15286599D01*
X10188333Y-15267551D01*
X10188333Y-15229456D01*
X10178810Y-15210409D01*
X10169286Y-15200885D01*
X10150238Y-15191361D01*
X10426429Y-15305647D02*
X10426429Y-15105647D01*
X10512143Y-15305647D02*
X10512143Y-15200885D01*
X10502619Y-15181837D01*
X10483571Y-15172313D01*
X10455000Y-15172313D01*
X10435952Y-15181837D01*
X10426429Y-15191361D01*
X10635952Y-15305647D02*
X10616905Y-15296123D01*
X10607381Y-15286599D01*
X10597857Y-15267551D01*
X10597857Y-15210409D01*
X10607381Y-15191361D01*
X10616905Y-15181837D01*
X10635952Y-15172313D01*
X10664524Y-15172313D01*
X10683571Y-15181837D01*
X10693095Y-15191361D01*
X10702619Y-15210409D01*
X10702619Y-15267551D01*
X10693095Y-15286599D01*
X10683571Y-15296123D01*
X10664524Y-15305647D01*
X10635952Y-15305647D01*
X10816905Y-15305647D02*
X10797857Y-15296123D01*
X10788333Y-15277075D01*
X10788333Y-15105647D01*
X10969286Y-15296123D02*
X10950238Y-15305647D01*
X10912143Y-15305647D01*
X10893095Y-15296123D01*
X10883571Y-15277075D01*
X10883571Y-15200885D01*
X10893095Y-15181837D01*
X10912143Y-15172313D01*
X10950238Y-15172313D01*
X10969286Y-15181837D01*
X10978810Y-15200885D01*
X10978810Y-15219932D01*
X10883571Y-15238980D01*
X11055000Y-15296123D02*
X11074048Y-15305647D01*
X11112143Y-15305647D01*
X11131190Y-15296123D01*
X11140714Y-15277075D01*
X11140714Y-15267551D01*
X11131190Y-15248504D01*
X11112143Y-15238980D01*
X11083571Y-15238980D01*
X11064524Y-15229456D01*
X11055000Y-15210409D01*
X11055000Y-15200885D01*
X11064524Y-15181837D01*
X11083571Y-15172313D01*
X11112143Y-15172313D01*
X11131190Y-15181837D01*
X11207381Y-15381837D02*
X11216905Y-15372313D01*
X11235952Y-15343742D01*
X11245476Y-15324694D01*
X11255000Y-15296123D01*
X11264524Y-15248504D01*
X11264524Y-15210409D01*
X11255000Y-15162790D01*
X11245476Y-15134218D01*
X11235952Y-15115171D01*
X11216905Y-15086599D01*
X11207381Y-15077075D01*
X11569286Y-15381837D02*
X11559762Y-15372313D01*
X11540714Y-15343742D01*
X11531190Y-15324694D01*
X11521667Y-15296123D01*
X11512143Y-15248504D01*
X11512143Y-15210409D01*
X11521667Y-15162790D01*
X11531190Y-15134218D01*
X11540714Y-15115171D01*
X11559762Y-15086599D01*
X11569286Y-15077075D01*
X11645476Y-15172313D02*
X11645476Y-15305647D01*
X11645476Y-15191361D02*
X11655000Y-15181837D01*
X11674048Y-15172313D01*
X11702619Y-15172313D01*
X11721667Y-15181837D01*
X11731190Y-15200885D01*
X11731190Y-15305647D01*
X11855000Y-15305647D02*
X11835952Y-15296123D01*
X11826428Y-15286599D01*
X11816905Y-15267551D01*
X11816905Y-15210409D01*
X11826428Y-15191361D01*
X11835952Y-15181837D01*
X11855000Y-15172313D01*
X11883571Y-15172313D01*
X11902619Y-15181837D01*
X11912143Y-15191361D01*
X11921667Y-15210409D01*
X11921667Y-15267551D01*
X11912143Y-15286599D01*
X11902619Y-15296123D01*
X11883571Y-15305647D01*
X11855000Y-15305647D01*
X11978809Y-15172313D02*
X12055000Y-15172313D01*
X12007381Y-15105647D02*
X12007381Y-15277075D01*
X12016905Y-15296123D01*
X12035952Y-15305647D01*
X12055000Y-15305647D01*
X12274048Y-15172313D02*
X12274048Y-15372313D01*
X12274048Y-15181837D02*
X12293095Y-15172313D01*
X12331190Y-15172313D01*
X12350238Y-15181837D01*
X12359762Y-15191361D01*
X12369286Y-15210409D01*
X12369286Y-15267551D01*
X12359762Y-15286599D01*
X12350238Y-15296123D01*
X12331190Y-15305647D01*
X12293095Y-15305647D01*
X12274048Y-15296123D01*
X12483571Y-15305647D02*
X12464524Y-15296123D01*
X12455000Y-15277075D01*
X12455000Y-15105647D01*
X12645476Y-15305647D02*
X12645476Y-15200885D01*
X12635952Y-15181837D01*
X12616905Y-15172313D01*
X12578809Y-15172313D01*
X12559762Y-15181837D01*
X12645476Y-15296123D02*
X12626428Y-15305647D01*
X12578809Y-15305647D01*
X12559762Y-15296123D01*
X12550238Y-15277075D01*
X12550238Y-15258028D01*
X12559762Y-15238980D01*
X12578809Y-15229456D01*
X12626428Y-15229456D01*
X12645476Y-15219932D01*
X12712143Y-15172313D02*
X12788333Y-15172313D01*
X12740714Y-15105647D02*
X12740714Y-15277075D01*
X12750238Y-15296123D01*
X12769286Y-15305647D01*
X12788333Y-15305647D01*
X12931190Y-15296123D02*
X12912143Y-15305647D01*
X12874048Y-15305647D01*
X12855000Y-15296123D01*
X12845476Y-15277075D01*
X12845476Y-15200885D01*
X12855000Y-15181837D01*
X12874048Y-15172313D01*
X12912143Y-15172313D01*
X12931190Y-15181837D01*
X12940714Y-15200885D01*
X12940714Y-15219932D01*
X12845476Y-15238980D01*
X13112143Y-15305647D02*
X13112143Y-15105647D01*
X13112143Y-15296123D02*
X13093095Y-15305647D01*
X13055000Y-15305647D01*
X13035952Y-15296123D01*
X13026428Y-15286599D01*
X13016905Y-15267551D01*
X13016905Y-15210409D01*
X13026428Y-15191361D01*
X13035952Y-15181837D01*
X13055000Y-15172313D01*
X13093095Y-15172313D01*
X13112143Y-15181837D01*
X13188333Y-15381837D02*
X13197857Y-15372313D01*
X13216905Y-15343742D01*
X13226428Y-15324694D01*
X13235952Y-15296123D01*
X13245476Y-15248504D01*
X13245476Y-15210409D01*
X13235952Y-15162790D01*
X13226428Y-15134218D01*
X13216905Y-15115171D01*
X13197857Y-15086599D01*
X13188333Y-15077075D01*
D13*
X6245000Y-15479171D02*
G75*
G03*
X6245000Y-15479171I-60000J0D01*
G01*
D11*
X6607381Y-15569647D02*
X6493095Y-15569647D01*
X6550238Y-15569647D02*
X6550238Y-15369647D01*
X6531190Y-15398218D01*
X6512143Y-15417266D01*
X6493095Y-15426790D01*
X6693095Y-15550599D02*
X6702619Y-15560123D01*
X6693095Y-15569647D01*
X6683571Y-15560123D01*
X6693095Y-15550599D01*
X6693095Y-15569647D01*
X6778809Y-15388694D02*
X6788333Y-15379171D01*
X6807381Y-15369647D01*
X6855000Y-15369647D01*
X6874048Y-15379171D01*
X6883571Y-15388694D01*
X6893095Y-15407742D01*
X6893095Y-15426790D01*
X6883571Y-15455361D01*
X6769286Y-15569647D01*
X6893095Y-15569647D01*
X7016905Y-15369647D02*
X7035952Y-15369647D01*
X7055000Y-15379171D01*
X7064524Y-15388694D01*
X7074048Y-15407742D01*
X7083571Y-15445837D01*
X7083571Y-15493456D01*
X7074048Y-15531551D01*
X7064524Y-15550599D01*
X7055000Y-15560123D01*
X7035952Y-15569647D01*
X7016905Y-15569647D01*
X6997857Y-15560123D01*
X6988333Y-15550599D01*
X6978809Y-15531551D01*
X6969286Y-15493456D01*
X6969286Y-15445837D01*
X6978809Y-15407742D01*
X6988333Y-15388694D01*
X6997857Y-15379171D01*
X7016905Y-15369647D01*
X7207381Y-15369647D02*
X7226428Y-15369647D01*
X7245476Y-15379171D01*
X7255000Y-15388694D01*
X7264524Y-15407742D01*
X7274048Y-15445837D01*
X7274048Y-15493456D01*
X7264524Y-15531551D01*
X7255000Y-15550599D01*
X7245476Y-15560123D01*
X7226428Y-15569647D01*
X7207381Y-15569647D01*
X7188333Y-15560123D01*
X7178809Y-15550599D01*
X7169286Y-15531551D01*
X7159762Y-15493456D01*
X7159762Y-15445837D01*
X7169286Y-15407742D01*
X7178809Y-15388694D01*
X7188333Y-15379171D01*
X7207381Y-15369647D01*
X7359762Y-15569647D02*
X7359762Y-15436313D01*
X7359762Y-15455361D02*
X7369286Y-15445837D01*
X7388333Y-15436313D01*
X7416905Y-15436313D01*
X7435952Y-15445837D01*
X7445476Y-15464885D01*
X7445476Y-15569647D01*
X7445476Y-15464885D02*
X7455000Y-15445837D01*
X7474048Y-15436313D01*
X7502619Y-15436313D01*
X7521667Y-15445837D01*
X7531190Y-15464885D01*
X7531190Y-15569647D01*
X7626428Y-15569647D02*
X7626428Y-15436313D01*
X7626428Y-15455361D02*
X7635952Y-15445837D01*
X7655000Y-15436313D01*
X7683571Y-15436313D01*
X7702619Y-15445837D01*
X7712143Y-15464885D01*
X7712143Y-15569647D01*
X7712143Y-15464885D02*
X7721667Y-15445837D01*
X7740714Y-15436313D01*
X7769286Y-15436313D01*
X7788333Y-15445837D01*
X7797857Y-15464885D01*
X7797857Y-15569647D01*
X8188333Y-15360123D02*
X8016905Y-15617266D01*
X8445476Y-15369647D02*
X8464524Y-15369647D01*
X8483571Y-15379171D01*
X8493095Y-15388694D01*
X8502619Y-15407742D01*
X8512143Y-15445837D01*
X8512143Y-15493456D01*
X8502619Y-15531551D01*
X8493095Y-15550599D01*
X8483571Y-15560123D01*
X8464524Y-15569647D01*
X8445476Y-15569647D01*
X8426429Y-15560123D01*
X8416905Y-15550599D01*
X8407381Y-15531551D01*
X8397857Y-15493456D01*
X8397857Y-15445837D01*
X8407381Y-15407742D01*
X8416905Y-15388694D01*
X8426429Y-15379171D01*
X8445476Y-15369647D01*
X8597857Y-15550599D02*
X8607381Y-15560123D01*
X8597857Y-15569647D01*
X8588333Y-15560123D01*
X8597857Y-15550599D01*
X8597857Y-15569647D01*
X8731190Y-15369647D02*
X8750238Y-15369647D01*
X8769286Y-15379171D01*
X8778810Y-15388694D01*
X8788333Y-15407742D01*
X8797857Y-15445837D01*
X8797857Y-15493456D01*
X8788333Y-15531551D01*
X8778810Y-15550599D01*
X8769286Y-15560123D01*
X8750238Y-15569647D01*
X8731190Y-15569647D01*
X8712143Y-15560123D01*
X8702619Y-15550599D01*
X8693095Y-15531551D01*
X8683571Y-15493456D01*
X8683571Y-15445837D01*
X8693095Y-15407742D01*
X8702619Y-15388694D01*
X8712143Y-15379171D01*
X8731190Y-15369647D01*
X8969286Y-15436313D02*
X8969286Y-15569647D01*
X8921667Y-15360123D02*
X8874048Y-15502980D01*
X8997857Y-15502980D01*
X9055000Y-15369647D02*
X9188333Y-15369647D01*
X9102619Y-15569647D01*
X9255000Y-15388694D02*
X9264524Y-15379171D01*
X9283571Y-15369647D01*
X9331190Y-15369647D01*
X9350238Y-15379171D01*
X9359762Y-15388694D01*
X9369286Y-15407742D01*
X9369286Y-15426790D01*
X9359762Y-15455361D01*
X9245476Y-15569647D01*
X9369286Y-15569647D01*
X9445476Y-15369647D02*
X9445476Y-15407742D01*
X9521667Y-15369647D02*
X9521667Y-15407742D01*
X9816905Y-15645837D02*
X9807381Y-15636313D01*
X9788333Y-15607742D01*
X9778810Y-15588694D01*
X9769286Y-15560123D01*
X9759762Y-15512504D01*
X9759762Y-15474409D01*
X9769286Y-15426790D01*
X9778810Y-15398218D01*
X9788333Y-15379171D01*
X9807381Y-15350599D01*
X9816905Y-15341075D01*
X9883571Y-15388694D02*
X9893095Y-15379171D01*
X9912143Y-15369647D01*
X9959762Y-15369647D01*
X9978810Y-15379171D01*
X9988333Y-15388694D01*
X9997857Y-15407742D01*
X9997857Y-15426790D01*
X9988333Y-15455361D01*
X9874048Y-15569647D01*
X9997857Y-15569647D01*
X10235952Y-15569647D02*
X10235952Y-15369647D01*
X10321667Y-15569647D02*
X10321667Y-15464885D01*
X10312143Y-15445837D01*
X10293095Y-15436313D01*
X10264524Y-15436313D01*
X10245476Y-15445837D01*
X10235952Y-15455361D01*
X10445476Y-15569647D02*
X10426429Y-15560123D01*
X10416905Y-15550599D01*
X10407381Y-15531551D01*
X10407381Y-15474409D01*
X10416905Y-15455361D01*
X10426429Y-15445837D01*
X10445476Y-15436313D01*
X10474048Y-15436313D01*
X10493095Y-15445837D01*
X10502619Y-15455361D01*
X10512143Y-15474409D01*
X10512143Y-15531551D01*
X10502619Y-15550599D01*
X10493095Y-15560123D01*
X10474048Y-15569647D01*
X10445476Y-15569647D01*
X10626429Y-15569647D02*
X10607381Y-15560123D01*
X10597857Y-15541075D01*
X10597857Y-15369647D01*
X10778810Y-15560123D02*
X10759762Y-15569647D01*
X10721667Y-15569647D01*
X10702619Y-15560123D01*
X10693095Y-15541075D01*
X10693095Y-15464885D01*
X10702619Y-15445837D01*
X10721667Y-15436313D01*
X10759762Y-15436313D01*
X10778810Y-15445837D01*
X10788333Y-15464885D01*
X10788333Y-15483932D01*
X10693095Y-15502980D01*
X10864524Y-15560123D02*
X10883571Y-15569647D01*
X10921667Y-15569647D01*
X10940714Y-15560123D01*
X10950238Y-15541075D01*
X10950238Y-15531551D01*
X10940714Y-15512504D01*
X10921667Y-15502980D01*
X10893095Y-15502980D01*
X10874048Y-15493456D01*
X10864524Y-15474409D01*
X10864524Y-15464885D01*
X10874048Y-15445837D01*
X10893095Y-15436313D01*
X10921667Y-15436313D01*
X10940714Y-15445837D01*
X11016905Y-15645837D02*
X11026429Y-15636313D01*
X11045476Y-15607742D01*
X11055000Y-15588694D01*
X11064524Y-15560123D01*
X11074048Y-15512504D01*
X11074048Y-15474409D01*
X11064524Y-15426790D01*
X11055000Y-15398218D01*
X11045476Y-15379171D01*
X11026429Y-15350599D01*
X11016905Y-15341075D01*
X11378809Y-15645837D02*
X11369286Y-15636313D01*
X11350238Y-15607742D01*
X11340714Y-15588694D01*
X11331190Y-15560123D01*
X11321667Y-15512504D01*
X11321667Y-15474409D01*
X11331190Y-15426790D01*
X11340714Y-15398218D01*
X11350238Y-15379171D01*
X11369286Y-15350599D01*
X11378809Y-15341075D01*
X11455000Y-15436313D02*
X11455000Y-15569647D01*
X11455000Y-15455361D02*
X11464524Y-15445837D01*
X11483571Y-15436313D01*
X11512143Y-15436313D01*
X11531190Y-15445837D01*
X11540714Y-15464885D01*
X11540714Y-15569647D01*
X11664524Y-15569647D02*
X11645476Y-15560123D01*
X11635952Y-15550599D01*
X11626428Y-15531551D01*
X11626428Y-15474409D01*
X11635952Y-15455361D01*
X11645476Y-15445837D01*
X11664524Y-15436313D01*
X11693095Y-15436313D01*
X11712143Y-15445837D01*
X11721667Y-15455361D01*
X11731190Y-15474409D01*
X11731190Y-15531551D01*
X11721667Y-15550599D01*
X11712143Y-15560123D01*
X11693095Y-15569647D01*
X11664524Y-15569647D01*
X11788333Y-15436313D02*
X11864524Y-15436313D01*
X11816905Y-15369647D02*
X11816905Y-15541075D01*
X11826428Y-15560123D01*
X11845476Y-15569647D01*
X11864524Y-15569647D01*
X12083571Y-15436313D02*
X12083571Y-15636313D01*
X12083571Y-15445837D02*
X12102619Y-15436313D01*
X12140714Y-15436313D01*
X12159762Y-15445837D01*
X12169286Y-15455361D01*
X12178809Y-15474409D01*
X12178809Y-15531551D01*
X12169286Y-15550599D01*
X12159762Y-15560123D01*
X12140714Y-15569647D01*
X12102619Y-15569647D01*
X12083571Y-15560123D01*
X12293095Y-15569647D02*
X12274048Y-15560123D01*
X12264524Y-15541075D01*
X12264524Y-15369647D01*
X12455000Y-15569647D02*
X12455000Y-15464885D01*
X12445476Y-15445837D01*
X12426428Y-15436313D01*
X12388333Y-15436313D01*
X12369286Y-15445837D01*
X12455000Y-15560123D02*
X12435952Y-15569647D01*
X12388333Y-15569647D01*
X12369286Y-15560123D01*
X12359762Y-15541075D01*
X12359762Y-15522028D01*
X12369286Y-15502980D01*
X12388333Y-15493456D01*
X12435952Y-15493456D01*
X12455000Y-15483932D01*
X12521667Y-15436313D02*
X12597857Y-15436313D01*
X12550238Y-15369647D02*
X12550238Y-15541075D01*
X12559762Y-15560123D01*
X12578809Y-15569647D01*
X12597857Y-15569647D01*
X12740714Y-15560123D02*
X12721667Y-15569647D01*
X12683571Y-15569647D01*
X12664524Y-15560123D01*
X12655000Y-15541075D01*
X12655000Y-15464885D01*
X12664524Y-15445837D01*
X12683571Y-15436313D01*
X12721667Y-15436313D01*
X12740714Y-15445837D01*
X12750238Y-15464885D01*
X12750238Y-15483932D01*
X12655000Y-15502980D01*
X12921667Y-15569647D02*
X12921667Y-15369647D01*
X12921667Y-15560123D02*
X12902619Y-15569647D01*
X12864524Y-15569647D01*
X12845476Y-15560123D01*
X12835952Y-15550599D01*
X12826428Y-15531551D01*
X12826428Y-15474409D01*
X12835952Y-15455361D01*
X12845476Y-15445837D01*
X12864524Y-15436313D01*
X12902619Y-15436313D01*
X12921667Y-15445837D01*
X12997857Y-15645837D02*
X13007381Y-15636313D01*
X13026428Y-15607742D01*
X13035952Y-15588694D01*
X13045476Y-15560123D01*
X13055000Y-15512504D01*
X13055000Y-15474409D01*
X13045476Y-15426790D01*
X13035952Y-15398218D01*
X13026428Y-15379171D01*
X13007381Y-15350599D01*
X12997857Y-15341075D01*
D14*
X6159910Y-15658081D02*
X6159910Y-15828261D01*
X6074820Y-15743171D02*
X6245000Y-15743171D01*
D11*
X6607381Y-15833647D02*
X6493095Y-15833647D01*
X6550238Y-15833647D02*
X6550238Y-15633647D01*
X6531190Y-15662218D01*
X6512143Y-15681266D01*
X6493095Y-15690790D01*
X6693095Y-15814599D02*
X6702619Y-15824123D01*
X6693095Y-15833647D01*
X6683571Y-15824123D01*
X6693095Y-15814599D01*
X6693095Y-15833647D01*
X6769286Y-15633647D02*
X6902619Y-15633647D01*
X6816905Y-15833647D01*
X7016905Y-15633647D02*
X7035952Y-15633647D01*
X7055000Y-15643171D01*
X7064524Y-15652694D01*
X7074048Y-15671742D01*
X7083571Y-15709837D01*
X7083571Y-15757456D01*
X7074048Y-15795551D01*
X7064524Y-15814599D01*
X7055000Y-15824123D01*
X7035952Y-15833647D01*
X7016905Y-15833647D01*
X6997857Y-15824123D01*
X6988333Y-15814599D01*
X6978809Y-15795551D01*
X6969286Y-15757456D01*
X6969286Y-15709837D01*
X6978809Y-15671742D01*
X6988333Y-15652694D01*
X6997857Y-15643171D01*
X7016905Y-15633647D01*
X7159762Y-15652694D02*
X7169286Y-15643171D01*
X7188333Y-15633647D01*
X7235952Y-15633647D01*
X7255000Y-15643171D01*
X7264524Y-15652694D01*
X7274048Y-15671742D01*
X7274048Y-15690790D01*
X7264524Y-15719361D01*
X7150238Y-15833647D01*
X7274048Y-15833647D01*
X7359762Y-15833647D02*
X7359762Y-15700313D01*
X7359762Y-15719361D02*
X7369286Y-15709837D01*
X7388333Y-15700313D01*
X7416905Y-15700313D01*
X7435952Y-15709837D01*
X7445476Y-15728885D01*
X7445476Y-15833647D01*
X7445476Y-15728885D02*
X7455000Y-15709837D01*
X7474048Y-15700313D01*
X7502619Y-15700313D01*
X7521667Y-15709837D01*
X7531190Y-15728885D01*
X7531190Y-15833647D01*
X7626428Y-15833647D02*
X7626428Y-15700313D01*
X7626428Y-15719361D02*
X7635952Y-15709837D01*
X7655000Y-15700313D01*
X7683571Y-15700313D01*
X7702619Y-15709837D01*
X7712143Y-15728885D01*
X7712143Y-15833647D01*
X7712143Y-15728885D02*
X7721667Y-15709837D01*
X7740714Y-15700313D01*
X7769286Y-15700313D01*
X7788333Y-15709837D01*
X7797857Y-15728885D01*
X7797857Y-15833647D01*
X8188333Y-15624123D02*
X8016905Y-15881266D01*
X8445476Y-15633647D02*
X8464524Y-15633647D01*
X8483571Y-15643171D01*
X8493095Y-15652694D01*
X8502619Y-15671742D01*
X8512143Y-15709837D01*
X8512143Y-15757456D01*
X8502619Y-15795551D01*
X8493095Y-15814599D01*
X8483571Y-15824123D01*
X8464524Y-15833647D01*
X8445476Y-15833647D01*
X8426429Y-15824123D01*
X8416905Y-15814599D01*
X8407381Y-15795551D01*
X8397857Y-15757456D01*
X8397857Y-15709837D01*
X8407381Y-15671742D01*
X8416905Y-15652694D01*
X8426429Y-15643171D01*
X8445476Y-15633647D01*
X8597857Y-15814599D02*
X8607381Y-15824123D01*
X8597857Y-15833647D01*
X8588333Y-15824123D01*
X8597857Y-15814599D01*
X8597857Y-15833647D01*
X8731190Y-15633647D02*
X8750238Y-15633647D01*
X8769286Y-15643171D01*
X8778810Y-15652694D01*
X8788333Y-15671742D01*
X8797857Y-15709837D01*
X8797857Y-15757456D01*
X8788333Y-15795551D01*
X8778810Y-15814599D01*
X8769286Y-15824123D01*
X8750238Y-15833647D01*
X8731190Y-15833647D01*
X8712143Y-15824123D01*
X8702619Y-15814599D01*
X8693095Y-15795551D01*
X8683571Y-15757456D01*
X8683571Y-15709837D01*
X8693095Y-15671742D01*
X8702619Y-15652694D01*
X8712143Y-15643171D01*
X8731190Y-15633647D01*
X8969286Y-15633647D02*
X8931190Y-15633647D01*
X8912143Y-15643171D01*
X8902619Y-15652694D01*
X8883571Y-15681266D01*
X8874048Y-15719361D01*
X8874048Y-15795551D01*
X8883571Y-15814599D01*
X8893095Y-15824123D01*
X8912143Y-15833647D01*
X8950238Y-15833647D01*
X8969286Y-15824123D01*
X8978810Y-15814599D01*
X8988333Y-15795551D01*
X8988333Y-15747932D01*
X8978810Y-15728885D01*
X8969286Y-15719361D01*
X8950238Y-15709837D01*
X8912143Y-15709837D01*
X8893095Y-15719361D01*
X8883571Y-15728885D01*
X8874048Y-15747932D01*
X9055000Y-15633647D02*
X9188333Y-15633647D01*
X9102619Y-15833647D01*
X9302619Y-15633647D02*
X9321667Y-15633647D01*
X9340714Y-15643171D01*
X9350238Y-15652694D01*
X9359762Y-15671742D01*
X9369286Y-15709837D01*
X9369286Y-15757456D01*
X9359762Y-15795551D01*
X9350238Y-15814599D01*
X9340714Y-15824123D01*
X9321667Y-15833647D01*
X9302619Y-15833647D01*
X9283571Y-15824123D01*
X9274048Y-15814599D01*
X9264524Y-15795551D01*
X9255000Y-15757456D01*
X9255000Y-15709837D01*
X9264524Y-15671742D01*
X9274048Y-15652694D01*
X9283571Y-15643171D01*
X9302619Y-15633647D01*
X9445476Y-15633647D02*
X9445476Y-15671742D01*
X9521667Y-15633647D02*
X9521667Y-15671742D01*
X9816905Y-15909837D02*
X9807381Y-15900313D01*
X9788333Y-15871742D01*
X9778810Y-15852694D01*
X9769286Y-15824123D01*
X9759762Y-15776504D01*
X9759762Y-15738409D01*
X9769286Y-15690790D01*
X9778810Y-15662218D01*
X9788333Y-15643171D01*
X9807381Y-15614599D01*
X9816905Y-15605075D01*
X9978810Y-15700313D02*
X9978810Y-15833647D01*
X9931190Y-15624123D02*
X9883571Y-15766980D01*
X10007381Y-15766980D01*
X10112143Y-15719361D02*
X10093095Y-15709837D01*
X10083571Y-15700313D01*
X10074048Y-15681266D01*
X10074048Y-15671742D01*
X10083571Y-15652694D01*
X10093095Y-15643171D01*
X10112143Y-15633647D01*
X10150238Y-15633647D01*
X10169286Y-15643171D01*
X10178810Y-15652694D01*
X10188333Y-15671742D01*
X10188333Y-15681266D01*
X10178810Y-15700313D01*
X10169286Y-15709837D01*
X10150238Y-15719361D01*
X10112143Y-15719361D01*
X10093095Y-15728885D01*
X10083571Y-15738409D01*
X10074048Y-15757456D01*
X10074048Y-15795551D01*
X10083571Y-15814599D01*
X10093095Y-15824123D01*
X10112143Y-15833647D01*
X10150238Y-15833647D01*
X10169286Y-15824123D01*
X10178810Y-15814599D01*
X10188333Y-15795551D01*
X10188333Y-15757456D01*
X10178810Y-15738409D01*
X10169286Y-15728885D01*
X10150238Y-15719361D01*
X10426429Y-15833647D02*
X10426429Y-15633647D01*
X10512143Y-15833647D02*
X10512143Y-15728885D01*
X10502619Y-15709837D01*
X10483571Y-15700313D01*
X10455000Y-15700313D01*
X10435952Y-15709837D01*
X10426429Y-15719361D01*
X10635952Y-15833647D02*
X10616905Y-15824123D01*
X10607381Y-15814599D01*
X10597857Y-15795551D01*
X10597857Y-15738409D01*
X10607381Y-15719361D01*
X10616905Y-15709837D01*
X10635952Y-15700313D01*
X10664524Y-15700313D01*
X10683571Y-15709837D01*
X10693095Y-15719361D01*
X10702619Y-15738409D01*
X10702619Y-15795551D01*
X10693095Y-15814599D01*
X10683571Y-15824123D01*
X10664524Y-15833647D01*
X10635952Y-15833647D01*
X10816905Y-15833647D02*
X10797857Y-15824123D01*
X10788333Y-15805075D01*
X10788333Y-15633647D01*
X10969286Y-15824123D02*
X10950238Y-15833647D01*
X10912143Y-15833647D01*
X10893095Y-15824123D01*
X10883571Y-15805075D01*
X10883571Y-15728885D01*
X10893095Y-15709837D01*
X10912143Y-15700313D01*
X10950238Y-15700313D01*
X10969286Y-15709837D01*
X10978810Y-15728885D01*
X10978810Y-15747932D01*
X10883571Y-15766980D01*
X11055000Y-15824123D02*
X11074048Y-15833647D01*
X11112143Y-15833647D01*
X11131190Y-15824123D01*
X11140714Y-15805075D01*
X11140714Y-15795551D01*
X11131190Y-15776504D01*
X11112143Y-15766980D01*
X11083571Y-15766980D01*
X11064524Y-15757456D01*
X11055000Y-15738409D01*
X11055000Y-15728885D01*
X11064524Y-15709837D01*
X11083571Y-15700313D01*
X11112143Y-15700313D01*
X11131190Y-15709837D01*
X11207381Y-15909837D02*
X11216905Y-15900313D01*
X11235952Y-15871742D01*
X11245476Y-15852694D01*
X11255000Y-15824123D01*
X11264524Y-15776504D01*
X11264524Y-15738409D01*
X11255000Y-15690790D01*
X11245476Y-15662218D01*
X11235952Y-15643171D01*
X11216905Y-15614599D01*
X11207381Y-15605075D01*
X11569286Y-15909837D02*
X11559762Y-15900313D01*
X11540714Y-15871742D01*
X11531190Y-15852694D01*
X11521667Y-15824123D01*
X11512143Y-15776504D01*
X11512143Y-15738409D01*
X11521667Y-15690790D01*
X11531190Y-15662218D01*
X11540714Y-15643171D01*
X11559762Y-15614599D01*
X11569286Y-15605075D01*
X11645476Y-15700313D02*
X11645476Y-15833647D01*
X11645476Y-15719361D02*
X11655000Y-15709837D01*
X11674048Y-15700313D01*
X11702619Y-15700313D01*
X11721667Y-15709837D01*
X11731190Y-15728885D01*
X11731190Y-15833647D01*
X11855000Y-15833647D02*
X11835952Y-15824123D01*
X11826428Y-15814599D01*
X11816905Y-15795551D01*
X11816905Y-15738409D01*
X11826428Y-15719361D01*
X11835952Y-15709837D01*
X11855000Y-15700313D01*
X11883571Y-15700313D01*
X11902619Y-15709837D01*
X11912143Y-15719361D01*
X11921667Y-15738409D01*
X11921667Y-15795551D01*
X11912143Y-15814599D01*
X11902619Y-15824123D01*
X11883571Y-15833647D01*
X11855000Y-15833647D01*
X11978809Y-15700313D02*
X12055000Y-15700313D01*
X12007381Y-15633647D02*
X12007381Y-15805075D01*
X12016905Y-15824123D01*
X12035952Y-15833647D01*
X12055000Y-15833647D01*
X12274048Y-15700313D02*
X12274048Y-15900313D01*
X12274048Y-15709837D02*
X12293095Y-15700313D01*
X12331190Y-15700313D01*
X12350238Y-15709837D01*
X12359762Y-15719361D01*
X12369286Y-15738409D01*
X12369286Y-15795551D01*
X12359762Y-15814599D01*
X12350238Y-15824123D01*
X12331190Y-15833647D01*
X12293095Y-15833647D01*
X12274048Y-15824123D01*
X12483571Y-15833647D02*
X12464524Y-15824123D01*
X12455000Y-15805075D01*
X12455000Y-15633647D01*
X12645476Y-15833647D02*
X12645476Y-15728885D01*
X12635952Y-15709837D01*
X12616905Y-15700313D01*
X12578809Y-15700313D01*
X12559762Y-15709837D01*
X12645476Y-15824123D02*
X12626428Y-15833647D01*
X12578809Y-15833647D01*
X12559762Y-15824123D01*
X12550238Y-15805075D01*
X12550238Y-15786028D01*
X12559762Y-15766980D01*
X12578809Y-15757456D01*
X12626428Y-15757456D01*
X12645476Y-15747932D01*
X12712143Y-15700313D02*
X12788333Y-15700313D01*
X12740714Y-15633647D02*
X12740714Y-15805075D01*
X12750238Y-15824123D01*
X12769286Y-15833647D01*
X12788333Y-15833647D01*
X12931190Y-15824123D02*
X12912143Y-15833647D01*
X12874048Y-15833647D01*
X12855000Y-15824123D01*
X12845476Y-15805075D01*
X12845476Y-15728885D01*
X12855000Y-15709837D01*
X12874048Y-15700313D01*
X12912143Y-15700313D01*
X12931190Y-15709837D01*
X12940714Y-15728885D01*
X12940714Y-15747932D01*
X12845476Y-15766980D01*
X13112143Y-15833647D02*
X13112143Y-15633647D01*
X13112143Y-15824123D02*
X13093095Y-15833647D01*
X13055000Y-15833647D01*
X13035952Y-15824123D01*
X13026428Y-15814599D01*
X13016905Y-15795551D01*
X13016905Y-15738409D01*
X13026428Y-15719361D01*
X13035952Y-15709837D01*
X13055000Y-15700313D01*
X13093095Y-15700313D01*
X13112143Y-15709837D01*
X13188333Y-15909837D02*
X13197857Y-15900313D01*
X13216905Y-15871742D01*
X13226428Y-15852694D01*
X13235952Y-15824123D01*
X13245476Y-15776504D01*
X13245476Y-15738409D01*
X13235952Y-15690790D01*
X13226428Y-15662218D01*
X13216905Y-15643171D01*
X13197857Y-15614599D01*
X13188333Y-15605075D01*
X6215711Y-16104062D02*
X6215711Y-15962639D01*
X6074289Y-15962639D01*
X6074289Y-16104062D01*
X6215711Y-16104062D01*
X6483571Y-15923827D02*
X6607381Y-15923827D01*
X6540714Y-16000017D01*
X6569286Y-16000017D01*
X6588333Y-16009541D01*
X6597857Y-16019065D01*
X6607381Y-16038112D01*
X6607381Y-16085731D01*
X6597857Y-16104779D01*
X6588333Y-16114303D01*
X6569286Y-16123827D01*
X6512143Y-16123827D01*
X6493095Y-16114303D01*
X6483571Y-16104779D01*
X6693095Y-16104779D02*
X6702619Y-16114303D01*
X6693095Y-16123827D01*
X6683571Y-16114303D01*
X6693095Y-16104779D01*
X6693095Y-16123827D01*
X6826428Y-15923827D02*
X6845476Y-15923827D01*
X6864524Y-15933351D01*
X6874048Y-15942874D01*
X6883571Y-15961922D01*
X6893095Y-16000017D01*
X6893095Y-16047636D01*
X6883571Y-16085731D01*
X6874048Y-16104779D01*
X6864524Y-16114303D01*
X6845476Y-16123827D01*
X6826428Y-16123827D01*
X6807381Y-16114303D01*
X6797857Y-16104779D01*
X6788333Y-16085731D01*
X6778809Y-16047636D01*
X6778809Y-16000017D01*
X6788333Y-15961922D01*
X6797857Y-15942874D01*
X6807381Y-15933351D01*
X6826428Y-15923827D01*
X7016905Y-15923827D02*
X7035952Y-15923827D01*
X7055000Y-15933351D01*
X7064524Y-15942874D01*
X7074048Y-15961922D01*
X7083571Y-16000017D01*
X7083571Y-16047636D01*
X7074048Y-16085731D01*
X7064524Y-16104779D01*
X7055000Y-16114303D01*
X7035952Y-16123827D01*
X7016905Y-16123827D01*
X6997857Y-16114303D01*
X6988333Y-16104779D01*
X6978809Y-16085731D01*
X6969286Y-16047636D01*
X6969286Y-16000017D01*
X6978809Y-15961922D01*
X6988333Y-15942874D01*
X6997857Y-15933351D01*
X7016905Y-15923827D01*
X7207381Y-15923827D02*
X7226428Y-15923827D01*
X7245476Y-15933351D01*
X7255000Y-15942874D01*
X7264524Y-15961922D01*
X7274048Y-16000017D01*
X7274048Y-16047636D01*
X7264524Y-16085731D01*
X7255000Y-16104779D01*
X7245476Y-16114303D01*
X7226428Y-16123827D01*
X7207381Y-16123827D01*
X7188333Y-16114303D01*
X7178809Y-16104779D01*
X7169286Y-16085731D01*
X7159762Y-16047636D01*
X7159762Y-16000017D01*
X7169286Y-15961922D01*
X7178809Y-15942874D01*
X7188333Y-15933351D01*
X7207381Y-15923827D01*
X7359762Y-16123827D02*
X7359762Y-15990493D01*
X7359762Y-16009541D02*
X7369286Y-16000017D01*
X7388333Y-15990493D01*
X7416905Y-15990493D01*
X7435952Y-16000017D01*
X7445476Y-16019065D01*
X7445476Y-16123827D01*
X7445476Y-16019065D02*
X7455000Y-16000017D01*
X7474048Y-15990493D01*
X7502619Y-15990493D01*
X7521667Y-16000017D01*
X7531190Y-16019065D01*
X7531190Y-16123827D01*
X7626428Y-16123827D02*
X7626428Y-15990493D01*
X7626428Y-16009541D02*
X7635952Y-16000017D01*
X7655000Y-15990493D01*
X7683571Y-15990493D01*
X7702619Y-16000017D01*
X7712143Y-16019065D01*
X7712143Y-16123827D01*
X7712143Y-16019065D02*
X7721667Y-16000017D01*
X7740714Y-15990493D01*
X7769286Y-15990493D01*
X7788333Y-16000017D01*
X7797857Y-16019065D01*
X7797857Y-16123827D01*
X8188333Y-15914303D02*
X8016905Y-16171446D01*
X8445476Y-15923827D02*
X8464524Y-15923827D01*
X8483571Y-15933351D01*
X8493095Y-15942874D01*
X8502619Y-15961922D01*
X8512143Y-16000017D01*
X8512143Y-16047636D01*
X8502619Y-16085731D01*
X8493095Y-16104779D01*
X8483571Y-16114303D01*
X8464524Y-16123827D01*
X8445476Y-16123827D01*
X8426429Y-16114303D01*
X8416905Y-16104779D01*
X8407381Y-16085731D01*
X8397857Y-16047636D01*
X8397857Y-16000017D01*
X8407381Y-15961922D01*
X8416905Y-15942874D01*
X8426429Y-15933351D01*
X8445476Y-15923827D01*
X8597857Y-16104779D02*
X8607381Y-16114303D01*
X8597857Y-16123827D01*
X8588333Y-16114303D01*
X8597857Y-16104779D01*
X8597857Y-16123827D01*
X8797857Y-16123827D02*
X8683571Y-16123827D01*
X8740714Y-16123827D02*
X8740714Y-15923827D01*
X8721667Y-15952398D01*
X8702619Y-15971446D01*
X8683571Y-15980970D01*
X8988333Y-16123827D02*
X8874048Y-16123827D01*
X8931190Y-16123827D02*
X8931190Y-15923827D01*
X8912143Y-15952398D01*
X8893095Y-15971446D01*
X8874048Y-15980970D01*
X9102619Y-16009541D02*
X9083571Y-16000017D01*
X9074048Y-15990493D01*
X9064524Y-15971446D01*
X9064524Y-15961922D01*
X9074048Y-15942874D01*
X9083571Y-15933351D01*
X9102619Y-15923827D01*
X9140714Y-15923827D01*
X9159762Y-15933351D01*
X9169286Y-15942874D01*
X9178810Y-15961922D01*
X9178810Y-15971446D01*
X9169286Y-15990493D01*
X9159762Y-16000017D01*
X9140714Y-16009541D01*
X9102619Y-16009541D01*
X9083571Y-16019065D01*
X9074048Y-16028589D01*
X9064524Y-16047636D01*
X9064524Y-16085731D01*
X9074048Y-16104779D01*
X9083571Y-16114303D01*
X9102619Y-16123827D01*
X9140714Y-16123827D01*
X9159762Y-16114303D01*
X9169286Y-16104779D01*
X9178810Y-16085731D01*
X9178810Y-16047636D01*
X9169286Y-16028589D01*
X9159762Y-16019065D01*
X9140714Y-16009541D01*
X9369286Y-16123827D02*
X9255000Y-16123827D01*
X9312143Y-16123827D02*
X9312143Y-15923827D01*
X9293095Y-15952398D01*
X9274048Y-15971446D01*
X9255000Y-15980970D01*
X9445476Y-15923827D02*
X9445476Y-15961922D01*
X9521667Y-15923827D02*
X9521667Y-15961922D01*
X9816905Y-16200017D02*
X9807381Y-16190493D01*
X9788333Y-16161922D01*
X9778810Y-16142874D01*
X9769286Y-16114303D01*
X9759762Y-16066684D01*
X9759762Y-16028589D01*
X9769286Y-15980970D01*
X9778810Y-15952398D01*
X9788333Y-15933351D01*
X9807381Y-15904779D01*
X9816905Y-15895255D01*
X9874048Y-15923827D02*
X10007381Y-15923827D01*
X9921667Y-16123827D01*
X10074048Y-15942874D02*
X10083571Y-15933351D01*
X10102619Y-15923827D01*
X10150238Y-15923827D01*
X10169286Y-15933351D01*
X10178810Y-15942874D01*
X10188333Y-15961922D01*
X10188333Y-15980970D01*
X10178810Y-16009541D01*
X10064524Y-16123827D01*
X10188333Y-16123827D01*
X10426429Y-16123827D02*
X10426429Y-15923827D01*
X10512143Y-16123827D02*
X10512143Y-16019065D01*
X10502619Y-16000017D01*
X10483571Y-15990493D01*
X10455000Y-15990493D01*
X10435952Y-16000017D01*
X10426429Y-16009541D01*
X10635952Y-16123827D02*
X10616905Y-16114303D01*
X10607381Y-16104779D01*
X10597857Y-16085731D01*
X10597857Y-16028589D01*
X10607381Y-16009541D01*
X10616905Y-16000017D01*
X10635952Y-15990493D01*
X10664524Y-15990493D01*
X10683571Y-16000017D01*
X10693095Y-16009541D01*
X10702619Y-16028589D01*
X10702619Y-16085731D01*
X10693095Y-16104779D01*
X10683571Y-16114303D01*
X10664524Y-16123827D01*
X10635952Y-16123827D01*
X10816905Y-16123827D02*
X10797857Y-16114303D01*
X10788333Y-16095255D01*
X10788333Y-15923827D01*
X10969286Y-16114303D02*
X10950238Y-16123827D01*
X10912143Y-16123827D01*
X10893095Y-16114303D01*
X10883571Y-16095255D01*
X10883571Y-16019065D01*
X10893095Y-16000017D01*
X10912143Y-15990493D01*
X10950238Y-15990493D01*
X10969286Y-16000017D01*
X10978810Y-16019065D01*
X10978810Y-16038112D01*
X10883571Y-16057160D01*
X11055000Y-16114303D02*
X11074048Y-16123827D01*
X11112143Y-16123827D01*
X11131190Y-16114303D01*
X11140714Y-16095255D01*
X11140714Y-16085731D01*
X11131190Y-16066684D01*
X11112143Y-16057160D01*
X11083571Y-16057160D01*
X11064524Y-16047636D01*
X11055000Y-16028589D01*
X11055000Y-16019065D01*
X11064524Y-16000017D01*
X11083571Y-15990493D01*
X11112143Y-15990493D01*
X11131190Y-16000017D01*
X11207381Y-16200017D02*
X11216905Y-16190493D01*
X11235952Y-16161922D01*
X11245476Y-16142874D01*
X11255000Y-16114303D01*
X11264524Y-16066684D01*
X11264524Y-16028589D01*
X11255000Y-15980970D01*
X11245476Y-15952398D01*
X11235952Y-15933351D01*
X11216905Y-15904779D01*
X11207381Y-15895255D01*
X11569286Y-16200017D02*
X11559762Y-16190493D01*
X11540714Y-16161922D01*
X11531190Y-16142874D01*
X11521667Y-16114303D01*
X11512143Y-16066684D01*
X11512143Y-16028589D01*
X11521667Y-15980970D01*
X11531190Y-15952398D01*
X11540714Y-15933351D01*
X11559762Y-15904779D01*
X11569286Y-15895255D01*
X11645476Y-15990493D02*
X11645476Y-16123827D01*
X11645476Y-16009541D02*
X11655000Y-16000017D01*
X11674048Y-15990493D01*
X11702619Y-15990493D01*
X11721667Y-16000017D01*
X11731190Y-16019065D01*
X11731190Y-16123827D01*
X11855000Y-16123827D02*
X11835952Y-16114303D01*
X11826428Y-16104779D01*
X11816905Y-16085731D01*
X11816905Y-16028589D01*
X11826428Y-16009541D01*
X11835952Y-16000017D01*
X11855000Y-15990493D01*
X11883571Y-15990493D01*
X11902619Y-16000017D01*
X11912143Y-16009541D01*
X11921667Y-16028589D01*
X11921667Y-16085731D01*
X11912143Y-16104779D01*
X11902619Y-16114303D01*
X11883571Y-16123827D01*
X11855000Y-16123827D01*
X11978809Y-15990493D02*
X12055000Y-15990493D01*
X12007381Y-15923827D02*
X12007381Y-16095255D01*
X12016905Y-16114303D01*
X12035952Y-16123827D01*
X12055000Y-16123827D01*
X12274048Y-15990493D02*
X12274048Y-16190493D01*
X12274048Y-16000017D02*
X12293095Y-15990493D01*
X12331190Y-15990493D01*
X12350238Y-16000017D01*
X12359762Y-16009541D01*
X12369286Y-16028589D01*
X12369286Y-16085731D01*
X12359762Y-16104779D01*
X12350238Y-16114303D01*
X12331190Y-16123827D01*
X12293095Y-16123827D01*
X12274048Y-16114303D01*
X12483571Y-16123827D02*
X12464524Y-16114303D01*
X12455000Y-16095255D01*
X12455000Y-15923827D01*
X12645476Y-16123827D02*
X12645476Y-16019065D01*
X12635952Y-16000017D01*
X12616905Y-15990493D01*
X12578809Y-15990493D01*
X12559762Y-16000017D01*
X12645476Y-16114303D02*
X12626428Y-16123827D01*
X12578809Y-16123827D01*
X12559762Y-16114303D01*
X12550238Y-16095255D01*
X12550238Y-16076208D01*
X12559762Y-16057160D01*
X12578809Y-16047636D01*
X12626428Y-16047636D01*
X12645476Y-16038112D01*
X12712143Y-15990493D02*
X12788333Y-15990493D01*
X12740714Y-15923827D02*
X12740714Y-16095255D01*
X12750238Y-16114303D01*
X12769286Y-16123827D01*
X12788333Y-16123827D01*
X12931190Y-16114303D02*
X12912143Y-16123827D01*
X12874048Y-16123827D01*
X12855000Y-16114303D01*
X12845476Y-16095255D01*
X12845476Y-16019065D01*
X12855000Y-16000017D01*
X12874048Y-15990493D01*
X12912143Y-15990493D01*
X12931190Y-16000017D01*
X12940714Y-16019065D01*
X12940714Y-16038112D01*
X12845476Y-16057160D01*
X13112143Y-16123827D02*
X13112143Y-15923827D01*
X13112143Y-16114303D02*
X13093095Y-16123827D01*
X13055000Y-16123827D01*
X13035952Y-16114303D01*
X13026428Y-16104779D01*
X13016905Y-16085731D01*
X13016905Y-16028589D01*
X13026428Y-16009541D01*
X13035952Y-16000017D01*
X13055000Y-15990493D01*
X13093095Y-15990493D01*
X13112143Y-16000017D01*
X13188333Y-16200017D02*
X13197857Y-16190493D01*
X13216905Y-16161922D01*
X13226428Y-16142874D01*
X13235952Y-16114303D01*
X13245476Y-16066684D01*
X13245476Y-16028589D01*
X13235952Y-15980970D01*
X13226428Y-15952398D01*
X13216905Y-15933351D01*
X13197857Y-15904779D01*
X13188333Y-15895255D01*
X6145000Y-16453351D02*
X6245000Y-16353351D01*
X6145000Y-16253351D01*
X6045000Y-16353351D01*
X6145000Y-16453351D01*
X6483571Y-16243827D02*
X6607381Y-16243827D01*
X6540714Y-16320017D01*
X6569286Y-16320017D01*
X6588333Y-16329541D01*
X6597857Y-16339065D01*
X6607381Y-16358112D01*
X6607381Y-16405731D01*
X6597857Y-16424779D01*
X6588333Y-16434303D01*
X6569286Y-16443827D01*
X6512143Y-16443827D01*
X6493095Y-16434303D01*
X6483571Y-16424779D01*
X6693095Y-16424779D02*
X6702619Y-16434303D01*
X6693095Y-16443827D01*
X6683571Y-16434303D01*
X6693095Y-16424779D01*
X6693095Y-16443827D01*
X6874048Y-16310493D02*
X6874048Y-16443827D01*
X6826428Y-16234303D02*
X6778809Y-16377160D01*
X6902619Y-16377160D01*
X6969286Y-16262874D02*
X6978809Y-16253351D01*
X6997857Y-16243827D01*
X7045476Y-16243827D01*
X7064524Y-16253351D01*
X7074048Y-16262874D01*
X7083571Y-16281922D01*
X7083571Y-16300970D01*
X7074048Y-16329541D01*
X6959762Y-16443827D01*
X7083571Y-16443827D01*
X7178809Y-16443827D02*
X7216905Y-16443827D01*
X7235952Y-16434303D01*
X7245476Y-16424779D01*
X7264524Y-16396208D01*
X7274048Y-16358112D01*
X7274048Y-16281922D01*
X7264524Y-16262874D01*
X7255000Y-16253351D01*
X7235952Y-16243827D01*
X7197857Y-16243827D01*
X7178809Y-16253351D01*
X7169286Y-16262874D01*
X7159762Y-16281922D01*
X7159762Y-16329541D01*
X7169286Y-16348589D01*
X7178809Y-16358112D01*
X7197857Y-16367636D01*
X7235952Y-16367636D01*
X7255000Y-16358112D01*
X7264524Y-16348589D01*
X7274048Y-16329541D01*
X7359762Y-16443827D02*
X7359762Y-16310493D01*
X7359762Y-16329541D02*
X7369286Y-16320017D01*
X7388333Y-16310493D01*
X7416905Y-16310493D01*
X7435952Y-16320017D01*
X7445476Y-16339065D01*
X7445476Y-16443827D01*
X7445476Y-16339065D02*
X7455000Y-16320017D01*
X7474048Y-16310493D01*
X7502619Y-16310493D01*
X7521667Y-16320017D01*
X7531190Y-16339065D01*
X7531190Y-16443827D01*
X7626428Y-16443827D02*
X7626428Y-16310493D01*
X7626428Y-16329541D02*
X7635952Y-16320017D01*
X7655000Y-16310493D01*
X7683571Y-16310493D01*
X7702619Y-16320017D01*
X7712143Y-16339065D01*
X7712143Y-16443827D01*
X7712143Y-16339065D02*
X7721667Y-16320017D01*
X7740714Y-16310493D01*
X7769286Y-16310493D01*
X7788333Y-16320017D01*
X7797857Y-16339065D01*
X7797857Y-16443827D01*
X8188333Y-16234303D02*
X8016905Y-16491446D01*
X8445476Y-16243827D02*
X8464524Y-16243827D01*
X8483571Y-16253351D01*
X8493095Y-16262874D01*
X8502619Y-16281922D01*
X8512143Y-16320017D01*
X8512143Y-16367636D01*
X8502619Y-16405731D01*
X8493095Y-16424779D01*
X8483571Y-16434303D01*
X8464524Y-16443827D01*
X8445476Y-16443827D01*
X8426429Y-16434303D01*
X8416905Y-16424779D01*
X8407381Y-16405731D01*
X8397857Y-16367636D01*
X8397857Y-16320017D01*
X8407381Y-16281922D01*
X8416905Y-16262874D01*
X8426429Y-16253351D01*
X8445476Y-16243827D01*
X8597857Y-16424779D02*
X8607381Y-16434303D01*
X8597857Y-16443827D01*
X8588333Y-16434303D01*
X8597857Y-16424779D01*
X8597857Y-16443827D01*
X8797857Y-16443827D02*
X8683571Y-16443827D01*
X8740714Y-16443827D02*
X8740714Y-16243827D01*
X8721667Y-16272398D01*
X8702619Y-16291446D01*
X8683571Y-16300970D01*
X8864524Y-16243827D02*
X8988333Y-16243827D01*
X8921667Y-16320017D01*
X8950238Y-16320017D01*
X8969286Y-16329541D01*
X8978810Y-16339065D01*
X8988333Y-16358112D01*
X8988333Y-16405731D01*
X8978810Y-16424779D01*
X8969286Y-16434303D01*
X8950238Y-16443827D01*
X8893095Y-16443827D01*
X8874048Y-16434303D01*
X8864524Y-16424779D01*
X9169286Y-16243827D02*
X9074048Y-16243827D01*
X9064524Y-16339065D01*
X9074048Y-16329541D01*
X9093095Y-16320017D01*
X9140714Y-16320017D01*
X9159762Y-16329541D01*
X9169286Y-16339065D01*
X9178810Y-16358112D01*
X9178810Y-16405731D01*
X9169286Y-16424779D01*
X9159762Y-16434303D01*
X9140714Y-16443827D01*
X9093095Y-16443827D01*
X9074048Y-16434303D01*
X9064524Y-16424779D01*
X9302619Y-16243827D02*
X9321667Y-16243827D01*
X9340714Y-16253351D01*
X9350238Y-16262874D01*
X9359762Y-16281922D01*
X9369286Y-16320017D01*
X9369286Y-16367636D01*
X9359762Y-16405731D01*
X9350238Y-16424779D01*
X9340714Y-16434303D01*
X9321667Y-16443827D01*
X9302619Y-16443827D01*
X9283571Y-16434303D01*
X9274048Y-16424779D01*
X9264524Y-16405731D01*
X9255000Y-16367636D01*
X9255000Y-16320017D01*
X9264524Y-16281922D01*
X9274048Y-16262874D01*
X9283571Y-16253351D01*
X9302619Y-16243827D01*
X9445476Y-16243827D02*
X9445476Y-16281922D01*
X9521667Y-16243827D02*
X9521667Y-16281922D01*
X9816905Y-16520017D02*
X9807381Y-16510493D01*
X9788333Y-16481922D01*
X9778810Y-16462874D01*
X9769286Y-16434303D01*
X9759762Y-16386684D01*
X9759762Y-16348589D01*
X9769286Y-16300970D01*
X9778810Y-16272398D01*
X9788333Y-16253351D01*
X9807381Y-16224779D01*
X9816905Y-16215255D01*
X9883571Y-16262874D02*
X9893095Y-16253351D01*
X9912143Y-16243827D01*
X9959762Y-16243827D01*
X9978810Y-16253351D01*
X9988333Y-16262874D01*
X9997857Y-16281922D01*
X9997857Y-16300970D01*
X9988333Y-16329541D01*
X9874048Y-16443827D01*
X9997857Y-16443827D01*
X10169286Y-16310493D02*
X10169286Y-16443827D01*
X10121667Y-16234303D02*
X10074048Y-16377160D01*
X10197857Y-16377160D01*
X10426429Y-16443827D02*
X10426429Y-16243827D01*
X10512143Y-16443827D02*
X10512143Y-16339065D01*
X10502619Y-16320017D01*
X10483571Y-16310493D01*
X10455000Y-16310493D01*
X10435952Y-16320017D01*
X10426429Y-16329541D01*
X10635952Y-16443827D02*
X10616905Y-16434303D01*
X10607381Y-16424779D01*
X10597857Y-16405731D01*
X10597857Y-16348589D01*
X10607381Y-16329541D01*
X10616905Y-16320017D01*
X10635952Y-16310493D01*
X10664524Y-16310493D01*
X10683571Y-16320017D01*
X10693095Y-16329541D01*
X10702619Y-16348589D01*
X10702619Y-16405731D01*
X10693095Y-16424779D01*
X10683571Y-16434303D01*
X10664524Y-16443827D01*
X10635952Y-16443827D01*
X10816905Y-16443827D02*
X10797857Y-16434303D01*
X10788333Y-16415255D01*
X10788333Y-16243827D01*
X10969286Y-16434303D02*
X10950238Y-16443827D01*
X10912143Y-16443827D01*
X10893095Y-16434303D01*
X10883571Y-16415255D01*
X10883571Y-16339065D01*
X10893095Y-16320017D01*
X10912143Y-16310493D01*
X10950238Y-16310493D01*
X10969286Y-16320017D01*
X10978810Y-16339065D01*
X10978810Y-16358112D01*
X10883571Y-16377160D01*
X11055000Y-16434303D02*
X11074048Y-16443827D01*
X11112143Y-16443827D01*
X11131190Y-16434303D01*
X11140714Y-16415255D01*
X11140714Y-16405731D01*
X11131190Y-16386684D01*
X11112143Y-16377160D01*
X11083571Y-16377160D01*
X11064524Y-16367636D01*
X11055000Y-16348589D01*
X11055000Y-16339065D01*
X11064524Y-16320017D01*
X11083571Y-16310493D01*
X11112143Y-16310493D01*
X11131190Y-16320017D01*
X11207381Y-16520017D02*
X11216905Y-16510493D01*
X11235952Y-16481922D01*
X11245476Y-16462874D01*
X11255000Y-16434303D01*
X11264524Y-16386684D01*
X11264524Y-16348589D01*
X11255000Y-16300970D01*
X11245476Y-16272398D01*
X11235952Y-16253351D01*
X11216905Y-16224779D01*
X11207381Y-16215255D01*
X11569286Y-16520017D02*
X11559762Y-16510493D01*
X11540714Y-16481922D01*
X11531190Y-16462874D01*
X11521667Y-16434303D01*
X11512143Y-16386684D01*
X11512143Y-16348589D01*
X11521667Y-16300970D01*
X11531190Y-16272398D01*
X11540714Y-16253351D01*
X11559762Y-16224779D01*
X11569286Y-16215255D01*
X11645476Y-16310493D02*
X11645476Y-16443827D01*
X11645476Y-16329541D02*
X11655000Y-16320017D01*
X11674048Y-16310493D01*
X11702619Y-16310493D01*
X11721667Y-16320017D01*
X11731190Y-16339065D01*
X11731190Y-16443827D01*
X11855000Y-16443827D02*
X11835952Y-16434303D01*
X11826428Y-16424779D01*
X11816905Y-16405731D01*
X11816905Y-16348589D01*
X11826428Y-16329541D01*
X11835952Y-16320017D01*
X11855000Y-16310493D01*
X11883571Y-16310493D01*
X11902619Y-16320017D01*
X11912143Y-16329541D01*
X11921667Y-16348589D01*
X11921667Y-16405731D01*
X11912143Y-16424779D01*
X11902619Y-16434303D01*
X11883571Y-16443827D01*
X11855000Y-16443827D01*
X11978809Y-16310493D02*
X12055000Y-16310493D01*
X12007381Y-16243827D02*
X12007381Y-16415255D01*
X12016905Y-16434303D01*
X12035952Y-16443827D01*
X12055000Y-16443827D01*
X12274048Y-16310493D02*
X12274048Y-16510493D01*
X12274048Y-16320017D02*
X12293095Y-16310493D01*
X12331190Y-16310493D01*
X12350238Y-16320017D01*
X12359762Y-16329541D01*
X12369286Y-16348589D01*
X12369286Y-16405731D01*
X12359762Y-16424779D01*
X12350238Y-16434303D01*
X12331190Y-16443827D01*
X12293095Y-16443827D01*
X12274048Y-16434303D01*
X12483571Y-16443827D02*
X12464524Y-16434303D01*
X12455000Y-16415255D01*
X12455000Y-16243827D01*
X12645476Y-16443827D02*
X12645476Y-16339065D01*
X12635952Y-16320017D01*
X12616905Y-16310493D01*
X12578809Y-16310493D01*
X12559762Y-16320017D01*
X12645476Y-16434303D02*
X12626428Y-16443827D01*
X12578809Y-16443827D01*
X12559762Y-16434303D01*
X12550238Y-16415255D01*
X12550238Y-16396208D01*
X12559762Y-16377160D01*
X12578809Y-16367636D01*
X12626428Y-16367636D01*
X12645476Y-16358112D01*
X12712143Y-16310493D02*
X12788333Y-16310493D01*
X12740714Y-16243827D02*
X12740714Y-16415255D01*
X12750238Y-16434303D01*
X12769286Y-16443827D01*
X12788333Y-16443827D01*
X12931190Y-16434303D02*
X12912143Y-16443827D01*
X12874048Y-16443827D01*
X12855000Y-16434303D01*
X12845476Y-16415255D01*
X12845476Y-16339065D01*
X12855000Y-16320017D01*
X12874048Y-16310493D01*
X12912143Y-16310493D01*
X12931190Y-16320017D01*
X12940714Y-16339065D01*
X12940714Y-16358112D01*
X12845476Y-16377160D01*
X13112143Y-16443827D02*
X13112143Y-16243827D01*
X13112143Y-16434303D02*
X13093095Y-16443827D01*
X13055000Y-16443827D01*
X13035952Y-16434303D01*
X13026428Y-16424779D01*
X13016905Y-16405731D01*
X13016905Y-16348589D01*
X13026428Y-16329541D01*
X13035952Y-16320017D01*
X13055000Y-16310493D01*
X13093095Y-16310493D01*
X13112143Y-16320017D01*
X13188333Y-16520017D02*
X13197857Y-16510493D01*
X13216905Y-16481922D01*
X13226428Y-16462874D01*
X13235952Y-16434303D01*
X13245476Y-16386684D01*
X13245476Y-16348589D01*
X13235952Y-16300970D01*
X13226428Y-16272398D01*
X13216905Y-16253351D01*
X13197857Y-16224779D01*
X13188333Y-16215255D01*
M02*
