M48
; DRILL file {KiCad 6.0.11-3.fc36} date Wed 22 Feb 2023 06:11:40 PM EST
; FORMAT={-:-/ absolute / metric / decimal}
; #@! TF.CreationDate,2023-02-22T18:11:40-05:00
; #@! TF.GenerationSoftware,Kicad,Pcbnew,6.0.11-3.fc36
; #@! TF.FileFunction,Plated,1,2,PTH
FMAT,2
METRIC
; #@! TA.AperFunction,Plated,PTH,ComponentDrill
T1C0.300
; #@! TA.AperFunction,Plated,PTH,ViaDrill
T2C0.400
; #@! TA.AperFunction,Plated,PTH,ComponentDrill
T3C1.000
; #@! TA.AperFunction,Plated,PTH,ComponentDrill
T4C1.092
%
G90
G05
T1
X82.119Y-71.37
X82.119Y-88.37
X82.119Y-105.37
X82.881Y-69.611
X82.881Y-86.611
X82.881Y-103.611
X100.119Y-71.189
X100.119Y-88.189
X100.119Y-105.189
X100.881Y-69.43
X100.881Y-86.43
X100.881Y-103.43
X118.119Y-52.37
X118.119Y-69.37
X118.119Y-86.37
X118.119Y-103.37
X118.881Y-50.611
X118.881Y-67.611
X118.881Y-84.611
X118.881Y-101.611
X136.119Y-53.67
X136.119Y-70.67
X136.119Y-87.67
X136.119Y-104.62
X136.881Y-51.911
X136.881Y-68.911
X136.881Y-85.911
X136.881Y-102.861
X154.119Y-59.402
X154.119Y-76.403
X154.119Y-93.402
X154.881Y-57.643
X154.881Y-74.644
X154.881Y-91.643
X163.488Y-114.616
X164.599Y-113.053
X171.619Y-60.87
X171.619Y-77.87
X171.619Y-94.87
X172.381Y-59.111
X172.381Y-76.111
X172.381Y-93.111
X182.421Y-121.222
X183.739Y-119.83
X189.619Y-94.87
X190.381Y-93.111
X199.899Y-134.672
X201.613Y-133.814
T2
X69.572Y-107.743
X69.592Y-73.779
X69.595Y-90.817
X69.596Y-72.39
X70.104Y-75.692
X70.104Y-94.996
X70.358Y-92.71
X70.358Y-109.982
X70.612Y-114.554
X71.12Y-82.296
X71.12Y-99.314
X71.12Y-116.332
X77.403Y-90.787
X77.426Y-73.748
X77.427Y-107.854
X80.264Y-90.932
X80.264Y-107.95
X80.6Y-74.0
X80.772Y-79.248
X80.772Y-96.266
X81.026Y-113.284
X83.82Y-70.866
X84.15Y-104.902
X84.226Y-88.392
X84.328Y-67.31
X87.576Y-85.751
X87.578Y-102.755
X87.59Y-68.776
X88.138Y-70.866
X88.392Y-87.884
X88.392Y-104.902
X89.154Y-77.216
X89.154Y-94.234
X89.154Y-111.252
X95.395Y-85.801
X95.404Y-68.785
X95.42Y-102.841
X97.4Y-67.8
X98.044Y-102.616
X98.298Y-85.852
X98.38Y-96.094
X98.806Y-74.422
X99.06Y-108.204
X100.33Y-55.88
X100.588Y-60.71
X100.965Y-117.729
X102.108Y-112.014
X102.597Y-74.657
X103.632Y-91.948
X105.572Y-71.743
X105.572Y-88.743
X105.572Y-105.743
X105.59Y-54.776
X106.14Y-56.542
X106.172Y-73.66
X106.426Y-90.932
X106.426Y-107.696
X107.188Y-63.246
X107.188Y-80.264
X107.188Y-97.282
X107.188Y-114.3
X113.407Y-105.82
X113.41Y-54.824
X113.41Y-88.825
X113.413Y-71.829
X116.025Y-71.469
X116.078Y-88.392
X116.2Y-54.6
X116.332Y-106.172
X117.094Y-60.198
X117.094Y-77.216
X117.094Y-94.234
X117.094Y-111.252
X118.08Y-117.514
X120.358Y-85.09
X120.358Y-102.227
X120.378Y-68.816
X120.664Y-106.367
X120.904Y-114.554
X123.577Y-82.803
X123.579Y-65.806
X123.6Y-99.791
X123.601Y-48.843
X124.206Y-50.8
X124.206Y-84.836
X124.46Y-67.818
X124.46Y-101.854
X125.222Y-57.15
X125.222Y-74.168
X125.222Y-91.186
X125.222Y-108.204
X131.4Y-48.841
X131.4Y-65.84
X131.406Y-99.819
X131.428Y-82.907
X134.112Y-82.804
X134.366Y-100.076
X134.6Y-49.0
X134.616Y-66.544
X134.62Y-94.996
X134.874Y-111.76
X135.75Y-60.75
X135.763Y-77.343
X138.138Y-76.2
X138.138Y-92.964
X138.43Y-58.928
X138.938Y-114.808
X139.446Y-110.49
X141.224Y-69.763
X141.224Y-112.522
X141.224Y-114.808
X141.578Y-90.845
X141.581Y-73.759
X141.59Y-56.776
X142.227Y-58.556
X142.494Y-75.692
X142.494Y-92.71
X143.256Y-65.278
X143.256Y-82.296
X143.256Y-99.314
X148.336Y-111.252
X149.382Y-110.266
X149.41Y-56.824
X149.426Y-90.852
X149.448Y-73.703
X151.857Y-90.459
X151.892Y-84.836
X151.892Y-101.854
X151.892Y-117.602
X152.146Y-118.618
X152.147Y-110.031
X152.183Y-73.914
X152.4Y-112.268
X152.6Y-57.0
X156.172Y-78.232
X156.21Y-94.996
X159.258Y-71.628
X159.588Y-58.771
X159.595Y-75.818
X159.605Y-92.798
X159.8Y-111.749
X160.249Y-60.558
X160.274Y-77.724
X160.274Y-94.996
X161.29Y-67.31
X161.29Y-84.328
X161.29Y-101.346
X162.56Y-112.522
X163.068Y-106.934
X167.404Y-58.785
X167.416Y-92.835
X167.428Y-75.856
X168.402Y-106.934
X168.402Y-113.538
X168.529Y-112.141
X169.672Y-120.65
X169.926Y-86.868
X169.926Y-103.886
X169.96Y-75.695
X170.125Y-92.59
X170.2Y-58.6
X170.641Y-60.747
X170.942Y-123.952
X171.196Y-119.634
X171.704Y-117.348
X171.84Y-115.163
X172.72Y-105.156
X172.72Y-112.776
X177.038Y-84.328
X177.574Y-92.749
X178.308Y-94.742
X179.166Y-117.861
X179.922Y-100.728
X180.086Y-111.506
X180.594Y-82.042
X181.864Y-118.618
X182.069Y-101.054
X182.88Y-84.836
X182.95Y-82.766
X184.912Y-109.728
X185.406Y-92.818
X187.706Y-103.886
X187.96Y-132.588
X188.118Y-92.544
X188.468Y-52.832
X188.468Y-57.912
X188.468Y-62.992
X188.468Y-65.532
X188.468Y-68.072
X188.468Y-70.612
X188.468Y-73.152
X188.468Y-75.692
X188.468Y-78.232
X188.468Y-80.772
X191.008Y-127.254
X192.037Y-125.298
X192.786Y-60.452
X194.31Y-134.112
X197.988Y-130.409
X200.914Y-131.064
T3
X179.18Y-87.825
X181.72Y-87.825
X184.26Y-87.825
X186.8Y-87.825
T4
X175.26Y-52.802
X175.26Y-55.342
X175.26Y-57.882
X175.26Y-60.422
X175.26Y-62.962
X175.26Y-65.502
X175.26Y-68.042
X175.26Y-70.582
X175.26Y-73.122
X175.26Y-75.662
X175.26Y-78.202
X175.26Y-80.742
X176.784Y-51.562
X176.784Y-54.102
X176.784Y-56.642
X176.784Y-59.182
X176.784Y-61.722
X176.784Y-64.262
X176.784Y-66.802
X176.784Y-69.342
X176.784Y-71.882
X176.784Y-74.422
X176.784Y-76.962
X176.784Y-79.502
X190.5Y-52.802
X190.5Y-55.342
X190.5Y-57.882
X190.5Y-60.422
X190.5Y-62.962
X190.5Y-65.502
X190.5Y-68.042
X190.5Y-70.582
X190.5Y-73.122
X190.5Y-75.662
X190.5Y-78.202
X190.5Y-80.742
X192.024Y-51.562
X192.024Y-54.102
X192.024Y-56.642
X192.024Y-59.182
X192.024Y-61.722
X192.024Y-64.262
X192.024Y-66.802
X192.024Y-69.342
X192.024Y-71.882
X192.024Y-74.422
X192.024Y-76.962
X192.024Y-79.502
T3
X181.244Y-109.406G85X183.244Y-109.406
G05
X181.244Y-113.606G85X183.244Y-113.606
G05
X186.744Y-109.406G85X187.244Y-109.406
G05
X187.244Y-113.606G85X186.744Y-113.606
G05
X189.744Y-109.406G85X190.244Y-109.406
G05
X190.244Y-113.606G85X189.744Y-113.606
G05
T0
M30
