G04 #@! TF.GenerationSoftware,KiCad,Pcbnew,6.0.11-3.fc36*
G04 #@! TF.CreationDate,2023-02-22T18:11:36-05:00*
G04 #@! TF.ProjectId,kb40,6b623430-2e6b-4696-9361-645f70636258,rev?*
G04 #@! TF.SameCoordinates,Original*
G04 #@! TF.FileFunction,Paste,Top*
G04 #@! TF.FilePolarity,Positive*
%FSLAX46Y46*%
G04 Gerber Fmt 4.6, Leading zero omitted, Abs format (unit mm)*
G04 Created by KiCad (PCBNEW 6.0.11-3.fc36) date 2023-02-22 18:11:36*
%MOMM*%
%LPD*%
G01*
G04 APERTURE LIST*
G04 Aperture macros list*
%AMRoundRect*
0 Rectangle with rounded corners*
0 $1 Rounding radius*
0 $2 $3 $4 $5 $6 $7 $8 $9 X,Y pos of 4 corners*
0 Add a 4 corners polygon primitive as box body*
4,1,4,$2,$3,$4,$5,$6,$7,$8,$9,$2,$3,0*
0 Add four circle primitives for the rounded corners*
1,1,$1+$1,$2,$3*
1,1,$1+$1,$4,$5*
1,1,$1+$1,$6,$7*
1,1,$1+$1,$8,$9*
0 Add four rect primitives between the rounded corners*
20,1,$1+$1,$2,$3,$4,$5,0*
20,1,$1+$1,$4,$5,$6,$7,0*
20,1,$1+$1,$6,$7,$8,$9,0*
20,1,$1+$1,$8,$9,$2,$3,0*%
%AMRotRect*
0 Rectangle, with rotation*
0 The origin of the aperture is its center*
0 $1 length*
0 $2 width*
0 $3 Rotation angle, in degrees counterclockwise*
0 Add horizontal line*
21,1,$1,$2,0,0,$3*%
G04 Aperture macros list end*
%ADD10R,2.600000X2.600000*%
%ADD11RoundRect,0.300000X0.124041X0.614544X-0.583668X-0.228871X-0.124041X-0.614544X0.583668X0.228871X0*%
%ADD12RoundRect,0.300000X-0.300000X0.550500X-0.300000X-0.550500X0.300000X-0.550500X0.300000X0.550500X0*%
%ADD13R,1.400000X0.820000*%
%ADD14RoundRect,0.205000X0.495000X0.205000X-0.495000X0.205000X-0.495000X-0.205000X0.495000X-0.205000X0*%
%ADD15RotRect,2.600000X2.600000X340.000000*%
%ADD16RoundRect,0.300000X-0.178989X0.600844X-0.407900X-0.476097X0.178989X-0.600844X0.407900X0.476097X0*%
%ADD17RotRect,2.600000X2.600000X320.000000*%
%ADD18RoundRect,0.300000X-0.093626X0.619907X-0.470190X-0.414695X0.093626X-0.619907X0.470190X0.414695X0*%
%ADD19RotRect,2.600000X2.600000X348.000000*%
%ADD20RotRect,1.400000X0.820000X140.000000*%
%ADD21RoundRect,0.205000X0.510963X-0.161141X-0.247421X0.475219X-0.510963X0.161141X0.247421X-0.475219X0*%
%ADD22RotRect,1.400000X0.820000X168.000000*%
%ADD23RoundRect,0.205000X0.526805X0.097604X-0.441561X0.303437X-0.526805X-0.097604X0.441561X-0.303437X0*%
%ADD24RotRect,1.400000X0.820000X160.000000*%
%ADD25RoundRect,0.205000X0.535262X0.023337X-0.395034X0.361937X-0.535262X-0.023337X0.395034X-0.361937X0*%
G04 APERTURE END LIST*
D10*
X142225000Y-67450000D03*
X153775000Y-65250000D03*
D11*
X202068357Y-132678843D03*
X199431643Y-135821157D03*
D12*
X136500000Y-101699000D03*
X136500000Y-105801000D03*
D10*
X160225000Y-86450000D03*
X171775000Y-84250000D03*
X106225000Y-65450000D03*
X117775000Y-63250000D03*
D13*
X94200000Y-69550000D03*
X88800000Y-69550000D03*
D14*
X88800000Y-68050000D03*
D13*
X94200000Y-68050000D03*
D10*
X88225000Y-113450000D03*
X99775000Y-111250000D03*
D13*
X148200000Y-57550000D03*
X142800000Y-57550000D03*
D14*
X142800000Y-56050000D03*
D13*
X148200000Y-56050000D03*
X94200000Y-86550000D03*
X88800000Y-86550000D03*
D14*
X88800000Y-85050000D03*
D13*
X94200000Y-85050000D03*
X148200000Y-74550000D03*
X142800000Y-74550000D03*
D14*
X142800000Y-73050000D03*
D13*
X148200000Y-73050000D03*
D15*
X168779993Y-125387610D03*
X180385887Y-127270619D03*
D12*
X82500000Y-68449000D03*
X82500000Y-72551000D03*
D10*
X106225000Y-116450000D03*
X117775000Y-114250000D03*
D12*
X118500000Y-66449000D03*
X118500000Y-70551000D03*
X172000000Y-74949000D03*
X172000000Y-79051000D03*
D13*
X112200000Y-55550000D03*
X106800000Y-55550000D03*
D14*
X106800000Y-54050000D03*
D13*
X112200000Y-54050000D03*
D16*
X164468373Y-111837552D03*
X163615519Y-115849914D03*
D13*
X130200000Y-66600000D03*
X124800000Y-66600000D03*
D14*
X124800000Y-65100000D03*
D13*
X130200000Y-65100000D03*
D10*
X88225000Y-79450000D03*
X99775000Y-77250000D03*
D13*
X130200000Y-49600000D03*
X124800000Y-49600000D03*
D14*
X124800000Y-48100000D03*
D13*
X130200000Y-48100000D03*
X76200000Y-108550000D03*
X70800000Y-108550000D03*
D14*
X70800000Y-107050000D03*
D13*
X76200000Y-107050000D03*
D10*
X142225000Y-101450000D03*
X153775000Y-99250000D03*
D12*
X154500000Y-56481500D03*
X154500000Y-60583500D03*
D10*
X106225000Y-82450000D03*
X117775000Y-80250000D03*
D12*
X100500000Y-85268000D03*
X100500000Y-89370000D03*
D10*
X124225000Y-110450000D03*
X135775000Y-108250000D03*
D13*
X112200000Y-89550000D03*
X106800000Y-89550000D03*
D14*
X106800000Y-88050000D03*
D13*
X112200000Y-88050000D03*
D10*
X124225000Y-93500000D03*
X135775000Y-91300000D03*
D12*
X154500000Y-90481500D03*
X154500000Y-94583500D03*
X82500000Y-85449000D03*
X82500000Y-89551000D03*
D13*
X148200000Y-91550000D03*
X142800000Y-91550000D03*
D14*
X142800000Y-90050000D03*
D13*
X148200000Y-90050000D03*
D12*
X136500000Y-67749000D03*
X136500000Y-71851000D03*
D13*
X184200000Y-93550000D03*
X178800000Y-93550000D03*
D14*
X178800000Y-92050000D03*
D13*
X184200000Y-92050000D03*
D12*
X118500000Y-49449000D03*
X118500000Y-53551000D03*
X118500000Y-83449000D03*
X118500000Y-87551000D03*
X118500000Y-100449000D03*
X118500000Y-104551000D03*
D17*
X185655483Y-133920297D03*
X195917429Y-139659196D03*
D18*
X183778447Y-118607492D03*
X182375481Y-122462112D03*
D10*
X70225000Y-118450000D03*
X81775000Y-116250000D03*
D12*
X136500000Y-84749000D03*
X136500000Y-88851000D03*
D13*
X166200000Y-93550000D03*
X160800000Y-93550000D03*
D14*
X160800000Y-92050000D03*
D13*
X166200000Y-92050000D03*
X112200000Y-106550000D03*
X106800000Y-106550000D03*
D14*
X106800000Y-105050000D03*
D13*
X112200000Y-105050000D03*
D10*
X124225000Y-76500000D03*
X135775000Y-74300000D03*
X70225000Y-84450000D03*
X81775000Y-82250000D03*
D12*
X172000000Y-57949000D03*
X172000000Y-62051000D03*
D10*
X142225000Y-84450000D03*
X153775000Y-82250000D03*
D19*
X150559492Y-120639067D03*
X162314503Y-120888523D03*
D13*
X112200000Y-72550000D03*
X106800000Y-72550000D03*
D14*
X106800000Y-71050000D03*
D13*
X112200000Y-71050000D03*
X130200000Y-100550000D03*
X124800000Y-100550000D03*
D14*
X124800000Y-99050000D03*
D13*
X130200000Y-99050000D03*
D10*
X160225000Y-69450000D03*
X171775000Y-67250000D03*
X106225000Y-99450000D03*
X117775000Y-97250000D03*
D20*
X196596197Y-130177113D03*
X192459557Y-126706060D03*
D21*
X193423739Y-125556993D03*
D20*
X197560379Y-129028046D03*
D13*
X76200000Y-91550000D03*
X70800000Y-91550000D03*
D14*
X70800000Y-90050000D03*
D13*
X76200000Y-90050000D03*
D22*
X158462250Y-112197678D03*
X153180253Y-111074955D03*
D23*
X153492120Y-109607734D03*
D22*
X158774117Y-110730457D03*
D12*
X190000000Y-91949000D03*
X190000000Y-96051000D03*
D10*
X124225000Y-59500000D03*
X135775000Y-57300000D03*
D13*
X166200000Y-76550000D03*
X160800000Y-76550000D03*
D14*
X160800000Y-75050000D03*
D13*
X166200000Y-75050000D03*
D12*
X100500000Y-68268000D03*
X100500000Y-72370000D03*
D10*
X70225000Y-101450000D03*
X81775000Y-99250000D03*
D12*
X82500000Y-102449000D03*
X82500000Y-106551000D03*
D13*
X76200000Y-74550000D03*
X70800000Y-74550000D03*
D14*
X70800000Y-73050000D03*
D13*
X76200000Y-73050000D03*
D10*
X88225000Y-96450000D03*
X99775000Y-94250000D03*
D13*
X130200000Y-83600000D03*
X124800000Y-83600000D03*
D14*
X124800000Y-82100000D03*
D13*
X130200000Y-82100000D03*
X94200000Y-103550000D03*
X88800000Y-103550000D03*
D14*
X88800000Y-102050000D03*
D13*
X94200000Y-102050000D03*
D12*
X154500000Y-73481500D03*
X154500000Y-77583500D03*
D13*
X166200000Y-59550000D03*
X160800000Y-59550000D03*
D14*
X160800000Y-58050000D03*
D13*
X166200000Y-58050000D03*
D12*
X100500000Y-102268000D03*
X100500000Y-106370000D03*
D24*
X177780655Y-118128224D03*
X172706315Y-116281315D03*
D25*
X173219345Y-114871776D03*
D24*
X178293685Y-116718685D03*
D12*
X136500000Y-50749000D03*
X136500000Y-54851000D03*
D10*
X160225000Y-103450000D03*
X171775000Y-101250000D03*
D12*
X172000000Y-91949000D03*
X172000000Y-96051000D03*
D10*
X178225000Y-103450000D03*
X189775000Y-101250000D03*
M02*
