%TF.GenerationSoftware,KiCad,Pcbnew,6.0.11-3.fc36*%
%TF.CreationDate,2023-02-22T18:11:41-05:00*%
%TF.ProjectId,kb40,6b623430-2e6b-4696-9361-645f70636258,rev?*%
%TF.SameCoordinates,Original*%
%TF.FileFunction,Drillmap*%
%TF.FilePolarity,Positive*%
%FSLAX45Y45*%
G04 Gerber Fmt 4.5, Leading zero omitted, Abs format (unit mm)*
G04 Created by KiCad (PCBNEW 6.0.11-3.fc36) date 2023-02-22 18:11:41*
%MOMM*%
%LPD*%
G01*
G04 APERTURE LIST*
%ADD10C,0.100000*%
%ADD11C,0.200000*%
%ADD12C,0.030000*%
%ADD13C,0.040000*%
%ADD14C,0.109220*%
G04 APERTURE END LIST*
D10*
X9850000Y-12100000D02*
X12050000Y-12100000D01*
X13950000Y-5000000D02*
X15750000Y-5000000D01*
X19380200Y-12000000D02*
X19380200Y-8900000D01*
X17322800Y-4978400D02*
X17322800Y-5200000D01*
X7950000Y-6200000D02*
X9750000Y-6200000D01*
X19380200Y-12000000D02*
X19380000Y-12105000D01*
X15750000Y-5000000D02*
X15750000Y-5200000D01*
X19250000Y-4978400D02*
X19380200Y-4978400D01*
X15750000Y-5200000D02*
X17322800Y-5200000D01*
X19380200Y-5120000D02*
X19380200Y-5300000D01*
X9750000Y-6200000D02*
X9750000Y-4800000D01*
X6250000Y-12300000D02*
X8450000Y-12300000D01*
X19483529Y-14570171D02*
X20677146Y-13163011D01*
X7950000Y-6700000D02*
X7950000Y-6200000D01*
X20677146Y-13163011D02*
X19380000Y-12105000D01*
X6250000Y-6700000D02*
X7950000Y-6700000D01*
X17322800Y-4978400D02*
X19250000Y-4978400D01*
X19380200Y-8900000D02*
X19380200Y-5300000D01*
X9850000Y-12100000D02*
X8450000Y-12100000D01*
X8450000Y-12100000D02*
X8450000Y-12300000D01*
X19483529Y-14570171D02*
G75*
G03*
X13450000Y-12150000I-6883529J-8429829D01*
G01*
X6250000Y-12100000D02*
X6250000Y-7000000D01*
X11550000Y-4200000D02*
X13950000Y-4200000D01*
X13950000Y-4200000D02*
X13950000Y-5000000D01*
X6250000Y-12100000D02*
X6250000Y-12300000D01*
X11550000Y-4800000D02*
X11550000Y-4200000D01*
X6250000Y-7000000D02*
X6250000Y-6700000D01*
X19380200Y-4978400D02*
X19380200Y-5120000D01*
X9750000Y-4800000D02*
X11550000Y-4800000D01*
X12050000Y-12100000D02*
X13450000Y-12150000D01*
D11*
D12*
X8196900Y-7122000D02*
X8226900Y-7152000D01*
X8226900Y-7122000D02*
X8196900Y-7152000D01*
X8196900Y-8822000D02*
X8226900Y-8852000D01*
X8226900Y-8822000D02*
X8196900Y-8852000D01*
X8196900Y-10522000D02*
X8226900Y-10552000D01*
X8226900Y-10522000D02*
X8196900Y-10552000D01*
X8273100Y-6946100D02*
X8303100Y-6976100D01*
X8303100Y-6946100D02*
X8273100Y-6976100D01*
X8273100Y-8646100D02*
X8303100Y-8676100D01*
X8303100Y-8646100D02*
X8273100Y-8676100D01*
X8273100Y-10346100D02*
X8303100Y-10376100D01*
X8303100Y-10346100D02*
X8273100Y-10376100D01*
X9996900Y-7103900D02*
X10026900Y-7133900D01*
X10026900Y-7103900D02*
X9996900Y-7133900D01*
X9996900Y-8803900D02*
X10026900Y-8833900D01*
X10026900Y-8803900D02*
X9996900Y-8833900D01*
X9996900Y-10503900D02*
X10026900Y-10533900D01*
X10026900Y-10503900D02*
X9996900Y-10533900D01*
X10073100Y-6928000D02*
X10103100Y-6958000D01*
X10103100Y-6928000D02*
X10073100Y-6958000D01*
X10073100Y-8628000D02*
X10103100Y-8658000D01*
X10103100Y-8628000D02*
X10073100Y-8658000D01*
X10073100Y-10328000D02*
X10103100Y-10358000D01*
X10103100Y-10328000D02*
X10073100Y-10358000D01*
X11796900Y-5222000D02*
X11826900Y-5252000D01*
X11826900Y-5222000D02*
X11796900Y-5252000D01*
X11796900Y-6922000D02*
X11826900Y-6952000D01*
X11826900Y-6922000D02*
X11796900Y-6952000D01*
X11796900Y-8622000D02*
X11826900Y-8652000D01*
X11826900Y-8622000D02*
X11796900Y-8652000D01*
X11796900Y-10322000D02*
X11826900Y-10352000D01*
X11826900Y-10322000D02*
X11796900Y-10352000D01*
X11873100Y-5046100D02*
X11903100Y-5076100D01*
X11903100Y-5046100D02*
X11873100Y-5076100D01*
X11873100Y-6746100D02*
X11903100Y-6776100D01*
X11903100Y-6746100D02*
X11873100Y-6776100D01*
X11873100Y-8446100D02*
X11903100Y-8476100D01*
X11903100Y-8446100D02*
X11873100Y-8476100D01*
X11873100Y-10146100D02*
X11903100Y-10176100D01*
X11903100Y-10146100D02*
X11873100Y-10176100D01*
X13596900Y-5352000D02*
X13626900Y-5382000D01*
X13626900Y-5352000D02*
X13596900Y-5382000D01*
X13596900Y-7052000D02*
X13626900Y-7082000D01*
X13626900Y-7052000D02*
X13596900Y-7082000D01*
X13596900Y-8752000D02*
X13626900Y-8782000D01*
X13626900Y-8752000D02*
X13596900Y-8782000D01*
X13596900Y-10447000D02*
X13626900Y-10477000D01*
X13626900Y-10447000D02*
X13596900Y-10477000D01*
X13673100Y-5176100D02*
X13703100Y-5206100D01*
X13703100Y-5176100D02*
X13673100Y-5206100D01*
X13673100Y-6876100D02*
X13703100Y-6906100D01*
X13703100Y-6876100D02*
X13673100Y-6906100D01*
X13673100Y-8576100D02*
X13703100Y-8606100D01*
X13703100Y-8576100D02*
X13673100Y-8606100D01*
X13673100Y-10271100D02*
X13703100Y-10301100D01*
X13703100Y-10271100D02*
X13673100Y-10301100D01*
X15396900Y-5925250D02*
X15426900Y-5955250D01*
X15426900Y-5925250D02*
X15396900Y-5955250D01*
X15396900Y-7625250D02*
X15426900Y-7655250D01*
X15426900Y-7625250D02*
X15396900Y-7655250D01*
X15396900Y-9325250D02*
X15426900Y-9355250D01*
X15426900Y-9325250D02*
X15396900Y-9355250D01*
X15473100Y-5749350D02*
X15503100Y-5779350D01*
X15503100Y-5749350D02*
X15473100Y-5779350D01*
X15473100Y-7449350D02*
X15503100Y-7479350D01*
X15503100Y-7449350D02*
X15473100Y-7479350D01*
X15473100Y-9149350D02*
X15503100Y-9179350D01*
X15503100Y-9149350D02*
X15473100Y-9179350D01*
X16333839Y-11446551D02*
X16363839Y-11476551D01*
X16363839Y-11446551D02*
X16333839Y-11476551D01*
X16444945Y-11290337D02*
X16474945Y-11320337D01*
X16474945Y-11290337D02*
X16444945Y-11320337D01*
X17146900Y-6072000D02*
X17176900Y-6102000D01*
X17176900Y-6072000D02*
X17146900Y-6102000D01*
X17146900Y-7772000D02*
X17176900Y-7802000D01*
X17176900Y-7772000D02*
X17146900Y-7802000D01*
X17146900Y-9472000D02*
X17176900Y-9502000D01*
X17176900Y-9472000D02*
X17146900Y-9502000D01*
X17223100Y-5896100D02*
X17253100Y-5926100D01*
X17253100Y-5896100D02*
X17223100Y-5926100D01*
X17223100Y-7596100D02*
X17253100Y-7626100D01*
X17253100Y-7596100D02*
X17223100Y-7626100D01*
X17223100Y-9296100D02*
X17253100Y-9326100D01*
X17253100Y-9296100D02*
X17223100Y-9326100D01*
X18227138Y-12107202D02*
X18257138Y-12137202D01*
X18257138Y-12107202D02*
X18227138Y-12137202D01*
X18358904Y-11967972D02*
X18388904Y-11997972D01*
X18388904Y-11967972D02*
X18358904Y-11997972D01*
X18946900Y-9472000D02*
X18976900Y-9502000D01*
X18976900Y-9472000D02*
X18946900Y-9502000D01*
X19023100Y-9296100D02*
X19053100Y-9326100D01*
X19053100Y-9296100D02*
X19023100Y-9326100D01*
X19974891Y-13452156D02*
X20004891Y-13482156D01*
X20004891Y-13452156D02*
X19974891Y-13482156D01*
X20146330Y-13366389D02*
X20176330Y-13396389D01*
X20176330Y-13366389D02*
X20146330Y-13396389D01*
D13*
X6977158Y-10774316D02*
G75*
G03*
X6977158Y-10774316I-20000J0D01*
G01*
X6979232Y-7377885D02*
G75*
G03*
X6979232Y-7377885I-20000J0D01*
G01*
X6979506Y-9081684D02*
G75*
G03*
X6979506Y-9081684I-20000J0D01*
G01*
X6979600Y-7239000D02*
G75*
G03*
X6979600Y-7239000I-20000J0D01*
G01*
X7030400Y-7569200D02*
G75*
G03*
X7030400Y-7569200I-20000J0D01*
G01*
X7030400Y-9499600D02*
G75*
G03*
X7030400Y-9499600I-20000J0D01*
G01*
X7055800Y-9271000D02*
G75*
G03*
X7055800Y-9271000I-20000J0D01*
G01*
X7055800Y-10998200D02*
G75*
G03*
X7055800Y-10998200I-20000J0D01*
G01*
X7081200Y-11455400D02*
G75*
G03*
X7081200Y-11455400I-20000J0D01*
G01*
X7132000Y-8229600D02*
G75*
G03*
X7132000Y-8229600I-20000J0D01*
G01*
X7132000Y-9931400D02*
G75*
G03*
X7132000Y-9931400I-20000J0D01*
G01*
X7132000Y-11633200D02*
G75*
G03*
X7132000Y-11633200I-20000J0D01*
G01*
X7760279Y-9078650D02*
G75*
G03*
X7760279Y-9078650I-20000J0D01*
G01*
X7762591Y-7374779D02*
G75*
G03*
X7762591Y-7374779I-20000J0D01*
G01*
X7762701Y-10785423D02*
G75*
G03*
X7762701Y-10785423I-20000J0D01*
G01*
X8046400Y-9093200D02*
G75*
G03*
X8046400Y-9093200I-20000J0D01*
G01*
X8046400Y-10795000D02*
G75*
G03*
X8046400Y-10795000I-20000J0D01*
G01*
X8080000Y-7400000D02*
G75*
G03*
X8080000Y-7400000I-20000J0D01*
G01*
X8097200Y-7924800D02*
G75*
G03*
X8097200Y-7924800I-20000J0D01*
G01*
X8097200Y-9626600D02*
G75*
G03*
X8097200Y-9626600I-20000J0D01*
G01*
X8122600Y-11328400D02*
G75*
G03*
X8122600Y-11328400I-20000J0D01*
G01*
X8402000Y-7086600D02*
G75*
G03*
X8402000Y-7086600I-20000J0D01*
G01*
X8434950Y-10490200D02*
G75*
G03*
X8434950Y-10490200I-20000J0D01*
G01*
X8442631Y-8839200D02*
G75*
G03*
X8442631Y-8839200I-20000J0D01*
G01*
X8452800Y-6731000D02*
G75*
G03*
X8452800Y-6731000I-20000J0D01*
G01*
X8777574Y-8575077D02*
G75*
G03*
X8777574Y-8575077I-20000J0D01*
G01*
X8777821Y-10275519D02*
G75*
G03*
X8777821Y-10275519I-20000J0D01*
G01*
X8779046Y-6877586D02*
G75*
G03*
X8779046Y-6877586I-20000J0D01*
G01*
X8833800Y-7086600D02*
G75*
G03*
X8833800Y-7086600I-20000J0D01*
G01*
X8859200Y-8788400D02*
G75*
G03*
X8859200Y-8788400I-20000J0D01*
G01*
X8859200Y-10490200D02*
G75*
G03*
X8859200Y-10490200I-20000J0D01*
G01*
X8935400Y-7721600D02*
G75*
G03*
X8935400Y-7721600I-20000J0D01*
G01*
X8935400Y-9423400D02*
G75*
G03*
X8935400Y-9423400I-20000J0D01*
G01*
X8935400Y-11125200D02*
G75*
G03*
X8935400Y-11125200I-20000J0D01*
G01*
X9559456Y-8580115D02*
G75*
G03*
X9559456Y-8580115I-20000J0D01*
G01*
X9560396Y-6878470D02*
G75*
G03*
X9560396Y-6878470I-20000J0D01*
G01*
X9561958Y-10284093D02*
G75*
G03*
X9561958Y-10284093I-20000J0D01*
G01*
X9760000Y-6780000D02*
G75*
G03*
X9760000Y-6780000I-20000J0D01*
G01*
X9824400Y-10261600D02*
G75*
G03*
X9824400Y-10261600I-20000J0D01*
G01*
X9849800Y-8585200D02*
G75*
G03*
X9849800Y-8585200I-20000J0D01*
G01*
X9858050Y-9609450D02*
G75*
G03*
X9858050Y-9609450I-20000J0D01*
G01*
X9900600Y-7442200D02*
G75*
G03*
X9900600Y-7442200I-20000J0D01*
G01*
X9926000Y-10820400D02*
G75*
G03*
X9926000Y-10820400I-20000J0D01*
G01*
X10053000Y-5588000D02*
G75*
G03*
X10053000Y-5588000I-20000J0D01*
G01*
X10078830Y-6071030D02*
G75*
G03*
X10078830Y-6071030I-20000J0D01*
G01*
X10116500Y-11772900D02*
G75*
G03*
X10116500Y-11772900I-20000J0D01*
G01*
X10230800Y-11201400D02*
G75*
G03*
X10230800Y-11201400I-20000J0D01*
G01*
X10279725Y-7465725D02*
G75*
G03*
X10279725Y-7465725I-20000J0D01*
G01*
X10383200Y-9194800D02*
G75*
G03*
X10383200Y-9194800I-20000J0D01*
G01*
X10577156Y-7174311D02*
G75*
G03*
X10577156Y-7174311I-20000J0D01*
G01*
X10577156Y-8874311D02*
G75*
G03*
X10577156Y-8874311I-20000J0D01*
G01*
X10577156Y-10574311D02*
G75*
G03*
X10577156Y-10574311I-20000J0D01*
G01*
X10579046Y-5477586D02*
G75*
G03*
X10579046Y-5477586I-20000J0D01*
G01*
X10633958Y-5654231D02*
G75*
G03*
X10633958Y-5654231I-20000J0D01*
G01*
X10637200Y-7366000D02*
G75*
G03*
X10637200Y-7366000I-20000J0D01*
G01*
X10662600Y-9093200D02*
G75*
G03*
X10662600Y-9093200I-20000J0D01*
G01*
X10662600Y-10769600D02*
G75*
G03*
X10662600Y-10769600I-20000J0D01*
G01*
X10738800Y-6324600D02*
G75*
G03*
X10738800Y-6324600I-20000J0D01*
G01*
X10738800Y-8026400D02*
G75*
G03*
X10738800Y-8026400I-20000J0D01*
G01*
X10738800Y-9728200D02*
G75*
G03*
X10738800Y-9728200I-20000J0D01*
G01*
X10738800Y-11430000D02*
G75*
G03*
X10738800Y-11430000I-20000J0D01*
G01*
X11360702Y-10582011D02*
G75*
G03*
X11360702Y-10582011I-20000J0D01*
G01*
X11360954Y-5482414D02*
G75*
G03*
X11360954Y-5482414I-20000J0D01*
G01*
X11360985Y-8882464D02*
G75*
G03*
X11360985Y-8882464I-20000J0D01*
G01*
X11361256Y-7182907D02*
G75*
G03*
X11361256Y-7182907I-20000J0D01*
G01*
X11622550Y-7146948D02*
G75*
G03*
X11622550Y-7146948I-20000J0D01*
G01*
X11627800Y-8839200D02*
G75*
G03*
X11627800Y-8839200I-20000J0D01*
G01*
X11640000Y-5460000D02*
G75*
G03*
X11640000Y-5460000I-20000J0D01*
G01*
X11653200Y-10617200D02*
G75*
G03*
X11653200Y-10617200I-20000J0D01*
G01*
X11729400Y-6019800D02*
G75*
G03*
X11729400Y-6019800I-20000J0D01*
G01*
X11729400Y-7721600D02*
G75*
G03*
X11729400Y-7721600I-20000J0D01*
G01*
X11729400Y-9423400D02*
G75*
G03*
X11729400Y-9423400I-20000J0D01*
G01*
X11729400Y-11125200D02*
G75*
G03*
X11729400Y-11125200I-20000J0D01*
G01*
X11828008Y-11751376D02*
G75*
G03*
X11828008Y-11751376I-20000J0D01*
G01*
X12055850Y-8509050D02*
G75*
G03*
X12055850Y-8509050I-20000J0D01*
G01*
X12055850Y-10222650D02*
G75*
G03*
X12055850Y-10222650I-20000J0D01*
G01*
X12057760Y-6881560D02*
G75*
G03*
X12057760Y-6881560I-20000J0D01*
G01*
X12086411Y-10636686D02*
G75*
G03*
X12086411Y-10636686I-20000J0D01*
G01*
X12110400Y-11455400D02*
G75*
G03*
X12110400Y-11455400I-20000J0D01*
G01*
X12377698Y-8280300D02*
G75*
G03*
X12377698Y-8280300I-20000J0D01*
G01*
X12377866Y-6580599D02*
G75*
G03*
X12377866Y-6580599I-20000J0D01*
G01*
X12380041Y-9979138D02*
G75*
G03*
X12380041Y-9979138I-20000J0D01*
G01*
X12380121Y-4884259D02*
G75*
G03*
X12380121Y-4884259I-20000J0D01*
G01*
X12440600Y-5080000D02*
G75*
G03*
X12440600Y-5080000I-20000J0D01*
G01*
X12440600Y-8483600D02*
G75*
G03*
X12440600Y-8483600I-20000J0D01*
G01*
X12466000Y-6781800D02*
G75*
G03*
X12466000Y-6781800I-20000J0D01*
G01*
X12466000Y-10185400D02*
G75*
G03*
X12466000Y-10185400I-20000J0D01*
G01*
X12542200Y-5715000D02*
G75*
G03*
X12542200Y-5715000I-20000J0D01*
G01*
X12542200Y-7416800D02*
G75*
G03*
X12542200Y-7416800I-20000J0D01*
G01*
X12542200Y-9118600D02*
G75*
G03*
X12542200Y-9118600I-20000J0D01*
G01*
X12542200Y-10820400D02*
G75*
G03*
X12542200Y-10820400I-20000J0D01*
G01*
X13160017Y-4884051D02*
G75*
G03*
X13160017Y-4884051I-20000J0D01*
G01*
X13160028Y-6584033D02*
G75*
G03*
X13160028Y-6584033I-20000J0D01*
G01*
X13160621Y-9981882D02*
G75*
G03*
X13160621Y-9981882I-20000J0D01*
G01*
X13162846Y-8290692D02*
G75*
G03*
X13162846Y-8290692I-20000J0D01*
G01*
X13431200Y-8280400D02*
G75*
G03*
X13431200Y-8280400I-20000J0D01*
G01*
X13456600Y-10007600D02*
G75*
G03*
X13456600Y-10007600I-20000J0D01*
G01*
X13480000Y-4900000D02*
G75*
G03*
X13480000Y-4900000I-20000J0D01*
G01*
X13481570Y-6654370D02*
G75*
G03*
X13481570Y-6654370I-20000J0D01*
G01*
X13482000Y-9499600D02*
G75*
G03*
X13482000Y-9499600I-20000J0D01*
G01*
X13507400Y-11176000D02*
G75*
G03*
X13507400Y-11176000I-20000J0D01*
G01*
X13595000Y-6075000D02*
G75*
G03*
X13595000Y-6075000I-20000J0D01*
G01*
X13596300Y-7734300D02*
G75*
G03*
X13596300Y-7734300I-20000J0D01*
G01*
X13833850Y-7620000D02*
G75*
G03*
X13833850Y-7620000I-20000J0D01*
G01*
X13833850Y-9296400D02*
G75*
G03*
X13833850Y-9296400I-20000J0D01*
G01*
X13863000Y-5892800D02*
G75*
G03*
X13863000Y-5892800I-20000J0D01*
G01*
X13913800Y-11480800D02*
G75*
G03*
X13913800Y-11480800I-20000J0D01*
G01*
X13964600Y-11049000D02*
G75*
G03*
X13964600Y-11049000I-20000J0D01*
G01*
X14142400Y-6976250D02*
G75*
G03*
X14142400Y-6976250I-20000J0D01*
G01*
X14142400Y-11252200D02*
G75*
G03*
X14142400Y-11252200I-20000J0D01*
G01*
X14142400Y-11480800D02*
G75*
G03*
X14142400Y-11480800I-20000J0D01*
G01*
X14177810Y-9084501D02*
G75*
G03*
X14177810Y-9084501I-20000J0D01*
G01*
X14178051Y-7375921D02*
G75*
G03*
X14178051Y-7375921I-20000J0D01*
G01*
X14179046Y-5677586D02*
G75*
G03*
X14179046Y-5677586I-20000J0D01*
G01*
X14242674Y-5855568D02*
G75*
G03*
X14242674Y-5855568I-20000J0D01*
G01*
X14269400Y-7569200D02*
G75*
G03*
X14269400Y-7569200I-20000J0D01*
G01*
X14269400Y-9271000D02*
G75*
G03*
X14269400Y-9271000I-20000J0D01*
G01*
X14345600Y-6527800D02*
G75*
G03*
X14345600Y-6527800I-20000J0D01*
G01*
X14345600Y-8229600D02*
G75*
G03*
X14345600Y-8229600I-20000J0D01*
G01*
X14345600Y-9931400D02*
G75*
G03*
X14345600Y-9931400I-20000J0D01*
G01*
X14853600Y-11125200D02*
G75*
G03*
X14853600Y-11125200I-20000J0D01*
G01*
X14958188Y-11026589D02*
G75*
G03*
X14958188Y-11026589I-20000J0D01*
G01*
X14960954Y-5682414D02*
G75*
G03*
X14960954Y-5682414I-20000J0D01*
G01*
X14962565Y-9085175D02*
G75*
G03*
X14962565Y-9085175I-20000J0D01*
G01*
X14964823Y-7370258D02*
G75*
G03*
X14964823Y-7370258I-20000J0D01*
G01*
X15205700Y-9045900D02*
G75*
G03*
X15205700Y-9045900I-20000J0D01*
G01*
X15209200Y-8483600D02*
G75*
G03*
X15209200Y-8483600I-20000J0D01*
G01*
X15209200Y-10185400D02*
G75*
G03*
X15209200Y-10185400I-20000J0D01*
G01*
X15209200Y-11760200D02*
G75*
G03*
X15209200Y-11760200I-20000J0D01*
G01*
X15234600Y-11861800D02*
G75*
G03*
X15234600Y-11861800I-20000J0D01*
G01*
X15234657Y-11003081D02*
G75*
G03*
X15234657Y-11003081I-20000J0D01*
G01*
X15238350Y-7391400D02*
G75*
G03*
X15238350Y-7391400I-20000J0D01*
G01*
X15260000Y-11226800D02*
G75*
G03*
X15260000Y-11226800I-20000J0D01*
G01*
X15280000Y-5700000D02*
G75*
G03*
X15280000Y-5700000I-20000J0D01*
G01*
X15637250Y-7823200D02*
G75*
G03*
X15637250Y-7823200I-20000J0D01*
G01*
X15641000Y-9499600D02*
G75*
G03*
X15641000Y-9499600I-20000J0D01*
G01*
X15945800Y-7162800D02*
G75*
G03*
X15945800Y-7162800I-20000J0D01*
G01*
X15978751Y-5877106D02*
G75*
G03*
X15978751Y-5877106I-20000J0D01*
G01*
X15979460Y-7581754D02*
G75*
G03*
X15979460Y-7581754I-20000J0D01*
G01*
X15980496Y-9279814D02*
G75*
G03*
X15980496Y-9279814I-20000J0D01*
G01*
X15999957Y-11174855D02*
G75*
G03*
X15999957Y-11174855I-20000J0D01*
G01*
X16044884Y-6055754D02*
G75*
G03*
X16044884Y-6055754I-20000J0D01*
G01*
X16047400Y-7772400D02*
G75*
G03*
X16047400Y-7772400I-20000J0D01*
G01*
X16047400Y-9499600D02*
G75*
G03*
X16047400Y-9499600I-20000J0D01*
G01*
X16149000Y-6731000D02*
G75*
G03*
X16149000Y-6731000I-20000J0D01*
G01*
X16149000Y-8432800D02*
G75*
G03*
X16149000Y-8432800I-20000J0D01*
G01*
X16149000Y-10134600D02*
G75*
G03*
X16149000Y-10134600I-20000J0D01*
G01*
X16276000Y-11252200D02*
G75*
G03*
X16276000Y-11252200I-20000J0D01*
G01*
X16326800Y-10693400D02*
G75*
G03*
X16326800Y-10693400I-20000J0D01*
G01*
X16760396Y-5878470D02*
G75*
G03*
X16760396Y-5878470I-20000J0D01*
G01*
X16761635Y-9283540D02*
G75*
G03*
X16761635Y-9283540I-20000J0D01*
G01*
X16762792Y-7585591D02*
G75*
G03*
X16762792Y-7585591I-20000J0D01*
G01*
X16860200Y-10693400D02*
G75*
G03*
X16860200Y-10693400I-20000J0D01*
G01*
X16860200Y-11353800D02*
G75*
G03*
X16860200Y-11353800I-20000J0D01*
G01*
X16872900Y-11214100D02*
G75*
G03*
X16872900Y-11214100I-20000J0D01*
G01*
X16987200Y-12065000D02*
G75*
G03*
X16987200Y-12065000I-20000J0D01*
G01*
X17012600Y-8686800D02*
G75*
G03*
X17012600Y-8686800I-20000J0D01*
G01*
X17012600Y-10388600D02*
G75*
G03*
X17012600Y-10388600I-20000J0D01*
G01*
X17015988Y-7569466D02*
G75*
G03*
X17015988Y-7569466I-20000J0D01*
G01*
X17032456Y-9258994D02*
G75*
G03*
X17032456Y-9258994I-20000J0D01*
G01*
X17040000Y-5860000D02*
G75*
G03*
X17040000Y-5860000I-20000J0D01*
G01*
X17084135Y-6074685D02*
G75*
G03*
X17084135Y-6074685I-20000J0D01*
G01*
X17114200Y-12395200D02*
G75*
G03*
X17114200Y-12395200I-20000J0D01*
G01*
X17139600Y-11963400D02*
G75*
G03*
X17139600Y-11963400I-20000J0D01*
G01*
X17190400Y-11734800D02*
G75*
G03*
X17190400Y-11734800I-20000J0D01*
G01*
X17203984Y-11516348D02*
G75*
G03*
X17203984Y-11516348I-20000J0D01*
G01*
X17292000Y-10515600D02*
G75*
G03*
X17292000Y-10515600I-20000J0D01*
G01*
X17292000Y-11277600D02*
G75*
G03*
X17292000Y-11277600I-20000J0D01*
G01*
X17723800Y-8432800D02*
G75*
G03*
X17723800Y-8432800I-20000J0D01*
G01*
X17777449Y-9274852D02*
G75*
G03*
X17777449Y-9274852I-20000J0D01*
G01*
X17850800Y-9474200D02*
G75*
G03*
X17850800Y-9474200I-20000J0D01*
G01*
X17936578Y-11786113D02*
G75*
G03*
X17936578Y-11786113I-20000J0D01*
G01*
X18012242Y-10072798D02*
G75*
G03*
X18012242Y-10072798I-20000J0D01*
G01*
X18028600Y-11150600D02*
G75*
G03*
X18028600Y-11150600I-20000J0D01*
G01*
X18079400Y-8204200D02*
G75*
G03*
X18079400Y-8204200I-20000J0D01*
G01*
X18206400Y-11861800D02*
G75*
G03*
X18206400Y-11861800I-20000J0D01*
G01*
X18226906Y-10105450D02*
G75*
G03*
X18226906Y-10105450I-20000J0D01*
G01*
X18308000Y-8483600D02*
G75*
G03*
X18308000Y-8483600I-20000J0D01*
G01*
X18314963Y-8276650D02*
G75*
G03*
X18314963Y-8276650I-20000J0D01*
G01*
X18511200Y-10972800D02*
G75*
G03*
X18511200Y-10972800I-20000J0D01*
G01*
X18560577Y-9281813D02*
G75*
G03*
X18560577Y-9281813I-20000J0D01*
G01*
X18790600Y-10388600D02*
G75*
G03*
X18790600Y-10388600I-20000J0D01*
G01*
X18816000Y-13258800D02*
G75*
G03*
X18816000Y-13258800I-20000J0D01*
G01*
X18831770Y-9254370D02*
G75*
G03*
X18831770Y-9254370I-20000J0D01*
G01*
X18866800Y-5283200D02*
G75*
G03*
X18866800Y-5283200I-20000J0D01*
G01*
X18866800Y-5791200D02*
G75*
G03*
X18866800Y-5791200I-20000J0D01*
G01*
X18866800Y-6299200D02*
G75*
G03*
X18866800Y-6299200I-20000J0D01*
G01*
X18866800Y-6553200D02*
G75*
G03*
X18866800Y-6553200I-20000J0D01*
G01*
X18866800Y-6807200D02*
G75*
G03*
X18866800Y-6807200I-20000J0D01*
G01*
X18866800Y-7061200D02*
G75*
G03*
X18866800Y-7061200I-20000J0D01*
G01*
X18866800Y-7315200D02*
G75*
G03*
X18866800Y-7315200I-20000J0D01*
G01*
X18866800Y-7569200D02*
G75*
G03*
X18866800Y-7569200I-20000J0D01*
G01*
X18866800Y-7823200D02*
G75*
G03*
X18866800Y-7823200I-20000J0D01*
G01*
X18866800Y-8077200D02*
G75*
G03*
X18866800Y-8077200I-20000J0D01*
G01*
X19120800Y-12725400D02*
G75*
G03*
X19120800Y-12725400I-20000J0D01*
G01*
X19223720Y-12529823D02*
G75*
G03*
X19223720Y-12529823I-20000J0D01*
G01*
X19298600Y-6045200D02*
G75*
G03*
X19298600Y-6045200I-20000J0D01*
G01*
X19451000Y-13411200D02*
G75*
G03*
X19451000Y-13411200I-20000J0D01*
G01*
X19818770Y-13040919D02*
G75*
G03*
X19818770Y-13040919I-20000J0D01*
G01*
X20111400Y-13106400D02*
G75*
G03*
X20111400Y-13106400I-20000J0D01*
G01*
D10*
X17918000Y-8732500D02*
X17918000Y-8832500D01*
X17868000Y-8782500D02*
X17968000Y-8782500D01*
X18172000Y-8732500D02*
X18172000Y-8832500D01*
X18122000Y-8782500D02*
X18222000Y-8782500D01*
X18224400Y-10890600D02*
X18224400Y-10990600D01*
X18174400Y-10940600D02*
X18274400Y-10940600D01*
D11*
X18124400Y-10990600D02*
X18324400Y-10990600D01*
X18124400Y-10890600D02*
X18324400Y-10890600D01*
X18324400Y-10990600D02*
G75*
G03*
X18324400Y-10890600I0J50000D01*
G01*
X18124400Y-10890600D02*
G75*
G03*
X18124400Y-10990600I0J-50000D01*
G01*
D10*
X18224400Y-11310600D02*
X18224400Y-11410600D01*
X18174400Y-11360600D02*
X18274400Y-11360600D01*
D11*
X18124400Y-11410600D02*
X18324400Y-11410600D01*
X18124400Y-11310600D02*
X18324400Y-11310600D01*
X18324400Y-11410600D02*
G75*
G03*
X18324400Y-11310600I0J50000D01*
G01*
X18124400Y-11310600D02*
G75*
G03*
X18124400Y-11410600I0J-50000D01*
G01*
D10*
X18426000Y-8732500D02*
X18426000Y-8832500D01*
X18376000Y-8782500D02*
X18476000Y-8782500D01*
X18680000Y-8732500D02*
X18680000Y-8832500D01*
X18630000Y-8782500D02*
X18730000Y-8782500D01*
X18699400Y-10890600D02*
X18699400Y-10990600D01*
X18649400Y-10940600D02*
X18749400Y-10940600D01*
D11*
X18674400Y-10990600D02*
X18724400Y-10990600D01*
X18674400Y-10890600D02*
X18724400Y-10890600D01*
X18724400Y-10990600D02*
G75*
G03*
X18724400Y-10890600I0J50000D01*
G01*
X18674400Y-10890600D02*
G75*
G03*
X18674400Y-10990600I0J-50000D01*
G01*
D10*
X18699400Y-11310600D02*
X18699400Y-11410600D01*
X18649400Y-11360600D02*
X18749400Y-11360600D01*
D11*
X18724400Y-11310600D02*
X18674400Y-11310600D01*
X18724400Y-11410600D02*
X18674400Y-11410600D01*
X18674400Y-11310600D02*
G75*
G03*
X18674400Y-11410600I0J-50000D01*
G01*
X18724400Y-11410600D02*
G75*
G03*
X18724400Y-11310600I0J50000D01*
G01*
D10*
X18999400Y-10890600D02*
X18999400Y-10990600D01*
X18949400Y-10940600D02*
X19049400Y-10940600D01*
D11*
X18974400Y-10990600D02*
X19024400Y-10990600D01*
X18974400Y-10890600D02*
X19024400Y-10890600D01*
X19024400Y-10990600D02*
G75*
G03*
X19024400Y-10890600I0J50000D01*
G01*
X18974400Y-10890600D02*
G75*
G03*
X18974400Y-10990600I0J-50000D01*
G01*
D10*
X18999400Y-11310600D02*
X18999400Y-11410600D01*
X18949400Y-11360600D02*
X19049400Y-11360600D01*
D11*
X19024400Y-11310600D02*
X18974400Y-11310600D01*
X19024400Y-11410600D02*
X18974400Y-11410600D01*
X18974400Y-11310600D02*
G75*
G03*
X18974400Y-11410600I0J-50000D01*
G01*
X19024400Y-11410600D02*
G75*
G03*
X19024400Y-11310600I0J50000D01*
G01*
D14*
X17564616Y-5318816D02*
X17564616Y-5241585D01*
X17487385Y-5241585D01*
X17487385Y-5318816D01*
X17564616Y-5318816D01*
X17564616Y-5572816D02*
X17564616Y-5495585D01*
X17487385Y-5495585D01*
X17487385Y-5572816D01*
X17564616Y-5572816D01*
X17564616Y-5826815D02*
X17564616Y-5749584D01*
X17487385Y-5749584D01*
X17487385Y-5826815D01*
X17564616Y-5826815D01*
X17564616Y-6080815D02*
X17564616Y-6003584D01*
X17487385Y-6003584D01*
X17487385Y-6080815D01*
X17564616Y-6080815D01*
X17564616Y-6334815D02*
X17564616Y-6257584D01*
X17487385Y-6257584D01*
X17487385Y-6334815D01*
X17564616Y-6334815D01*
X17564616Y-6588815D02*
X17564616Y-6511584D01*
X17487385Y-6511584D01*
X17487385Y-6588815D01*
X17564616Y-6588815D01*
X17564616Y-6842815D02*
X17564616Y-6765584D01*
X17487385Y-6765584D01*
X17487385Y-6842815D01*
X17564616Y-6842815D01*
X17564616Y-7096815D02*
X17564616Y-7019584D01*
X17487385Y-7019584D01*
X17487385Y-7096815D01*
X17564616Y-7096815D01*
X17564616Y-7350815D02*
X17564616Y-7273584D01*
X17487385Y-7273584D01*
X17487385Y-7350815D01*
X17564616Y-7350815D01*
X17564616Y-7604815D02*
X17564616Y-7527584D01*
X17487385Y-7527584D01*
X17487385Y-7604815D01*
X17564616Y-7604815D01*
X17564616Y-7858815D02*
X17564616Y-7781584D01*
X17487385Y-7781584D01*
X17487385Y-7858815D01*
X17564616Y-7858815D01*
X17564616Y-8112815D02*
X17564616Y-8035584D01*
X17487385Y-8035584D01*
X17487385Y-8112815D01*
X17564616Y-8112815D01*
X17717016Y-5194816D02*
X17717016Y-5117585D01*
X17639785Y-5117585D01*
X17639785Y-5194816D01*
X17717016Y-5194816D01*
X17717016Y-5448816D02*
X17717016Y-5371585D01*
X17639785Y-5371585D01*
X17639785Y-5448816D01*
X17717016Y-5448816D01*
X17717016Y-5702815D02*
X17717016Y-5625584D01*
X17639785Y-5625584D01*
X17639785Y-5702815D01*
X17717016Y-5702815D01*
X17717016Y-5956815D02*
X17717016Y-5879584D01*
X17639785Y-5879584D01*
X17639785Y-5956815D01*
X17717016Y-5956815D01*
X17717016Y-6210815D02*
X17717016Y-6133584D01*
X17639785Y-6133584D01*
X17639785Y-6210815D01*
X17717016Y-6210815D01*
X17717016Y-6464815D02*
X17717016Y-6387584D01*
X17639785Y-6387584D01*
X17639785Y-6464815D01*
X17717016Y-6464815D01*
X17717016Y-6718815D02*
X17717016Y-6641584D01*
X17639785Y-6641584D01*
X17639785Y-6718815D01*
X17717016Y-6718815D01*
X17717016Y-6972815D02*
X17717016Y-6895584D01*
X17639785Y-6895584D01*
X17639785Y-6972815D01*
X17717016Y-6972815D01*
X17717016Y-7226815D02*
X17717016Y-7149584D01*
X17639785Y-7149584D01*
X17639785Y-7226815D01*
X17717016Y-7226815D01*
X17717016Y-7480815D02*
X17717016Y-7403584D01*
X17639785Y-7403584D01*
X17639785Y-7480815D01*
X17717016Y-7480815D01*
X17717016Y-7734815D02*
X17717016Y-7657584D01*
X17639785Y-7657584D01*
X17639785Y-7734815D01*
X17717016Y-7734815D01*
X17717016Y-7988815D02*
X17717016Y-7911584D01*
X17639785Y-7911584D01*
X17639785Y-7988815D01*
X17717016Y-7988815D01*
X19088616Y-5318816D02*
X19088616Y-5241585D01*
X19011385Y-5241585D01*
X19011385Y-5318816D01*
X19088616Y-5318816D01*
X19088616Y-5572816D02*
X19088616Y-5495585D01*
X19011385Y-5495585D01*
X19011385Y-5572816D01*
X19088616Y-5572816D01*
X19088616Y-5826815D02*
X19088616Y-5749584D01*
X19011385Y-5749584D01*
X19011385Y-5826815D01*
X19088616Y-5826815D01*
X19088616Y-6080815D02*
X19088616Y-6003584D01*
X19011385Y-6003584D01*
X19011385Y-6080815D01*
X19088616Y-6080815D01*
X19088616Y-6334815D02*
X19088616Y-6257584D01*
X19011385Y-6257584D01*
X19011385Y-6334815D01*
X19088616Y-6334815D01*
X19088616Y-6588815D02*
X19088616Y-6511584D01*
X19011385Y-6511584D01*
X19011385Y-6588815D01*
X19088616Y-6588815D01*
X19088616Y-6842815D02*
X19088616Y-6765584D01*
X19011385Y-6765584D01*
X19011385Y-6842815D01*
X19088616Y-6842815D01*
X19088616Y-7096815D02*
X19088616Y-7019584D01*
X19011385Y-7019584D01*
X19011385Y-7096815D01*
X19088616Y-7096815D01*
X19088616Y-7350815D02*
X19088616Y-7273584D01*
X19011385Y-7273584D01*
X19011385Y-7350815D01*
X19088616Y-7350815D01*
X19088616Y-7604815D02*
X19088616Y-7527584D01*
X19011385Y-7527584D01*
X19011385Y-7604815D01*
X19088616Y-7604815D01*
X19088616Y-7858815D02*
X19088616Y-7781584D01*
X19011385Y-7781584D01*
X19011385Y-7858815D01*
X19088616Y-7858815D01*
X19088616Y-8112815D02*
X19088616Y-8035584D01*
X19011385Y-8035584D01*
X19011385Y-8112815D01*
X19088616Y-8112815D01*
X19241016Y-5194816D02*
X19241016Y-5117585D01*
X19163785Y-5117585D01*
X19163785Y-5194816D01*
X19241016Y-5194816D01*
X19241016Y-5448816D02*
X19241016Y-5371585D01*
X19163785Y-5371585D01*
X19163785Y-5448816D01*
X19241016Y-5448816D01*
X19241016Y-5702815D02*
X19241016Y-5625584D01*
X19163785Y-5625584D01*
X19163785Y-5702815D01*
X19241016Y-5702815D01*
X19241016Y-5956815D02*
X19241016Y-5879584D01*
X19163785Y-5879584D01*
X19163785Y-5956815D01*
X19241016Y-5956815D01*
X19241016Y-6210815D02*
X19241016Y-6133584D01*
X19163785Y-6133584D01*
X19163785Y-6210815D01*
X19241016Y-6210815D01*
X19241016Y-6464815D02*
X19241016Y-6387584D01*
X19163785Y-6387584D01*
X19163785Y-6464815D01*
X19241016Y-6464815D01*
X19241016Y-6718815D02*
X19241016Y-6641584D01*
X19163785Y-6641584D01*
X19163785Y-6718815D01*
X19241016Y-6718815D01*
X19241016Y-6972815D02*
X19241016Y-6895584D01*
X19163785Y-6895584D01*
X19163785Y-6972815D01*
X19241016Y-6972815D01*
X19241016Y-7226815D02*
X19241016Y-7149584D01*
X19163785Y-7149584D01*
X19163785Y-7226815D01*
X19241016Y-7226815D01*
X19241016Y-7480815D02*
X19241016Y-7403584D01*
X19163785Y-7403584D01*
X19163785Y-7480815D01*
X19241016Y-7480815D01*
X19241016Y-7734815D02*
X19241016Y-7657584D01*
X19163785Y-7657584D01*
X19163785Y-7734815D01*
X19241016Y-7734815D01*
X19241016Y-7988815D02*
X19241016Y-7911584D01*
X19163785Y-7911584D01*
X19163785Y-7988815D01*
X19241016Y-7988815D01*
D11*
X6502619Y-14885647D02*
X6502619Y-14685647D01*
X6550238Y-14685647D01*
X6578809Y-14695171D01*
X6597857Y-14714218D01*
X6607381Y-14733266D01*
X6616905Y-14771361D01*
X6616905Y-14799932D01*
X6607381Y-14838028D01*
X6597857Y-14857075D01*
X6578809Y-14876123D01*
X6550238Y-14885647D01*
X6502619Y-14885647D01*
X6702619Y-14885647D02*
X6702619Y-14752313D01*
X6702619Y-14790409D02*
X6712143Y-14771361D01*
X6721667Y-14761837D01*
X6740714Y-14752313D01*
X6759762Y-14752313D01*
X6826428Y-14885647D02*
X6826428Y-14752313D01*
X6826428Y-14685647D02*
X6816905Y-14695171D01*
X6826428Y-14704694D01*
X6835952Y-14695171D01*
X6826428Y-14685647D01*
X6826428Y-14704694D01*
X6950238Y-14885647D02*
X6931190Y-14876123D01*
X6921667Y-14857075D01*
X6921667Y-14685647D01*
X7055000Y-14885647D02*
X7035952Y-14876123D01*
X7026428Y-14857075D01*
X7026428Y-14685647D01*
X7283571Y-14885647D02*
X7283571Y-14685647D01*
X7350238Y-14828504D01*
X7416905Y-14685647D01*
X7416905Y-14885647D01*
X7597857Y-14885647D02*
X7597857Y-14780885D01*
X7588333Y-14761837D01*
X7569286Y-14752313D01*
X7531190Y-14752313D01*
X7512143Y-14761837D01*
X7597857Y-14876123D02*
X7578809Y-14885647D01*
X7531190Y-14885647D01*
X7512143Y-14876123D01*
X7502619Y-14857075D01*
X7502619Y-14838028D01*
X7512143Y-14818980D01*
X7531190Y-14809456D01*
X7578809Y-14809456D01*
X7597857Y-14799932D01*
X7693095Y-14752313D02*
X7693095Y-14952313D01*
X7693095Y-14761837D02*
X7712143Y-14752313D01*
X7750238Y-14752313D01*
X7769286Y-14761837D01*
X7778809Y-14771361D01*
X7788333Y-14790409D01*
X7788333Y-14847551D01*
X7778809Y-14866599D01*
X7769286Y-14876123D01*
X7750238Y-14885647D01*
X7712143Y-14885647D01*
X7693095Y-14876123D01*
X7874048Y-14866599D02*
X7883571Y-14876123D01*
X7874048Y-14885647D01*
X7864524Y-14876123D01*
X7874048Y-14866599D01*
X7874048Y-14885647D01*
X7874048Y-14761837D02*
X7883571Y-14771361D01*
X7874048Y-14780885D01*
X7864524Y-14771361D01*
X7874048Y-14761837D01*
X7874048Y-14780885D01*
D12*
X6215000Y-15200171D02*
X6245000Y-15230171D01*
X6245000Y-15200171D02*
X6215000Y-15230171D01*
D11*
X6540714Y-15105647D02*
X6559762Y-15105647D01*
X6578809Y-15115171D01*
X6588333Y-15124694D01*
X6597857Y-15143742D01*
X6607381Y-15181837D01*
X6607381Y-15229456D01*
X6597857Y-15267551D01*
X6588333Y-15286599D01*
X6578809Y-15296123D01*
X6559762Y-15305647D01*
X6540714Y-15305647D01*
X6521667Y-15296123D01*
X6512143Y-15286599D01*
X6502619Y-15267551D01*
X6493095Y-15229456D01*
X6493095Y-15181837D01*
X6502619Y-15143742D01*
X6512143Y-15124694D01*
X6521667Y-15115171D01*
X6540714Y-15105647D01*
X6693095Y-15286599D02*
X6702619Y-15296123D01*
X6693095Y-15305647D01*
X6683571Y-15296123D01*
X6693095Y-15286599D01*
X6693095Y-15305647D01*
X6769286Y-15105647D02*
X6893095Y-15105647D01*
X6826428Y-15181837D01*
X6855000Y-15181837D01*
X6874048Y-15191361D01*
X6883571Y-15200885D01*
X6893095Y-15219932D01*
X6893095Y-15267551D01*
X6883571Y-15286599D01*
X6874048Y-15296123D01*
X6855000Y-15305647D01*
X6797857Y-15305647D01*
X6778809Y-15296123D01*
X6769286Y-15286599D01*
X7016905Y-15105647D02*
X7035952Y-15105647D01*
X7055000Y-15115171D01*
X7064524Y-15124694D01*
X7074048Y-15143742D01*
X7083571Y-15181837D01*
X7083571Y-15229456D01*
X7074048Y-15267551D01*
X7064524Y-15286599D01*
X7055000Y-15296123D01*
X7035952Y-15305647D01*
X7016905Y-15305647D01*
X6997857Y-15296123D01*
X6988333Y-15286599D01*
X6978809Y-15267551D01*
X6969286Y-15229456D01*
X6969286Y-15181837D01*
X6978809Y-15143742D01*
X6988333Y-15124694D01*
X6997857Y-15115171D01*
X7016905Y-15105647D01*
X7207381Y-15105647D02*
X7226428Y-15105647D01*
X7245476Y-15115171D01*
X7255000Y-15124694D01*
X7264524Y-15143742D01*
X7274048Y-15181837D01*
X7274048Y-15229456D01*
X7264524Y-15267551D01*
X7255000Y-15286599D01*
X7245476Y-15296123D01*
X7226428Y-15305647D01*
X7207381Y-15305647D01*
X7188333Y-15296123D01*
X7178809Y-15286599D01*
X7169286Y-15267551D01*
X7159762Y-15229456D01*
X7159762Y-15181837D01*
X7169286Y-15143742D01*
X7178809Y-15124694D01*
X7188333Y-15115171D01*
X7207381Y-15105647D01*
X7359762Y-15305647D02*
X7359762Y-15172313D01*
X7359762Y-15191361D02*
X7369286Y-15181837D01*
X7388333Y-15172313D01*
X7416905Y-15172313D01*
X7435952Y-15181837D01*
X7445476Y-15200885D01*
X7445476Y-15305647D01*
X7445476Y-15200885D02*
X7455000Y-15181837D01*
X7474048Y-15172313D01*
X7502619Y-15172313D01*
X7521667Y-15181837D01*
X7531190Y-15200885D01*
X7531190Y-15305647D01*
X7626428Y-15305647D02*
X7626428Y-15172313D01*
X7626428Y-15191361D02*
X7635952Y-15181837D01*
X7655000Y-15172313D01*
X7683571Y-15172313D01*
X7702619Y-15181837D01*
X7712143Y-15200885D01*
X7712143Y-15305647D01*
X7712143Y-15200885D02*
X7721667Y-15181837D01*
X7740714Y-15172313D01*
X7769286Y-15172313D01*
X7788333Y-15181837D01*
X7797857Y-15200885D01*
X7797857Y-15305647D01*
X8188333Y-15096123D02*
X8016905Y-15353266D01*
X8445476Y-15105647D02*
X8464524Y-15105647D01*
X8483571Y-15115171D01*
X8493095Y-15124694D01*
X8502619Y-15143742D01*
X8512143Y-15181837D01*
X8512143Y-15229456D01*
X8502619Y-15267551D01*
X8493095Y-15286599D01*
X8483571Y-15296123D01*
X8464524Y-15305647D01*
X8445476Y-15305647D01*
X8426429Y-15296123D01*
X8416905Y-15286599D01*
X8407381Y-15267551D01*
X8397857Y-15229456D01*
X8397857Y-15181837D01*
X8407381Y-15143742D01*
X8416905Y-15124694D01*
X8426429Y-15115171D01*
X8445476Y-15105647D01*
X8597857Y-15286599D02*
X8607381Y-15296123D01*
X8597857Y-15305647D01*
X8588333Y-15296123D01*
X8597857Y-15286599D01*
X8597857Y-15305647D01*
X8731190Y-15105647D02*
X8750238Y-15105647D01*
X8769286Y-15115171D01*
X8778810Y-15124694D01*
X8788333Y-15143742D01*
X8797857Y-15181837D01*
X8797857Y-15229456D01*
X8788333Y-15267551D01*
X8778810Y-15286599D01*
X8769286Y-15296123D01*
X8750238Y-15305647D01*
X8731190Y-15305647D01*
X8712143Y-15296123D01*
X8702619Y-15286599D01*
X8693095Y-15267551D01*
X8683571Y-15229456D01*
X8683571Y-15181837D01*
X8693095Y-15143742D01*
X8702619Y-15124694D01*
X8712143Y-15115171D01*
X8731190Y-15105647D01*
X8988333Y-15305647D02*
X8874048Y-15305647D01*
X8931190Y-15305647D02*
X8931190Y-15105647D01*
X8912143Y-15134218D01*
X8893095Y-15153266D01*
X8874048Y-15162790D01*
X9178810Y-15305647D02*
X9064524Y-15305647D01*
X9121667Y-15305647D02*
X9121667Y-15105647D01*
X9102619Y-15134218D01*
X9083571Y-15153266D01*
X9064524Y-15162790D01*
X9293095Y-15191361D02*
X9274048Y-15181837D01*
X9264524Y-15172313D01*
X9255000Y-15153266D01*
X9255000Y-15143742D01*
X9264524Y-15124694D01*
X9274048Y-15115171D01*
X9293095Y-15105647D01*
X9331190Y-15105647D01*
X9350238Y-15115171D01*
X9359762Y-15124694D01*
X9369286Y-15143742D01*
X9369286Y-15153266D01*
X9359762Y-15172313D01*
X9350238Y-15181837D01*
X9331190Y-15191361D01*
X9293095Y-15191361D01*
X9274048Y-15200885D01*
X9264524Y-15210409D01*
X9255000Y-15229456D01*
X9255000Y-15267551D01*
X9264524Y-15286599D01*
X9274048Y-15296123D01*
X9293095Y-15305647D01*
X9331190Y-15305647D01*
X9350238Y-15296123D01*
X9359762Y-15286599D01*
X9369286Y-15267551D01*
X9369286Y-15229456D01*
X9359762Y-15210409D01*
X9350238Y-15200885D01*
X9331190Y-15191361D01*
X9445476Y-15105647D02*
X9445476Y-15143742D01*
X9521667Y-15105647D02*
X9521667Y-15143742D01*
X9816905Y-15381837D02*
X9807381Y-15372313D01*
X9788333Y-15343742D01*
X9778810Y-15324694D01*
X9769286Y-15296123D01*
X9759762Y-15248504D01*
X9759762Y-15210409D01*
X9769286Y-15162790D01*
X9778810Y-15134218D01*
X9788333Y-15115171D01*
X9807381Y-15086599D01*
X9816905Y-15077075D01*
X9978810Y-15172313D02*
X9978810Y-15305647D01*
X9931190Y-15096123D02*
X9883571Y-15238980D01*
X10007381Y-15238980D01*
X10112143Y-15191361D02*
X10093095Y-15181837D01*
X10083571Y-15172313D01*
X10074048Y-15153266D01*
X10074048Y-15143742D01*
X10083571Y-15124694D01*
X10093095Y-15115171D01*
X10112143Y-15105647D01*
X10150238Y-15105647D01*
X10169286Y-15115171D01*
X10178810Y-15124694D01*
X10188333Y-15143742D01*
X10188333Y-15153266D01*
X10178810Y-15172313D01*
X10169286Y-15181837D01*
X10150238Y-15191361D01*
X10112143Y-15191361D01*
X10093095Y-15200885D01*
X10083571Y-15210409D01*
X10074048Y-15229456D01*
X10074048Y-15267551D01*
X10083571Y-15286599D01*
X10093095Y-15296123D01*
X10112143Y-15305647D01*
X10150238Y-15305647D01*
X10169286Y-15296123D01*
X10178810Y-15286599D01*
X10188333Y-15267551D01*
X10188333Y-15229456D01*
X10178810Y-15210409D01*
X10169286Y-15200885D01*
X10150238Y-15191361D01*
X10426429Y-15305647D02*
X10426429Y-15105647D01*
X10512143Y-15305647D02*
X10512143Y-15200885D01*
X10502619Y-15181837D01*
X10483571Y-15172313D01*
X10455000Y-15172313D01*
X10435952Y-15181837D01*
X10426429Y-15191361D01*
X10635952Y-15305647D02*
X10616905Y-15296123D01*
X10607381Y-15286599D01*
X10597857Y-15267551D01*
X10597857Y-15210409D01*
X10607381Y-15191361D01*
X10616905Y-15181837D01*
X10635952Y-15172313D01*
X10664524Y-15172313D01*
X10683571Y-15181837D01*
X10693095Y-15191361D01*
X10702619Y-15210409D01*
X10702619Y-15267551D01*
X10693095Y-15286599D01*
X10683571Y-15296123D01*
X10664524Y-15305647D01*
X10635952Y-15305647D01*
X10816905Y-15305647D02*
X10797857Y-15296123D01*
X10788333Y-15277075D01*
X10788333Y-15105647D01*
X10969286Y-15296123D02*
X10950238Y-15305647D01*
X10912143Y-15305647D01*
X10893095Y-15296123D01*
X10883571Y-15277075D01*
X10883571Y-15200885D01*
X10893095Y-15181837D01*
X10912143Y-15172313D01*
X10950238Y-15172313D01*
X10969286Y-15181837D01*
X10978810Y-15200885D01*
X10978810Y-15219932D01*
X10883571Y-15238980D01*
X11055000Y-15296123D02*
X11074048Y-15305647D01*
X11112143Y-15305647D01*
X11131190Y-15296123D01*
X11140714Y-15277075D01*
X11140714Y-15267551D01*
X11131190Y-15248504D01*
X11112143Y-15238980D01*
X11083571Y-15238980D01*
X11064524Y-15229456D01*
X11055000Y-15210409D01*
X11055000Y-15200885D01*
X11064524Y-15181837D01*
X11083571Y-15172313D01*
X11112143Y-15172313D01*
X11131190Y-15181837D01*
X11207381Y-15381837D02*
X11216905Y-15372313D01*
X11235952Y-15343742D01*
X11245476Y-15324694D01*
X11255000Y-15296123D01*
X11264524Y-15248504D01*
X11264524Y-15210409D01*
X11255000Y-15162790D01*
X11245476Y-15134218D01*
X11235952Y-15115171D01*
X11216905Y-15086599D01*
X11207381Y-15077075D01*
D13*
X6245000Y-15479171D02*
G75*
G03*
X6245000Y-15479171I-20000J0D01*
G01*
D11*
X6540714Y-15369647D02*
X6559762Y-15369647D01*
X6578809Y-15379171D01*
X6588333Y-15388694D01*
X6597857Y-15407742D01*
X6607381Y-15445837D01*
X6607381Y-15493456D01*
X6597857Y-15531551D01*
X6588333Y-15550599D01*
X6578809Y-15560123D01*
X6559762Y-15569647D01*
X6540714Y-15569647D01*
X6521667Y-15560123D01*
X6512143Y-15550599D01*
X6502619Y-15531551D01*
X6493095Y-15493456D01*
X6493095Y-15445837D01*
X6502619Y-15407742D01*
X6512143Y-15388694D01*
X6521667Y-15379171D01*
X6540714Y-15369647D01*
X6693095Y-15550599D02*
X6702619Y-15560123D01*
X6693095Y-15569647D01*
X6683571Y-15560123D01*
X6693095Y-15550599D01*
X6693095Y-15569647D01*
X6874048Y-15436313D02*
X6874048Y-15569647D01*
X6826428Y-15360123D02*
X6778809Y-15502980D01*
X6902619Y-15502980D01*
X7016905Y-15369647D02*
X7035952Y-15369647D01*
X7055000Y-15379171D01*
X7064524Y-15388694D01*
X7074048Y-15407742D01*
X7083571Y-15445837D01*
X7083571Y-15493456D01*
X7074048Y-15531551D01*
X7064524Y-15550599D01*
X7055000Y-15560123D01*
X7035952Y-15569647D01*
X7016905Y-15569647D01*
X6997857Y-15560123D01*
X6988333Y-15550599D01*
X6978809Y-15531551D01*
X6969286Y-15493456D01*
X6969286Y-15445837D01*
X6978809Y-15407742D01*
X6988333Y-15388694D01*
X6997857Y-15379171D01*
X7016905Y-15369647D01*
X7207381Y-15369647D02*
X7226428Y-15369647D01*
X7245476Y-15379171D01*
X7255000Y-15388694D01*
X7264524Y-15407742D01*
X7274048Y-15445837D01*
X7274048Y-15493456D01*
X7264524Y-15531551D01*
X7255000Y-15550599D01*
X7245476Y-15560123D01*
X7226428Y-15569647D01*
X7207381Y-15569647D01*
X7188333Y-15560123D01*
X7178809Y-15550599D01*
X7169286Y-15531551D01*
X7159762Y-15493456D01*
X7159762Y-15445837D01*
X7169286Y-15407742D01*
X7178809Y-15388694D01*
X7188333Y-15379171D01*
X7207381Y-15369647D01*
X7359762Y-15569647D02*
X7359762Y-15436313D01*
X7359762Y-15455361D02*
X7369286Y-15445837D01*
X7388333Y-15436313D01*
X7416905Y-15436313D01*
X7435952Y-15445837D01*
X7445476Y-15464885D01*
X7445476Y-15569647D01*
X7445476Y-15464885D02*
X7455000Y-15445837D01*
X7474048Y-15436313D01*
X7502619Y-15436313D01*
X7521667Y-15445837D01*
X7531190Y-15464885D01*
X7531190Y-15569647D01*
X7626428Y-15569647D02*
X7626428Y-15436313D01*
X7626428Y-15455361D02*
X7635952Y-15445837D01*
X7655000Y-15436313D01*
X7683571Y-15436313D01*
X7702619Y-15445837D01*
X7712143Y-15464885D01*
X7712143Y-15569647D01*
X7712143Y-15464885D02*
X7721667Y-15445837D01*
X7740714Y-15436313D01*
X7769286Y-15436313D01*
X7788333Y-15445837D01*
X7797857Y-15464885D01*
X7797857Y-15569647D01*
X8188333Y-15360123D02*
X8016905Y-15617266D01*
X8445476Y-15369647D02*
X8464524Y-15369647D01*
X8483571Y-15379171D01*
X8493095Y-15388694D01*
X8502619Y-15407742D01*
X8512143Y-15445837D01*
X8512143Y-15493456D01*
X8502619Y-15531551D01*
X8493095Y-15550599D01*
X8483571Y-15560123D01*
X8464524Y-15569647D01*
X8445476Y-15569647D01*
X8426429Y-15560123D01*
X8416905Y-15550599D01*
X8407381Y-15531551D01*
X8397857Y-15493456D01*
X8397857Y-15445837D01*
X8407381Y-15407742D01*
X8416905Y-15388694D01*
X8426429Y-15379171D01*
X8445476Y-15369647D01*
X8597857Y-15550599D02*
X8607381Y-15560123D01*
X8597857Y-15569647D01*
X8588333Y-15560123D01*
X8597857Y-15550599D01*
X8597857Y-15569647D01*
X8731190Y-15369647D02*
X8750238Y-15369647D01*
X8769286Y-15379171D01*
X8778810Y-15388694D01*
X8788333Y-15407742D01*
X8797857Y-15445837D01*
X8797857Y-15493456D01*
X8788333Y-15531551D01*
X8778810Y-15550599D01*
X8769286Y-15560123D01*
X8750238Y-15569647D01*
X8731190Y-15569647D01*
X8712143Y-15560123D01*
X8702619Y-15550599D01*
X8693095Y-15531551D01*
X8683571Y-15493456D01*
X8683571Y-15445837D01*
X8693095Y-15407742D01*
X8702619Y-15388694D01*
X8712143Y-15379171D01*
X8731190Y-15369647D01*
X8988333Y-15569647D02*
X8874048Y-15569647D01*
X8931190Y-15569647D02*
X8931190Y-15369647D01*
X8912143Y-15398218D01*
X8893095Y-15417266D01*
X8874048Y-15426790D01*
X9169286Y-15369647D02*
X9074048Y-15369647D01*
X9064524Y-15464885D01*
X9074048Y-15455361D01*
X9093095Y-15445837D01*
X9140714Y-15445837D01*
X9159762Y-15455361D01*
X9169286Y-15464885D01*
X9178810Y-15483932D01*
X9178810Y-15531551D01*
X9169286Y-15550599D01*
X9159762Y-15560123D01*
X9140714Y-15569647D01*
X9093095Y-15569647D01*
X9074048Y-15560123D01*
X9064524Y-15550599D01*
X9245476Y-15369647D02*
X9378810Y-15369647D01*
X9293095Y-15569647D01*
X9445476Y-15369647D02*
X9445476Y-15407742D01*
X9521667Y-15369647D02*
X9521667Y-15407742D01*
X9816905Y-15645837D02*
X9807381Y-15636313D01*
X9788333Y-15607742D01*
X9778810Y-15588694D01*
X9769286Y-15560123D01*
X9759762Y-15512504D01*
X9759762Y-15474409D01*
X9769286Y-15426790D01*
X9778810Y-15398218D01*
X9788333Y-15379171D01*
X9807381Y-15350599D01*
X9816905Y-15341075D01*
X9883571Y-15388694D02*
X9893095Y-15379171D01*
X9912143Y-15369647D01*
X9959762Y-15369647D01*
X9978810Y-15379171D01*
X9988333Y-15388694D01*
X9997857Y-15407742D01*
X9997857Y-15426790D01*
X9988333Y-15455361D01*
X9874048Y-15569647D01*
X9997857Y-15569647D01*
X10121667Y-15369647D02*
X10140714Y-15369647D01*
X10159762Y-15379171D01*
X10169286Y-15388694D01*
X10178810Y-15407742D01*
X10188333Y-15445837D01*
X10188333Y-15493456D01*
X10178810Y-15531551D01*
X10169286Y-15550599D01*
X10159762Y-15560123D01*
X10140714Y-15569647D01*
X10121667Y-15569647D01*
X10102619Y-15560123D01*
X10093095Y-15550599D01*
X10083571Y-15531551D01*
X10074048Y-15493456D01*
X10074048Y-15445837D01*
X10083571Y-15407742D01*
X10093095Y-15388694D01*
X10102619Y-15379171D01*
X10121667Y-15369647D01*
X10312143Y-15369647D02*
X10331190Y-15369647D01*
X10350238Y-15379171D01*
X10359762Y-15388694D01*
X10369286Y-15407742D01*
X10378810Y-15445837D01*
X10378810Y-15493456D01*
X10369286Y-15531551D01*
X10359762Y-15550599D01*
X10350238Y-15560123D01*
X10331190Y-15569647D01*
X10312143Y-15569647D01*
X10293095Y-15560123D01*
X10283571Y-15550599D01*
X10274048Y-15531551D01*
X10264524Y-15493456D01*
X10264524Y-15445837D01*
X10274048Y-15407742D01*
X10283571Y-15388694D01*
X10293095Y-15379171D01*
X10312143Y-15369647D01*
X10616905Y-15569647D02*
X10616905Y-15369647D01*
X10702619Y-15569647D02*
X10702619Y-15464885D01*
X10693095Y-15445837D01*
X10674048Y-15436313D01*
X10645476Y-15436313D01*
X10626429Y-15445837D01*
X10616905Y-15455361D01*
X10826429Y-15569647D02*
X10807381Y-15560123D01*
X10797857Y-15550599D01*
X10788333Y-15531551D01*
X10788333Y-15474409D01*
X10797857Y-15455361D01*
X10807381Y-15445837D01*
X10826429Y-15436313D01*
X10855000Y-15436313D01*
X10874048Y-15445837D01*
X10883571Y-15455361D01*
X10893095Y-15474409D01*
X10893095Y-15531551D01*
X10883571Y-15550599D01*
X10874048Y-15560123D01*
X10855000Y-15569647D01*
X10826429Y-15569647D01*
X11007381Y-15569647D02*
X10988333Y-15560123D01*
X10978810Y-15541075D01*
X10978810Y-15369647D01*
X11159762Y-15560123D02*
X11140714Y-15569647D01*
X11102619Y-15569647D01*
X11083571Y-15560123D01*
X11074048Y-15541075D01*
X11074048Y-15464885D01*
X11083571Y-15445837D01*
X11102619Y-15436313D01*
X11140714Y-15436313D01*
X11159762Y-15445837D01*
X11169286Y-15464885D01*
X11169286Y-15483932D01*
X11074048Y-15502980D01*
X11245476Y-15560123D02*
X11264524Y-15569647D01*
X11302619Y-15569647D01*
X11321667Y-15560123D01*
X11331190Y-15541075D01*
X11331190Y-15531551D01*
X11321667Y-15512504D01*
X11302619Y-15502980D01*
X11274048Y-15502980D01*
X11255000Y-15493456D01*
X11245476Y-15474409D01*
X11245476Y-15464885D01*
X11255000Y-15445837D01*
X11274048Y-15436313D01*
X11302619Y-15436313D01*
X11321667Y-15445837D01*
X11397857Y-15645837D02*
X11407381Y-15636313D01*
X11426428Y-15607742D01*
X11435952Y-15588694D01*
X11445476Y-15560123D01*
X11455000Y-15512504D01*
X11455000Y-15474409D01*
X11445476Y-15426790D01*
X11435952Y-15398218D01*
X11426428Y-15379171D01*
X11407381Y-15350599D01*
X11397857Y-15341075D01*
D10*
X6195000Y-15693171D02*
X6195000Y-15793171D01*
X6145000Y-15743171D02*
X6245000Y-15743171D01*
D11*
X6607381Y-15833647D02*
X6493095Y-15833647D01*
X6550238Y-15833647D02*
X6550238Y-15633647D01*
X6531190Y-15662218D01*
X6512143Y-15681266D01*
X6493095Y-15690790D01*
X6693095Y-15814599D02*
X6702619Y-15824123D01*
X6693095Y-15833647D01*
X6683571Y-15824123D01*
X6693095Y-15814599D01*
X6693095Y-15833647D01*
X6826428Y-15633647D02*
X6845476Y-15633647D01*
X6864524Y-15643171D01*
X6874048Y-15652694D01*
X6883571Y-15671742D01*
X6893095Y-15709837D01*
X6893095Y-15757456D01*
X6883571Y-15795551D01*
X6874048Y-15814599D01*
X6864524Y-15824123D01*
X6845476Y-15833647D01*
X6826428Y-15833647D01*
X6807381Y-15824123D01*
X6797857Y-15814599D01*
X6788333Y-15795551D01*
X6778809Y-15757456D01*
X6778809Y-15709837D01*
X6788333Y-15671742D01*
X6797857Y-15652694D01*
X6807381Y-15643171D01*
X6826428Y-15633647D01*
X7016905Y-15633647D02*
X7035952Y-15633647D01*
X7055000Y-15643171D01*
X7064524Y-15652694D01*
X7074048Y-15671742D01*
X7083571Y-15709837D01*
X7083571Y-15757456D01*
X7074048Y-15795551D01*
X7064524Y-15814599D01*
X7055000Y-15824123D01*
X7035952Y-15833647D01*
X7016905Y-15833647D01*
X6997857Y-15824123D01*
X6988333Y-15814599D01*
X6978809Y-15795551D01*
X6969286Y-15757456D01*
X6969286Y-15709837D01*
X6978809Y-15671742D01*
X6988333Y-15652694D01*
X6997857Y-15643171D01*
X7016905Y-15633647D01*
X7207381Y-15633647D02*
X7226428Y-15633647D01*
X7245476Y-15643171D01*
X7255000Y-15652694D01*
X7264524Y-15671742D01*
X7274048Y-15709837D01*
X7274048Y-15757456D01*
X7264524Y-15795551D01*
X7255000Y-15814599D01*
X7245476Y-15824123D01*
X7226428Y-15833647D01*
X7207381Y-15833647D01*
X7188333Y-15824123D01*
X7178809Y-15814599D01*
X7169286Y-15795551D01*
X7159762Y-15757456D01*
X7159762Y-15709837D01*
X7169286Y-15671742D01*
X7178809Y-15652694D01*
X7188333Y-15643171D01*
X7207381Y-15633647D01*
X7359762Y-15833647D02*
X7359762Y-15700313D01*
X7359762Y-15719361D02*
X7369286Y-15709837D01*
X7388333Y-15700313D01*
X7416905Y-15700313D01*
X7435952Y-15709837D01*
X7445476Y-15728885D01*
X7445476Y-15833647D01*
X7445476Y-15728885D02*
X7455000Y-15709837D01*
X7474048Y-15700313D01*
X7502619Y-15700313D01*
X7521667Y-15709837D01*
X7531190Y-15728885D01*
X7531190Y-15833647D01*
X7626428Y-15833647D02*
X7626428Y-15700313D01*
X7626428Y-15719361D02*
X7635952Y-15709837D01*
X7655000Y-15700313D01*
X7683571Y-15700313D01*
X7702619Y-15709837D01*
X7712143Y-15728885D01*
X7712143Y-15833647D01*
X7712143Y-15728885D02*
X7721667Y-15709837D01*
X7740714Y-15700313D01*
X7769286Y-15700313D01*
X7788333Y-15709837D01*
X7797857Y-15728885D01*
X7797857Y-15833647D01*
X8188333Y-15624123D02*
X8016905Y-15881266D01*
X8445476Y-15633647D02*
X8464524Y-15633647D01*
X8483571Y-15643171D01*
X8493095Y-15652694D01*
X8502619Y-15671742D01*
X8512143Y-15709837D01*
X8512143Y-15757456D01*
X8502619Y-15795551D01*
X8493095Y-15814599D01*
X8483571Y-15824123D01*
X8464524Y-15833647D01*
X8445476Y-15833647D01*
X8426429Y-15824123D01*
X8416905Y-15814599D01*
X8407381Y-15795551D01*
X8397857Y-15757456D01*
X8397857Y-15709837D01*
X8407381Y-15671742D01*
X8416905Y-15652694D01*
X8426429Y-15643171D01*
X8445476Y-15633647D01*
X8597857Y-15814599D02*
X8607381Y-15824123D01*
X8597857Y-15833647D01*
X8588333Y-15824123D01*
X8597857Y-15814599D01*
X8597857Y-15833647D01*
X8731190Y-15633647D02*
X8750238Y-15633647D01*
X8769286Y-15643171D01*
X8778810Y-15652694D01*
X8788333Y-15671742D01*
X8797857Y-15709837D01*
X8797857Y-15757456D01*
X8788333Y-15795551D01*
X8778810Y-15814599D01*
X8769286Y-15824123D01*
X8750238Y-15833647D01*
X8731190Y-15833647D01*
X8712143Y-15824123D01*
X8702619Y-15814599D01*
X8693095Y-15795551D01*
X8683571Y-15757456D01*
X8683571Y-15709837D01*
X8693095Y-15671742D01*
X8702619Y-15652694D01*
X8712143Y-15643171D01*
X8731190Y-15633647D01*
X8864524Y-15633647D02*
X8988333Y-15633647D01*
X8921667Y-15709837D01*
X8950238Y-15709837D01*
X8969286Y-15719361D01*
X8978810Y-15728885D01*
X8988333Y-15747932D01*
X8988333Y-15795551D01*
X8978810Y-15814599D01*
X8969286Y-15824123D01*
X8950238Y-15833647D01*
X8893095Y-15833647D01*
X8874048Y-15824123D01*
X8864524Y-15814599D01*
X9083571Y-15833647D02*
X9121667Y-15833647D01*
X9140714Y-15824123D01*
X9150238Y-15814599D01*
X9169286Y-15786028D01*
X9178810Y-15747932D01*
X9178810Y-15671742D01*
X9169286Y-15652694D01*
X9159762Y-15643171D01*
X9140714Y-15633647D01*
X9102619Y-15633647D01*
X9083571Y-15643171D01*
X9074048Y-15652694D01*
X9064524Y-15671742D01*
X9064524Y-15719361D01*
X9074048Y-15738409D01*
X9083571Y-15747932D01*
X9102619Y-15757456D01*
X9140714Y-15757456D01*
X9159762Y-15747932D01*
X9169286Y-15738409D01*
X9178810Y-15719361D01*
X9350238Y-15700313D02*
X9350238Y-15833647D01*
X9302619Y-15624123D02*
X9255000Y-15766980D01*
X9378810Y-15766980D01*
X9445476Y-15633647D02*
X9445476Y-15671742D01*
X9521667Y-15633647D02*
X9521667Y-15671742D01*
X9816905Y-15909837D02*
X9807381Y-15900313D01*
X9788333Y-15871742D01*
X9778810Y-15852694D01*
X9769286Y-15824123D01*
X9759762Y-15776504D01*
X9759762Y-15738409D01*
X9769286Y-15690790D01*
X9778810Y-15662218D01*
X9788333Y-15643171D01*
X9807381Y-15614599D01*
X9816905Y-15605075D01*
X9978810Y-15700313D02*
X9978810Y-15833647D01*
X9931190Y-15624123D02*
X9883571Y-15766980D01*
X10007381Y-15766980D01*
X10235952Y-15833647D02*
X10235952Y-15633647D01*
X10321667Y-15833647D02*
X10321667Y-15728885D01*
X10312143Y-15709837D01*
X10293095Y-15700313D01*
X10264524Y-15700313D01*
X10245476Y-15709837D01*
X10235952Y-15719361D01*
X10445476Y-15833647D02*
X10426429Y-15824123D01*
X10416905Y-15814599D01*
X10407381Y-15795551D01*
X10407381Y-15738409D01*
X10416905Y-15719361D01*
X10426429Y-15709837D01*
X10445476Y-15700313D01*
X10474048Y-15700313D01*
X10493095Y-15709837D01*
X10502619Y-15719361D01*
X10512143Y-15738409D01*
X10512143Y-15795551D01*
X10502619Y-15814599D01*
X10493095Y-15824123D01*
X10474048Y-15833647D01*
X10445476Y-15833647D01*
X10626429Y-15833647D02*
X10607381Y-15824123D01*
X10597857Y-15805075D01*
X10597857Y-15633647D01*
X10778810Y-15824123D02*
X10759762Y-15833647D01*
X10721667Y-15833647D01*
X10702619Y-15824123D01*
X10693095Y-15805075D01*
X10693095Y-15728885D01*
X10702619Y-15709837D01*
X10721667Y-15700313D01*
X10759762Y-15700313D01*
X10778810Y-15709837D01*
X10788333Y-15728885D01*
X10788333Y-15747932D01*
X10693095Y-15766980D01*
X10864524Y-15824123D02*
X10883571Y-15833647D01*
X10921667Y-15833647D01*
X10940714Y-15824123D01*
X10950238Y-15805075D01*
X10950238Y-15795551D01*
X10940714Y-15776504D01*
X10921667Y-15766980D01*
X10893095Y-15766980D01*
X10874048Y-15757456D01*
X10864524Y-15738409D01*
X10864524Y-15728885D01*
X10874048Y-15709837D01*
X10893095Y-15700313D01*
X10921667Y-15700313D01*
X10940714Y-15709837D01*
X11188333Y-15757456D02*
X11340714Y-15757456D01*
X11264524Y-15833647D02*
X11264524Y-15681266D01*
X11674048Y-15633647D02*
X11635952Y-15633647D01*
X11616905Y-15643171D01*
X11607381Y-15652694D01*
X11588333Y-15681266D01*
X11578809Y-15719361D01*
X11578809Y-15795551D01*
X11588333Y-15814599D01*
X11597857Y-15824123D01*
X11616905Y-15833647D01*
X11655000Y-15833647D01*
X11674048Y-15824123D01*
X11683571Y-15814599D01*
X11693095Y-15795551D01*
X11693095Y-15747932D01*
X11683571Y-15728885D01*
X11674048Y-15719361D01*
X11655000Y-15709837D01*
X11616905Y-15709837D01*
X11597857Y-15719361D01*
X11588333Y-15728885D01*
X11578809Y-15747932D01*
X11921667Y-15824123D02*
X11940714Y-15833647D01*
X11978809Y-15833647D01*
X11997857Y-15824123D01*
X12007381Y-15805075D01*
X12007381Y-15795551D01*
X11997857Y-15776504D01*
X11978809Y-15766980D01*
X11950238Y-15766980D01*
X11931190Y-15757456D01*
X11921667Y-15738409D01*
X11921667Y-15728885D01*
X11931190Y-15709837D01*
X11950238Y-15700313D01*
X11978809Y-15700313D01*
X11997857Y-15709837D01*
X12121667Y-15833647D02*
X12102619Y-15824123D01*
X12093095Y-15805075D01*
X12093095Y-15633647D01*
X12226428Y-15833647D02*
X12207381Y-15824123D01*
X12197857Y-15814599D01*
X12188333Y-15795551D01*
X12188333Y-15738409D01*
X12197857Y-15719361D01*
X12207381Y-15709837D01*
X12226428Y-15700313D01*
X12255000Y-15700313D01*
X12274048Y-15709837D01*
X12283571Y-15719361D01*
X12293095Y-15738409D01*
X12293095Y-15795551D01*
X12283571Y-15814599D01*
X12274048Y-15824123D01*
X12255000Y-15833647D01*
X12226428Y-15833647D01*
X12350238Y-15700313D02*
X12426428Y-15700313D01*
X12378809Y-15633647D02*
X12378809Y-15805075D01*
X12388333Y-15824123D01*
X12407381Y-15833647D01*
X12426428Y-15833647D01*
X12483571Y-15824123D02*
X12502619Y-15833647D01*
X12540714Y-15833647D01*
X12559762Y-15824123D01*
X12569286Y-15805075D01*
X12569286Y-15795551D01*
X12559762Y-15776504D01*
X12540714Y-15766980D01*
X12512143Y-15766980D01*
X12493095Y-15757456D01*
X12483571Y-15738409D01*
X12483571Y-15728885D01*
X12493095Y-15709837D01*
X12512143Y-15700313D01*
X12540714Y-15700313D01*
X12559762Y-15709837D01*
X12635952Y-15909837D02*
X12645476Y-15900313D01*
X12664524Y-15871742D01*
X12674048Y-15852694D01*
X12683571Y-15824123D01*
X12693095Y-15776504D01*
X12693095Y-15738409D01*
X12683571Y-15690790D01*
X12674048Y-15662218D01*
X12664524Y-15643171D01*
X12645476Y-15614599D01*
X12635952Y-15605075D01*
D14*
X6229005Y-16045786D02*
X6229005Y-15968555D01*
X6151774Y-15968555D01*
X6151774Y-16045786D01*
X6229005Y-16045786D01*
D11*
X6607381Y-16097647D02*
X6493095Y-16097647D01*
X6550238Y-16097647D02*
X6550238Y-15897647D01*
X6531190Y-15926218D01*
X6512143Y-15945266D01*
X6493095Y-15954790D01*
X6693095Y-16078599D02*
X6702619Y-16088123D01*
X6693095Y-16097647D01*
X6683571Y-16088123D01*
X6693095Y-16078599D01*
X6693095Y-16097647D01*
X6826428Y-15897647D02*
X6845476Y-15897647D01*
X6864524Y-15907171D01*
X6874048Y-15916694D01*
X6883571Y-15935742D01*
X6893095Y-15973837D01*
X6893095Y-16021456D01*
X6883571Y-16059551D01*
X6874048Y-16078599D01*
X6864524Y-16088123D01*
X6845476Y-16097647D01*
X6826428Y-16097647D01*
X6807381Y-16088123D01*
X6797857Y-16078599D01*
X6788333Y-16059551D01*
X6778809Y-16021456D01*
X6778809Y-15973837D01*
X6788333Y-15935742D01*
X6797857Y-15916694D01*
X6807381Y-15907171D01*
X6826428Y-15897647D01*
X6988333Y-16097647D02*
X7026428Y-16097647D01*
X7045476Y-16088123D01*
X7055000Y-16078599D01*
X7074048Y-16050028D01*
X7083571Y-16011932D01*
X7083571Y-15935742D01*
X7074048Y-15916694D01*
X7064524Y-15907171D01*
X7045476Y-15897647D01*
X7007381Y-15897647D01*
X6988333Y-15907171D01*
X6978809Y-15916694D01*
X6969286Y-15935742D01*
X6969286Y-15983361D01*
X6978809Y-16002409D01*
X6988333Y-16011932D01*
X7007381Y-16021456D01*
X7045476Y-16021456D01*
X7064524Y-16011932D01*
X7074048Y-16002409D01*
X7083571Y-15983361D01*
X7159762Y-15916694D02*
X7169286Y-15907171D01*
X7188333Y-15897647D01*
X7235952Y-15897647D01*
X7255000Y-15907171D01*
X7264524Y-15916694D01*
X7274048Y-15935742D01*
X7274048Y-15954790D01*
X7264524Y-15983361D01*
X7150238Y-16097647D01*
X7274048Y-16097647D01*
X7359762Y-16097647D02*
X7359762Y-15964313D01*
X7359762Y-15983361D02*
X7369286Y-15973837D01*
X7388333Y-15964313D01*
X7416905Y-15964313D01*
X7435952Y-15973837D01*
X7445476Y-15992885D01*
X7445476Y-16097647D01*
X7445476Y-15992885D02*
X7455000Y-15973837D01*
X7474048Y-15964313D01*
X7502619Y-15964313D01*
X7521667Y-15973837D01*
X7531190Y-15992885D01*
X7531190Y-16097647D01*
X7626428Y-16097647D02*
X7626428Y-15964313D01*
X7626428Y-15983361D02*
X7635952Y-15973837D01*
X7655000Y-15964313D01*
X7683571Y-15964313D01*
X7702619Y-15973837D01*
X7712143Y-15992885D01*
X7712143Y-16097647D01*
X7712143Y-15992885D02*
X7721667Y-15973837D01*
X7740714Y-15964313D01*
X7769286Y-15964313D01*
X7788333Y-15973837D01*
X7797857Y-15992885D01*
X7797857Y-16097647D01*
X8188333Y-15888123D02*
X8016905Y-16145266D01*
X8445476Y-15897647D02*
X8464524Y-15897647D01*
X8483571Y-15907171D01*
X8493095Y-15916694D01*
X8502619Y-15935742D01*
X8512143Y-15973837D01*
X8512143Y-16021456D01*
X8502619Y-16059551D01*
X8493095Y-16078599D01*
X8483571Y-16088123D01*
X8464524Y-16097647D01*
X8445476Y-16097647D01*
X8426429Y-16088123D01*
X8416905Y-16078599D01*
X8407381Y-16059551D01*
X8397857Y-16021456D01*
X8397857Y-15973837D01*
X8407381Y-15935742D01*
X8416905Y-15916694D01*
X8426429Y-15907171D01*
X8445476Y-15897647D01*
X8597857Y-16078599D02*
X8607381Y-16088123D01*
X8597857Y-16097647D01*
X8588333Y-16088123D01*
X8597857Y-16078599D01*
X8597857Y-16097647D01*
X8731190Y-15897647D02*
X8750238Y-15897647D01*
X8769286Y-15907171D01*
X8778810Y-15916694D01*
X8788333Y-15935742D01*
X8797857Y-15973837D01*
X8797857Y-16021456D01*
X8788333Y-16059551D01*
X8778810Y-16078599D01*
X8769286Y-16088123D01*
X8750238Y-16097647D01*
X8731190Y-16097647D01*
X8712143Y-16088123D01*
X8702619Y-16078599D01*
X8693095Y-16059551D01*
X8683571Y-16021456D01*
X8683571Y-15973837D01*
X8693095Y-15935742D01*
X8702619Y-15916694D01*
X8712143Y-15907171D01*
X8731190Y-15897647D01*
X8969286Y-15964313D02*
X8969286Y-16097647D01*
X8921667Y-15888123D02*
X8874048Y-16030980D01*
X8997857Y-16030980D01*
X9055000Y-15897647D02*
X9178810Y-15897647D01*
X9112143Y-15973837D01*
X9140714Y-15973837D01*
X9159762Y-15983361D01*
X9169286Y-15992885D01*
X9178810Y-16011932D01*
X9178810Y-16059551D01*
X9169286Y-16078599D01*
X9159762Y-16088123D01*
X9140714Y-16097647D01*
X9083571Y-16097647D01*
X9064524Y-16088123D01*
X9055000Y-16078599D01*
X9302619Y-15897647D02*
X9321667Y-15897647D01*
X9340714Y-15907171D01*
X9350238Y-15916694D01*
X9359762Y-15935742D01*
X9369286Y-15973837D01*
X9369286Y-16021456D01*
X9359762Y-16059551D01*
X9350238Y-16078599D01*
X9340714Y-16088123D01*
X9321667Y-16097647D01*
X9302619Y-16097647D01*
X9283571Y-16088123D01*
X9274048Y-16078599D01*
X9264524Y-16059551D01*
X9255000Y-16021456D01*
X9255000Y-15973837D01*
X9264524Y-15935742D01*
X9274048Y-15916694D01*
X9283571Y-15907171D01*
X9302619Y-15897647D01*
X9445476Y-15897647D02*
X9445476Y-15935742D01*
X9521667Y-15897647D02*
X9521667Y-15935742D01*
X9816905Y-16173837D02*
X9807381Y-16164313D01*
X9788333Y-16135742D01*
X9778810Y-16116694D01*
X9769286Y-16088123D01*
X9759762Y-16040504D01*
X9759762Y-16002409D01*
X9769286Y-15954790D01*
X9778810Y-15926218D01*
X9788333Y-15907171D01*
X9807381Y-15878599D01*
X9816905Y-15869075D01*
X9978810Y-15964313D02*
X9978810Y-16097647D01*
X9931190Y-15888123D02*
X9883571Y-16030980D01*
X10007381Y-16030980D01*
X10112143Y-15983361D02*
X10093095Y-15973837D01*
X10083571Y-15964313D01*
X10074048Y-15945266D01*
X10074048Y-15935742D01*
X10083571Y-15916694D01*
X10093095Y-15907171D01*
X10112143Y-15897647D01*
X10150238Y-15897647D01*
X10169286Y-15907171D01*
X10178810Y-15916694D01*
X10188333Y-15935742D01*
X10188333Y-15945266D01*
X10178810Y-15964313D01*
X10169286Y-15973837D01*
X10150238Y-15983361D01*
X10112143Y-15983361D01*
X10093095Y-15992885D01*
X10083571Y-16002409D01*
X10074048Y-16021456D01*
X10074048Y-16059551D01*
X10083571Y-16078599D01*
X10093095Y-16088123D01*
X10112143Y-16097647D01*
X10150238Y-16097647D01*
X10169286Y-16088123D01*
X10178810Y-16078599D01*
X10188333Y-16059551D01*
X10188333Y-16021456D01*
X10178810Y-16002409D01*
X10169286Y-15992885D01*
X10150238Y-15983361D01*
X10426429Y-16097647D02*
X10426429Y-15897647D01*
X10512143Y-16097647D02*
X10512143Y-15992885D01*
X10502619Y-15973837D01*
X10483571Y-15964313D01*
X10455000Y-15964313D01*
X10435952Y-15973837D01*
X10426429Y-15983361D01*
X10635952Y-16097647D02*
X10616905Y-16088123D01*
X10607381Y-16078599D01*
X10597857Y-16059551D01*
X10597857Y-16002409D01*
X10607381Y-15983361D01*
X10616905Y-15973837D01*
X10635952Y-15964313D01*
X10664524Y-15964313D01*
X10683571Y-15973837D01*
X10693095Y-15983361D01*
X10702619Y-16002409D01*
X10702619Y-16059551D01*
X10693095Y-16078599D01*
X10683571Y-16088123D01*
X10664524Y-16097647D01*
X10635952Y-16097647D01*
X10816905Y-16097647D02*
X10797857Y-16088123D01*
X10788333Y-16069075D01*
X10788333Y-15897647D01*
X10969286Y-16088123D02*
X10950238Y-16097647D01*
X10912143Y-16097647D01*
X10893095Y-16088123D01*
X10883571Y-16069075D01*
X10883571Y-15992885D01*
X10893095Y-15973837D01*
X10912143Y-15964313D01*
X10950238Y-15964313D01*
X10969286Y-15973837D01*
X10978810Y-15992885D01*
X10978810Y-16011932D01*
X10883571Y-16030980D01*
X11055000Y-16088123D02*
X11074048Y-16097647D01*
X11112143Y-16097647D01*
X11131190Y-16088123D01*
X11140714Y-16069075D01*
X11140714Y-16059551D01*
X11131190Y-16040504D01*
X11112143Y-16030980D01*
X11083571Y-16030980D01*
X11064524Y-16021456D01*
X11055000Y-16002409D01*
X11055000Y-15992885D01*
X11064524Y-15973837D01*
X11083571Y-15964313D01*
X11112143Y-15964313D01*
X11131190Y-15973837D01*
X11207381Y-16173837D02*
X11216905Y-16164313D01*
X11235952Y-16135742D01*
X11245476Y-16116694D01*
X11255000Y-16088123D01*
X11264524Y-16040504D01*
X11264524Y-16002409D01*
X11255000Y-15954790D01*
X11245476Y-15926218D01*
X11235952Y-15907171D01*
X11216905Y-15878599D01*
X11207381Y-15869075D01*
M02*
