M48
; DRILL file {KiCad 6.0.11-3.fc36} date Wed 22 Feb 2023 06:11:40 PM EST
; FORMAT={-:-/ absolute / metric / decimal}
; #@! TF.CreationDate,2023-02-22T18:11:40-05:00
; #@! TF.GenerationSoftware,Kicad,Pcbnew,6.0.11-3.fc36
; #@! TF.FileFunction,NonPlated,1,2,NPTH
FMAT,2
METRIC
; #@! TA.AperFunction,NonPlated,NPTH,ComponentDrill
T1C0.991
; #@! TA.AperFunction,NonPlated,NPTH,ComponentDrill
T2C1.200
; #@! TA.AperFunction,NonPlated,NPTH,ComponentDrill
T3C1.702
; #@! TA.AperFunction,NonPlated,NPTH,ComponentDrill
T4C3.000
; #@! TA.AperFunction,NonPlated,NPTH,ComponentDrill
T5C3.429
%
G90
G05
T1
X68.28Y-74.3
X68.28Y-91.3
X68.28Y-108.3
X78.72Y-74.3
X78.72Y-91.3
X78.72Y-108.3
X86.28Y-69.3
X86.28Y-86.3
X86.28Y-103.3
X96.72Y-69.3
X96.72Y-86.3
X96.72Y-103.3
X104.28Y-55.3
X104.28Y-72.3
X104.28Y-89.3
X104.28Y-106.3
X114.72Y-55.3
X114.72Y-72.3
X114.72Y-89.3
X114.72Y-106.3
X122.28Y-49.35
X122.28Y-66.35
X122.28Y-83.35
X122.28Y-100.3
X132.72Y-49.35
X132.72Y-66.35
X132.72Y-83.35
X132.72Y-100.3
X140.28Y-57.3
X140.28Y-74.3
X140.28Y-91.3
X150.72Y-57.3
X150.72Y-74.3
X150.72Y-91.3
X150.767Y-110.306
X158.28Y-59.3
X158.28Y-76.3
X158.28Y-93.3
X160.979Y-112.477
X168.72Y-59.3
X168.72Y-76.3
X168.72Y-93.3
X170.424Y-115.185
X176.28Y-93.3
X180.234Y-118.755
X186.72Y-93.3
X190.69Y-124.895
X198.687Y-131.605
T2
X184.794Y-111.506
X191.794Y-111.506
T3
X68.0Y-78.5
X68.0Y-95.5
X68.0Y-112.5
X79.0Y-78.5
X79.0Y-95.5
X79.0Y-112.5
X86.0Y-73.5
X86.0Y-90.5
X86.0Y-107.5
X97.0Y-73.5
X97.0Y-90.5
X97.0Y-107.5
X104.0Y-59.5
X104.0Y-76.5
X104.0Y-93.5
X104.0Y-110.5
X115.0Y-59.5
X115.0Y-76.5
X115.0Y-93.5
X115.0Y-110.5
X122.0Y-53.55
X122.0Y-70.55
X122.0Y-87.55
X122.0Y-104.5
X133.0Y-53.55
X133.0Y-70.55
X133.0Y-87.55
X133.0Y-104.5
X140.0Y-61.5
X140.0Y-78.5
X140.0Y-95.5
X149.62Y-114.356
X151.0Y-61.5
X151.0Y-78.5
X151.0Y-95.5
X158.0Y-63.5
X158.0Y-80.5
X158.0Y-97.5
X160.38Y-116.644
X168.724Y-119.035
X169.0Y-63.5
X169.0Y-80.5
X169.0Y-97.5
X176.0Y-97.5
X179.061Y-122.798
X187.0Y-97.5
X187.776Y-127.932
X196.202Y-135.003
T4
X68.5Y-82.25
X68.5Y-99.25
X68.5Y-116.25
X73.5Y-84.45
X73.5Y-101.45
X73.5Y-118.45
X78.5Y-82.25
X78.5Y-99.25
X78.5Y-116.25
X86.5Y-77.25
X86.5Y-94.25
X86.5Y-111.25
X91.5Y-79.45
X91.5Y-96.45
X91.5Y-113.45
X96.5Y-77.25
X96.5Y-94.25
X96.5Y-111.25
X104.5Y-63.25
X104.5Y-80.25
X104.5Y-97.25
X104.5Y-114.25
X109.5Y-65.45
X109.5Y-82.45
X109.5Y-99.45
X109.5Y-116.45
X114.5Y-63.25
X114.5Y-80.25
X114.5Y-97.25
X114.5Y-114.25
X122.5Y-57.3
X122.5Y-74.3
X122.5Y-91.3
X122.5Y-108.25
X127.5Y-59.5
X127.5Y-76.5
X127.5Y-93.5
X127.5Y-110.45
X132.5Y-57.3
X132.5Y-74.3
X132.5Y-91.3
X132.5Y-108.25
X140.5Y-65.25
X140.5Y-82.25
X140.5Y-99.25
X145.5Y-67.45
X145.5Y-84.45
X145.5Y-101.45
X149.33Y-118.128
X150.5Y-65.25
X150.5Y-82.25
X150.5Y-99.25
X153.763Y-121.32
X158.5Y-67.25
X158.5Y-84.25
X158.5Y-101.25
X159.111Y-120.208
X163.5Y-69.45
X163.5Y-86.45
X163.5Y-103.45
X167.911Y-122.73
X168.5Y-67.25
X168.5Y-84.25
X168.5Y-101.25
X171.857Y-126.508
X176.5Y-101.25
X177.308Y-126.151
X181.5Y-103.45
X185.748Y-131.126
X186.5Y-101.25
X188.164Y-136.025
X193.409Y-137.554
T5
X73.5Y-78.5
X73.5Y-95.5
X73.5Y-112.5
X91.5Y-73.5
X91.5Y-90.5
X91.5Y-107.5
X109.5Y-59.5
X109.5Y-76.5
X109.5Y-93.5
X109.5Y-110.5
X127.5Y-53.55
X127.5Y-70.55
X127.5Y-87.55
X127.5Y-104.5
X145.5Y-61.5
X145.5Y-78.5
X145.5Y-95.5
X155.0Y-115.5
X163.5Y-63.5
X163.5Y-80.5
X163.5Y-97.5
X173.893Y-120.917
X181.5Y-97.5
X191.989Y-131.467
T0
M30
