G04 #@! TF.GenerationSoftware,KiCad,Pcbnew,6.0.11-3.fc36*
G04 #@! TF.CreationDate,2023-02-22T18:11:36-05:00*
G04 #@! TF.ProjectId,kb40,6b623430-2e6b-4696-9361-645f70636258,rev?*
G04 #@! TF.SameCoordinates,Original*
G04 #@! TF.FileFunction,Legend,Top*
G04 #@! TF.FilePolarity,Positive*
%FSLAX46Y46*%
G04 Gerber Fmt 4.6, Leading zero omitted, Abs format (unit mm)*
G04 Created by KiCad (PCBNEW 6.0.11-3.fc36) date 2023-02-22 18:11:36*
%MOMM*%
%LPD*%
G01*
G04 APERTURE LIST*
G04 Aperture macros list*
%AMRoundRect*
0 Rectangle with rounded corners*
0 $1 Rounding radius*
0 $2 $3 $4 $5 $6 $7 $8 $9 X,Y pos of 4 corners*
0 Add a 4 corners polygon primitive as box body*
4,1,4,$2,$3,$4,$5,$6,$7,$8,$9,$2,$3,0*
0 Add four circle primitives for the rounded corners*
1,1,$1+$1,$2,$3*
1,1,$1+$1,$4,$5*
1,1,$1+$1,$6,$7*
1,1,$1+$1,$8,$9*
0 Add four rect primitives between the rounded corners*
20,1,$1+$1,$2,$3,$4,$5,0*
20,1,$1+$1,$4,$5,$6,$7,0*
20,1,$1+$1,$6,$7,$8,$9,0*
20,1,$1+$1,$8,$9,$2,$3,0*%
%AMRotRect*
0 Rectangle, with rotation*
0 The origin of the aperture is its center*
0 $1 length*
0 $2 width*
0 $3 Rotation angle, in degrees counterclockwise*
0 Add horizontal line*
21,1,$1,$2,0,0,$3*%
%AMFreePoly0*
4,1,6,1.000000,0.000000,0.500000,-0.750000,-0.500000,-0.750000,-0.500000,0.750000,0.500000,0.750000,1.000000,0.000000,1.000000,0.000000,$1*%
%AMFreePoly1*
4,1,6,0.500000,-0.750000,-0.650000,-0.750000,-0.150000,0.000000,-0.650000,0.750000,0.500000,0.750000,0.500000,-0.750000,0.500000,-0.750000,$1*%
%AMFreePoly2*
4,1,6,0.600000,0.200000,0.000000,-0.400000,-0.600000,0.200000,-0.600000,0.500000,0.600000,0.500000,0.600000,0.200000,0.600000,0.200000,$1*%
%AMFreePoly3*
4,1,6,0.600000,-0.250000,-0.600000,-0.250000,-0.600000,1.000000,0.000000,0.400000,0.600000,1.000000,0.600000,-0.250000,0.600000,-0.250000,$1*%
G04 Aperture macros list end*
%ADD10C,0.150000*%
%ADD11C,0.160000*%
%ADD12C,0.100000*%
%ADD13C,0.120000*%
%ADD14C,0.381000*%
%ADD15C,1.752600*%
%ADD16C,1.701800*%
%ADD17C,3.000000*%
%ADD18C,0.990600*%
%ADD19C,3.429000*%
%ADD20R,2.600000X2.600000*%
%ADD21RoundRect,0.300000X0.124041X0.614544X-0.583668X-0.228871X-0.124041X-0.614544X0.583668X0.228871X0*%
%ADD22RoundRect,0.300000X-0.300000X0.550500X-0.300000X-0.550500X0.300000X-0.550500X0.300000X0.550500X0*%
%ADD23R,1.400000X0.820000*%
%ADD24RoundRect,0.205000X0.495000X0.205000X-0.495000X0.205000X-0.495000X-0.205000X0.495000X-0.205000X0*%
%ADD25RotRect,2.600000X2.600000X340.000000*%
%ADD26FreePoly0,90.000000*%
%ADD27FreePoly1,90.000000*%
%ADD28RoundRect,0.300000X-0.178989X0.600844X-0.407900X-0.476097X0.178989X-0.600844X0.407900X0.476097X0*%
%ADD29R,1.700000X1.700000*%
%ADD30O,1.700000X1.700000*%
%ADD31RotRect,2.600000X2.600000X320.000000*%
%ADD32RoundRect,0.300000X-0.093626X0.619907X-0.470190X-0.414695X0.093626X-0.619907X0.470190X0.414695X0*%
%ADD33RotRect,2.600000X2.600000X348.000000*%
%ADD34RotRect,1.400000X0.820000X140.000000*%
%ADD35RoundRect,0.205000X0.510963X-0.161141X-0.247421X0.475219X-0.510963X0.161141X0.247421X-0.475219X0*%
%ADD36RotRect,1.400000X0.820000X168.000000*%
%ADD37RoundRect,0.205000X0.526805X0.097604X-0.441561X0.303437X-0.526805X-0.097604X0.441561X-0.303437X0*%
%ADD38FreePoly2,180.000000*%
%ADD39O,3.700000X1.700000*%
%ADD40FreePoly2,0.000000*%
%ADD41C,1.200000*%
%ADD42FreePoly3,180.000000*%
%ADD43O,2.200000X1.700000*%
%ADD44FreePoly3,0.000000*%
%ADD45RotRect,1.400000X0.820000X160.000000*%
%ADD46RoundRect,0.205000X0.535262X0.023337X-0.395034X0.361937X-0.535262X-0.023337X0.395034X-0.361937X0*%
G04 APERTURE END LIST*
D10*
X84773333Y-118403714D02*
X84773333Y-119213238D01*
X84725714Y-119308476D01*
X84678095Y-119356095D01*
X84582857Y-119403714D01*
X84440000Y-119403714D01*
X84344761Y-119356095D01*
X84773333Y-119022761D02*
X84678095Y-119070380D01*
X84487619Y-119070380D01*
X84392380Y-119022761D01*
X84344761Y-118975142D01*
X84297142Y-118879904D01*
X84297142Y-118594190D01*
X84344761Y-118498952D01*
X84392380Y-118451333D01*
X84487619Y-118403714D01*
X84678095Y-118403714D01*
X84773333Y-118451333D01*
X85249523Y-119070380D02*
X85249523Y-118403714D01*
X85249523Y-118070380D02*
X85201904Y-118118000D01*
X85249523Y-118165619D01*
X85297142Y-118118000D01*
X85249523Y-118070380D01*
X85249523Y-118165619D01*
X85582857Y-118403714D02*
X85963809Y-118403714D01*
X85725714Y-118070380D02*
X85725714Y-118927523D01*
X85773333Y-119022761D01*
X85868571Y-119070380D01*
X85963809Y-119070380D01*
X86297142Y-119070380D02*
X86297142Y-118070380D01*
X86725714Y-119070380D02*
X86725714Y-118546571D01*
X86678095Y-118451333D01*
X86582857Y-118403714D01*
X86440000Y-118403714D01*
X86344761Y-118451333D01*
X86297142Y-118498952D01*
X87630476Y-118403714D02*
X87630476Y-119070380D01*
X87201904Y-118403714D02*
X87201904Y-118927523D01*
X87249523Y-119022761D01*
X87344761Y-119070380D01*
X87487619Y-119070380D01*
X87582857Y-119022761D01*
X87630476Y-118975142D01*
X88106666Y-119070380D02*
X88106666Y-118070380D01*
X88106666Y-118451333D02*
X88201904Y-118403714D01*
X88392380Y-118403714D01*
X88487619Y-118451333D01*
X88535238Y-118498952D01*
X88582857Y-118594190D01*
X88582857Y-118879904D01*
X88535238Y-118975142D01*
X88487619Y-119022761D01*
X88392380Y-119070380D01*
X88201904Y-119070380D01*
X88106666Y-119022761D01*
X89011428Y-118975142D02*
X89059047Y-119022761D01*
X89011428Y-119070380D01*
X88963809Y-119022761D01*
X89011428Y-118975142D01*
X89011428Y-119070380D01*
X89916190Y-119022761D02*
X89820952Y-119070380D01*
X89630476Y-119070380D01*
X89535238Y-119022761D01*
X89487619Y-118975142D01*
X89440000Y-118879904D01*
X89440000Y-118594190D01*
X89487619Y-118498952D01*
X89535238Y-118451333D01*
X89630476Y-118403714D01*
X89820952Y-118403714D01*
X89916190Y-118451333D01*
X90487619Y-119070380D02*
X90392380Y-119022761D01*
X90344761Y-118975142D01*
X90297142Y-118879904D01*
X90297142Y-118594190D01*
X90344761Y-118498952D01*
X90392380Y-118451333D01*
X90487619Y-118403714D01*
X90630476Y-118403714D01*
X90725714Y-118451333D01*
X90773333Y-118498952D01*
X90820952Y-118594190D01*
X90820952Y-118879904D01*
X90773333Y-118975142D01*
X90725714Y-119022761D01*
X90630476Y-119070380D01*
X90487619Y-119070380D01*
X91249523Y-119070380D02*
X91249523Y-118403714D01*
X91249523Y-118498952D02*
X91297142Y-118451333D01*
X91392380Y-118403714D01*
X91535238Y-118403714D01*
X91630476Y-118451333D01*
X91678095Y-118546571D01*
X91678095Y-119070380D01*
X91678095Y-118546571D02*
X91725714Y-118451333D01*
X91820952Y-118403714D01*
X91963809Y-118403714D01*
X92059047Y-118451333D01*
X92106666Y-118546571D01*
X92106666Y-119070380D01*
X93297142Y-118022761D02*
X92440000Y-119308476D01*
X93487619Y-118403714D02*
X93868571Y-118403714D01*
X93630476Y-118070380D02*
X93630476Y-118927523D01*
X93678095Y-119022761D01*
X93773333Y-119070380D01*
X93868571Y-119070380D01*
X94630476Y-118403714D02*
X94630476Y-119070380D01*
X94201904Y-118403714D02*
X94201904Y-118927523D01*
X94249523Y-119022761D01*
X94344761Y-119070380D01*
X94487619Y-119070380D01*
X94582857Y-119022761D01*
X94630476Y-118975142D01*
X94963809Y-118403714D02*
X95344761Y-118403714D01*
X95106666Y-119070380D02*
X95106666Y-118213238D01*
X95154285Y-118118000D01*
X95249523Y-118070380D01*
X95344761Y-118070380D01*
X95820952Y-119070380D02*
X95725714Y-119022761D01*
X95678095Y-118975142D01*
X95630476Y-118879904D01*
X95630476Y-118594190D01*
X95678095Y-118498952D01*
X95725714Y-118451333D01*
X95820952Y-118403714D01*
X95963809Y-118403714D01*
X96059047Y-118451333D01*
X96106666Y-118498952D01*
X96154285Y-118594190D01*
X96154285Y-118879904D01*
X96106666Y-118975142D01*
X96059047Y-119022761D01*
X95963809Y-119070380D01*
X95820952Y-119070380D01*
X97011428Y-118403714D02*
X97011428Y-119070380D01*
X96582857Y-118403714D02*
X96582857Y-118927523D01*
X96630476Y-119022761D01*
X96725714Y-119070380D01*
X96868571Y-119070380D01*
X96963809Y-119022761D01*
X97011428Y-118975142D01*
X97487619Y-119070380D02*
X97487619Y-118403714D01*
X97487619Y-118594190D02*
X97535238Y-118498952D01*
X97582857Y-118451333D01*
X97678095Y-118403714D01*
X97773333Y-118403714D01*
X98106666Y-118403714D02*
X98106666Y-119070380D01*
X98106666Y-118498952D02*
X98154285Y-118451333D01*
X98249523Y-118403714D01*
X98392380Y-118403714D01*
X98487619Y-118451333D01*
X98535238Y-118546571D01*
X98535238Y-119070380D01*
X64064095Y-68619714D02*
X64064095Y-69476857D01*
X64016476Y-69572095D01*
X63921238Y-69619714D01*
X63873619Y-69619714D01*
X64064095Y-68286380D02*
X64016476Y-68334000D01*
X64064095Y-68381619D01*
X64111714Y-68334000D01*
X64064095Y-68286380D01*
X64064095Y-68381619D01*
X64968857Y-68619714D02*
X64968857Y-69286380D01*
X64540285Y-68619714D02*
X64540285Y-69143523D01*
X64587904Y-69238761D01*
X64683142Y-69286380D01*
X64826000Y-69286380D01*
X64921238Y-69238761D01*
X64968857Y-69191142D01*
X65873619Y-69286380D02*
X65873619Y-68762571D01*
X65826000Y-68667333D01*
X65730761Y-68619714D01*
X65540285Y-68619714D01*
X65445047Y-68667333D01*
X65873619Y-69238761D02*
X65778380Y-69286380D01*
X65540285Y-69286380D01*
X65445047Y-69238761D01*
X65397428Y-69143523D01*
X65397428Y-69048285D01*
X65445047Y-68953047D01*
X65540285Y-68905428D01*
X65778380Y-68905428D01*
X65873619Y-68857809D01*
X66349809Y-68619714D02*
X66349809Y-69286380D01*
X66349809Y-68714952D02*
X66397428Y-68667333D01*
X66492666Y-68619714D01*
X66635523Y-68619714D01*
X66730761Y-68667333D01*
X66778380Y-68762571D01*
X66778380Y-69286380D01*
X67683142Y-68619714D02*
X67683142Y-69286380D01*
X67445047Y-68238761D02*
X67206952Y-68953047D01*
X67826000Y-68953047D01*
X68349809Y-68714952D02*
X68254571Y-68667333D01*
X68206952Y-68619714D01*
X68159333Y-68524476D01*
X68159333Y-68476857D01*
X68206952Y-68381619D01*
X68254571Y-68334000D01*
X68349809Y-68286380D01*
X68540285Y-68286380D01*
X68635523Y-68334000D01*
X68683142Y-68381619D01*
X68730761Y-68476857D01*
X68730761Y-68524476D01*
X68683142Y-68619714D01*
X68635523Y-68667333D01*
X68540285Y-68714952D01*
X68349809Y-68714952D01*
X68254571Y-68762571D01*
X68206952Y-68810190D01*
X68159333Y-68905428D01*
X68159333Y-69095904D01*
X68206952Y-69191142D01*
X68254571Y-69238761D01*
X68349809Y-69286380D01*
X68540285Y-69286380D01*
X68635523Y-69238761D01*
X68683142Y-69191142D01*
X68730761Y-69095904D01*
X68730761Y-68905428D01*
X68683142Y-68810190D01*
X68635523Y-68762571D01*
X68540285Y-68714952D01*
X69826000Y-68619714D02*
X70064095Y-69286380D01*
X70302190Y-68619714D01*
X71206952Y-69286380D02*
X70635523Y-69286380D01*
X70921238Y-69286380D02*
X70921238Y-68286380D01*
X70826000Y-68429238D01*
X70730761Y-68524476D01*
X70635523Y-68572095D01*
X71635523Y-69191142D02*
X71683142Y-69238761D01*
X71635523Y-69286380D01*
X71587904Y-69238761D01*
X71635523Y-69191142D01*
X71635523Y-69286380D01*
X72302190Y-68286380D02*
X72397428Y-68286380D01*
X72492666Y-68334000D01*
X72540285Y-68381619D01*
X72587904Y-68476857D01*
X72635523Y-68667333D01*
X72635523Y-68905428D01*
X72587904Y-69095904D01*
X72540285Y-69191142D01*
X72492666Y-69238761D01*
X72397428Y-69286380D01*
X72302190Y-69286380D01*
X72206952Y-69238761D01*
X72159333Y-69191142D01*
X72111714Y-69095904D01*
X72064095Y-68905428D01*
X72064095Y-68667333D01*
X72111714Y-68476857D01*
X72159333Y-68381619D01*
X72206952Y-68334000D01*
X72302190Y-68286380D01*
X148611666Y-59999761D02*
X148754523Y-60047380D01*
X148992619Y-60047380D01*
X149087857Y-59999761D01*
X149135476Y-59952142D01*
X149183095Y-59856904D01*
X149183095Y-59761666D01*
X149135476Y-59666428D01*
X149087857Y-59618809D01*
X148992619Y-59571190D01*
X148802142Y-59523571D01*
X148706904Y-59475952D01*
X148659285Y-59428333D01*
X148611666Y-59333095D01*
X148611666Y-59237857D01*
X148659285Y-59142619D01*
X148706904Y-59095000D01*
X148802142Y-59047380D01*
X149040238Y-59047380D01*
X149183095Y-59095000D01*
X149516428Y-59047380D02*
X149754523Y-60047380D01*
X149945000Y-59333095D01*
X150135476Y-60047380D01*
X150373571Y-59047380D01*
X151230714Y-59047380D02*
X150754523Y-59047380D01*
X150706904Y-59523571D01*
X150754523Y-59475952D01*
X150849761Y-59428333D01*
X151087857Y-59428333D01*
X151183095Y-59475952D01*
X151230714Y-59523571D01*
X151278333Y-59618809D01*
X151278333Y-59856904D01*
X151230714Y-59952142D01*
X151183095Y-59999761D01*
X151087857Y-60047380D01*
X150849761Y-60047380D01*
X150754523Y-59999761D01*
X150706904Y-59952142D01*
X166135476Y-78999761D02*
X166278333Y-79047380D01*
X166516428Y-79047380D01*
X166611666Y-78999761D01*
X166659285Y-78952142D01*
X166706904Y-78856904D01*
X166706904Y-78761666D01*
X166659285Y-78666428D01*
X166611666Y-78618809D01*
X166516428Y-78571190D01*
X166325952Y-78523571D01*
X166230714Y-78475952D01*
X166183095Y-78428333D01*
X166135476Y-78333095D01*
X166135476Y-78237857D01*
X166183095Y-78142619D01*
X166230714Y-78095000D01*
X166325952Y-78047380D01*
X166564047Y-78047380D01*
X166706904Y-78095000D01*
X167040238Y-78047380D02*
X167278333Y-79047380D01*
X167468809Y-78333095D01*
X167659285Y-79047380D01*
X167897380Y-78047380D01*
X168802142Y-79047380D02*
X168230714Y-79047380D01*
X168516428Y-79047380D02*
X168516428Y-78047380D01*
X168421190Y-78190238D01*
X168325952Y-78285476D01*
X168230714Y-78333095D01*
X169183095Y-78142619D02*
X169230714Y-78095000D01*
X169325952Y-78047380D01*
X169564047Y-78047380D01*
X169659285Y-78095000D01*
X169706904Y-78142619D01*
X169754523Y-78237857D01*
X169754523Y-78333095D01*
X169706904Y-78475952D01*
X169135476Y-79047380D01*
X169754523Y-79047380D01*
X112611666Y-57999761D02*
X112754523Y-58047380D01*
X112992619Y-58047380D01*
X113087857Y-57999761D01*
X113135476Y-57952142D01*
X113183095Y-57856904D01*
X113183095Y-57761666D01*
X113135476Y-57666428D01*
X113087857Y-57618809D01*
X112992619Y-57571190D01*
X112802142Y-57523571D01*
X112706904Y-57475952D01*
X112659285Y-57428333D01*
X112611666Y-57333095D01*
X112611666Y-57237857D01*
X112659285Y-57142619D01*
X112706904Y-57095000D01*
X112802142Y-57047380D01*
X113040238Y-57047380D01*
X113183095Y-57095000D01*
X113516428Y-57047380D02*
X113754523Y-58047380D01*
X113945000Y-57333095D01*
X114135476Y-58047380D01*
X114373571Y-57047380D01*
X114659285Y-57047380D02*
X115278333Y-57047380D01*
X114945000Y-57428333D01*
X115087857Y-57428333D01*
X115183095Y-57475952D01*
X115230714Y-57523571D01*
X115278333Y-57618809D01*
X115278333Y-57856904D01*
X115230714Y-57952142D01*
X115183095Y-57999761D01*
X115087857Y-58047380D01*
X114802142Y-58047380D01*
X114706904Y-57999761D01*
X114659285Y-57952142D01*
X90716666Y-67016666D02*
X90383333Y-67016666D01*
X90383333Y-66316666D01*
X90950000Y-66650000D02*
X91183333Y-66650000D01*
X91283333Y-67016666D02*
X90950000Y-67016666D01*
X90950000Y-66316666D01*
X91283333Y-66316666D01*
X91583333Y-67016666D02*
X91583333Y-66316666D01*
X91750000Y-66316666D01*
X91850000Y-66350000D01*
X91916666Y-66416666D01*
X91950000Y-66483333D01*
X91983333Y-66616666D01*
X91983333Y-66716666D01*
X91950000Y-66850000D01*
X91916666Y-66916666D01*
X91850000Y-66983333D01*
X91750000Y-67016666D01*
X91583333Y-67016666D01*
X92250000Y-66383333D02*
X92283333Y-66350000D01*
X92350000Y-66316666D01*
X92516666Y-66316666D01*
X92583333Y-66350000D01*
X92616666Y-66383333D01*
X92650000Y-66450000D01*
X92650000Y-66516666D01*
X92616666Y-66616666D01*
X92216666Y-67016666D01*
X92650000Y-67016666D01*
X94135476Y-105999761D02*
X94278333Y-106047380D01*
X94516428Y-106047380D01*
X94611666Y-105999761D01*
X94659285Y-105952142D01*
X94706904Y-105856904D01*
X94706904Y-105761666D01*
X94659285Y-105666428D01*
X94611666Y-105618809D01*
X94516428Y-105571190D01*
X94325952Y-105523571D01*
X94230714Y-105475952D01*
X94183095Y-105428333D01*
X94135476Y-105333095D01*
X94135476Y-105237857D01*
X94183095Y-105142619D01*
X94230714Y-105095000D01*
X94325952Y-105047380D01*
X94564047Y-105047380D01*
X94706904Y-105095000D01*
X95040238Y-105047380D02*
X95278333Y-106047380D01*
X95468809Y-105333095D01*
X95659285Y-106047380D01*
X95897380Y-105047380D01*
X96802142Y-106047380D02*
X96230714Y-106047380D01*
X96516428Y-106047380D02*
X96516428Y-105047380D01*
X96421190Y-105190238D01*
X96325952Y-105285476D01*
X96230714Y-105333095D01*
X97659285Y-105380714D02*
X97659285Y-106047380D01*
X97421190Y-104999761D02*
X97183095Y-105714047D01*
X97802142Y-105714047D01*
X144716666Y-55016666D02*
X144383333Y-55016666D01*
X144383333Y-54316666D01*
X144950000Y-54650000D02*
X145183333Y-54650000D01*
X145283333Y-55016666D02*
X144950000Y-55016666D01*
X144950000Y-54316666D01*
X145283333Y-54316666D01*
X145583333Y-55016666D02*
X145583333Y-54316666D01*
X145750000Y-54316666D01*
X145850000Y-54350000D01*
X145916666Y-54416666D01*
X145950000Y-54483333D01*
X145983333Y-54616666D01*
X145983333Y-54716666D01*
X145950000Y-54850000D01*
X145916666Y-54916666D01*
X145850000Y-54983333D01*
X145750000Y-55016666D01*
X145583333Y-55016666D01*
X146616666Y-54316666D02*
X146283333Y-54316666D01*
X146250000Y-54650000D01*
X146283333Y-54616666D01*
X146350000Y-54583333D01*
X146516666Y-54583333D01*
X146583333Y-54616666D01*
X146616666Y-54650000D01*
X146650000Y-54716666D01*
X146650000Y-54883333D01*
X146616666Y-54950000D01*
X146583333Y-54983333D01*
X146516666Y-55016666D01*
X146350000Y-55016666D01*
X146283333Y-54983333D01*
X146250000Y-54950000D01*
X90716666Y-84016666D02*
X90383333Y-84016666D01*
X90383333Y-83316666D01*
X90950000Y-83650000D02*
X91183333Y-83650000D01*
X91283333Y-84016666D02*
X90950000Y-84016666D01*
X90950000Y-83316666D01*
X91283333Y-83316666D01*
X91583333Y-84016666D02*
X91583333Y-83316666D01*
X91750000Y-83316666D01*
X91850000Y-83350000D01*
X91916666Y-83416666D01*
X91950000Y-83483333D01*
X91983333Y-83616666D01*
X91983333Y-83716666D01*
X91950000Y-83850000D01*
X91916666Y-83916666D01*
X91850000Y-83983333D01*
X91750000Y-84016666D01*
X91583333Y-84016666D01*
X92383333Y-83616666D02*
X92316666Y-83583333D01*
X92283333Y-83550000D01*
X92250000Y-83483333D01*
X92250000Y-83450000D01*
X92283333Y-83383333D01*
X92316666Y-83350000D01*
X92383333Y-83316666D01*
X92516666Y-83316666D01*
X92583333Y-83350000D01*
X92616666Y-83383333D01*
X92650000Y-83450000D01*
X92650000Y-83483333D01*
X92616666Y-83550000D01*
X92583333Y-83583333D01*
X92516666Y-83616666D01*
X92383333Y-83616666D01*
X92316666Y-83650000D01*
X92283333Y-83683333D01*
X92250000Y-83750000D01*
X92250000Y-83883333D01*
X92283333Y-83950000D01*
X92316666Y-83983333D01*
X92383333Y-84016666D01*
X92516666Y-84016666D01*
X92583333Y-83983333D01*
X92616666Y-83950000D01*
X92650000Y-83883333D01*
X92650000Y-83750000D01*
X92616666Y-83683333D01*
X92583333Y-83650000D01*
X92516666Y-83616666D01*
X144383333Y-72016666D02*
X144050000Y-72016666D01*
X144050000Y-71316666D01*
X144616666Y-71650000D02*
X144850000Y-71650000D01*
X144950000Y-72016666D02*
X144616666Y-72016666D01*
X144616666Y-71316666D01*
X144950000Y-71316666D01*
X145250000Y-72016666D02*
X145250000Y-71316666D01*
X145416666Y-71316666D01*
X145516666Y-71350000D01*
X145583333Y-71416666D01*
X145616666Y-71483333D01*
X145650000Y-71616666D01*
X145650000Y-71716666D01*
X145616666Y-71850000D01*
X145583333Y-71916666D01*
X145516666Y-71983333D01*
X145416666Y-72016666D01*
X145250000Y-72016666D01*
X146316666Y-72016666D02*
X145916666Y-72016666D01*
X146116666Y-72016666D02*
X146116666Y-71316666D01*
X146050000Y-71416666D01*
X145983333Y-71483333D01*
X145916666Y-71516666D01*
X146983333Y-72016666D02*
X146583333Y-72016666D01*
X146783333Y-72016666D02*
X146783333Y-71316666D01*
X146716666Y-71416666D01*
X146650000Y-71483333D01*
X146583333Y-71516666D01*
X180559820Y-120885261D02*
X180441865Y-120791654D01*
X180218129Y-120710221D01*
X180112348Y-120722395D01*
X180051314Y-120750855D01*
X179973993Y-120824063D01*
X179941420Y-120913558D01*
X179953594Y-121019339D01*
X179982054Y-121080373D01*
X180055262Y-121157693D01*
X180217965Y-121267587D01*
X180291172Y-121344908D01*
X180319633Y-121405942D01*
X180331807Y-121511723D01*
X180299234Y-121601218D01*
X180221913Y-121674425D01*
X180160879Y-121702886D01*
X180055098Y-121715060D01*
X179831362Y-121633627D01*
X179713406Y-121540019D01*
X179383889Y-121470760D02*
X179502173Y-120449634D01*
X179078883Y-121055696D01*
X179144195Y-120319340D01*
X178578438Y-121177600D01*
X178297780Y-120974099D02*
X178236747Y-121002559D01*
X178130965Y-121014733D01*
X177907229Y-120933300D01*
X177834021Y-120855979D01*
X177805561Y-120794945D01*
X177793387Y-120689164D01*
X177825960Y-120599669D01*
X177919567Y-120481714D01*
X178651975Y-120140187D01*
X178070260Y-119928460D01*
X177402835Y-120648365D02*
X177341801Y-120676826D01*
X177236020Y-120689000D01*
X177012284Y-120607566D01*
X176939076Y-120530246D01*
X176910615Y-120469212D01*
X176898441Y-120363430D01*
X176931015Y-120273936D01*
X177024622Y-120155981D01*
X177757029Y-119814454D01*
X177175315Y-119602727D01*
X112135476Y-108999761D02*
X112278333Y-109047380D01*
X112516428Y-109047380D01*
X112611666Y-108999761D01*
X112659285Y-108952142D01*
X112706904Y-108856904D01*
X112706904Y-108761666D01*
X112659285Y-108666428D01*
X112611666Y-108618809D01*
X112516428Y-108571190D01*
X112325952Y-108523571D01*
X112230714Y-108475952D01*
X112183095Y-108428333D01*
X112135476Y-108333095D01*
X112135476Y-108237857D01*
X112183095Y-108142619D01*
X112230714Y-108095000D01*
X112325952Y-108047380D01*
X112564047Y-108047380D01*
X112706904Y-108095000D01*
X113040238Y-108047380D02*
X113278333Y-109047380D01*
X113468809Y-108333095D01*
X113659285Y-109047380D01*
X113897380Y-108047380D01*
X114802142Y-109047380D02*
X114230714Y-109047380D01*
X114516428Y-109047380D02*
X114516428Y-108047380D01*
X114421190Y-108190238D01*
X114325952Y-108285476D01*
X114230714Y-108333095D01*
X115278333Y-109047380D02*
X115468809Y-109047380D01*
X115564047Y-108999761D01*
X115611666Y-108952142D01*
X115706904Y-108809285D01*
X115754523Y-108618809D01*
X115754523Y-108237857D01*
X115706904Y-108142619D01*
X115659285Y-108095000D01*
X115564047Y-108047380D01*
X115373571Y-108047380D01*
X115278333Y-108095000D01*
X115230714Y-108142619D01*
X115183095Y-108237857D01*
X115183095Y-108475952D01*
X115230714Y-108571190D01*
X115278333Y-108618809D01*
X115373571Y-108666428D01*
X115564047Y-108666428D01*
X115659285Y-108618809D01*
X115706904Y-108571190D01*
X115754523Y-108475952D01*
X108716666Y-53016666D02*
X108383333Y-53016666D01*
X108383333Y-52316666D01*
X108950000Y-52650000D02*
X109183333Y-52650000D01*
X109283333Y-53016666D02*
X108950000Y-53016666D01*
X108950000Y-52316666D01*
X109283333Y-52316666D01*
X109583333Y-53016666D02*
X109583333Y-52316666D01*
X109750000Y-52316666D01*
X109850000Y-52350000D01*
X109916666Y-52416666D01*
X109950000Y-52483333D01*
X109983333Y-52616666D01*
X109983333Y-52716666D01*
X109950000Y-52850000D01*
X109916666Y-52916666D01*
X109850000Y-52983333D01*
X109750000Y-53016666D01*
X109583333Y-53016666D01*
X110216666Y-52316666D02*
X110650000Y-52316666D01*
X110416666Y-52583333D01*
X110516666Y-52583333D01*
X110583333Y-52616666D01*
X110616666Y-52650000D01*
X110650000Y-52716666D01*
X110650000Y-52883333D01*
X110616666Y-52950000D01*
X110583333Y-52983333D01*
X110516666Y-53016666D01*
X110316666Y-53016666D01*
X110250000Y-52983333D01*
X110216666Y-52950000D01*
X126383333Y-64066666D02*
X126050000Y-64066666D01*
X126050000Y-63366666D01*
X126616666Y-63700000D02*
X126850000Y-63700000D01*
X126950000Y-64066666D02*
X126616666Y-64066666D01*
X126616666Y-63366666D01*
X126950000Y-63366666D01*
X127250000Y-64066666D02*
X127250000Y-63366666D01*
X127416666Y-63366666D01*
X127516666Y-63400000D01*
X127583333Y-63466666D01*
X127616666Y-63533333D01*
X127650000Y-63666666D01*
X127650000Y-63766666D01*
X127616666Y-63900000D01*
X127583333Y-63966666D01*
X127516666Y-64033333D01*
X127416666Y-64066666D01*
X127250000Y-64066666D01*
X128316666Y-64066666D02*
X127916666Y-64066666D01*
X128116666Y-64066666D02*
X128116666Y-63366666D01*
X128050000Y-63466666D01*
X127983333Y-63533333D01*
X127916666Y-63566666D01*
X128750000Y-63366666D02*
X128816666Y-63366666D01*
X128883333Y-63400000D01*
X128916666Y-63433333D01*
X128950000Y-63500000D01*
X128983333Y-63633333D01*
X128983333Y-63800000D01*
X128950000Y-63933333D01*
X128916666Y-64000000D01*
X128883333Y-64033333D01*
X128816666Y-64066666D01*
X128750000Y-64066666D01*
X128683333Y-64033333D01*
X128650000Y-64000000D01*
X128616666Y-63933333D01*
X128583333Y-63800000D01*
X128583333Y-63633333D01*
X128616666Y-63500000D01*
X128650000Y-63433333D01*
X128683333Y-63400000D01*
X128750000Y-63366666D01*
X94611666Y-71999761D02*
X94754523Y-72047380D01*
X94992619Y-72047380D01*
X95087857Y-71999761D01*
X95135476Y-71952142D01*
X95183095Y-71856904D01*
X95183095Y-71761666D01*
X95135476Y-71666428D01*
X95087857Y-71618809D01*
X94992619Y-71571190D01*
X94802142Y-71523571D01*
X94706904Y-71475952D01*
X94659285Y-71428333D01*
X94611666Y-71333095D01*
X94611666Y-71237857D01*
X94659285Y-71142619D01*
X94706904Y-71095000D01*
X94802142Y-71047380D01*
X95040238Y-71047380D01*
X95183095Y-71095000D01*
X95516428Y-71047380D02*
X95754523Y-72047380D01*
X95945000Y-71333095D01*
X96135476Y-72047380D01*
X96373571Y-71047380D01*
X96706904Y-71142619D02*
X96754523Y-71095000D01*
X96849761Y-71047380D01*
X97087857Y-71047380D01*
X97183095Y-71095000D01*
X97230714Y-71142619D01*
X97278333Y-71237857D01*
X97278333Y-71333095D01*
X97230714Y-71475952D01*
X96659285Y-72047380D01*
X97278333Y-72047380D01*
X126716666Y-47066666D02*
X126383333Y-47066666D01*
X126383333Y-46366666D01*
X126950000Y-46700000D02*
X127183333Y-46700000D01*
X127283333Y-47066666D02*
X126950000Y-47066666D01*
X126950000Y-46366666D01*
X127283333Y-46366666D01*
X127583333Y-47066666D02*
X127583333Y-46366666D01*
X127750000Y-46366666D01*
X127850000Y-46400000D01*
X127916666Y-46466666D01*
X127950000Y-46533333D01*
X127983333Y-46666666D01*
X127983333Y-46766666D01*
X127950000Y-46900000D01*
X127916666Y-46966666D01*
X127850000Y-47033333D01*
X127750000Y-47066666D01*
X127583333Y-47066666D01*
X128583333Y-46600000D02*
X128583333Y-47066666D01*
X128416666Y-46333333D02*
X128250000Y-46833333D01*
X128683333Y-46833333D01*
X72383333Y-106016666D02*
X72050000Y-106016666D01*
X72050000Y-105316666D01*
X72616666Y-105650000D02*
X72850000Y-105650000D01*
X72950000Y-106016666D02*
X72616666Y-106016666D01*
X72616666Y-105316666D01*
X72950000Y-105316666D01*
X73250000Y-106016666D02*
X73250000Y-105316666D01*
X73416666Y-105316666D01*
X73516666Y-105350000D01*
X73583333Y-105416666D01*
X73616666Y-105483333D01*
X73650000Y-105616666D01*
X73650000Y-105716666D01*
X73616666Y-105850000D01*
X73583333Y-105916666D01*
X73516666Y-105983333D01*
X73416666Y-106016666D01*
X73250000Y-106016666D01*
X74316666Y-106016666D02*
X73916666Y-106016666D01*
X74116666Y-106016666D02*
X74116666Y-105316666D01*
X74050000Y-105416666D01*
X73983333Y-105483333D01*
X73916666Y-105516666D01*
X74550000Y-105316666D02*
X74983333Y-105316666D01*
X74750000Y-105583333D01*
X74850000Y-105583333D01*
X74916666Y-105616666D01*
X74950000Y-105650000D01*
X74983333Y-105716666D01*
X74983333Y-105883333D01*
X74950000Y-105950000D01*
X74916666Y-105983333D01*
X74850000Y-106016666D01*
X74650000Y-106016666D01*
X74583333Y-105983333D01*
X74550000Y-105950000D01*
X148135476Y-93999761D02*
X148278333Y-94047380D01*
X148516428Y-94047380D01*
X148611666Y-93999761D01*
X148659285Y-93952142D01*
X148706904Y-93856904D01*
X148706904Y-93761666D01*
X148659285Y-93666428D01*
X148611666Y-93618809D01*
X148516428Y-93571190D01*
X148325952Y-93523571D01*
X148230714Y-93475952D01*
X148183095Y-93428333D01*
X148135476Y-93333095D01*
X148135476Y-93237857D01*
X148183095Y-93142619D01*
X148230714Y-93095000D01*
X148325952Y-93047380D01*
X148564047Y-93047380D01*
X148706904Y-93095000D01*
X149040238Y-93047380D02*
X149278333Y-94047380D01*
X149468809Y-93333095D01*
X149659285Y-94047380D01*
X149897380Y-93047380D01*
X150802142Y-94047380D02*
X150230714Y-94047380D01*
X150516428Y-94047380D02*
X150516428Y-93047380D01*
X150421190Y-93190238D01*
X150325952Y-93285476D01*
X150230714Y-93333095D01*
X151135476Y-93047380D02*
X151802142Y-93047380D01*
X151373571Y-94047380D01*
X112611666Y-74999761D02*
X112754523Y-75047380D01*
X112992619Y-75047380D01*
X113087857Y-74999761D01*
X113135476Y-74952142D01*
X113183095Y-74856904D01*
X113183095Y-74761666D01*
X113135476Y-74666428D01*
X113087857Y-74618809D01*
X112992619Y-74571190D01*
X112802142Y-74523571D01*
X112706904Y-74475952D01*
X112659285Y-74428333D01*
X112611666Y-74333095D01*
X112611666Y-74237857D01*
X112659285Y-74142619D01*
X112706904Y-74095000D01*
X112802142Y-74047380D01*
X113040238Y-74047380D01*
X113183095Y-74095000D01*
X113516428Y-74047380D02*
X113754523Y-75047380D01*
X113945000Y-74333095D01*
X114135476Y-75047380D01*
X114373571Y-74047380D01*
X114802142Y-75047380D02*
X114992619Y-75047380D01*
X115087857Y-74999761D01*
X115135476Y-74952142D01*
X115230714Y-74809285D01*
X115278333Y-74618809D01*
X115278333Y-74237857D01*
X115230714Y-74142619D01*
X115183095Y-74095000D01*
X115087857Y-74047380D01*
X114897380Y-74047380D01*
X114802142Y-74095000D01*
X114754523Y-74142619D01*
X114706904Y-74237857D01*
X114706904Y-74475952D01*
X114754523Y-74571190D01*
X114802142Y-74618809D01*
X114897380Y-74666428D01*
X115087857Y-74666428D01*
X115183095Y-74618809D01*
X115230714Y-74571190D01*
X115278333Y-74475952D01*
X130135476Y-102999761D02*
X130278333Y-103047380D01*
X130516428Y-103047380D01*
X130611666Y-102999761D01*
X130659285Y-102952142D01*
X130706904Y-102856904D01*
X130706904Y-102761666D01*
X130659285Y-102666428D01*
X130611666Y-102618809D01*
X130516428Y-102571190D01*
X130325952Y-102523571D01*
X130230714Y-102475952D01*
X130183095Y-102428333D01*
X130135476Y-102333095D01*
X130135476Y-102237857D01*
X130183095Y-102142619D01*
X130230714Y-102095000D01*
X130325952Y-102047380D01*
X130564047Y-102047380D01*
X130706904Y-102095000D01*
X131040238Y-102047380D02*
X131278333Y-103047380D01*
X131468809Y-102333095D01*
X131659285Y-103047380D01*
X131897380Y-102047380D01*
X132230714Y-102142619D02*
X132278333Y-102095000D01*
X132373571Y-102047380D01*
X132611666Y-102047380D01*
X132706904Y-102095000D01*
X132754523Y-102142619D01*
X132802142Y-102237857D01*
X132802142Y-102333095D01*
X132754523Y-102475952D01*
X132183095Y-103047380D01*
X132802142Y-103047380D01*
X133421190Y-102047380D02*
X133516428Y-102047380D01*
X133611666Y-102095000D01*
X133659285Y-102142619D01*
X133706904Y-102237857D01*
X133754523Y-102428333D01*
X133754523Y-102666428D01*
X133706904Y-102856904D01*
X133659285Y-102952142D01*
X133611666Y-102999761D01*
X133516428Y-103047380D01*
X133421190Y-103047380D01*
X133325952Y-102999761D01*
X133278333Y-102952142D01*
X133230714Y-102856904D01*
X133183095Y-102666428D01*
X133183095Y-102428333D01*
X133230714Y-102237857D01*
X133278333Y-102142619D01*
X133325952Y-102095000D01*
X133421190Y-102047380D01*
X108383333Y-87016666D02*
X108050000Y-87016666D01*
X108050000Y-86316666D01*
X108616666Y-86650000D02*
X108850000Y-86650000D01*
X108950000Y-87016666D02*
X108616666Y-87016666D01*
X108616666Y-86316666D01*
X108950000Y-86316666D01*
X109250000Y-87016666D02*
X109250000Y-86316666D01*
X109416666Y-86316666D01*
X109516666Y-86350000D01*
X109583333Y-86416666D01*
X109616666Y-86483333D01*
X109650000Y-86616666D01*
X109650000Y-86716666D01*
X109616666Y-86850000D01*
X109583333Y-86916666D01*
X109516666Y-86983333D01*
X109416666Y-87016666D01*
X109250000Y-87016666D01*
X110316666Y-87016666D02*
X109916666Y-87016666D01*
X110116666Y-87016666D02*
X110116666Y-86316666D01*
X110050000Y-86416666D01*
X109983333Y-86483333D01*
X109916666Y-86516666D01*
X110950000Y-86316666D02*
X110616666Y-86316666D01*
X110583333Y-86650000D01*
X110616666Y-86616666D01*
X110683333Y-86583333D01*
X110850000Y-86583333D01*
X110916666Y-86616666D01*
X110950000Y-86650000D01*
X110983333Y-86716666D01*
X110983333Y-86883333D01*
X110950000Y-86950000D01*
X110916666Y-86983333D01*
X110850000Y-87016666D01*
X110683333Y-87016666D01*
X110616666Y-86983333D01*
X110583333Y-86950000D01*
X130135476Y-86049761D02*
X130278333Y-86097380D01*
X130516428Y-86097380D01*
X130611666Y-86049761D01*
X130659285Y-86002142D01*
X130706904Y-85906904D01*
X130706904Y-85811666D01*
X130659285Y-85716428D01*
X130611666Y-85668809D01*
X130516428Y-85621190D01*
X130325952Y-85573571D01*
X130230714Y-85525952D01*
X130183095Y-85478333D01*
X130135476Y-85383095D01*
X130135476Y-85287857D01*
X130183095Y-85192619D01*
X130230714Y-85145000D01*
X130325952Y-85097380D01*
X130564047Y-85097380D01*
X130706904Y-85145000D01*
X131040238Y-85097380D02*
X131278333Y-86097380D01*
X131468809Y-85383095D01*
X131659285Y-86097380D01*
X131897380Y-85097380D01*
X132802142Y-86097380D02*
X132230714Y-86097380D01*
X132516428Y-86097380D02*
X132516428Y-85097380D01*
X132421190Y-85240238D01*
X132325952Y-85335476D01*
X132230714Y-85383095D01*
X133659285Y-85097380D02*
X133468809Y-85097380D01*
X133373571Y-85145000D01*
X133325952Y-85192619D01*
X133230714Y-85335476D01*
X133183095Y-85525952D01*
X133183095Y-85906904D01*
X133230714Y-86002142D01*
X133278333Y-86049761D01*
X133373571Y-86097380D01*
X133564047Y-86097380D01*
X133659285Y-86049761D01*
X133706904Y-86002142D01*
X133754523Y-85906904D01*
X133754523Y-85668809D01*
X133706904Y-85573571D01*
X133659285Y-85525952D01*
X133564047Y-85478333D01*
X133373571Y-85478333D01*
X133278333Y-85525952D01*
X133230714Y-85573571D01*
X133183095Y-85668809D01*
X144383333Y-89016666D02*
X144050000Y-89016666D01*
X144050000Y-88316666D01*
X144616666Y-88650000D02*
X144850000Y-88650000D01*
X144950000Y-89016666D02*
X144616666Y-89016666D01*
X144616666Y-88316666D01*
X144950000Y-88316666D01*
X145250000Y-89016666D02*
X145250000Y-88316666D01*
X145416666Y-88316666D01*
X145516666Y-88350000D01*
X145583333Y-88416666D01*
X145616666Y-88483333D01*
X145650000Y-88616666D01*
X145650000Y-88716666D01*
X145616666Y-88850000D01*
X145583333Y-88916666D01*
X145516666Y-88983333D01*
X145416666Y-89016666D01*
X145250000Y-89016666D01*
X146316666Y-89016666D02*
X145916666Y-89016666D01*
X146116666Y-89016666D02*
X146116666Y-88316666D01*
X146050000Y-88416666D01*
X145983333Y-88483333D01*
X145916666Y-88516666D01*
X146550000Y-88316666D02*
X147016666Y-88316666D01*
X146716666Y-89016666D01*
X180383333Y-91016666D02*
X180050000Y-91016666D01*
X180050000Y-90316666D01*
X180616666Y-90650000D02*
X180850000Y-90650000D01*
X180950000Y-91016666D02*
X180616666Y-91016666D01*
X180616666Y-90316666D01*
X180950000Y-90316666D01*
X181250000Y-91016666D02*
X181250000Y-90316666D01*
X181416666Y-90316666D01*
X181516666Y-90350000D01*
X181583333Y-90416666D01*
X181616666Y-90483333D01*
X181650000Y-90616666D01*
X181650000Y-90716666D01*
X181616666Y-90850000D01*
X181583333Y-90916666D01*
X181516666Y-90983333D01*
X181416666Y-91016666D01*
X181250000Y-91016666D01*
X181916666Y-90383333D02*
X181950000Y-90350000D01*
X182016666Y-90316666D01*
X182183333Y-90316666D01*
X182250000Y-90350000D01*
X182283333Y-90383333D01*
X182316666Y-90450000D01*
X182316666Y-90516666D01*
X182283333Y-90616666D01*
X181883333Y-91016666D01*
X182316666Y-91016666D01*
X182916666Y-90550000D02*
X182916666Y-91016666D01*
X182750000Y-90283333D02*
X182583333Y-90783333D01*
X183016666Y-90783333D01*
X198264794Y-133718411D02*
X198185968Y-133590106D01*
X198003577Y-133437062D01*
X197900011Y-133412322D01*
X197832924Y-133418191D01*
X197735228Y-133460539D01*
X197674010Y-133533496D01*
X197649270Y-133637061D01*
X197655140Y-133704148D01*
X197697487Y-133801845D01*
X197812792Y-133960759D01*
X197855139Y-134058455D01*
X197861009Y-134125542D01*
X197836269Y-134229108D01*
X197775051Y-134302064D01*
X197677355Y-134344412D01*
X197610268Y-134350281D01*
X197506702Y-134325542D01*
X197324311Y-134172497D01*
X197245485Y-134044192D01*
X196959528Y-133866408D02*
X197419924Y-132947319D01*
X196814876Y-133372058D01*
X197128097Y-132702447D01*
X196302918Y-133315447D01*
X196108788Y-133028228D02*
X196041701Y-133034097D01*
X195938135Y-133009358D01*
X195755743Y-132856313D01*
X195713396Y-132758617D01*
X195707526Y-132691530D01*
X195732266Y-132587964D01*
X195793484Y-132515007D01*
X195921789Y-132436181D01*
X196726836Y-132365749D01*
X196252618Y-131967833D01*
X195354482Y-132519615D02*
X194880264Y-132121699D01*
X195380484Y-132044135D01*
X195271049Y-131952308D01*
X195228701Y-131854612D01*
X195222832Y-131787524D01*
X195247571Y-131683959D01*
X195400616Y-131501567D01*
X195498312Y-131459220D01*
X195565399Y-131453350D01*
X195668965Y-131478090D01*
X195887835Y-131661743D01*
X195930182Y-131759440D01*
X195936052Y-131826527D01*
X76135476Y-110999761D02*
X76278333Y-111047380D01*
X76516428Y-111047380D01*
X76611666Y-110999761D01*
X76659285Y-110952142D01*
X76706904Y-110856904D01*
X76706904Y-110761666D01*
X76659285Y-110666428D01*
X76611666Y-110618809D01*
X76516428Y-110571190D01*
X76325952Y-110523571D01*
X76230714Y-110475952D01*
X76183095Y-110428333D01*
X76135476Y-110333095D01*
X76135476Y-110237857D01*
X76183095Y-110142619D01*
X76230714Y-110095000D01*
X76325952Y-110047380D01*
X76564047Y-110047380D01*
X76706904Y-110095000D01*
X77040238Y-110047380D02*
X77278333Y-111047380D01*
X77468809Y-110333095D01*
X77659285Y-111047380D01*
X77897380Y-110047380D01*
X78802142Y-111047380D02*
X78230714Y-111047380D01*
X78516428Y-111047380D02*
X78516428Y-110047380D01*
X78421190Y-110190238D01*
X78325952Y-110285476D01*
X78230714Y-110333095D01*
X79135476Y-110047380D02*
X79754523Y-110047380D01*
X79421190Y-110428333D01*
X79564047Y-110428333D01*
X79659285Y-110475952D01*
X79706904Y-110523571D01*
X79754523Y-110618809D01*
X79754523Y-110856904D01*
X79706904Y-110952142D01*
X79659285Y-110999761D01*
X79564047Y-111047380D01*
X79278333Y-111047380D01*
X79183095Y-110999761D01*
X79135476Y-110952142D01*
X162383333Y-91016666D02*
X162050000Y-91016666D01*
X162050000Y-90316666D01*
X162616666Y-90650000D02*
X162850000Y-90650000D01*
X162950000Y-91016666D02*
X162616666Y-91016666D01*
X162616666Y-90316666D01*
X162950000Y-90316666D01*
X163250000Y-91016666D02*
X163250000Y-90316666D01*
X163416666Y-90316666D01*
X163516666Y-90350000D01*
X163583333Y-90416666D01*
X163616666Y-90483333D01*
X163650000Y-90616666D01*
X163650000Y-90716666D01*
X163616666Y-90850000D01*
X163583333Y-90916666D01*
X163516666Y-90983333D01*
X163416666Y-91016666D01*
X163250000Y-91016666D01*
X164316666Y-91016666D02*
X163916666Y-91016666D01*
X164116666Y-91016666D02*
X164116666Y-90316666D01*
X164050000Y-90416666D01*
X163983333Y-90483333D01*
X163916666Y-90516666D01*
X164716666Y-90616666D02*
X164650000Y-90583333D01*
X164616666Y-90550000D01*
X164583333Y-90483333D01*
X164583333Y-90450000D01*
X164616666Y-90383333D01*
X164650000Y-90350000D01*
X164716666Y-90316666D01*
X164850000Y-90316666D01*
X164916666Y-90350000D01*
X164950000Y-90383333D01*
X164983333Y-90450000D01*
X164983333Y-90483333D01*
X164950000Y-90550000D01*
X164916666Y-90583333D01*
X164850000Y-90616666D01*
X164716666Y-90616666D01*
X164650000Y-90650000D01*
X164616666Y-90683333D01*
X164583333Y-90750000D01*
X164583333Y-90883333D01*
X164616666Y-90950000D01*
X164650000Y-90983333D01*
X164716666Y-91016666D01*
X164850000Y-91016666D01*
X164916666Y-90983333D01*
X164950000Y-90950000D01*
X164983333Y-90883333D01*
X164983333Y-90750000D01*
X164950000Y-90683333D01*
X164916666Y-90650000D01*
X164850000Y-90616666D01*
X108383333Y-104016666D02*
X108050000Y-104016666D01*
X108050000Y-103316666D01*
X108616666Y-103650000D02*
X108850000Y-103650000D01*
X108950000Y-104016666D02*
X108616666Y-104016666D01*
X108616666Y-103316666D01*
X108950000Y-103316666D01*
X109250000Y-104016666D02*
X109250000Y-103316666D01*
X109416666Y-103316666D01*
X109516666Y-103350000D01*
X109583333Y-103416666D01*
X109616666Y-103483333D01*
X109650000Y-103616666D01*
X109650000Y-103716666D01*
X109616666Y-103850000D01*
X109583333Y-103916666D01*
X109516666Y-103983333D01*
X109416666Y-104016666D01*
X109250000Y-104016666D01*
X110316666Y-104016666D02*
X109916666Y-104016666D01*
X110116666Y-104016666D02*
X110116666Y-103316666D01*
X110050000Y-103416666D01*
X109983333Y-103483333D01*
X109916666Y-103516666D01*
X110650000Y-104016666D02*
X110783333Y-104016666D01*
X110850000Y-103983333D01*
X110883333Y-103950000D01*
X110950000Y-103850000D01*
X110983333Y-103716666D01*
X110983333Y-103450000D01*
X110950000Y-103383333D01*
X110916666Y-103350000D01*
X110850000Y-103316666D01*
X110716666Y-103316666D01*
X110650000Y-103350000D01*
X110616666Y-103383333D01*
X110583333Y-103450000D01*
X110583333Y-103616666D01*
X110616666Y-103683333D01*
X110650000Y-103716666D01*
X110716666Y-103750000D01*
X110850000Y-103750000D01*
X110916666Y-103716666D01*
X110950000Y-103683333D01*
X110983333Y-103616666D01*
X130135476Y-69049761D02*
X130278333Y-69097380D01*
X130516428Y-69097380D01*
X130611666Y-69049761D01*
X130659285Y-69002142D01*
X130706904Y-68906904D01*
X130706904Y-68811666D01*
X130659285Y-68716428D01*
X130611666Y-68668809D01*
X130516428Y-68621190D01*
X130325952Y-68573571D01*
X130230714Y-68525952D01*
X130183095Y-68478333D01*
X130135476Y-68383095D01*
X130135476Y-68287857D01*
X130183095Y-68192619D01*
X130230714Y-68145000D01*
X130325952Y-68097380D01*
X130564047Y-68097380D01*
X130706904Y-68145000D01*
X131040238Y-68097380D02*
X131278333Y-69097380D01*
X131468809Y-68383095D01*
X131659285Y-69097380D01*
X131897380Y-68097380D01*
X132802142Y-69097380D02*
X132230714Y-69097380D01*
X132516428Y-69097380D02*
X132516428Y-68097380D01*
X132421190Y-68240238D01*
X132325952Y-68335476D01*
X132230714Y-68383095D01*
X133421190Y-68097380D02*
X133516428Y-68097380D01*
X133611666Y-68145000D01*
X133659285Y-68192619D01*
X133706904Y-68287857D01*
X133754523Y-68478333D01*
X133754523Y-68716428D01*
X133706904Y-68906904D01*
X133659285Y-69002142D01*
X133611666Y-69049761D01*
X133516428Y-69097380D01*
X133421190Y-69097380D01*
X133325952Y-69049761D01*
X133278333Y-69002142D01*
X133230714Y-68906904D01*
X133183095Y-68716428D01*
X133183095Y-68478333D01*
X133230714Y-68287857D01*
X133278333Y-68192619D01*
X133325952Y-68145000D01*
X133421190Y-68097380D01*
X76611666Y-76999761D02*
X76754523Y-77047380D01*
X76992619Y-77047380D01*
X77087857Y-76999761D01*
X77135476Y-76952142D01*
X77183095Y-76856904D01*
X77183095Y-76761666D01*
X77135476Y-76666428D01*
X77087857Y-76618809D01*
X76992619Y-76571190D01*
X76802142Y-76523571D01*
X76706904Y-76475952D01*
X76659285Y-76428333D01*
X76611666Y-76333095D01*
X76611666Y-76237857D01*
X76659285Y-76142619D01*
X76706904Y-76095000D01*
X76802142Y-76047380D01*
X77040238Y-76047380D01*
X77183095Y-76095000D01*
X77516428Y-76047380D02*
X77754523Y-77047380D01*
X77945000Y-76333095D01*
X78135476Y-77047380D01*
X78373571Y-76047380D01*
X79278333Y-77047380D02*
X78706904Y-77047380D01*
X78992619Y-77047380D02*
X78992619Y-76047380D01*
X78897380Y-76190238D01*
X78802142Y-76285476D01*
X78706904Y-76333095D01*
X148135476Y-76999761D02*
X148278333Y-77047380D01*
X148516428Y-77047380D01*
X148611666Y-76999761D01*
X148659285Y-76952142D01*
X148706904Y-76856904D01*
X148706904Y-76761666D01*
X148659285Y-76666428D01*
X148611666Y-76618809D01*
X148516428Y-76571190D01*
X148325952Y-76523571D01*
X148230714Y-76475952D01*
X148183095Y-76428333D01*
X148135476Y-76333095D01*
X148135476Y-76237857D01*
X148183095Y-76142619D01*
X148230714Y-76095000D01*
X148325952Y-76047380D01*
X148564047Y-76047380D01*
X148706904Y-76095000D01*
X149040238Y-76047380D02*
X149278333Y-77047380D01*
X149468809Y-76333095D01*
X149659285Y-77047380D01*
X149897380Y-76047380D01*
X150802142Y-77047380D02*
X150230714Y-77047380D01*
X150516428Y-77047380D02*
X150516428Y-76047380D01*
X150421190Y-76190238D01*
X150325952Y-76285476D01*
X150230714Y-76333095D01*
X151754523Y-77047380D02*
X151183095Y-77047380D01*
X151468809Y-77047380D02*
X151468809Y-76047380D01*
X151373571Y-76190238D01*
X151278333Y-76285476D01*
X151183095Y-76333095D01*
X161598074Y-114541100D02*
X161468239Y-114464820D01*
X161235347Y-114415317D01*
X161132289Y-114442094D01*
X161075810Y-114478772D01*
X161009430Y-114562028D01*
X160989629Y-114655185D01*
X161016407Y-114758243D01*
X161053085Y-114814722D01*
X161136341Y-114881101D01*
X161312754Y-114967282D01*
X161396011Y-115033662D01*
X161432688Y-115090141D01*
X161459466Y-115193198D01*
X161439665Y-115286355D01*
X161373285Y-115369611D01*
X161316806Y-115406289D01*
X161213749Y-115433067D01*
X160980856Y-115383564D01*
X160851022Y-115307284D01*
X160515072Y-115284558D02*
X160490091Y-114256908D01*
X160155269Y-114915983D01*
X160117464Y-114177703D01*
X159676660Y-115106348D01*
X159370411Y-114943888D02*
X159313932Y-114980565D01*
X159210875Y-115007343D01*
X158977983Y-114957840D01*
X158894726Y-114891460D01*
X158858048Y-114834981D01*
X158831271Y-114731924D01*
X158851072Y-114638767D01*
X158927352Y-114508932D01*
X159605101Y-114068797D01*
X158999581Y-113940090D01*
X158068011Y-113742079D02*
X158626953Y-113860886D01*
X158347482Y-113801482D02*
X158139570Y-114779630D01*
X158262429Y-114659696D01*
X158375387Y-114586340D01*
X158478445Y-114559563D01*
X108716666Y-70016666D02*
X108383333Y-70016666D01*
X108383333Y-69316666D01*
X108950000Y-69650000D02*
X109183333Y-69650000D01*
X109283333Y-70016666D02*
X108950000Y-70016666D01*
X108950000Y-69316666D01*
X109283333Y-69316666D01*
X109583333Y-70016666D02*
X109583333Y-69316666D01*
X109750000Y-69316666D01*
X109850000Y-69350000D01*
X109916666Y-69416666D01*
X109950000Y-69483333D01*
X109983333Y-69616666D01*
X109983333Y-69716666D01*
X109950000Y-69850000D01*
X109916666Y-69916666D01*
X109850000Y-69983333D01*
X109750000Y-70016666D01*
X109583333Y-70016666D01*
X110316666Y-70016666D02*
X110450000Y-70016666D01*
X110516666Y-69983333D01*
X110550000Y-69950000D01*
X110616666Y-69850000D01*
X110650000Y-69716666D01*
X110650000Y-69450000D01*
X110616666Y-69383333D01*
X110583333Y-69350000D01*
X110516666Y-69316666D01*
X110383333Y-69316666D01*
X110316666Y-69350000D01*
X110283333Y-69383333D01*
X110250000Y-69450000D01*
X110250000Y-69616666D01*
X110283333Y-69683333D01*
X110316666Y-69716666D01*
X110383333Y-69750000D01*
X110516666Y-69750000D01*
X110583333Y-69716666D01*
X110616666Y-69683333D01*
X110650000Y-69616666D01*
X126383333Y-98016666D02*
X126050000Y-98016666D01*
X126050000Y-97316666D01*
X126616666Y-97650000D02*
X126850000Y-97650000D01*
X126950000Y-98016666D02*
X126616666Y-98016666D01*
X126616666Y-97316666D01*
X126950000Y-97316666D01*
X127250000Y-98016666D02*
X127250000Y-97316666D01*
X127416666Y-97316666D01*
X127516666Y-97350000D01*
X127583333Y-97416666D01*
X127616666Y-97483333D01*
X127650000Y-97616666D01*
X127650000Y-97716666D01*
X127616666Y-97850000D01*
X127583333Y-97916666D01*
X127516666Y-97983333D01*
X127416666Y-98016666D01*
X127250000Y-98016666D01*
X127916666Y-97383333D02*
X127950000Y-97350000D01*
X128016666Y-97316666D01*
X128183333Y-97316666D01*
X128250000Y-97350000D01*
X128283333Y-97383333D01*
X128316666Y-97450000D01*
X128316666Y-97516666D01*
X128283333Y-97616666D01*
X127883333Y-98016666D01*
X128316666Y-98016666D01*
X128750000Y-97316666D02*
X128816666Y-97316666D01*
X128883333Y-97350000D01*
X128916666Y-97383333D01*
X128950000Y-97450000D01*
X128983333Y-97583333D01*
X128983333Y-97750000D01*
X128950000Y-97883333D01*
X128916666Y-97950000D01*
X128883333Y-97983333D01*
X128816666Y-98016666D01*
X128750000Y-98016666D01*
X128683333Y-97983333D01*
X128650000Y-97950000D01*
X128616666Y-97883333D01*
X128583333Y-97750000D01*
X128583333Y-97583333D01*
X128616666Y-97450000D01*
X128650000Y-97383333D01*
X128683333Y-97350000D01*
X128750000Y-97316666D01*
X166611666Y-61999761D02*
X166754523Y-62047380D01*
X166992619Y-62047380D01*
X167087857Y-61999761D01*
X167135476Y-61952142D01*
X167183095Y-61856904D01*
X167183095Y-61761666D01*
X167135476Y-61666428D01*
X167087857Y-61618809D01*
X166992619Y-61571190D01*
X166802142Y-61523571D01*
X166706904Y-61475952D01*
X166659285Y-61428333D01*
X166611666Y-61333095D01*
X166611666Y-61237857D01*
X166659285Y-61142619D01*
X166706904Y-61095000D01*
X166802142Y-61047380D01*
X167040238Y-61047380D01*
X167183095Y-61095000D01*
X167516428Y-61047380D02*
X167754523Y-62047380D01*
X167945000Y-61333095D01*
X168135476Y-62047380D01*
X168373571Y-61047380D01*
X169183095Y-61047380D02*
X168992619Y-61047380D01*
X168897380Y-61095000D01*
X168849761Y-61142619D01*
X168754523Y-61285476D01*
X168706904Y-61475952D01*
X168706904Y-61856904D01*
X168754523Y-61952142D01*
X168802142Y-61999761D01*
X168897380Y-62047380D01*
X169087857Y-62047380D01*
X169183095Y-61999761D01*
X169230714Y-61952142D01*
X169278333Y-61856904D01*
X169278333Y-61618809D01*
X169230714Y-61523571D01*
X169183095Y-61475952D01*
X169087857Y-61428333D01*
X168897380Y-61428333D01*
X168802142Y-61475952D01*
X168754523Y-61523571D01*
X168706904Y-61618809D01*
X112135476Y-91999761D02*
X112278333Y-92047380D01*
X112516428Y-92047380D01*
X112611666Y-91999761D01*
X112659285Y-91952142D01*
X112706904Y-91856904D01*
X112706904Y-91761666D01*
X112659285Y-91666428D01*
X112611666Y-91618809D01*
X112516428Y-91571190D01*
X112325952Y-91523571D01*
X112230714Y-91475952D01*
X112183095Y-91428333D01*
X112135476Y-91333095D01*
X112135476Y-91237857D01*
X112183095Y-91142619D01*
X112230714Y-91095000D01*
X112325952Y-91047380D01*
X112564047Y-91047380D01*
X112706904Y-91095000D01*
X113040238Y-91047380D02*
X113278333Y-92047380D01*
X113468809Y-91333095D01*
X113659285Y-92047380D01*
X113897380Y-91047380D01*
X114802142Y-92047380D02*
X114230714Y-92047380D01*
X114516428Y-92047380D02*
X114516428Y-91047380D01*
X114421190Y-91190238D01*
X114325952Y-91285476D01*
X114230714Y-91333095D01*
X115706904Y-91047380D02*
X115230714Y-91047380D01*
X115183095Y-91523571D01*
X115230714Y-91475952D01*
X115325952Y-91428333D01*
X115564047Y-91428333D01*
X115659285Y-91475952D01*
X115706904Y-91523571D01*
X115754523Y-91618809D01*
X115754523Y-91856904D01*
X115706904Y-91952142D01*
X115659285Y-91999761D01*
X115564047Y-92047380D01*
X115325952Y-92047380D01*
X115230714Y-91999761D01*
X115183095Y-91952142D01*
X195300856Y-125783161D02*
X195045508Y-125568898D01*
X195495459Y-125032667D01*
X195715288Y-125652262D02*
X195894032Y-125802245D01*
X195734948Y-126147407D02*
X195479599Y-125933145D01*
X195929551Y-125396913D01*
X196184899Y-125611176D01*
X195964761Y-126340243D02*
X196414712Y-125804012D01*
X196542386Y-125911143D01*
X196597565Y-126000957D01*
X196605782Y-126094879D01*
X196588464Y-126167375D01*
X196528294Y-126290941D01*
X196464015Y-126367545D01*
X196352775Y-126448258D01*
X196284388Y-126477901D01*
X196190466Y-126486119D01*
X196092435Y-126447375D01*
X195964761Y-126340243D01*
X196882556Y-126283607D02*
X196929517Y-126279498D01*
X197002013Y-126296816D01*
X197129687Y-126403947D01*
X197159330Y-126472335D01*
X197163439Y-126519296D01*
X197146121Y-126591792D01*
X197103269Y-126642861D01*
X197013455Y-126698039D01*
X196449922Y-126747342D01*
X196781875Y-127025883D01*
X197410570Y-126639636D02*
X197742523Y-126918177D01*
X197392369Y-126972472D01*
X197468973Y-127036751D01*
X197498617Y-127105138D01*
X197502725Y-127152099D01*
X197485408Y-127224595D01*
X197378276Y-127352269D01*
X197309889Y-127381913D01*
X197262928Y-127386021D01*
X197190432Y-127368704D01*
X197037223Y-127240146D01*
X197007580Y-127171759D01*
X197003471Y-127124798D01*
X72716666Y-89016666D02*
X72383333Y-89016666D01*
X72383333Y-88316666D01*
X72950000Y-88650000D02*
X73183333Y-88650000D01*
X73283333Y-89016666D02*
X72950000Y-89016666D01*
X72950000Y-88316666D01*
X73283333Y-88316666D01*
X73583333Y-89016666D02*
X73583333Y-88316666D01*
X73750000Y-88316666D01*
X73850000Y-88350000D01*
X73916666Y-88416666D01*
X73950000Y-88483333D01*
X73983333Y-88616666D01*
X73983333Y-88716666D01*
X73950000Y-88850000D01*
X73916666Y-88916666D01*
X73850000Y-88983333D01*
X73750000Y-89016666D01*
X73583333Y-89016666D01*
X74216666Y-88316666D02*
X74683333Y-88316666D01*
X74383333Y-89016666D01*
X155255696Y-108926174D02*
X154929647Y-108856870D01*
X155075185Y-108172167D01*
X155560165Y-108616033D02*
X155788399Y-108664546D01*
X155809980Y-109043991D02*
X155483930Y-108974687D01*
X155629469Y-108289984D01*
X155955518Y-108359287D01*
X156103424Y-109106364D02*
X156248962Y-108421661D01*
X156411987Y-108456313D01*
X156502871Y-108509709D01*
X156554220Y-108588780D01*
X156572964Y-108660920D01*
X156577848Y-108798270D01*
X156557056Y-108896085D01*
X156496730Y-109019574D01*
X156450264Y-109077853D01*
X156371194Y-109129203D01*
X156266448Y-109141016D01*
X156103424Y-109106364D01*
X156887200Y-108625479D02*
X156926735Y-108599804D01*
X156998875Y-108581060D01*
X157161900Y-108615712D01*
X157220179Y-108662178D01*
X157245854Y-108701713D01*
X157264598Y-108773853D01*
X157250737Y-108839063D01*
X157197341Y-108929947D01*
X156722917Y-109238042D01*
X157146781Y-109328137D01*
X157798880Y-109466745D02*
X157407621Y-109383580D01*
X157603250Y-109425162D02*
X157748788Y-108740459D01*
X157662787Y-108824413D01*
X157583717Y-108875762D01*
X157511577Y-108894506D01*
X177489523Y-53324380D02*
X177156190Y-52848190D01*
X176918095Y-53324380D02*
X176918095Y-52324380D01*
X177299047Y-52324380D01*
X177394285Y-52372000D01*
X177441904Y-52419619D01*
X177489523Y-52514857D01*
X177489523Y-52657714D01*
X177441904Y-52752952D01*
X177394285Y-52800571D01*
X177299047Y-52848190D01*
X176918095Y-52848190D01*
X177870476Y-53038666D02*
X178346666Y-53038666D01*
X177775238Y-53324380D02*
X178108571Y-52324380D01*
X178441904Y-53324380D01*
X178680000Y-52324380D02*
X178918095Y-53324380D01*
X179108571Y-52610095D01*
X179299047Y-53324380D01*
X179537142Y-52324380D01*
X186241904Y-52324380D02*
X186813333Y-52324380D01*
X186527619Y-53324380D02*
X186527619Y-52324380D01*
X187051428Y-52324380D02*
X187718095Y-53324380D01*
X187718095Y-52324380D02*
X187051428Y-53324380D01*
X188289523Y-52324380D02*
X188384761Y-52324380D01*
X188480000Y-52372000D01*
X188527619Y-52419619D01*
X188575238Y-52514857D01*
X188622857Y-52705333D01*
X188622857Y-52943428D01*
X188575238Y-53133904D01*
X188527619Y-53229142D01*
X188480000Y-53276761D01*
X188384761Y-53324380D01*
X188289523Y-53324380D01*
X188194285Y-53276761D01*
X188146666Y-53229142D01*
X188099047Y-53133904D01*
X188051428Y-52943428D01*
X188051428Y-52705333D01*
X188099047Y-52514857D01*
X188146666Y-52419619D01*
X188194285Y-52372000D01*
X188289523Y-52324380D01*
X130611666Y-52049761D02*
X130754523Y-52097380D01*
X130992619Y-52097380D01*
X131087857Y-52049761D01*
X131135476Y-52002142D01*
X131183095Y-51906904D01*
X131183095Y-51811666D01*
X131135476Y-51716428D01*
X131087857Y-51668809D01*
X130992619Y-51621190D01*
X130802142Y-51573571D01*
X130706904Y-51525952D01*
X130659285Y-51478333D01*
X130611666Y-51383095D01*
X130611666Y-51287857D01*
X130659285Y-51192619D01*
X130706904Y-51145000D01*
X130802142Y-51097380D01*
X131040238Y-51097380D01*
X131183095Y-51145000D01*
X131516428Y-51097380D02*
X131754523Y-52097380D01*
X131945000Y-51383095D01*
X132135476Y-52097380D01*
X132373571Y-51097380D01*
X133183095Y-51430714D02*
X133183095Y-52097380D01*
X132945000Y-51049761D02*
X132706904Y-51764047D01*
X133325952Y-51764047D01*
X162383333Y-74016666D02*
X162050000Y-74016666D01*
X162050000Y-73316666D01*
X162616666Y-73650000D02*
X162850000Y-73650000D01*
X162950000Y-74016666D02*
X162616666Y-74016666D01*
X162616666Y-73316666D01*
X162950000Y-73316666D01*
X163250000Y-74016666D02*
X163250000Y-73316666D01*
X163416666Y-73316666D01*
X163516666Y-73350000D01*
X163583333Y-73416666D01*
X163616666Y-73483333D01*
X163650000Y-73616666D01*
X163650000Y-73716666D01*
X163616666Y-73850000D01*
X163583333Y-73916666D01*
X163516666Y-73983333D01*
X163416666Y-74016666D01*
X163250000Y-74016666D01*
X164316666Y-74016666D02*
X163916666Y-74016666D01*
X164116666Y-74016666D02*
X164116666Y-73316666D01*
X164050000Y-73416666D01*
X163983333Y-73483333D01*
X163916666Y-73516666D01*
X164583333Y-73383333D02*
X164616666Y-73350000D01*
X164683333Y-73316666D01*
X164850000Y-73316666D01*
X164916666Y-73350000D01*
X164950000Y-73383333D01*
X164983333Y-73450000D01*
X164983333Y-73516666D01*
X164950000Y-73616666D01*
X164550000Y-74016666D01*
X164983333Y-74016666D01*
X186452095Y-110958380D02*
X187023523Y-110958380D01*
X186737809Y-111958380D02*
X186737809Y-110958380D01*
X187928285Y-111958380D02*
X187594952Y-111482190D01*
X187356857Y-111958380D02*
X187356857Y-110958380D01*
X187737809Y-110958380D01*
X187833047Y-111006000D01*
X187880666Y-111053619D01*
X187928285Y-111148857D01*
X187928285Y-111291714D01*
X187880666Y-111386952D01*
X187833047Y-111434571D01*
X187737809Y-111482190D01*
X187356857Y-111482190D01*
X188928285Y-111958380D02*
X188594952Y-111482190D01*
X188356857Y-111958380D02*
X188356857Y-110958380D01*
X188737809Y-110958380D01*
X188833047Y-111006000D01*
X188880666Y-111053619D01*
X188928285Y-111148857D01*
X188928285Y-111291714D01*
X188880666Y-111386952D01*
X188833047Y-111434571D01*
X188737809Y-111482190D01*
X188356857Y-111482190D01*
X189309238Y-111910761D02*
X189452095Y-111958380D01*
X189690190Y-111958380D01*
X189785428Y-111910761D01*
X189833047Y-111863142D01*
X189880666Y-111767904D01*
X189880666Y-111672666D01*
X189833047Y-111577428D01*
X189785428Y-111529809D01*
X189690190Y-111482190D01*
X189499714Y-111434571D01*
X189404476Y-111386952D01*
X189356857Y-111339333D01*
X189309238Y-111244095D01*
X189309238Y-111148857D01*
X189356857Y-111053619D01*
X189404476Y-111006000D01*
X189499714Y-110958380D01*
X189737809Y-110958380D01*
X189880666Y-111006000D01*
X76611666Y-93999761D02*
X76754523Y-94047380D01*
X76992619Y-94047380D01*
X77087857Y-93999761D01*
X77135476Y-93952142D01*
X77183095Y-93856904D01*
X77183095Y-93761666D01*
X77135476Y-93666428D01*
X77087857Y-93618809D01*
X76992619Y-93571190D01*
X76802142Y-93523571D01*
X76706904Y-93475952D01*
X76659285Y-93428333D01*
X76611666Y-93333095D01*
X76611666Y-93237857D01*
X76659285Y-93142619D01*
X76706904Y-93095000D01*
X76802142Y-93047380D01*
X77040238Y-93047380D01*
X77183095Y-93095000D01*
X77516428Y-93047380D02*
X77754523Y-94047380D01*
X77945000Y-93333095D01*
X78135476Y-94047380D01*
X78373571Y-93047380D01*
X78659285Y-93047380D02*
X79325952Y-93047380D01*
X78897380Y-94047380D01*
X72716666Y-72016666D02*
X72383333Y-72016666D01*
X72383333Y-71316666D01*
X72950000Y-71650000D02*
X73183333Y-71650000D01*
X73283333Y-72016666D02*
X72950000Y-72016666D01*
X72950000Y-71316666D01*
X73283333Y-71316666D01*
X73583333Y-72016666D02*
X73583333Y-71316666D01*
X73750000Y-71316666D01*
X73850000Y-71350000D01*
X73916666Y-71416666D01*
X73950000Y-71483333D01*
X73983333Y-71616666D01*
X73983333Y-71716666D01*
X73950000Y-71850000D01*
X73916666Y-71916666D01*
X73850000Y-71983333D01*
X73750000Y-72016666D01*
X73583333Y-72016666D01*
X74650000Y-72016666D02*
X74250000Y-72016666D01*
X74450000Y-72016666D02*
X74450000Y-71316666D01*
X74383333Y-71416666D01*
X74316666Y-71483333D01*
X74250000Y-71516666D01*
X94611666Y-88999761D02*
X94754523Y-89047380D01*
X94992619Y-89047380D01*
X95087857Y-88999761D01*
X95135476Y-88952142D01*
X95183095Y-88856904D01*
X95183095Y-88761666D01*
X95135476Y-88666428D01*
X95087857Y-88618809D01*
X94992619Y-88571190D01*
X94802142Y-88523571D01*
X94706904Y-88475952D01*
X94659285Y-88428333D01*
X94611666Y-88333095D01*
X94611666Y-88237857D01*
X94659285Y-88142619D01*
X94706904Y-88095000D01*
X94802142Y-88047380D01*
X95040238Y-88047380D01*
X95183095Y-88095000D01*
X95516428Y-88047380D02*
X95754523Y-89047380D01*
X95945000Y-88333095D01*
X96135476Y-89047380D01*
X96373571Y-88047380D01*
X96897380Y-88475952D02*
X96802142Y-88428333D01*
X96754523Y-88380714D01*
X96706904Y-88285476D01*
X96706904Y-88237857D01*
X96754523Y-88142619D01*
X96802142Y-88095000D01*
X96897380Y-88047380D01*
X97087857Y-88047380D01*
X97183095Y-88095000D01*
X97230714Y-88142619D01*
X97278333Y-88237857D01*
X97278333Y-88285476D01*
X97230714Y-88380714D01*
X97183095Y-88428333D01*
X97087857Y-88475952D01*
X96897380Y-88475952D01*
X96802142Y-88523571D01*
X96754523Y-88571190D01*
X96706904Y-88666428D01*
X96706904Y-88856904D01*
X96754523Y-88952142D01*
X96802142Y-88999761D01*
X96897380Y-89047380D01*
X97087857Y-89047380D01*
X97183095Y-88999761D01*
X97230714Y-88952142D01*
X97278333Y-88856904D01*
X97278333Y-88666428D01*
X97230714Y-88571190D01*
X97183095Y-88523571D01*
X97087857Y-88475952D01*
X126383333Y-81066666D02*
X126050000Y-81066666D01*
X126050000Y-80366666D01*
X126616666Y-80700000D02*
X126850000Y-80700000D01*
X126950000Y-81066666D02*
X126616666Y-81066666D01*
X126616666Y-80366666D01*
X126950000Y-80366666D01*
X127250000Y-81066666D02*
X127250000Y-80366666D01*
X127416666Y-80366666D01*
X127516666Y-80400000D01*
X127583333Y-80466666D01*
X127616666Y-80533333D01*
X127650000Y-80666666D01*
X127650000Y-80766666D01*
X127616666Y-80900000D01*
X127583333Y-80966666D01*
X127516666Y-81033333D01*
X127416666Y-81066666D01*
X127250000Y-81066666D01*
X128316666Y-81066666D02*
X127916666Y-81066666D01*
X128116666Y-81066666D02*
X128116666Y-80366666D01*
X128050000Y-80466666D01*
X127983333Y-80533333D01*
X127916666Y-80566666D01*
X128916666Y-80366666D02*
X128783333Y-80366666D01*
X128716666Y-80400000D01*
X128683333Y-80433333D01*
X128616666Y-80533333D01*
X128583333Y-80666666D01*
X128583333Y-80933333D01*
X128616666Y-81000000D01*
X128650000Y-81033333D01*
X128716666Y-81066666D01*
X128850000Y-81066666D01*
X128916666Y-81033333D01*
X128950000Y-81000000D01*
X128983333Y-80933333D01*
X128983333Y-80766666D01*
X128950000Y-80700000D01*
X128916666Y-80666666D01*
X128850000Y-80633333D01*
X128716666Y-80633333D01*
X128650000Y-80666666D01*
X128616666Y-80700000D01*
X128583333Y-80766666D01*
X90383333Y-101016666D02*
X90050000Y-101016666D01*
X90050000Y-100316666D01*
X90616666Y-100650000D02*
X90850000Y-100650000D01*
X90950000Y-101016666D02*
X90616666Y-101016666D01*
X90616666Y-100316666D01*
X90950000Y-100316666D01*
X91250000Y-101016666D02*
X91250000Y-100316666D01*
X91416666Y-100316666D01*
X91516666Y-100350000D01*
X91583333Y-100416666D01*
X91616666Y-100483333D01*
X91650000Y-100616666D01*
X91650000Y-100716666D01*
X91616666Y-100850000D01*
X91583333Y-100916666D01*
X91516666Y-100983333D01*
X91416666Y-101016666D01*
X91250000Y-101016666D01*
X92316666Y-101016666D02*
X91916666Y-101016666D01*
X92116666Y-101016666D02*
X92116666Y-100316666D01*
X92050000Y-100416666D01*
X91983333Y-100483333D01*
X91916666Y-100516666D01*
X92916666Y-100550000D02*
X92916666Y-101016666D01*
X92750000Y-100283333D02*
X92583333Y-100783333D01*
X93016666Y-100783333D01*
X162716666Y-57016666D02*
X162383333Y-57016666D01*
X162383333Y-56316666D01*
X162950000Y-56650000D02*
X163183333Y-56650000D01*
X163283333Y-57016666D02*
X162950000Y-57016666D01*
X162950000Y-56316666D01*
X163283333Y-56316666D01*
X163583333Y-57016666D02*
X163583333Y-56316666D01*
X163750000Y-56316666D01*
X163850000Y-56350000D01*
X163916666Y-56416666D01*
X163950000Y-56483333D01*
X163983333Y-56616666D01*
X163983333Y-56716666D01*
X163950000Y-56850000D01*
X163916666Y-56916666D01*
X163850000Y-56983333D01*
X163750000Y-57016666D01*
X163583333Y-57016666D01*
X164583333Y-56316666D02*
X164450000Y-56316666D01*
X164383333Y-56350000D01*
X164350000Y-56383333D01*
X164283333Y-56483333D01*
X164250000Y-56616666D01*
X164250000Y-56883333D01*
X164283333Y-56950000D01*
X164316666Y-56983333D01*
X164383333Y-57016666D01*
X164516666Y-57016666D01*
X164583333Y-56983333D01*
X164616666Y-56950000D01*
X164650000Y-56883333D01*
X164650000Y-56716666D01*
X164616666Y-56650000D01*
X164583333Y-56616666D01*
X164516666Y-56583333D01*
X164383333Y-56583333D01*
X164316666Y-56616666D01*
X164283333Y-56650000D01*
X164250000Y-56716666D01*
X175060612Y-114442291D02*
X174747381Y-114328285D01*
X174986795Y-113670500D01*
X175405281Y-114177542D02*
X175624542Y-114257347D01*
X175593104Y-114636103D02*
X175279873Y-114522096D01*
X175519287Y-113864311D01*
X175832518Y-113978318D01*
X175875012Y-114738709D02*
X176114426Y-114080924D01*
X176271042Y-114137927D01*
X176353610Y-114203452D01*
X176393455Y-114288900D01*
X176401977Y-114362947D01*
X176387697Y-114499640D01*
X176353495Y-114593609D01*
X176276569Y-114707501D01*
X176222445Y-114758746D01*
X176136997Y-114798591D01*
X176031627Y-114795712D01*
X175875012Y-114738709D01*
X176718086Y-114371584D02*
X176760810Y-114351661D01*
X176834857Y-114343139D01*
X176991473Y-114400143D01*
X177042718Y-114454267D01*
X177062640Y-114496991D01*
X177071162Y-114571038D01*
X177048361Y-114633684D01*
X176982836Y-114716253D01*
X176470151Y-114955322D01*
X176877351Y-115103530D01*
X177344548Y-114599597D02*
X177387272Y-114579675D01*
X177461319Y-114571153D01*
X177617934Y-114628156D01*
X177669180Y-114682281D01*
X177689102Y-114725004D01*
X177697624Y-114799051D01*
X177674823Y-114861697D01*
X177609297Y-114944266D01*
X177096612Y-115183335D01*
X177503813Y-115331544D01*
X166135476Y-95999761D02*
X166278333Y-96047380D01*
X166516428Y-96047380D01*
X166611666Y-95999761D01*
X166659285Y-95952142D01*
X166706904Y-95856904D01*
X166706904Y-95761666D01*
X166659285Y-95666428D01*
X166611666Y-95618809D01*
X166516428Y-95571190D01*
X166325952Y-95523571D01*
X166230714Y-95475952D01*
X166183095Y-95428333D01*
X166135476Y-95333095D01*
X166135476Y-95237857D01*
X166183095Y-95142619D01*
X166230714Y-95095000D01*
X166325952Y-95047380D01*
X166564047Y-95047380D01*
X166706904Y-95095000D01*
X167040238Y-95047380D02*
X167278333Y-96047380D01*
X167468809Y-95333095D01*
X167659285Y-96047380D01*
X167897380Y-95047380D01*
X168802142Y-96047380D02*
X168230714Y-96047380D01*
X168516428Y-96047380D02*
X168516428Y-95047380D01*
X168421190Y-95190238D01*
X168325952Y-95285476D01*
X168230714Y-95333095D01*
X169373571Y-95475952D02*
X169278333Y-95428333D01*
X169230714Y-95380714D01*
X169183095Y-95285476D01*
X169183095Y-95237857D01*
X169230714Y-95142619D01*
X169278333Y-95095000D01*
X169373571Y-95047380D01*
X169564047Y-95047380D01*
X169659285Y-95095000D01*
X169706904Y-95142619D01*
X169754523Y-95237857D01*
X169754523Y-95285476D01*
X169706904Y-95380714D01*
X169659285Y-95428333D01*
X169564047Y-95475952D01*
X169373571Y-95475952D01*
X169278333Y-95523571D01*
X169230714Y-95571190D01*
X169183095Y-95666428D01*
X169183095Y-95856904D01*
X169230714Y-95952142D01*
X169278333Y-95999761D01*
X169373571Y-96047380D01*
X169564047Y-96047380D01*
X169659285Y-95999761D01*
X169706904Y-95952142D01*
X169754523Y-95856904D01*
X169754523Y-95666428D01*
X169706904Y-95571190D01*
X169659285Y-95523571D01*
X169564047Y-95475952D01*
X184135476Y-95999761D02*
X184278333Y-96047380D01*
X184516428Y-96047380D01*
X184611666Y-95999761D01*
X184659285Y-95952142D01*
X184706904Y-95856904D01*
X184706904Y-95761666D01*
X184659285Y-95666428D01*
X184611666Y-95618809D01*
X184516428Y-95571190D01*
X184325952Y-95523571D01*
X184230714Y-95475952D01*
X184183095Y-95428333D01*
X184135476Y-95333095D01*
X184135476Y-95237857D01*
X184183095Y-95142619D01*
X184230714Y-95095000D01*
X184325952Y-95047380D01*
X184564047Y-95047380D01*
X184706904Y-95095000D01*
X185040238Y-95047380D02*
X185278333Y-96047380D01*
X185468809Y-95333095D01*
X185659285Y-96047380D01*
X185897380Y-95047380D01*
X186230714Y-95142619D02*
X186278333Y-95095000D01*
X186373571Y-95047380D01*
X186611666Y-95047380D01*
X186706904Y-95095000D01*
X186754523Y-95142619D01*
X186802142Y-95237857D01*
X186802142Y-95333095D01*
X186754523Y-95475952D01*
X186183095Y-96047380D01*
X186802142Y-96047380D01*
X187659285Y-95380714D02*
X187659285Y-96047380D01*
X187421190Y-94999761D02*
X187183095Y-95714047D01*
X187802142Y-95714047D01*
X147000000Y-69700000D02*
X147500000Y-69200000D01*
X139500000Y-68500000D02*
X138500000Y-68500000D01*
X138500000Y-54500000D02*
X139500000Y-54500000D01*
X144000000Y-69700000D02*
X147000000Y-69700000D01*
X148000000Y-63000000D02*
X152500000Y-63000000D01*
X152500000Y-68500000D02*
X151500000Y-68500000D01*
X148000000Y-63700000D02*
X148000000Y-63000000D01*
X144000000Y-65200000D02*
X146500000Y-65200000D01*
X152500000Y-67100000D02*
X152500000Y-67700000D01*
X143500000Y-69200000D02*
X144000000Y-69700000D01*
X138500000Y-55500000D02*
X138500000Y-54500000D01*
X152500000Y-63000000D02*
X152500000Y-63500000D01*
X152500000Y-67700000D02*
X148000000Y-67700000D01*
X152500000Y-54500000D02*
X152500000Y-55500000D01*
X138500000Y-68500000D02*
X138500000Y-67500000D01*
X151500000Y-54500000D02*
X152500000Y-54500000D01*
X147500000Y-68200000D02*
X147500000Y-69200000D01*
X152500000Y-67500000D02*
X152500000Y-68500000D01*
X143500000Y-65700000D02*
X144000000Y-65200000D01*
X146500000Y-65200000D02*
G75*
G03*
X148000000Y-63700000I0J1500000D01*
G01*
X148000000Y-67700000D02*
G75*
G03*
X147500000Y-68200000I0J-500000D01*
G01*
D11*
X200822890Y-132918554D02*
X202129806Y-131361032D01*
X203355477Y-132389492D02*
X202048561Y-133947014D01*
X200294869Y-134199673D02*
X200994902Y-133958137D01*
X200586732Y-134444575D02*
X200031621Y-135106131D01*
X201306223Y-134219366D02*
X200683582Y-133696908D01*
X201419399Y-133452241D02*
X200994902Y-133958137D01*
X202129806Y-131361032D02*
X203355477Y-132389492D01*
X200878595Y-134689477D02*
X200294869Y-134199673D01*
X200994902Y-133958137D02*
X200878595Y-134689477D01*
X202048561Y-133947014D02*
X200822890Y-132918554D01*
G36*
X200878595Y-134689477D02*
G01*
X200294869Y-134199673D01*
X200994902Y-133958137D01*
X200878595Y-134689477D01*
G37*
X200878595Y-134689477D02*
X200294869Y-134199673D01*
X200994902Y-133958137D01*
X200878595Y-134689477D01*
X136500000Y-103369000D02*
X136881000Y-104004000D01*
X137300000Y-102683200D02*
X135700000Y-102683200D01*
X136906400Y-103369000D02*
X136093600Y-103369000D01*
X137300000Y-100650000D02*
X137300000Y-102683200D01*
X135700000Y-100650000D02*
X137300000Y-100650000D01*
X136119000Y-104004000D02*
X136500000Y-103369000D01*
X135700000Y-102683200D02*
X135700000Y-100650000D01*
X136500000Y-102708600D02*
X136500000Y-103369000D01*
X136500000Y-104004000D02*
X136500000Y-104867600D01*
X136881000Y-104004000D02*
X136119000Y-104004000D01*
G36*
X136881000Y-104004000D02*
G01*
X136119000Y-104004000D01*
X136500000Y-103369000D01*
X136881000Y-104004000D01*
G37*
X136881000Y-104004000D02*
X136119000Y-104004000D01*
X136500000Y-103369000D01*
X136881000Y-104004000D01*
D10*
X161500000Y-84700000D02*
X162000000Y-84200000D01*
X170500000Y-86700000D02*
X166000000Y-86700000D01*
X170500000Y-86500000D02*
X170500000Y-87500000D01*
X166000000Y-82700000D02*
X166000000Y-82000000D01*
X170500000Y-87500000D02*
X169500000Y-87500000D01*
X162000000Y-84200000D02*
X164500000Y-84200000D01*
X165000000Y-88700000D02*
X165500000Y-88200000D01*
X156500000Y-87500000D02*
X156500000Y-86500000D01*
X161500000Y-88200000D02*
X162000000Y-88700000D01*
X169500000Y-73500000D02*
X170500000Y-73500000D01*
X166000000Y-82000000D02*
X170500000Y-82000000D01*
X162000000Y-88700000D02*
X165000000Y-88700000D01*
X170500000Y-82000000D02*
X170500000Y-82500000D01*
X170500000Y-86100000D02*
X170500000Y-86700000D01*
X165500000Y-87200000D02*
X165500000Y-88200000D01*
X156500000Y-73500000D02*
X157500000Y-73500000D01*
X156500000Y-74500000D02*
X156500000Y-73500000D01*
X157500000Y-87500000D02*
X156500000Y-87500000D01*
X170500000Y-73500000D02*
X170500000Y-74500000D01*
X164500000Y-84200000D02*
G75*
G03*
X166000000Y-82700000I0J1500000D01*
G01*
X166000000Y-86700000D02*
G75*
G03*
X165500000Y-87200000I0J-500000D01*
G01*
X108000000Y-63200000D02*
X110500000Y-63200000D01*
X116500000Y-65700000D02*
X112000000Y-65700000D01*
X112000000Y-61000000D02*
X116500000Y-61000000D01*
X102500000Y-52500000D02*
X103500000Y-52500000D01*
X116500000Y-65100000D02*
X116500000Y-65700000D01*
X102500000Y-53500000D02*
X102500000Y-52500000D01*
X103500000Y-66500000D02*
X102500000Y-66500000D01*
X107500000Y-67200000D02*
X108000000Y-67700000D01*
X116500000Y-61000000D02*
X116500000Y-61500000D01*
X111500000Y-66200000D02*
X111500000Y-67200000D01*
X116500000Y-65500000D02*
X116500000Y-66500000D01*
X116500000Y-66500000D02*
X115500000Y-66500000D01*
X102500000Y-66500000D02*
X102500000Y-65500000D01*
X108000000Y-67700000D02*
X111000000Y-67700000D01*
X115500000Y-52500000D02*
X116500000Y-52500000D01*
X107500000Y-63700000D02*
X108000000Y-63200000D01*
X116500000Y-52500000D02*
X116500000Y-53500000D01*
X112000000Y-61700000D02*
X112000000Y-61000000D01*
X111000000Y-67700000D02*
X111500000Y-67200000D01*
X110500000Y-63200000D02*
G75*
G03*
X112000000Y-61700000I0J1500000D01*
G01*
X112000000Y-65700000D02*
G75*
G03*
X111500000Y-66200000I0J-500000D01*
G01*
G36*
X89300000Y-70800000D02*
G01*
X88700000Y-70200000D01*
X89300000Y-70200000D01*
X89300000Y-70800000D01*
G37*
D12*
X89300000Y-70800000D02*
X88700000Y-70200000D01*
X89300000Y-70200000D01*
X89300000Y-70800000D01*
D10*
X98500000Y-114500000D02*
X97500000Y-114500000D01*
X98500000Y-113500000D02*
X98500000Y-114500000D01*
X84500000Y-101500000D02*
X84500000Y-100500000D01*
X98500000Y-100500000D02*
X98500000Y-101500000D01*
X89500000Y-111700000D02*
X90000000Y-111200000D01*
X94000000Y-109700000D02*
X94000000Y-109000000D01*
X98500000Y-113700000D02*
X94000000Y-113700000D01*
X85500000Y-114500000D02*
X84500000Y-114500000D01*
X93000000Y-115700000D02*
X93500000Y-115200000D01*
X89500000Y-115200000D02*
X90000000Y-115700000D01*
X84500000Y-114500000D02*
X84500000Y-113500000D01*
X98500000Y-109000000D02*
X98500000Y-109500000D01*
X90000000Y-115700000D02*
X93000000Y-115700000D01*
X90000000Y-111200000D02*
X92500000Y-111200000D01*
X97500000Y-100500000D02*
X98500000Y-100500000D01*
X94000000Y-109000000D02*
X98500000Y-109000000D01*
X93500000Y-114200000D02*
X93500000Y-115200000D01*
X84500000Y-100500000D02*
X85500000Y-100500000D01*
X98500000Y-113100000D02*
X98500000Y-113700000D01*
X94000000Y-113700000D02*
G75*
G03*
X93500000Y-114200000I0J-500000D01*
G01*
X92500000Y-111200000D02*
G75*
G03*
X94000000Y-109700000I0J1500000D01*
G01*
G36*
X143300000Y-58800000D02*
G01*
X142700000Y-58200000D01*
X143300000Y-58200000D01*
X143300000Y-58800000D01*
G37*
D12*
X143300000Y-58800000D02*
X142700000Y-58200000D01*
X143300000Y-58200000D01*
X143300000Y-58800000D01*
G36*
X137525003Y-115685601D02*
G01*
X137592467Y-115703360D01*
X137666897Y-115723632D01*
X137746002Y-115745732D01*
X137827489Y-115768970D01*
X137909066Y-115792665D01*
X137988441Y-115816129D01*
X138063321Y-115838674D01*
X138131415Y-115859617D01*
X138190429Y-115878271D01*
X138238071Y-115893950D01*
X138272050Y-115905967D01*
X138290073Y-115913637D01*
X138292212Y-115915200D01*
X138290061Y-115925019D01*
X138282711Y-115948698D01*
X138271794Y-115981525D01*
X138258943Y-116018787D01*
X138245790Y-116055774D01*
X138233970Y-116087770D01*
X138225113Y-116110066D01*
X138223286Y-116114141D01*
X138213463Y-116122262D01*
X138191666Y-116125967D01*
X138154486Y-116125738D01*
X138144483Y-116125239D01*
X138046856Y-116128172D01*
X137943361Y-116146652D01*
X137876647Y-116166208D01*
X137769220Y-116211761D01*
X137662871Y-116274155D01*
X137560995Y-116350576D01*
X137466990Y-116438211D01*
X137384250Y-116534245D01*
X137322292Y-116625420D01*
X137308751Y-116648894D01*
X137295229Y-116674161D01*
X137280683Y-116703537D01*
X137264067Y-116739343D01*
X137244333Y-116783897D01*
X137220437Y-116839519D01*
X137191334Y-116908528D01*
X137155977Y-116993243D01*
X137150686Y-117005965D01*
X137134161Y-117043169D01*
X137119141Y-117072491D01*
X137107884Y-117089714D01*
X137104340Y-117092477D01*
X137097407Y-117084967D01*
X137093809Y-117062752D01*
X137093587Y-117051550D01*
X137094897Y-116994753D01*
X137097601Y-116922260D01*
X137101465Y-116838098D01*
X137106260Y-116746295D01*
X137111756Y-116650876D01*
X137117721Y-116555871D01*
X137123924Y-116465304D01*
X137130134Y-116383203D01*
X137135534Y-116319932D01*
X137145088Y-116238725D01*
X137159117Y-116150426D01*
X137176676Y-116059090D01*
X137196822Y-115968772D01*
X137218613Y-115883529D01*
X137241104Y-115807418D01*
X137263353Y-115744492D01*
X137276375Y-115714372D01*
X137294174Y-115688619D01*
X137318872Y-115664867D01*
X137321038Y-115663261D01*
X137351885Y-115641035D01*
X137525003Y-115685601D01*
G37*
G36*
X138706755Y-113861674D02*
G01*
X138719398Y-113878627D01*
X138727501Y-113891416D01*
X138745662Y-113919061D01*
X138772853Y-113960029D01*
X138808047Y-114012784D01*
X138850216Y-114075788D01*
X138898333Y-114147507D01*
X138951370Y-114226405D01*
X139008299Y-114310946D01*
X139059408Y-114386730D01*
X139127950Y-114488384D01*
X139186148Y-114574966D01*
X139234802Y-114647760D01*
X139274707Y-114708048D01*
X139306661Y-114757116D01*
X139331462Y-114796246D01*
X139349909Y-114826721D01*
X139362797Y-114849826D01*
X139370926Y-114866845D01*
X139375091Y-114879061D01*
X139376093Y-114887756D01*
X139374733Y-114894197D01*
X139364283Y-114907342D01*
X139342034Y-114928225D01*
X139311843Y-114953847D01*
X139277565Y-114981203D01*
X139243055Y-115007292D01*
X139212170Y-115029113D01*
X139188763Y-115043663D01*
X139177139Y-115048045D01*
X139168282Y-115041321D01*
X139147968Y-115023418D01*
X139119002Y-114996875D01*
X139084190Y-114964234D01*
X139075207Y-114955710D01*
X139045713Y-114928023D01*
X139003828Y-114889236D01*
X138951880Y-114841474D01*
X138892197Y-114786868D01*
X138827103Y-114727547D01*
X138758928Y-114665638D01*
X138689996Y-114603271D01*
X138686304Y-114599937D01*
X138618925Y-114539005D01*
X138553477Y-114479632D01*
X138492043Y-114423720D01*
X138436706Y-114373171D01*
X138389548Y-114329891D01*
X138352652Y-114295780D01*
X138328101Y-114272742D01*
X138325818Y-114270557D01*
X138257943Y-114205354D01*
X138308818Y-114135458D01*
X138376482Y-114055094D01*
X138457395Y-113979626D01*
X138545034Y-113914858D01*
X138581201Y-113892858D01*
X138628693Y-113867672D01*
X138663480Y-113854282D01*
X138688515Y-113852384D01*
X138706755Y-113861674D01*
G37*
G36*
X140815653Y-113131714D02*
G01*
X140876850Y-113133936D01*
X140901509Y-113135536D01*
X141001327Y-113143334D01*
X140986975Y-113295123D01*
X140983359Y-113330621D01*
X140977896Y-113380591D01*
X140970841Y-113442946D01*
X140962444Y-113515602D01*
X140952960Y-113596476D01*
X140942645Y-113683485D01*
X140931750Y-113774541D01*
X140920530Y-113867563D01*
X140909237Y-113960467D01*
X140898127Y-114051165D01*
X140887453Y-114137578D01*
X140877469Y-114217617D01*
X140868426Y-114289201D01*
X140860581Y-114350244D01*
X140854186Y-114398664D01*
X140849496Y-114432375D01*
X140846763Y-114449293D01*
X140846296Y-114450881D01*
X140835849Y-114451718D01*
X140809791Y-114452310D01*
X140772298Y-114452667D01*
X140727548Y-114452797D01*
X140679716Y-114452710D01*
X140632980Y-114452416D01*
X140591515Y-114451923D01*
X140559499Y-114451240D01*
X140541108Y-114450377D01*
X140539590Y-114450206D01*
X140523039Y-114444145D01*
X140518980Y-114439815D01*
X140516515Y-114428188D01*
X140511436Y-114399803D01*
X140504213Y-114357450D01*
X140495318Y-114303920D01*
X140485223Y-114242002D01*
X140477945Y-114196737D01*
X140458052Y-114066720D01*
X140439776Y-113936277D01*
X140423619Y-113809499D01*
X140410077Y-113690479D01*
X140399651Y-113583305D01*
X140393664Y-113505432D01*
X140391079Y-113458580D01*
X140388868Y-113405625D01*
X140387096Y-113350178D01*
X140385831Y-113295855D01*
X140385135Y-113246263D01*
X140385074Y-113205016D01*
X140385716Y-113175727D01*
X140387124Y-113162005D01*
X140387433Y-113161490D01*
X140399850Y-113158376D01*
X140428106Y-113154339D01*
X140468291Y-113149755D01*
X140516497Y-113144997D01*
X140568814Y-113140438D01*
X140621334Y-113136455D01*
X140670147Y-113133421D01*
X140691122Y-113132411D01*
X140750240Y-113131154D01*
X140815653Y-113131714D01*
G37*
G36*
X141063873Y-114870001D02*
G01*
X141292810Y-114888465D01*
X141521189Y-114923863D01*
X141746097Y-114975834D01*
X141964618Y-115044020D01*
X141998894Y-115056448D01*
X142221560Y-115149230D01*
X142434861Y-115259143D01*
X142638063Y-115385509D01*
X142830436Y-115527652D01*
X143011246Y-115684894D01*
X143179761Y-115856558D01*
X143335249Y-116041967D01*
X143476977Y-116240447D01*
X143604214Y-116451317D01*
X143691636Y-116621256D01*
X143725268Y-116693976D01*
X143750640Y-116754878D01*
X143769666Y-116809122D01*
X143784261Y-116861865D01*
X143789658Y-116885402D01*
X143855624Y-117178860D01*
X143922203Y-117453974D01*
X143989882Y-117712192D01*
X144059154Y-117954961D01*
X144130509Y-118183725D01*
X144204439Y-118399932D01*
X144281433Y-118605028D01*
X144361983Y-118800459D01*
X144446581Y-118987672D01*
X144535713Y-119168113D01*
X144613836Y-119314394D01*
X144645890Y-119371619D01*
X144680237Y-119431630D01*
X144713353Y-119488343D01*
X144741706Y-119535675D01*
X144749175Y-119547809D01*
X144772080Y-119585133D01*
X144790218Y-119615566D01*
X144801568Y-119635655D01*
X144804362Y-119642024D01*
X144792873Y-119640586D01*
X144764695Y-119633223D01*
X144721807Y-119620585D01*
X144666183Y-119603325D01*
X144599802Y-119582097D01*
X144524639Y-119557554D01*
X144442672Y-119530346D01*
X144355875Y-119501129D01*
X144266227Y-119470553D01*
X144175704Y-119439272D01*
X144086281Y-119407939D01*
X143999935Y-119377205D01*
X143972957Y-119367488D01*
X143736580Y-119282078D01*
X143748716Y-119238296D01*
X143755075Y-119212172D01*
X143763873Y-119171717D01*
X143774035Y-119122076D01*
X143784484Y-119068395D01*
X143786403Y-119058218D01*
X143810193Y-118884232D01*
X143815968Y-118713727D01*
X143803939Y-118547901D01*
X143774317Y-118387953D01*
X143727314Y-118235081D01*
X143663140Y-118090486D01*
X143595243Y-117974969D01*
X143523567Y-117875202D01*
X143449671Y-117790748D01*
X143371220Y-117720281D01*
X143285874Y-117662475D01*
X143191296Y-117616006D01*
X143085147Y-117579547D01*
X142965090Y-117551774D01*
X142828787Y-117531360D01*
X142808764Y-117529068D01*
X142643740Y-117510792D01*
X142489666Y-117561182D01*
X142372610Y-117603155D01*
X142269095Y-117647876D01*
X142181029Y-117694409D01*
X142110316Y-117741821D01*
X142094133Y-117754919D01*
X142068322Y-117777400D01*
X142052523Y-117795303D01*
X142047219Y-117812283D01*
X142052893Y-117831993D01*
X142070027Y-117858089D01*
X142099104Y-117894226D01*
X142115055Y-117913350D01*
X142204786Y-118013676D01*
X142294597Y-118098826D01*
X142389235Y-118172854D01*
X142493445Y-118239818D01*
X142504432Y-118246199D01*
X142602910Y-118298950D01*
X142701835Y-118343380D01*
X142804972Y-118380684D01*
X142916088Y-118412052D01*
X143038951Y-118438678D01*
X143177325Y-118461753D01*
X143192432Y-118463950D01*
X143411032Y-118495360D01*
X143401470Y-118524246D01*
X143396721Y-118542490D01*
X143388973Y-118576774D01*
X143378949Y-118623695D01*
X143367372Y-118679857D01*
X143354964Y-118741860D01*
X143351922Y-118757346D01*
X143318338Y-118952336D01*
X143290624Y-119163040D01*
X143269042Y-119386190D01*
X143253853Y-119618520D01*
X143245319Y-119856766D01*
X143243701Y-120097661D01*
X143243772Y-120106063D01*
X143244450Y-120172192D01*
X143245298Y-120234983D01*
X143246386Y-120296144D01*
X143247786Y-120357387D01*
X143249570Y-120420418D01*
X143251808Y-120486947D01*
X143254573Y-120558682D01*
X143257936Y-120637331D01*
X143261968Y-120724605D01*
X143266740Y-120822210D01*
X143272325Y-120931857D01*
X143278793Y-121055253D01*
X143286215Y-121194109D01*
X143294665Y-121350132D01*
X143299445Y-121437835D01*
X143306427Y-121567233D01*
X143312215Y-121678006D01*
X143316851Y-121771286D01*
X143320376Y-121848198D01*
X143322834Y-121909872D01*
X143324266Y-121957435D01*
X143324715Y-121992015D01*
X143324223Y-122014739D01*
X143322831Y-122026737D01*
X143321581Y-122029257D01*
X143311567Y-122026293D01*
X143286897Y-122016341D01*
X143250843Y-122000795D01*
X143206677Y-121981046D01*
X143185892Y-121971556D01*
X143051991Y-121907502D01*
X142920047Y-121839038D01*
X142788713Y-121765195D01*
X142656641Y-121685009D01*
X142522488Y-121597513D01*
X142384904Y-121501742D01*
X142242543Y-121396728D01*
X142094059Y-121281508D01*
X141938105Y-121155113D01*
X141773333Y-121016579D01*
X141598399Y-120864939D01*
X141411954Y-120699229D01*
X141411336Y-120698673D01*
X141335420Y-120630480D01*
X141254534Y-120557842D01*
X141172084Y-120483815D01*
X141091472Y-120411454D01*
X141016102Y-120343818D01*
X140949383Y-120283961D01*
X140905377Y-120244496D01*
X140696624Y-120057337D01*
X140179880Y-120109935D01*
X140060554Y-120122078D01*
X139947878Y-120133538D01*
X139839532Y-120144550D01*
X139733198Y-120155347D01*
X139626561Y-120166166D01*
X139517300Y-120177241D01*
X139403101Y-120188806D01*
X139281645Y-120201096D01*
X139150613Y-120214347D01*
X139007691Y-120228794D01*
X138850558Y-120244668D01*
X138676899Y-120262209D01*
X138608988Y-120269067D01*
X138522075Y-120277869D01*
X138440889Y-120286141D01*
X138367638Y-120293654D01*
X138304530Y-120300178D01*
X138253772Y-120305487D01*
X138217572Y-120309349D01*
X138198138Y-120311539D01*
X138195798Y-120311852D01*
X138182709Y-120309381D01*
X138180961Y-120293110D01*
X138181195Y-120291340D01*
X138190571Y-120258107D01*
X138210344Y-120212428D01*
X138238911Y-120157594D01*
X138274667Y-120096894D01*
X138280831Y-120087043D01*
X138339575Y-119978856D01*
X138390331Y-119853655D01*
X138432693Y-119712700D01*
X138466258Y-119557254D01*
X138482106Y-119456838D01*
X138492609Y-119373250D01*
X138500445Y-119292543D01*
X138505506Y-119212593D01*
X138507686Y-119131274D01*
X138506873Y-119046462D01*
X138502961Y-118956030D01*
X138495842Y-118857854D01*
X138485406Y-118749808D01*
X138471547Y-118629767D01*
X138454154Y-118495606D01*
X138433121Y-118345199D01*
X138421353Y-118264240D01*
X138398225Y-118103536D01*
X138378723Y-117960210D01*
X138362739Y-117832207D01*
X138350168Y-117717470D01*
X138340905Y-117613942D01*
X138334841Y-117519568D01*
X138331872Y-117432291D01*
X138331891Y-117350056D01*
X138334793Y-117270806D01*
X138340470Y-117192484D01*
X138348817Y-117113036D01*
X138358193Y-117041212D01*
X138397476Y-116826974D01*
X138453919Y-116622264D01*
X138527848Y-116426378D01*
X138619591Y-116238612D01*
X138729474Y-116058260D01*
X138857826Y-115884616D01*
X138938825Y-115788991D01*
X139010431Y-115710411D01*
X139077616Y-115641742D01*
X139145437Y-115578310D01*
X139218949Y-115515438D01*
X139303213Y-115448452D01*
X139326915Y-115430237D01*
X139502771Y-115306117D01*
X139687011Y-115195626D01*
X139877358Y-115099724D01*
X140071543Y-115019370D01*
X140267290Y-114955528D01*
X140462328Y-114909156D01*
X140615988Y-114885322D01*
X140837295Y-114868833D01*
X141063873Y-114870001D01*
G37*
G36*
X139311628Y-113488255D02*
G01*
X139354507Y-113494281D01*
X139392446Y-113613296D01*
X139418851Y-113692444D01*
X139448742Y-113774616D01*
X139483364Y-113862927D01*
X139523963Y-113960489D01*
X139571785Y-114070413D01*
X139607021Y-114149278D01*
X139651248Y-114247666D01*
X139692089Y-114338975D01*
X139728870Y-114421675D01*
X139760921Y-114494237D01*
X139787570Y-114555133D01*
X139808144Y-114602833D01*
X139821972Y-114635809D01*
X139828381Y-114652533D01*
X139828665Y-114653556D01*
X139821994Y-114664184D01*
X139801578Y-114680992D01*
X139771447Y-114701465D01*
X139735632Y-114723084D01*
X139698163Y-114743335D01*
X139663069Y-114759697D01*
X139651238Y-114764356D01*
X139600071Y-114774073D01*
X139561533Y-114772154D01*
X139512428Y-114765023D01*
X139308346Y-114439707D01*
X139219382Y-114297869D01*
X139140839Y-114172597D01*
X139072604Y-114063705D01*
X139014558Y-113971011D01*
X138966587Y-113894326D01*
X138928575Y-113833467D01*
X138900407Y-113788250D01*
X138881967Y-113758488D01*
X138873210Y-113744119D01*
X138868713Y-113731215D01*
X138873337Y-113717167D01*
X138889371Y-113696688D01*
X138897748Y-113687408D01*
X138962367Y-113625698D01*
X139033236Y-113573325D01*
X139107092Y-113531860D01*
X139180678Y-113502871D01*
X139250729Y-113487929D01*
X139311628Y-113488255D01*
G37*
G36*
X137708071Y-115013633D02*
G01*
X137739310Y-115031679D01*
X137785011Y-115056765D01*
X137841900Y-115087159D01*
X137906701Y-115121129D01*
X137976138Y-115156942D01*
X138046935Y-115192867D01*
X138048316Y-115193562D01*
X138150205Y-115245151D01*
X138236554Y-115289728D01*
X138309764Y-115328632D01*
X138372238Y-115363198D01*
X138426376Y-115394764D01*
X138474581Y-115424666D01*
X138519256Y-115454242D01*
X138530246Y-115461804D01*
X138592449Y-115504924D01*
X138569796Y-115564477D01*
X138553894Y-115600616D01*
X138533744Y-115638544D01*
X138512083Y-115673962D01*
X138491652Y-115702570D01*
X138475196Y-115720068D01*
X138468453Y-115723440D01*
X138454715Y-115720907D01*
X138427657Y-115713545D01*
X138392713Y-115702853D01*
X138386687Y-115700911D01*
X138362509Y-115693202D01*
X138321689Y-115680341D01*
X138266487Y-115663037D01*
X138199164Y-115641996D01*
X138121980Y-115617923D01*
X138037197Y-115591524D01*
X137947075Y-115563505D01*
X137869799Y-115539513D01*
X137779115Y-115511340D01*
X137693678Y-115484727D01*
X137615461Y-115460297D01*
X137546434Y-115438666D01*
X137488568Y-115420452D01*
X137443834Y-115406275D01*
X137414204Y-115396755D01*
X137401936Y-115392624D01*
X137389958Y-115386739D01*
X137384691Y-115377728D01*
X137385562Y-115360578D01*
X137392004Y-115330272D01*
X137393920Y-115322150D01*
X137420032Y-115246687D01*
X137463384Y-115165971D01*
X137522806Y-115082029D01*
X137554434Y-115043792D01*
X137624473Y-114962748D01*
X137708071Y-115013633D01*
G37*
G36*
X141755892Y-110749896D02*
G01*
X141916320Y-110756409D01*
X142085475Y-110767550D01*
X142243241Y-110781038D01*
X142577158Y-110821900D01*
X142908910Y-110881884D01*
X143237085Y-110960547D01*
X143560272Y-111057446D01*
X143877063Y-111172140D01*
X144186047Y-111304185D01*
X144485814Y-111453138D01*
X144620846Y-111527567D01*
X144712956Y-111581412D01*
X144800406Y-111635284D01*
X144881480Y-111687943D01*
X144954464Y-111738150D01*
X145017640Y-111784666D01*
X145069293Y-111826251D01*
X145107707Y-111861664D01*
X145131166Y-111889668D01*
X145136621Y-111900141D01*
X145139691Y-111908326D01*
X145141868Y-111915975D01*
X145142395Y-111924437D01*
X145140517Y-111935056D01*
X145135482Y-111949179D01*
X145126532Y-111968153D01*
X145112915Y-111993322D01*
X145093874Y-112026036D01*
X145068657Y-112067638D01*
X145036507Y-112119476D01*
X144996671Y-112182896D01*
X144948393Y-112259245D01*
X144890919Y-112349867D01*
X144836172Y-112436132D01*
X144785771Y-112515587D01*
X144732966Y-112598886D01*
X144680147Y-112682257D01*
X144629699Y-112761931D01*
X144584013Y-112834136D01*
X144545475Y-112895101D01*
X144531115Y-112917842D01*
X144494670Y-112975574D01*
X144459508Y-113031250D01*
X144427810Y-113081422D01*
X144401754Y-113122640D01*
X144383518Y-113151459D01*
X144380357Y-113156448D01*
X144365444Y-113179992D01*
X144341837Y-113217293D01*
X144311418Y-113265378D01*
X144276063Y-113321277D01*
X144237655Y-113382015D01*
X144206220Y-113431736D01*
X144168585Y-113491031D01*
X144134117Y-113544882D01*
X144104308Y-113590996D01*
X144080649Y-113627080D01*
X144064631Y-113650840D01*
X144057892Y-113659871D01*
X144045050Y-113661858D01*
X144020903Y-113654343D01*
X143984350Y-113636784D01*
X143934290Y-113608642D01*
X143869622Y-113569376D01*
X143855969Y-113560848D01*
X143700166Y-113469686D01*
X143527586Y-113380543D01*
X143341225Y-113294621D01*
X143144078Y-113213126D01*
X142939143Y-113137260D01*
X142729414Y-113068225D01*
X142517888Y-113007227D01*
X142406387Y-112978644D01*
X142326491Y-112960556D01*
X142231399Y-112941457D01*
X142125489Y-112922037D01*
X142013139Y-112902989D01*
X141898726Y-112885004D01*
X141786631Y-112868772D01*
X141681233Y-112854987D01*
X141586908Y-112844340D01*
X141516856Y-112838138D01*
X141237327Y-112824743D01*
X140964903Y-112825466D01*
X140701100Y-112840185D01*
X140447429Y-112868781D01*
X140205405Y-112911133D01*
X140011263Y-112957509D01*
X139812494Y-113013458D01*
X139630620Y-113069375D01*
X139462781Y-113126443D01*
X139306120Y-113185852D01*
X139157779Y-113248786D01*
X139014899Y-113316430D01*
X138874623Y-113389972D01*
X138734091Y-113470598D01*
X138647767Y-113523298D01*
X138598793Y-113555333D01*
X138538298Y-113597261D01*
X138469685Y-113646515D01*
X138396360Y-113700527D01*
X138321723Y-113756728D01*
X138249181Y-113812549D01*
X138182136Y-113865424D01*
X138123992Y-113912782D01*
X138078153Y-113952057D01*
X138071109Y-113958400D01*
X137866486Y-114155796D01*
X137680903Y-114358319D01*
X137514244Y-114566146D01*
X137366390Y-114779455D01*
X137237222Y-114998422D01*
X137126620Y-115223226D01*
X137034466Y-115454045D01*
X136997828Y-115563592D01*
X136978925Y-115625411D01*
X136961965Y-115685146D01*
X136946837Y-115744184D01*
X136933432Y-115803908D01*
X136921643Y-115865704D01*
X136911360Y-115930954D01*
X136902475Y-116001046D01*
X136894877Y-116077363D01*
X136888459Y-116161290D01*
X136883111Y-116254211D01*
X136878725Y-116357512D01*
X136875191Y-116472576D01*
X136872401Y-116600788D01*
X136870247Y-116743535D01*
X136868618Y-116902198D01*
X136867407Y-117078164D01*
X136866668Y-117231391D01*
X136865936Y-117362738D01*
X136864780Y-117477295D01*
X136863009Y-117578060D01*
X136860434Y-117668033D01*
X136856866Y-117750212D01*
X136852117Y-117827595D01*
X136845997Y-117903182D01*
X136838317Y-117979971D01*
X136828887Y-118060959D01*
X136817519Y-118149148D01*
X136804023Y-118247533D01*
X136801378Y-118266385D01*
X136787647Y-118363292D01*
X136776025Y-118443290D01*
X136766006Y-118509086D01*
X136757088Y-118563389D01*
X136748768Y-118608906D01*
X136740544Y-118648345D01*
X136731910Y-118684413D01*
X136722367Y-118719819D01*
X136711408Y-118757269D01*
X136708203Y-118767881D01*
X136629950Y-118993564D01*
X136534816Y-119209794D01*
X136421980Y-119418269D01*
X136305067Y-119600014D01*
X136205281Y-119730144D01*
X136092901Y-119851877D01*
X135970126Y-119963736D01*
X135839148Y-120064239D01*
X135702168Y-120151909D01*
X135561381Y-120225266D01*
X135418981Y-120282829D01*
X135277167Y-120323122D01*
X135213387Y-120335343D01*
X135169485Y-120340263D01*
X135126954Y-120341329D01*
X135090026Y-120338889D01*
X135062937Y-120333299D01*
X135049917Y-120324909D01*
X135049412Y-120321710D01*
X135059729Y-120300436D01*
X135083708Y-120272249D01*
X135117963Y-120240283D01*
X135159108Y-120207674D01*
X135203755Y-120177555D01*
X135207789Y-120175099D01*
X135271301Y-120135967D01*
X135321360Y-120102844D01*
X135362034Y-120072534D01*
X135397393Y-120041846D01*
X135431503Y-120007586D01*
X135457207Y-119979327D01*
X135564939Y-119844172D01*
X135660898Y-119694846D01*
X135745489Y-119530596D01*
X135819118Y-119350666D01*
X135858774Y-119233037D01*
X135873270Y-119179091D01*
X135888464Y-119109184D01*
X135903826Y-119027111D01*
X135918823Y-118936664D01*
X135932925Y-118841636D01*
X135945598Y-118745817D01*
X135956313Y-118653001D01*
X135964538Y-118566981D01*
X135969741Y-118491548D01*
X135971391Y-118430494D01*
X135971384Y-118429515D01*
X135960484Y-118138116D01*
X135932385Y-117842047D01*
X135887703Y-117545256D01*
X135827052Y-117251693D01*
X135751047Y-116965305D01*
X135735061Y-116912481D01*
X135724062Y-116866520D01*
X135713609Y-116802318D01*
X135703876Y-116721415D01*
X135695034Y-116625356D01*
X135687256Y-116515686D01*
X135683547Y-116451103D01*
X135674459Y-116123157D01*
X135682078Y-115799594D01*
X135706174Y-115481307D01*
X135746524Y-115169185D01*
X135802900Y-114864119D01*
X135875077Y-114567000D01*
X135962828Y-114278717D01*
X136065928Y-114000162D01*
X136184149Y-113732223D01*
X136317267Y-113475793D01*
X136465055Y-113231760D01*
X136523092Y-113145251D01*
X136639591Y-112982808D01*
X136755619Y-112835000D01*
X136875259Y-112697197D01*
X137002592Y-112564775D01*
X137141700Y-112433108D01*
X137189129Y-112390592D01*
X137237569Y-112349185D01*
X137299263Y-112298783D01*
X137371199Y-112241663D01*
X137450363Y-112180104D01*
X137533747Y-112116385D01*
X137618338Y-112052783D01*
X137701125Y-111991577D01*
X137779096Y-111935045D01*
X137849240Y-111885465D01*
X137908544Y-111845117D01*
X137920487Y-111837283D01*
X138227359Y-111649516D01*
X138544164Y-111478580D01*
X138869928Y-111324785D01*
X139203682Y-111188447D01*
X139544455Y-111069877D01*
X139891276Y-110969387D01*
X140243175Y-110887293D01*
X140599183Y-110823906D01*
X140958325Y-110779539D01*
X141270984Y-110756735D01*
X141438824Y-110750199D01*
X141598594Y-110747873D01*
X141755892Y-110749896D01*
G37*
G36*
X140121804Y-113218195D02*
G01*
X140129851Y-113225633D01*
X140133783Y-113230695D01*
X140141531Y-113249152D01*
X140150182Y-113283225D01*
X140158842Y-113328822D01*
X140166235Y-113378890D01*
X140171412Y-113417811D01*
X140177399Y-113460388D01*
X140184474Y-113508338D01*
X140192911Y-113563382D01*
X140202986Y-113627237D01*
X140214971Y-113701626D01*
X140229144Y-113788264D01*
X140245778Y-113888873D01*
X140265149Y-114005170D01*
X140287532Y-114138875D01*
X140292875Y-114170727D01*
X140308065Y-114261495D01*
X140320124Y-114334630D01*
X140329246Y-114392012D01*
X140335624Y-114435516D01*
X140339448Y-114467021D01*
X140340914Y-114488404D01*
X140340209Y-114501541D01*
X140337531Y-114508311D01*
X140333069Y-114510590D01*
X140327670Y-114510352D01*
X140312175Y-114512201D01*
X140282234Y-114518938D01*
X140242269Y-114529475D01*
X140200067Y-114541706D01*
X140152176Y-114555353D01*
X140107640Y-114566607D01*
X140071889Y-114574177D01*
X140052476Y-114576750D01*
X140035302Y-114576835D01*
X140022878Y-114573240D01*
X140012169Y-114562613D01*
X140000147Y-114541601D01*
X139983778Y-114506849D01*
X139978156Y-114494536D01*
X139852878Y-114198155D01*
X139743172Y-113893190D01*
X139695676Y-113742070D01*
X139677152Y-113678834D01*
X139659026Y-113614506D01*
X139642097Y-113552188D01*
X139627166Y-113494979D01*
X139615034Y-113445981D01*
X139606500Y-113408295D01*
X139602366Y-113385020D01*
X139602176Y-113379910D01*
X139611679Y-113370894D01*
X139636115Y-113356703D01*
X139671850Y-113339008D01*
X139715251Y-113319482D01*
X139762683Y-113299798D01*
X139810513Y-113281626D01*
X139832311Y-113274012D01*
X139881281Y-113259211D01*
X139939722Y-113244114D01*
X139997519Y-113231265D01*
X140016746Y-113227586D01*
X140062058Y-113219583D01*
X140091965Y-113215278D01*
X140110528Y-113214780D01*
X140121804Y-113218195D01*
G37*
G36*
X141508307Y-113140610D02*
G01*
X141566687Y-113141791D01*
X141622834Y-113144009D01*
X141623743Y-113144056D01*
X141800268Y-113160053D01*
X141985103Y-113189667D01*
X142173356Y-113231774D01*
X142360135Y-113285253D01*
X142540544Y-113348980D01*
X142573319Y-113362000D01*
X142623939Y-113383231D01*
X142678007Y-113407182D01*
X142732806Y-113432499D01*
X142785614Y-113457827D01*
X142833714Y-113481813D01*
X142874383Y-113503102D01*
X142904903Y-113520341D01*
X142922556Y-113532175D01*
X142925079Y-113537130D01*
X142909374Y-113538809D01*
X142879699Y-113538979D01*
X142841817Y-113537641D01*
X142832498Y-113537117D01*
X142673907Y-113533854D01*
X142515366Y-113542665D01*
X142360010Y-113562933D01*
X142210972Y-113594049D01*
X142071384Y-113635399D01*
X141944381Y-113686369D01*
X141867630Y-113725746D01*
X141767485Y-113790012D01*
X141672660Y-113865183D01*
X141587714Y-113947209D01*
X141517209Y-114032041D01*
X141507965Y-114045039D01*
X141480505Y-114082216D01*
X141450155Y-114119805D01*
X141429038Y-114143649D01*
X141384919Y-114197932D01*
X141343804Y-114262588D01*
X141308744Y-114331665D01*
X141282789Y-114399211D01*
X141269579Y-114454852D01*
X141264953Y-114487201D01*
X141203626Y-114479772D01*
X141167435Y-114474650D01*
X141136721Y-114469016D01*
X141121560Y-114465141D01*
X141110361Y-114458534D01*
X141104238Y-114445379D01*
X141101932Y-114420922D01*
X141101968Y-114391253D01*
X141104126Y-114353632D01*
X141109355Y-114299225D01*
X141117249Y-114230733D01*
X141127405Y-114150851D01*
X141139416Y-114062277D01*
X141152879Y-113967710D01*
X141167389Y-113869845D01*
X141182538Y-113771383D01*
X141197924Y-113675019D01*
X141213142Y-113583452D01*
X141227786Y-113499378D01*
X141241452Y-113425497D01*
X141253734Y-113364504D01*
X141260884Y-113332626D01*
X141274743Y-113275849D01*
X141287570Y-113225920D01*
X141298513Y-113185963D01*
X141306717Y-113159095D01*
X141311291Y-113148459D01*
X141325816Y-113145228D01*
X141356448Y-113142777D01*
X141399519Y-113141155D01*
X141451361Y-113140416D01*
X141508307Y-113140610D01*
G37*
G36*
X138192076Y-114460143D02*
G01*
X138278931Y-114536066D01*
X138365181Y-114612378D01*
X138449556Y-114687889D01*
X138530788Y-114761414D01*
X138607607Y-114831763D01*
X138678743Y-114897747D01*
X138742929Y-114958181D01*
X138798894Y-115011873D01*
X138845370Y-115057638D01*
X138881087Y-115094286D01*
X138904776Y-115120630D01*
X138915169Y-115135481D01*
X138915527Y-115137392D01*
X138907275Y-115157287D01*
X138888278Y-115187258D01*
X138861503Y-115223110D01*
X138829916Y-115260647D01*
X138822773Y-115268545D01*
X138797930Y-115297556D01*
X138776272Y-115326075D01*
X138767997Y-115338709D01*
X138753529Y-115357851D01*
X138740936Y-115365983D01*
X138739809Y-115365929D01*
X138727021Y-115360599D01*
X138701063Y-115347716D01*
X138666043Y-115329371D01*
X138636030Y-115313137D01*
X138572931Y-115278110D01*
X138513710Y-115244159D01*
X138454936Y-115209170D01*
X138393176Y-115171028D01*
X138324998Y-115127616D01*
X138246969Y-115076820D01*
X138169398Y-115025638D01*
X138105470Y-114983493D01*
X138040808Y-114941257D01*
X137979186Y-114901365D01*
X137924378Y-114866255D01*
X137880156Y-114838362D01*
X137861604Y-114826913D01*
X137822308Y-114802666D01*
X137789361Y-114781757D01*
X137766395Y-114766530D01*
X137757196Y-114759547D01*
X137757777Y-114746898D01*
X137766119Y-114721286D01*
X137780340Y-114687034D01*
X137798561Y-114648461D01*
X137818899Y-114609888D01*
X137832426Y-114586759D01*
X137869188Y-114535267D01*
X137917740Y-114479382D01*
X137972858Y-114424830D01*
X138008688Y-114393650D01*
X138063592Y-114348549D01*
X138192076Y-114460143D01*
G37*
G36*
X89300000Y-87800000D02*
G01*
X88700000Y-87200000D01*
X89300000Y-87200000D01*
X89300000Y-87800000D01*
G37*
X89300000Y-87800000D02*
X88700000Y-87200000D01*
X89300000Y-87200000D01*
X89300000Y-87800000D01*
G36*
X143300000Y-75800000D02*
G01*
X142700000Y-75200000D01*
X143300000Y-75200000D01*
X143300000Y-75800000D01*
G37*
X143300000Y-75800000D02*
X142700000Y-75200000D01*
X143300000Y-75200000D01*
X143300000Y-75800000D01*
D10*
X178076213Y-129888544D02*
X177136521Y-129546524D01*
X173480356Y-127896536D02*
X173138336Y-128836228D01*
X178349829Y-129136790D02*
X174121213Y-127597700D01*
X179957324Y-124720235D02*
X179786314Y-125190081D01*
X178555042Y-128572975D02*
X178349829Y-129136790D01*
X178418233Y-128948852D02*
X178076213Y-129888544D01*
X164920517Y-125100262D02*
X165262537Y-124160570D01*
X172497480Y-129135065D02*
X173138336Y-128836228D01*
X169708799Y-111944566D02*
X170648491Y-112286586D01*
X170576636Y-124179224D02*
X171217493Y-123880387D01*
X169678402Y-128109004D02*
X172497480Y-129135065D01*
X171217493Y-123880387D02*
X173566724Y-124735438D01*
X165860209Y-125442282D02*
X164920517Y-125100262D01*
X175489293Y-123838929D02*
X175728707Y-123181144D01*
X181924803Y-116390828D02*
X182864495Y-116732848D01*
X169379566Y-127468148D02*
X169678402Y-128109004D01*
X169366779Y-112884258D02*
X169708799Y-111944566D01*
X182864495Y-116732848D02*
X182522475Y-117672540D01*
X175728707Y-123181144D02*
X179957324Y-124720235D01*
X173566724Y-124735438D02*
G75*
G03*
X175489293Y-123838929I513030J1409539D01*
G01*
X174121213Y-127597699D02*
G75*
G03*
X173480356Y-127896536I-171010J-469847D01*
G01*
D11*
X83300000Y-69433200D02*
X81700000Y-69433200D01*
X81700000Y-69433200D02*
X81700000Y-67400000D01*
X82500000Y-70754000D02*
X82500000Y-71617600D01*
X82500000Y-69458600D02*
X82500000Y-70119000D01*
X81700000Y-67400000D02*
X83300000Y-67400000D01*
X82906400Y-70119000D02*
X82093600Y-70119000D01*
X82500000Y-70119000D02*
X82881000Y-70754000D01*
X83300000Y-67400000D02*
X83300000Y-69433200D01*
X82119000Y-70754000D02*
X82500000Y-70119000D01*
X82881000Y-70754000D02*
X82119000Y-70754000D01*
G36*
X82881000Y-70754000D02*
G01*
X82119000Y-70754000D01*
X82500000Y-70119000D01*
X82881000Y-70754000D01*
G37*
X82881000Y-70754000D02*
X82119000Y-70754000D01*
X82500000Y-70119000D01*
X82881000Y-70754000D01*
D10*
X116500000Y-116700000D02*
X112000000Y-116700000D01*
X116500000Y-103500000D02*
X116500000Y-104500000D01*
X102500000Y-104500000D02*
X102500000Y-103500000D01*
X107500000Y-114700000D02*
X108000000Y-114200000D01*
X111000000Y-118700000D02*
X111500000Y-118200000D01*
X116500000Y-117500000D02*
X115500000Y-117500000D01*
X108000000Y-118700000D02*
X111000000Y-118700000D01*
X116500000Y-112000000D02*
X116500000Y-112500000D01*
X102500000Y-117500000D02*
X102500000Y-116500000D01*
X103500000Y-117500000D02*
X102500000Y-117500000D01*
X116500000Y-116100000D02*
X116500000Y-116700000D01*
X108000000Y-114200000D02*
X110500000Y-114200000D01*
X112000000Y-112700000D02*
X112000000Y-112000000D01*
X112000000Y-112000000D02*
X116500000Y-112000000D01*
X111500000Y-117200000D02*
X111500000Y-118200000D01*
X115500000Y-103500000D02*
X116500000Y-103500000D01*
X102500000Y-103500000D02*
X103500000Y-103500000D01*
X116500000Y-116500000D02*
X116500000Y-117500000D01*
X107500000Y-118200000D02*
X108000000Y-118700000D01*
X110500000Y-114200000D02*
G75*
G03*
X112000000Y-112700000I0J1500000D01*
G01*
X112000000Y-116700000D02*
G75*
G03*
X111500000Y-117200000I0J-500000D01*
G01*
D11*
X118500000Y-68119000D02*
X118881000Y-68754000D01*
X118119000Y-68754000D02*
X118500000Y-68119000D01*
X118500000Y-68754000D02*
X118500000Y-69617600D01*
X119300000Y-67433200D02*
X117700000Y-67433200D01*
X119300000Y-65400000D02*
X119300000Y-67433200D01*
X118500000Y-67458600D02*
X118500000Y-68119000D01*
X118906400Y-68119000D02*
X118093600Y-68119000D01*
X117700000Y-67433200D02*
X117700000Y-65400000D01*
X117700000Y-65400000D02*
X119300000Y-65400000D01*
X118881000Y-68754000D02*
X118119000Y-68754000D01*
G36*
X118881000Y-68754000D02*
G01*
X118119000Y-68754000D01*
X118500000Y-68119000D01*
X118881000Y-68754000D01*
G37*
X118881000Y-68754000D02*
X118119000Y-68754000D01*
X118500000Y-68119000D01*
X118881000Y-68754000D01*
D13*
X182400000Y-82800000D02*
X182400000Y-85600000D01*
X180400000Y-82800000D02*
X182400000Y-82800000D01*
X182400000Y-85600000D02*
X180400000Y-85600000D01*
X180400000Y-85600000D02*
X180400000Y-82800000D01*
X183600000Y-85600000D02*
X183600000Y-82800000D01*
X185600000Y-82800000D02*
X185600000Y-85600000D01*
X183600000Y-82800000D02*
X185600000Y-82800000D01*
X185600000Y-85600000D02*
X183600000Y-85600000D01*
D11*
X172800000Y-73900000D02*
X172800000Y-75933200D01*
X171200000Y-73900000D02*
X172800000Y-73900000D01*
X172406400Y-76619000D02*
X171593600Y-76619000D01*
X172381000Y-77254000D02*
X171619000Y-77254000D01*
X172000000Y-76619000D02*
X172381000Y-77254000D01*
X172800000Y-75933200D02*
X171200000Y-75933200D01*
X172000000Y-75958600D02*
X172000000Y-76619000D01*
X171200000Y-75933200D02*
X171200000Y-73900000D01*
X171619000Y-77254000D02*
X172000000Y-76619000D01*
X172000000Y-77254000D02*
X172000000Y-78117600D01*
G36*
X172381000Y-77254000D02*
G01*
X171619000Y-77254000D01*
X172000000Y-76619000D01*
X172381000Y-77254000D01*
G37*
X172381000Y-77254000D02*
X171619000Y-77254000D01*
X172000000Y-76619000D01*
X172381000Y-77254000D01*
G36*
X107300000Y-56800000D02*
G01*
X106700000Y-56200000D01*
X107300000Y-56200000D01*
X107300000Y-56800000D01*
G37*
D12*
X107300000Y-56800000D02*
X106700000Y-56200000D01*
X107300000Y-56200000D01*
X107300000Y-56800000D01*
D11*
X164361811Y-114171397D02*
X163616462Y-114012968D01*
X163903954Y-110645146D02*
X165468990Y-110977805D01*
X164121160Y-113471059D02*
X164361811Y-114171397D01*
X163616462Y-114012968D02*
X164121160Y-113471059D01*
X163989136Y-114092182D02*
X163809584Y-114936911D01*
X165468990Y-110977805D02*
X165046264Y-112966574D01*
X163481228Y-112633916D02*
X163903954Y-110645146D01*
X165046264Y-112966574D02*
X163481228Y-112633916D01*
X164258465Y-112825090D02*
X164121160Y-113471059D01*
X164518680Y-113555554D02*
X163723641Y-113386563D01*
G36*
X164361811Y-114171397D02*
G01*
X163616462Y-114012968D01*
X164121160Y-113471059D01*
X164361811Y-114171397D01*
G37*
X164361811Y-114171397D02*
X163616462Y-114012968D01*
X164121160Y-113471059D01*
X164361811Y-114171397D01*
G36*
X125300000Y-67850000D02*
G01*
X124700000Y-67250000D01*
X125300000Y-67250000D01*
X125300000Y-67850000D01*
G37*
D12*
X125300000Y-67850000D02*
X124700000Y-67250000D01*
X125300000Y-67250000D01*
X125300000Y-67850000D01*
D10*
X94000000Y-75000000D02*
X98500000Y-75000000D01*
X85500000Y-80500000D02*
X84500000Y-80500000D01*
X89500000Y-77700000D02*
X90000000Y-77200000D01*
X89500000Y-81200000D02*
X90000000Y-81700000D01*
X98500000Y-80500000D02*
X97500000Y-80500000D01*
X90000000Y-77200000D02*
X92500000Y-77200000D01*
X84500000Y-66500000D02*
X85500000Y-66500000D01*
X98500000Y-79700000D02*
X94000000Y-79700000D01*
X98500000Y-66500000D02*
X98500000Y-67500000D01*
X94000000Y-75700000D02*
X94000000Y-75000000D01*
X98500000Y-79100000D02*
X98500000Y-79700000D01*
X98500000Y-79500000D02*
X98500000Y-80500000D01*
X90000000Y-81700000D02*
X93000000Y-81700000D01*
X93500000Y-80200000D02*
X93500000Y-81200000D01*
X98500000Y-75000000D02*
X98500000Y-75500000D01*
X97500000Y-66500000D02*
X98500000Y-66500000D01*
X93000000Y-81700000D02*
X93500000Y-81200000D01*
X84500000Y-67500000D02*
X84500000Y-66500000D01*
X84500000Y-80500000D02*
X84500000Y-79500000D01*
X92500000Y-77200000D02*
G75*
G03*
X94000000Y-75700000I0J1500000D01*
G01*
X94000000Y-79700000D02*
G75*
G03*
X93500000Y-80200000I0J-500000D01*
G01*
G36*
X125300000Y-50850000D02*
G01*
X124700000Y-50250000D01*
X125300000Y-50250000D01*
X125300000Y-50850000D01*
G37*
D12*
X125300000Y-50850000D02*
X124700000Y-50250000D01*
X125300000Y-50250000D01*
X125300000Y-50850000D01*
G36*
X71300000Y-109800000D02*
G01*
X70700000Y-109200000D01*
X71300000Y-109200000D01*
X71300000Y-109800000D01*
G37*
X71300000Y-109800000D02*
X70700000Y-109200000D01*
X71300000Y-109200000D01*
X71300000Y-109800000D01*
D10*
X152500000Y-101700000D02*
X148000000Y-101700000D01*
X144000000Y-103700000D02*
X147000000Y-103700000D01*
X147000000Y-103700000D02*
X147500000Y-103200000D01*
X138500000Y-89500000D02*
X138500000Y-88500000D01*
X138500000Y-88500000D02*
X139500000Y-88500000D01*
X148000000Y-97000000D02*
X152500000Y-97000000D01*
X152500000Y-88500000D02*
X152500000Y-89500000D01*
X151500000Y-88500000D02*
X152500000Y-88500000D01*
X152500000Y-97000000D02*
X152500000Y-97500000D01*
X152500000Y-101500000D02*
X152500000Y-102500000D01*
X139500000Y-102500000D02*
X138500000Y-102500000D01*
X138500000Y-102500000D02*
X138500000Y-101500000D01*
X152500000Y-101100000D02*
X152500000Y-101700000D01*
X143500000Y-99700000D02*
X144000000Y-99200000D01*
X143500000Y-103200000D02*
X144000000Y-103700000D01*
X144000000Y-99200000D02*
X146500000Y-99200000D01*
X152500000Y-102500000D02*
X151500000Y-102500000D01*
X147500000Y-102200000D02*
X147500000Y-103200000D01*
X148000000Y-97700000D02*
X148000000Y-97000000D01*
X148000000Y-101700000D02*
G75*
G03*
X147500000Y-102200000I0J-500000D01*
G01*
X146500000Y-99200000D02*
G75*
G03*
X148000000Y-97700000I0J1500000D01*
G01*
D13*
X185530000Y-86495000D02*
X177850000Y-86495000D01*
X188130000Y-89155000D02*
X186800000Y-89155000D01*
X185530000Y-86495000D02*
X185530000Y-89155000D01*
X185530000Y-89155000D02*
X177850000Y-89155000D01*
X177850000Y-86495000D02*
X177850000Y-89155000D01*
X188130000Y-87825000D02*
X188130000Y-89155000D01*
D11*
X155300000Y-55432500D02*
X155300000Y-57465700D01*
X154500000Y-57491100D02*
X154500000Y-58151500D01*
X154500000Y-58151500D02*
X154881000Y-58786500D01*
X154500000Y-58786500D02*
X154500000Y-59650100D01*
X154906400Y-58151500D02*
X154093600Y-58151500D01*
X153700000Y-57465700D02*
X153700000Y-55432500D01*
X154119000Y-58786500D02*
X154500000Y-58151500D01*
X155300000Y-57465700D02*
X153700000Y-57465700D01*
X154881000Y-58786500D02*
X154119000Y-58786500D01*
X153700000Y-55432500D02*
X155300000Y-55432500D01*
G36*
X154881000Y-58786500D02*
G01*
X154119000Y-58786500D01*
X154500000Y-58151500D01*
X154881000Y-58786500D01*
G37*
X154881000Y-58786500D02*
X154119000Y-58786500D01*
X154500000Y-58151500D01*
X154881000Y-58786500D01*
D10*
X116500000Y-83500000D02*
X115500000Y-83500000D01*
X111000000Y-84700000D02*
X111500000Y-84200000D01*
X102500000Y-69500000D02*
X103500000Y-69500000D01*
X112000000Y-78700000D02*
X112000000Y-78000000D01*
X102500000Y-83500000D02*
X102500000Y-82500000D01*
X115500000Y-69500000D02*
X116500000Y-69500000D01*
X103500000Y-83500000D02*
X102500000Y-83500000D01*
X116500000Y-82500000D02*
X116500000Y-83500000D01*
X108000000Y-80200000D02*
X110500000Y-80200000D01*
X116500000Y-69500000D02*
X116500000Y-70500000D01*
X107500000Y-84200000D02*
X108000000Y-84700000D01*
X116500000Y-82700000D02*
X112000000Y-82700000D01*
X111500000Y-83200000D02*
X111500000Y-84200000D01*
X108000000Y-84700000D02*
X111000000Y-84700000D01*
X102500000Y-70500000D02*
X102500000Y-69500000D01*
X116500000Y-82100000D02*
X116500000Y-82700000D01*
X107500000Y-80700000D02*
X108000000Y-80200000D01*
X112000000Y-78000000D02*
X116500000Y-78000000D01*
X116500000Y-78000000D02*
X116500000Y-78500000D01*
X112000000Y-82700000D02*
G75*
G03*
X111500000Y-83200000I0J-500000D01*
G01*
X110500000Y-80200000D02*
G75*
G03*
X112000000Y-78700000I0J1500000D01*
G01*
D11*
X99700000Y-86252200D02*
X99700000Y-84219000D01*
X101300000Y-84219000D02*
X101300000Y-86252200D01*
X101300000Y-86252200D02*
X99700000Y-86252200D01*
X100906400Y-86938000D02*
X100093600Y-86938000D01*
X100500000Y-87573000D02*
X100500000Y-88436600D01*
X100500000Y-86938000D02*
X100881000Y-87573000D01*
X100500000Y-86277600D02*
X100500000Y-86938000D01*
X99700000Y-84219000D02*
X101300000Y-84219000D01*
X100119000Y-87573000D02*
X100500000Y-86938000D01*
X100881000Y-87573000D02*
X100119000Y-87573000D01*
G36*
X100881000Y-87573000D02*
G01*
X100119000Y-87573000D01*
X100500000Y-86938000D01*
X100881000Y-87573000D01*
G37*
X100881000Y-87573000D02*
X100119000Y-87573000D01*
X100500000Y-86938000D01*
X100881000Y-87573000D01*
D10*
X133500000Y-97500000D02*
X134500000Y-97500000D01*
X126000000Y-108200000D02*
X128500000Y-108200000D01*
X129500000Y-111200000D02*
X129500000Y-112200000D01*
X120500000Y-111500000D02*
X120500000Y-110500000D01*
X134500000Y-110700000D02*
X130000000Y-110700000D01*
X134500000Y-111500000D02*
X133500000Y-111500000D01*
X125500000Y-108700000D02*
X126000000Y-108200000D01*
X121500000Y-111500000D02*
X120500000Y-111500000D01*
X130000000Y-106000000D02*
X134500000Y-106000000D01*
X126000000Y-112700000D02*
X129000000Y-112700000D01*
X134500000Y-110500000D02*
X134500000Y-111500000D01*
X134500000Y-97500000D02*
X134500000Y-98500000D01*
X120500000Y-98500000D02*
X120500000Y-97500000D01*
X134500000Y-110100000D02*
X134500000Y-110700000D01*
X125500000Y-112200000D02*
X126000000Y-112700000D01*
X134500000Y-106000000D02*
X134500000Y-106500000D01*
X129000000Y-112700000D02*
X129500000Y-112200000D01*
X130000000Y-106700000D02*
X130000000Y-106000000D01*
X120500000Y-97500000D02*
X121500000Y-97500000D01*
X128500000Y-108200000D02*
G75*
G03*
X130000000Y-106700000I0J1500000D01*
G01*
X130000000Y-110700000D02*
G75*
G03*
X129500000Y-111200000I0J-500000D01*
G01*
G36*
X107300000Y-90800000D02*
G01*
X106700000Y-90200000D01*
X107300000Y-90200000D01*
X107300000Y-90800000D01*
G37*
D12*
X107300000Y-90800000D02*
X106700000Y-90200000D01*
X107300000Y-90200000D01*
X107300000Y-90800000D01*
D10*
X120500000Y-80550000D02*
X121500000Y-80550000D01*
X134500000Y-89050000D02*
X134500000Y-89550000D01*
X125500000Y-95250000D02*
X126000000Y-95750000D01*
X134500000Y-93150000D02*
X134500000Y-93750000D01*
X121500000Y-94550000D02*
X120500000Y-94550000D01*
X129500000Y-94250000D02*
X129500000Y-95250000D01*
X120500000Y-81550000D02*
X120500000Y-80550000D01*
X130000000Y-89750000D02*
X130000000Y-89050000D01*
X120500000Y-94550000D02*
X120500000Y-93550000D01*
X130000000Y-89050000D02*
X134500000Y-89050000D01*
X129000000Y-95750000D02*
X129500000Y-95250000D01*
X126000000Y-95750000D02*
X129000000Y-95750000D01*
X125500000Y-91750000D02*
X126000000Y-91250000D01*
X134500000Y-93750000D02*
X130000000Y-93750000D01*
X134500000Y-93550000D02*
X134500000Y-94550000D01*
X134500000Y-94550000D02*
X133500000Y-94550000D01*
X126000000Y-91250000D02*
X128500000Y-91250000D01*
X133500000Y-80550000D02*
X134500000Y-80550000D01*
X134500000Y-80550000D02*
X134500000Y-81550000D01*
X128500000Y-91250000D02*
G75*
G03*
X130000000Y-89750000I0J1500000D01*
G01*
X130000000Y-93750000D02*
G75*
G03*
X129500000Y-94250000I0J-500000D01*
G01*
D11*
X154881000Y-92786500D02*
X154119000Y-92786500D01*
X153700000Y-89432500D02*
X155300000Y-89432500D01*
X154906400Y-92151500D02*
X154093600Y-92151500D01*
X154119000Y-92786500D02*
X154500000Y-92151500D01*
X154500000Y-92151500D02*
X154881000Y-92786500D01*
X154500000Y-91491100D02*
X154500000Y-92151500D01*
X155300000Y-91465700D02*
X153700000Y-91465700D01*
X153700000Y-91465700D02*
X153700000Y-89432500D01*
X154500000Y-92786500D02*
X154500000Y-93650100D01*
X155300000Y-89432500D02*
X155300000Y-91465700D01*
G36*
X154881000Y-92786500D02*
G01*
X154119000Y-92786500D01*
X154500000Y-92151500D01*
X154881000Y-92786500D01*
G37*
X154881000Y-92786500D02*
X154119000Y-92786500D01*
X154500000Y-92151500D01*
X154881000Y-92786500D01*
X82119000Y-87754000D02*
X82500000Y-87119000D01*
X82906400Y-87119000D02*
X82093600Y-87119000D01*
X81700000Y-84400000D02*
X83300000Y-84400000D01*
X83300000Y-84400000D02*
X83300000Y-86433200D01*
X83300000Y-86433200D02*
X81700000Y-86433200D01*
X82881000Y-87754000D02*
X82119000Y-87754000D01*
X82500000Y-87119000D02*
X82881000Y-87754000D01*
X81700000Y-86433200D02*
X81700000Y-84400000D01*
X82500000Y-86458600D02*
X82500000Y-87119000D01*
X82500000Y-87754000D02*
X82500000Y-88617600D01*
G36*
X82881000Y-87754000D02*
G01*
X82119000Y-87754000D01*
X82500000Y-87119000D01*
X82881000Y-87754000D01*
G37*
X82881000Y-87754000D02*
X82119000Y-87754000D01*
X82500000Y-87119000D01*
X82881000Y-87754000D01*
G36*
X143300000Y-92800000D02*
G01*
X142700000Y-92200000D01*
X143300000Y-92200000D01*
X143300000Y-92800000D01*
G37*
D12*
X143300000Y-92800000D02*
X142700000Y-92200000D01*
X143300000Y-92200000D01*
X143300000Y-92800000D01*
D11*
X136906400Y-69419000D02*
X136093600Y-69419000D01*
X136119000Y-70054000D02*
X136500000Y-69419000D01*
X135700000Y-66700000D02*
X137300000Y-66700000D01*
X137300000Y-68733200D02*
X135700000Y-68733200D01*
X137300000Y-66700000D02*
X137300000Y-68733200D01*
X136500000Y-69419000D02*
X136881000Y-70054000D01*
X136500000Y-68758600D02*
X136500000Y-69419000D01*
X136881000Y-70054000D02*
X136119000Y-70054000D01*
X135700000Y-68733200D02*
X135700000Y-66700000D01*
X136500000Y-70054000D02*
X136500000Y-70917600D01*
G36*
X136881000Y-70054000D02*
G01*
X136119000Y-70054000D01*
X136500000Y-69419000D01*
X136881000Y-70054000D01*
G37*
X136881000Y-70054000D02*
X136119000Y-70054000D01*
X136500000Y-69419000D01*
X136881000Y-70054000D01*
G36*
X179300000Y-94800000D02*
G01*
X178700000Y-94200000D01*
X179300000Y-94200000D01*
X179300000Y-94800000D01*
G37*
D12*
X179300000Y-94800000D02*
X178700000Y-94200000D01*
X179300000Y-94200000D01*
X179300000Y-94800000D01*
D13*
X177600000Y-85600000D02*
X177600000Y-82800000D01*
X179600000Y-85600000D02*
X177600000Y-85600000D01*
X179600000Y-82800000D02*
X179600000Y-85600000D01*
X177600000Y-82800000D02*
X179600000Y-82800000D01*
D11*
X117700000Y-50433200D02*
X117700000Y-48400000D01*
X119300000Y-50433200D02*
X117700000Y-50433200D01*
X118881000Y-51754000D02*
X118119000Y-51754000D01*
X118906400Y-51119000D02*
X118093600Y-51119000D01*
X118500000Y-51754000D02*
X118500000Y-52617600D01*
X118119000Y-51754000D02*
X118500000Y-51119000D01*
X119300000Y-48400000D02*
X119300000Y-50433200D01*
X117700000Y-48400000D02*
X119300000Y-48400000D01*
X118500000Y-50458600D02*
X118500000Y-51119000D01*
X118500000Y-51119000D02*
X118881000Y-51754000D01*
G36*
X118881000Y-51754000D02*
G01*
X118119000Y-51754000D01*
X118500000Y-51119000D01*
X118881000Y-51754000D01*
G37*
X118881000Y-51754000D02*
X118119000Y-51754000D01*
X118500000Y-51119000D01*
X118881000Y-51754000D01*
X118119000Y-85754000D02*
X118500000Y-85119000D01*
X117700000Y-82400000D02*
X119300000Y-82400000D01*
X119300000Y-84433200D02*
X117700000Y-84433200D01*
X118500000Y-84458600D02*
X118500000Y-85119000D01*
X117700000Y-84433200D02*
X117700000Y-82400000D01*
X118906400Y-85119000D02*
X118093600Y-85119000D01*
X118500000Y-85119000D02*
X118881000Y-85754000D01*
X118881000Y-85754000D02*
X118119000Y-85754000D01*
X119300000Y-82400000D02*
X119300000Y-84433200D01*
X118500000Y-85754000D02*
X118500000Y-86617600D01*
G36*
X118881000Y-85754000D02*
G01*
X118119000Y-85754000D01*
X118500000Y-85119000D01*
X118881000Y-85754000D01*
G37*
X118881000Y-85754000D02*
X118119000Y-85754000D01*
X118500000Y-85119000D01*
X118881000Y-85754000D01*
X118500000Y-102119000D02*
X118881000Y-102754000D01*
X119300000Y-101433200D02*
X117700000Y-101433200D01*
X119300000Y-99400000D02*
X119300000Y-101433200D01*
X118119000Y-102754000D02*
X118500000Y-102119000D01*
X118906400Y-102119000D02*
X118093600Y-102119000D01*
X117700000Y-99400000D02*
X119300000Y-99400000D01*
X117700000Y-101433200D02*
X117700000Y-99400000D01*
X118881000Y-102754000D02*
X118119000Y-102754000D01*
X118500000Y-101458600D02*
X118500000Y-102119000D01*
X118500000Y-102754000D02*
X118500000Y-103617600D01*
G36*
X118881000Y-102754000D02*
G01*
X118119000Y-102754000D01*
X118500000Y-102119000D01*
X118881000Y-102754000D01*
G37*
X118881000Y-102754000D02*
X118119000Y-102754000D01*
X118500000Y-102119000D01*
X118881000Y-102754000D01*
D10*
X191126067Y-121605638D02*
X191892112Y-122248425D01*
X192939795Y-134223498D02*
X196386995Y-137116042D01*
X196386995Y-137116042D02*
X196065601Y-137499064D01*
X192489843Y-134759729D02*
X192939795Y-134223498D01*
X193365893Y-140716451D02*
X189918693Y-137823907D01*
X190483280Y-122371682D02*
X191126067Y-121605638D01*
X187757068Y-133399273D02*
X188461484Y-133337645D01*
X193494450Y-140563242D02*
X192851663Y-141329286D01*
X185507312Y-136080429D02*
X185568940Y-136784845D01*
X188461484Y-133337645D02*
X190376595Y-134944614D01*
X189214277Y-137885535D02*
X188571489Y-138651579D01*
X182893085Y-132973047D02*
X182127041Y-132330260D01*
X185568940Y-136784845D02*
X187867073Y-138713208D01*
X192851663Y-141329286D02*
X192085618Y-140686499D01*
X187867073Y-138713208D02*
X188571489Y-138651579D01*
X201850689Y-130604664D02*
X201207902Y-131370709D01*
X201084645Y-129961877D02*
X201850689Y-130604664D01*
X193751565Y-140256824D02*
X193365893Y-140716451D01*
X182127041Y-132330260D02*
X182769828Y-131564215D01*
X190376595Y-134944614D02*
G75*
G03*
X192489843Y-134759729I964182J1149067D01*
G01*
X189918693Y-137823907D02*
G75*
G03*
X189214277Y-137885535I-321394J-383022D01*
G01*
D11*
X184193585Y-119805954D02*
X182690077Y-119258722D01*
X182632068Y-120643174D02*
X183207274Y-120176779D01*
X183433144Y-119556206D02*
X183207274Y-120176779D01*
X183385472Y-117348139D02*
X184888981Y-117895371D01*
X184888981Y-117895371D02*
X184193585Y-119805954D01*
X183589165Y-120315776D02*
X182825383Y-120037782D01*
X182690077Y-119258722D02*
X183385472Y-117348139D01*
X183348114Y-120903794D02*
X182632068Y-120643174D01*
X183207274Y-120176779D02*
X183348114Y-120903794D01*
X182990091Y-120773484D02*
X182694722Y-121585002D01*
G36*
X183348114Y-120903794D02*
G01*
X182632068Y-120643174D01*
X183207274Y-120176779D01*
X183348114Y-120903794D01*
G37*
X183348114Y-120903794D02*
X182632068Y-120643174D01*
X183207274Y-120176779D01*
X183348114Y-120903794D01*
D10*
X71500000Y-116700000D02*
X72000000Y-116200000D01*
X76000000Y-114000000D02*
X80500000Y-114000000D01*
X75500000Y-119200000D02*
X75500000Y-120200000D01*
X76000000Y-114700000D02*
X76000000Y-114000000D01*
X80500000Y-118100000D02*
X80500000Y-118700000D01*
X66500000Y-105500000D02*
X67500000Y-105500000D01*
X66500000Y-119500000D02*
X66500000Y-118500000D01*
X66500000Y-106500000D02*
X66500000Y-105500000D01*
X80500000Y-119500000D02*
X79500000Y-119500000D01*
X80500000Y-114000000D02*
X80500000Y-114500000D01*
X80500000Y-105500000D02*
X80500000Y-106500000D01*
X75000000Y-120700000D02*
X75500000Y-120200000D01*
X67500000Y-119500000D02*
X66500000Y-119500000D01*
X80500000Y-118700000D02*
X76000000Y-118700000D01*
X71500000Y-120200000D02*
X72000000Y-120700000D01*
X79500000Y-105500000D02*
X80500000Y-105500000D01*
X72000000Y-120700000D02*
X75000000Y-120700000D01*
X72000000Y-116200000D02*
X74500000Y-116200000D01*
X80500000Y-118500000D02*
X80500000Y-119500000D01*
X74500000Y-116200000D02*
G75*
G03*
X76000000Y-114700000I0J1500000D01*
G01*
X76000000Y-118700000D02*
G75*
G03*
X75500000Y-119200000I0J-500000D01*
G01*
D11*
X136881000Y-87054000D02*
X136119000Y-87054000D01*
X136500000Y-87054000D02*
X136500000Y-87917600D01*
X137300000Y-85733200D02*
X135700000Y-85733200D01*
X137300000Y-83700000D02*
X137300000Y-85733200D01*
X136500000Y-85758600D02*
X136500000Y-86419000D01*
X136119000Y-87054000D02*
X136500000Y-86419000D01*
X135700000Y-85733200D02*
X135700000Y-83700000D01*
X135700000Y-83700000D02*
X137300000Y-83700000D01*
X136500000Y-86419000D02*
X136881000Y-87054000D01*
X136906400Y-86419000D02*
X136093600Y-86419000D01*
G36*
X136881000Y-87054000D02*
G01*
X136119000Y-87054000D01*
X136500000Y-86419000D01*
X136881000Y-87054000D01*
G37*
X136881000Y-87054000D02*
X136119000Y-87054000D01*
X136500000Y-86419000D01*
X136881000Y-87054000D01*
G36*
X161300000Y-94800000D02*
G01*
X160700000Y-94200000D01*
X161300000Y-94200000D01*
X161300000Y-94800000D01*
G37*
D12*
X161300000Y-94800000D02*
X160700000Y-94200000D01*
X161300000Y-94200000D01*
X161300000Y-94800000D01*
G36*
X107300000Y-107800000D02*
G01*
X106700000Y-107200000D01*
X107300000Y-107200000D01*
X107300000Y-107800000D01*
G37*
X107300000Y-107800000D02*
X106700000Y-107200000D01*
X107300000Y-107200000D01*
X107300000Y-107800000D01*
D10*
X129500000Y-77250000D02*
X129500000Y-78250000D01*
X134500000Y-63550000D02*
X134500000Y-64550000D01*
X134500000Y-77550000D02*
X133500000Y-77550000D01*
X134500000Y-76550000D02*
X134500000Y-77550000D01*
X130000000Y-72750000D02*
X130000000Y-72050000D01*
X120500000Y-77550000D02*
X120500000Y-76550000D01*
X134500000Y-72050000D02*
X134500000Y-72550000D01*
X120500000Y-64550000D02*
X120500000Y-63550000D01*
X121500000Y-77550000D02*
X120500000Y-77550000D01*
X129000000Y-78750000D02*
X129500000Y-78250000D01*
X125500000Y-78250000D02*
X126000000Y-78750000D01*
X134500000Y-76150000D02*
X134500000Y-76750000D01*
X126000000Y-78750000D02*
X129000000Y-78750000D01*
X126000000Y-74250000D02*
X128500000Y-74250000D01*
X125500000Y-74750000D02*
X126000000Y-74250000D01*
X133500000Y-63550000D02*
X134500000Y-63550000D01*
X134500000Y-76750000D02*
X130000000Y-76750000D01*
X130000000Y-72050000D02*
X134500000Y-72050000D01*
X120500000Y-63550000D02*
X121500000Y-63550000D01*
X128500000Y-74250000D02*
G75*
G03*
X130000000Y-72750000I0J1500000D01*
G01*
X130000000Y-76750000D02*
G75*
G03*
X129500000Y-77250000I0J-500000D01*
G01*
X75000000Y-86700000D02*
X75500000Y-86200000D01*
X80500000Y-84100000D02*
X80500000Y-84700000D01*
X66500000Y-72500000D02*
X66500000Y-71500000D01*
X71500000Y-82700000D02*
X72000000Y-82200000D01*
X72000000Y-86700000D02*
X75000000Y-86700000D01*
X72000000Y-82200000D02*
X74500000Y-82200000D01*
X66500000Y-85500000D02*
X66500000Y-84500000D01*
X75500000Y-85200000D02*
X75500000Y-86200000D01*
X80500000Y-85500000D02*
X79500000Y-85500000D01*
X67500000Y-85500000D02*
X66500000Y-85500000D01*
X76000000Y-80700000D02*
X76000000Y-80000000D01*
X80500000Y-80000000D02*
X80500000Y-80500000D01*
X80500000Y-71500000D02*
X80500000Y-72500000D01*
X66500000Y-71500000D02*
X67500000Y-71500000D01*
X80500000Y-84700000D02*
X76000000Y-84700000D01*
X79500000Y-71500000D02*
X80500000Y-71500000D01*
X80500000Y-84500000D02*
X80500000Y-85500000D01*
X76000000Y-80000000D02*
X80500000Y-80000000D01*
X71500000Y-86200000D02*
X72000000Y-86700000D01*
X74500000Y-82200000D02*
G75*
G03*
X76000000Y-80700000I0J1500000D01*
G01*
X76000000Y-84700000D02*
G75*
G03*
X75500000Y-85200000I0J-500000D01*
G01*
D11*
X172406400Y-59619000D02*
X171593600Y-59619000D01*
X172000000Y-59619000D02*
X172381000Y-60254000D01*
X172381000Y-60254000D02*
X171619000Y-60254000D01*
X171200000Y-58933200D02*
X171200000Y-56900000D01*
X172000000Y-60254000D02*
X172000000Y-61117600D01*
X172800000Y-58933200D02*
X171200000Y-58933200D01*
X172000000Y-58958600D02*
X172000000Y-59619000D01*
X172800000Y-56900000D02*
X172800000Y-58933200D01*
X171200000Y-56900000D02*
X172800000Y-56900000D01*
X171619000Y-60254000D02*
X172000000Y-59619000D01*
G36*
X172381000Y-60254000D02*
G01*
X171619000Y-60254000D01*
X172000000Y-59619000D01*
X172381000Y-60254000D01*
G37*
X172381000Y-60254000D02*
X171619000Y-60254000D01*
X172000000Y-59619000D01*
X172381000Y-60254000D01*
D13*
X188400000Y-85600000D02*
X186400000Y-85600000D01*
X188400000Y-82800000D02*
X188400000Y-85600000D01*
X186400000Y-82800000D02*
X188400000Y-82800000D01*
X186400000Y-85600000D02*
X186400000Y-82800000D01*
D10*
X152500000Y-84100000D02*
X152500000Y-84700000D01*
X151500000Y-71500000D02*
X152500000Y-71500000D01*
X152500000Y-84700000D02*
X148000000Y-84700000D01*
X148000000Y-80700000D02*
X148000000Y-80000000D01*
X144000000Y-82200000D02*
X146500000Y-82200000D01*
X147000000Y-86700000D02*
X147500000Y-86200000D01*
X139500000Y-85500000D02*
X138500000Y-85500000D01*
X147500000Y-85200000D02*
X147500000Y-86200000D01*
X152500000Y-84500000D02*
X152500000Y-85500000D01*
X152500000Y-71500000D02*
X152500000Y-72500000D01*
X138500000Y-72500000D02*
X138500000Y-71500000D01*
X152500000Y-80000000D02*
X152500000Y-80500000D01*
X143500000Y-86200000D02*
X144000000Y-86700000D01*
X138500000Y-85500000D02*
X138500000Y-84500000D01*
X138500000Y-71500000D02*
X139500000Y-71500000D01*
X152500000Y-85500000D02*
X151500000Y-85500000D01*
X144000000Y-86700000D02*
X147000000Y-86700000D01*
X148000000Y-80000000D02*
X152500000Y-80000000D01*
X143500000Y-82700000D02*
X144000000Y-82200000D01*
X146500000Y-82200000D02*
G75*
G03*
X148000000Y-80700000I0J1500000D01*
G01*
X148000000Y-84700000D02*
G75*
G03*
X147500000Y-85200000I0J-500000D01*
G01*
X154762346Y-123832678D02*
X155355375Y-123447560D01*
X151827903Y-123208943D02*
X154762346Y-123832678D01*
X160682728Y-122433008D02*
X160557981Y-123019897D01*
X151442785Y-122615913D02*
X151827903Y-123208943D01*
X149400437Y-108175733D02*
X149608349Y-107197585D01*
X147675733Y-121099563D02*
X146697585Y-120891651D01*
X160391651Y-123802415D02*
X159413504Y-123594503D01*
X162324267Y-109900437D02*
X163302415Y-110108349D01*
X161535166Y-118422603D02*
X161431210Y-118911677D01*
X160557981Y-123019897D02*
X156156317Y-122084294D01*
X163302415Y-110108349D02*
X163094503Y-111086496D01*
X152170476Y-119192397D02*
X152763505Y-118807279D01*
X157133501Y-117487001D02*
X161535166Y-118422603D01*
X156987963Y-118171704D02*
X157133501Y-117487001D01*
X152763505Y-118807279D02*
X155208874Y-119327058D01*
X146697585Y-120891651D02*
X146905497Y-119913504D01*
X155563287Y-122469412D02*
X155355375Y-123447560D01*
X149608349Y-107197585D02*
X150586496Y-107405497D01*
X160599563Y-122824267D02*
X160391651Y-123802415D01*
X155208874Y-119327057D02*
G75*
G03*
X156987963Y-118171704I311868J1467221D01*
G01*
X156156317Y-122084294D02*
G75*
G03*
X155563287Y-122469412I-103956J-489074D01*
G01*
G36*
X107300000Y-73800000D02*
G01*
X106700000Y-73200000D01*
X107300000Y-73200000D01*
X107300000Y-73800000D01*
G37*
D12*
X107300000Y-73800000D02*
X106700000Y-73200000D01*
X107300000Y-73200000D01*
X107300000Y-73800000D01*
G36*
X125300000Y-101800000D02*
G01*
X124700000Y-101200000D01*
X125300000Y-101200000D01*
X125300000Y-101800000D01*
G37*
X125300000Y-101800000D02*
X124700000Y-101200000D01*
X125300000Y-101200000D01*
X125300000Y-101800000D01*
D10*
X170500000Y-69700000D02*
X166000000Y-69700000D01*
X156500000Y-56500000D02*
X157500000Y-56500000D01*
X157500000Y-70500000D02*
X156500000Y-70500000D01*
X162000000Y-71700000D02*
X165000000Y-71700000D01*
X166000000Y-65700000D02*
X166000000Y-65000000D01*
X165000000Y-71700000D02*
X165500000Y-71200000D01*
X169500000Y-56500000D02*
X170500000Y-56500000D01*
X170500000Y-56500000D02*
X170500000Y-57500000D01*
X170500000Y-69500000D02*
X170500000Y-70500000D01*
X166000000Y-65000000D02*
X170500000Y-65000000D01*
X170500000Y-65000000D02*
X170500000Y-65500000D01*
X162000000Y-67200000D02*
X164500000Y-67200000D01*
X156500000Y-70500000D02*
X156500000Y-69500000D01*
X170500000Y-70500000D02*
X169500000Y-70500000D01*
X170500000Y-69100000D02*
X170500000Y-69700000D01*
X165500000Y-70200000D02*
X165500000Y-71200000D01*
X156500000Y-57500000D02*
X156500000Y-56500000D01*
X161500000Y-71200000D02*
X162000000Y-71700000D01*
X161500000Y-67700000D02*
X162000000Y-67200000D01*
X166000000Y-69700000D02*
G75*
G03*
X165500000Y-70200000I0J-500000D01*
G01*
X164500000Y-67200000D02*
G75*
G03*
X166000000Y-65700000I0J1500000D01*
G01*
X116500000Y-100500000D02*
X115500000Y-100500000D01*
X116500000Y-95000000D02*
X116500000Y-95500000D01*
X116500000Y-99100000D02*
X116500000Y-99700000D01*
X108000000Y-97200000D02*
X110500000Y-97200000D01*
X112000000Y-95700000D02*
X112000000Y-95000000D01*
X112000000Y-95000000D02*
X116500000Y-95000000D01*
X108000000Y-101700000D02*
X111000000Y-101700000D01*
X107500000Y-101200000D02*
X108000000Y-101700000D01*
X102500000Y-87500000D02*
X102500000Y-86500000D01*
X102500000Y-86500000D02*
X103500000Y-86500000D01*
X102500000Y-100500000D02*
X102500000Y-99500000D01*
X111000000Y-101700000D02*
X111500000Y-101200000D01*
X116500000Y-99500000D02*
X116500000Y-100500000D01*
X115500000Y-86500000D02*
X116500000Y-86500000D01*
X103500000Y-100500000D02*
X102500000Y-100500000D01*
X116500000Y-99700000D02*
X112000000Y-99700000D01*
X116500000Y-86500000D02*
X116500000Y-87500000D01*
X111500000Y-100200000D02*
X111500000Y-101200000D01*
X107500000Y-97700000D02*
X108000000Y-97200000D01*
X110500000Y-97200000D02*
G75*
G03*
X112000000Y-95700000I0J1500000D01*
G01*
X112000000Y-99700000D02*
G75*
G03*
X111500000Y-100200000I0J-500000D01*
G01*
G36*
X192424768Y-127525382D02*
G01*
X192039095Y-127985009D01*
X191965141Y-127139710D01*
X192424768Y-127525382D01*
G37*
D12*
X192424768Y-127525382D02*
X192039095Y-127985009D01*
X191965141Y-127139710D01*
X192424768Y-127525382D01*
G36*
X71300000Y-92800000D02*
G01*
X70700000Y-92200000D01*
X71300000Y-92200000D01*
X71300000Y-92800000D01*
G37*
X71300000Y-92800000D02*
X70700000Y-92200000D01*
X71300000Y-92200000D01*
X71300000Y-92800000D01*
G36*
X153534184Y-111814707D02*
G01*
X153409437Y-112401595D01*
X152947295Y-111689960D01*
X153534184Y-111814707D01*
G37*
X153534184Y-111814707D02*
X153409437Y-112401595D01*
X152947295Y-111689960D01*
X153534184Y-111814707D01*
D11*
X189619000Y-94254000D02*
X190000000Y-93619000D01*
X190000000Y-92958600D02*
X190000000Y-93619000D01*
X190000000Y-94254000D02*
X190000000Y-95117600D01*
X190800000Y-90900000D02*
X190800000Y-92933200D01*
X189200000Y-90900000D02*
X190800000Y-90900000D01*
X190406400Y-93619000D02*
X189593600Y-93619000D01*
X190800000Y-92933200D02*
X189200000Y-92933200D01*
X189200000Y-92933200D02*
X189200000Y-90900000D01*
X190000000Y-93619000D02*
X190381000Y-94254000D01*
X190381000Y-94254000D02*
X189619000Y-94254000D01*
G36*
X190381000Y-94254000D02*
G01*
X189619000Y-94254000D01*
X190000000Y-93619000D01*
X190381000Y-94254000D01*
G37*
X190381000Y-94254000D02*
X189619000Y-94254000D01*
X190000000Y-93619000D01*
X190381000Y-94254000D01*
D14*
X191770000Y-82012000D02*
X173990000Y-82012000D01*
X173990000Y-51532000D02*
X191770000Y-51532000D01*
X189230000Y-54072000D02*
X191770000Y-54072000D01*
X173990000Y-82012000D02*
X173990000Y-51532000D01*
X191770000Y-51532000D02*
X191770000Y-82012000D01*
X189230000Y-51532000D02*
X189230000Y-54072000D01*
D10*
X130000000Y-55050000D02*
X134500000Y-55050000D01*
X126000000Y-57250000D02*
X128500000Y-57250000D01*
X133500000Y-46550000D02*
X134500000Y-46550000D01*
X129000000Y-61750000D02*
X129500000Y-61250000D01*
X120500000Y-60550000D02*
X120500000Y-59550000D01*
X134500000Y-60550000D02*
X133500000Y-60550000D01*
X126000000Y-61750000D02*
X129000000Y-61750000D01*
X125500000Y-57750000D02*
X126000000Y-57250000D01*
X129500000Y-60250000D02*
X129500000Y-61250000D01*
X125500000Y-61250000D02*
X126000000Y-61750000D01*
X134500000Y-59150000D02*
X134500000Y-59750000D01*
X121500000Y-60550000D02*
X120500000Y-60550000D01*
X134500000Y-55050000D02*
X134500000Y-55550000D01*
X134500000Y-59750000D02*
X130000000Y-59750000D01*
X134500000Y-46550000D02*
X134500000Y-47550000D01*
X120500000Y-46550000D02*
X121500000Y-46550000D01*
X120500000Y-47550000D02*
X120500000Y-46550000D01*
X130000000Y-55750000D02*
X130000000Y-55050000D01*
X134500000Y-59550000D02*
X134500000Y-60550000D01*
X128500000Y-57250000D02*
G75*
G03*
X130000000Y-55750000I0J1500000D01*
G01*
X130000000Y-59750000D02*
G75*
G03*
X129500000Y-60250000I0J-500000D01*
G01*
G36*
X161300000Y-77800000D02*
G01*
X160700000Y-77200000D01*
X161300000Y-77200000D01*
X161300000Y-77800000D01*
G37*
D12*
X161300000Y-77800000D02*
X160700000Y-77200000D01*
X161300000Y-77200000D01*
X161300000Y-77800000D01*
D10*
X181394000Y-108606000D02*
X193144000Y-108606000D01*
X193144000Y-114406000D02*
X181394000Y-114406000D01*
X193144000Y-108606000D02*
X193144000Y-114406000D01*
X181394000Y-114406000D02*
X181394000Y-108606000D01*
D11*
X101300000Y-69252200D02*
X99700000Y-69252200D01*
X100119000Y-70573000D02*
X100500000Y-69938000D01*
X99700000Y-67219000D02*
X101300000Y-67219000D01*
X100500000Y-69938000D02*
X100881000Y-70573000D01*
X100906400Y-69938000D02*
X100093600Y-69938000D01*
X101300000Y-67219000D02*
X101300000Y-69252200D01*
X100500000Y-69277600D02*
X100500000Y-69938000D01*
X100881000Y-70573000D02*
X100119000Y-70573000D01*
X100500000Y-70573000D02*
X100500000Y-71436600D01*
X99700000Y-69252200D02*
X99700000Y-67219000D01*
G36*
X100881000Y-70573000D02*
G01*
X100119000Y-70573000D01*
X100500000Y-69938000D01*
X100881000Y-70573000D01*
G37*
X100881000Y-70573000D02*
X100119000Y-70573000D01*
X100500000Y-69938000D01*
X100881000Y-70573000D01*
D10*
X66500000Y-102500000D02*
X66500000Y-101500000D01*
X75000000Y-103700000D02*
X75500000Y-103200000D01*
X80500000Y-88500000D02*
X80500000Y-89500000D01*
X71500000Y-103200000D02*
X72000000Y-103700000D01*
X80500000Y-101700000D02*
X76000000Y-101700000D01*
X80500000Y-102500000D02*
X79500000Y-102500000D01*
X66500000Y-88500000D02*
X67500000Y-88500000D01*
X80500000Y-101500000D02*
X80500000Y-102500000D01*
X66500000Y-89500000D02*
X66500000Y-88500000D01*
X71500000Y-99700000D02*
X72000000Y-99200000D01*
X80500000Y-97000000D02*
X80500000Y-97500000D01*
X79500000Y-88500000D02*
X80500000Y-88500000D01*
X75500000Y-102200000D02*
X75500000Y-103200000D01*
X72000000Y-103700000D02*
X75000000Y-103700000D01*
X72000000Y-99200000D02*
X74500000Y-99200000D01*
X76000000Y-97700000D02*
X76000000Y-97000000D01*
X80500000Y-101100000D02*
X80500000Y-101700000D01*
X76000000Y-97000000D02*
X80500000Y-97000000D01*
X67500000Y-102500000D02*
X66500000Y-102500000D01*
X76000000Y-101700000D02*
G75*
G03*
X75500000Y-102200000I0J-500000D01*
G01*
X74500000Y-99200000D02*
G75*
G03*
X76000000Y-97700000I0J1500000D01*
G01*
D11*
X82119000Y-104754000D02*
X82500000Y-104119000D01*
X82906400Y-104119000D02*
X82093600Y-104119000D01*
X82881000Y-104754000D02*
X82119000Y-104754000D01*
X82500000Y-104119000D02*
X82881000Y-104754000D01*
X82500000Y-104754000D02*
X82500000Y-105617600D01*
X82500000Y-103458600D02*
X82500000Y-104119000D01*
X83300000Y-103433200D02*
X81700000Y-103433200D01*
X81700000Y-103433200D02*
X81700000Y-101400000D01*
X81700000Y-101400000D02*
X83300000Y-101400000D01*
X83300000Y-101400000D02*
X83300000Y-103433200D01*
G36*
X82881000Y-104754000D02*
G01*
X82119000Y-104754000D01*
X82500000Y-104119000D01*
X82881000Y-104754000D01*
G37*
X82881000Y-104754000D02*
X82119000Y-104754000D01*
X82500000Y-104119000D01*
X82881000Y-104754000D01*
G36*
X71300000Y-75800000D02*
G01*
X70700000Y-75200000D01*
X71300000Y-75200000D01*
X71300000Y-75800000D01*
G37*
D12*
X71300000Y-75800000D02*
X70700000Y-75200000D01*
X71300000Y-75200000D01*
X71300000Y-75800000D01*
D10*
X84500000Y-83500000D02*
X85500000Y-83500000D01*
X98500000Y-96100000D02*
X98500000Y-96700000D01*
X89500000Y-98200000D02*
X90000000Y-98700000D01*
X94000000Y-92700000D02*
X94000000Y-92000000D01*
X89500000Y-94700000D02*
X90000000Y-94200000D01*
X98500000Y-96700000D02*
X94000000Y-96700000D01*
X98500000Y-92000000D02*
X98500000Y-92500000D01*
X84500000Y-97500000D02*
X84500000Y-96500000D01*
X93000000Y-98700000D02*
X93500000Y-98200000D01*
X98500000Y-96500000D02*
X98500000Y-97500000D01*
X84500000Y-84500000D02*
X84500000Y-83500000D01*
X85500000Y-97500000D02*
X84500000Y-97500000D01*
X98500000Y-97500000D02*
X97500000Y-97500000D01*
X90000000Y-94200000D02*
X92500000Y-94200000D01*
X98500000Y-83500000D02*
X98500000Y-84500000D01*
X90000000Y-98700000D02*
X93000000Y-98700000D01*
X94000000Y-92000000D02*
X98500000Y-92000000D01*
X93500000Y-97200000D02*
X93500000Y-98200000D01*
X97500000Y-83500000D02*
X98500000Y-83500000D01*
X94000000Y-96700000D02*
G75*
G03*
X93500000Y-97200000I0J-500000D01*
G01*
X92500000Y-94200000D02*
G75*
G03*
X94000000Y-92700000I0J1500000D01*
G01*
G36*
X125300000Y-84850000D02*
G01*
X124700000Y-84250000D01*
X125300000Y-84250000D01*
X125300000Y-84850000D01*
G37*
D12*
X125300000Y-84850000D02*
X124700000Y-84250000D01*
X125300000Y-84250000D01*
X125300000Y-84850000D01*
G36*
X89300000Y-104800000D02*
G01*
X88700000Y-104200000D01*
X89300000Y-104200000D01*
X89300000Y-104800000D01*
G37*
X89300000Y-104800000D02*
X88700000Y-104200000D01*
X89300000Y-104200000D01*
X89300000Y-104800000D01*
D11*
X153700000Y-72432500D02*
X155300000Y-72432500D01*
X154500000Y-75786500D02*
X154500000Y-76650100D01*
X154119000Y-75786500D02*
X154500000Y-75151500D01*
X154906400Y-75151500D02*
X154093600Y-75151500D01*
X154500000Y-75151500D02*
X154881000Y-75786500D01*
X155300000Y-72432500D02*
X155300000Y-74465700D01*
X153700000Y-74465700D02*
X153700000Y-72432500D01*
X155300000Y-74465700D02*
X153700000Y-74465700D01*
X154881000Y-75786500D02*
X154119000Y-75786500D01*
X154500000Y-74491100D02*
X154500000Y-75151500D01*
G36*
X154881000Y-75786500D02*
G01*
X154119000Y-75786500D01*
X154500000Y-75151500D01*
X154881000Y-75786500D01*
G37*
X154881000Y-75786500D02*
X154119000Y-75786500D01*
X154500000Y-75151500D01*
X154881000Y-75786500D01*
G36*
X161300000Y-60800000D02*
G01*
X160700000Y-60200000D01*
X161300000Y-60200000D01*
X161300000Y-60800000D01*
G37*
D12*
X161300000Y-60800000D02*
X160700000Y-60200000D01*
X161300000Y-60200000D01*
X161300000Y-60800000D01*
D11*
X100906400Y-103938000D02*
X100093600Y-103938000D01*
X99700000Y-103252200D02*
X99700000Y-101219000D01*
X101300000Y-101219000D02*
X101300000Y-103252200D01*
X99700000Y-101219000D02*
X101300000Y-101219000D01*
X101300000Y-103252200D02*
X99700000Y-103252200D01*
X100500000Y-103277600D02*
X100500000Y-103938000D01*
X100500000Y-103938000D02*
X100881000Y-104573000D01*
X100500000Y-104573000D02*
X100500000Y-105436600D01*
X100881000Y-104573000D02*
X100119000Y-104573000D01*
X100119000Y-104573000D02*
X100500000Y-103938000D01*
G36*
X100881000Y-104573000D02*
G01*
X100119000Y-104573000D01*
X100500000Y-103938000D01*
X100881000Y-104573000D01*
G37*
X100881000Y-104573000D02*
X100119000Y-104573000D01*
X100500000Y-103938000D01*
X100881000Y-104573000D01*
G36*
X172953848Y-117063125D02*
G01*
X172748636Y-117626941D01*
X172390032Y-116857913D01*
X172953848Y-117063125D01*
G37*
D12*
X172953848Y-117063125D02*
X172748636Y-117626941D01*
X172390032Y-116857913D01*
X172953848Y-117063125D01*
D11*
X136881000Y-53054000D02*
X136119000Y-53054000D01*
X136500000Y-52419000D02*
X136881000Y-53054000D01*
X135700000Y-51733200D02*
X135700000Y-49700000D01*
X135700000Y-49700000D02*
X137300000Y-49700000D01*
X137300000Y-49700000D02*
X137300000Y-51733200D01*
X136119000Y-53054000D02*
X136500000Y-52419000D01*
X136500000Y-51758600D02*
X136500000Y-52419000D01*
X137300000Y-51733200D02*
X135700000Y-51733200D01*
X136500000Y-53054000D02*
X136500000Y-53917600D01*
X136906400Y-52419000D02*
X136093600Y-52419000D01*
G36*
X136881000Y-53054000D02*
G01*
X136119000Y-53054000D01*
X136500000Y-52419000D01*
X136881000Y-53054000D01*
G37*
X136881000Y-53054000D02*
X136119000Y-53054000D01*
X136500000Y-52419000D01*
X136881000Y-53054000D01*
D10*
X165000000Y-105700000D02*
X165500000Y-105200000D01*
X157500000Y-104500000D02*
X156500000Y-104500000D01*
X166000000Y-99000000D02*
X170500000Y-99000000D01*
X170500000Y-90500000D02*
X170500000Y-91500000D01*
X162000000Y-101200000D02*
X164500000Y-101200000D01*
X161500000Y-101700000D02*
X162000000Y-101200000D01*
X162000000Y-105700000D02*
X165000000Y-105700000D01*
X161500000Y-105200000D02*
X162000000Y-105700000D01*
X170500000Y-104500000D02*
X169500000Y-104500000D01*
X165500000Y-104200000D02*
X165500000Y-105200000D01*
X170500000Y-103700000D02*
X166000000Y-103700000D01*
X170500000Y-103500000D02*
X170500000Y-104500000D01*
X156500000Y-91500000D02*
X156500000Y-90500000D01*
X156500000Y-104500000D02*
X156500000Y-103500000D01*
X170500000Y-99000000D02*
X170500000Y-99500000D01*
X166000000Y-99700000D02*
X166000000Y-99000000D01*
X156500000Y-90500000D02*
X157500000Y-90500000D01*
X170500000Y-103100000D02*
X170500000Y-103700000D01*
X169500000Y-90500000D02*
X170500000Y-90500000D01*
X166000000Y-103700000D02*
G75*
G03*
X165500000Y-104200000I0J-500000D01*
G01*
X164500000Y-101200000D02*
G75*
G03*
X166000000Y-99700000I0J1500000D01*
G01*
D11*
X172000000Y-92958600D02*
X172000000Y-93619000D01*
X171200000Y-92933200D02*
X171200000Y-90900000D01*
X172800000Y-92933200D02*
X171200000Y-92933200D01*
X172381000Y-94254000D02*
X171619000Y-94254000D01*
X171619000Y-94254000D02*
X172000000Y-93619000D01*
X172000000Y-94254000D02*
X172000000Y-95117600D01*
X172800000Y-90900000D02*
X172800000Y-92933200D01*
X172000000Y-93619000D02*
X172381000Y-94254000D01*
X172406400Y-93619000D02*
X171593600Y-93619000D01*
X171200000Y-90900000D02*
X172800000Y-90900000D01*
G36*
X172381000Y-94254000D02*
G01*
X171619000Y-94254000D01*
X172000000Y-93619000D01*
X172381000Y-94254000D01*
G37*
X172381000Y-94254000D02*
X171619000Y-94254000D01*
X172000000Y-93619000D01*
X172381000Y-94254000D01*
D10*
X184000000Y-99700000D02*
X184000000Y-99000000D01*
X184000000Y-99000000D02*
X188500000Y-99000000D01*
X180000000Y-105700000D02*
X183000000Y-105700000D01*
X183000000Y-105700000D02*
X183500000Y-105200000D01*
X174500000Y-104500000D02*
X174500000Y-103500000D01*
X179500000Y-105200000D02*
X180000000Y-105700000D01*
X174500000Y-90500000D02*
X175500000Y-90500000D01*
X183500000Y-104200000D02*
X183500000Y-105200000D01*
X175500000Y-104500000D02*
X174500000Y-104500000D01*
X187500000Y-90500000D02*
X188500000Y-90500000D01*
X180000000Y-101200000D02*
X182500000Y-101200000D01*
X188500000Y-103500000D02*
X188500000Y-104500000D01*
X188500000Y-104500000D02*
X187500000Y-104500000D01*
X188500000Y-103100000D02*
X188500000Y-103700000D01*
X188500000Y-90500000D02*
X188500000Y-91500000D01*
X188500000Y-99000000D02*
X188500000Y-99500000D01*
X174500000Y-91500000D02*
X174500000Y-90500000D01*
X188500000Y-103700000D02*
X184000000Y-103700000D01*
X179500000Y-101700000D02*
X180000000Y-101200000D01*
X184000000Y-103700000D02*
G75*
G03*
X183500000Y-104200000I0J-500000D01*
G01*
X182500000Y-101200000D02*
G75*
G03*
X184000000Y-99700000I0J1500000D01*
G01*
D15*
X176784000Y-51562000D03*
X190500000Y-52802000D03*
X176784000Y-54102000D03*
X190500000Y-55342000D03*
X176784000Y-56642000D03*
X190500000Y-57882000D03*
X190500000Y-60422000D03*
X176784000Y-59182000D03*
X176784000Y-61722000D03*
X190500000Y-62962000D03*
X176784000Y-64262000D03*
X190500000Y-65502000D03*
X176784000Y-66802000D03*
X190500000Y-68042000D03*
X190500000Y-70582000D03*
X176784000Y-69342000D03*
X190500000Y-73122000D03*
X176784000Y-71882000D03*
X176784000Y-74422000D03*
X190500000Y-75662000D03*
X190500000Y-78202000D03*
X176784000Y-76962000D03*
X176784000Y-79502000D03*
X190500000Y-80742000D03*
X192024000Y-79502000D03*
X175260000Y-80742000D03*
X175260000Y-78202000D03*
X192024000Y-76962000D03*
X192024000Y-74422000D03*
X175260000Y-75662000D03*
X175260000Y-73122000D03*
X192024000Y-71882000D03*
X175260000Y-70582000D03*
X192024000Y-69342000D03*
X192024000Y-66802000D03*
X175260000Y-68042000D03*
X192024000Y-64262000D03*
X175260000Y-65502000D03*
X192024000Y-61722000D03*
X175260000Y-62962000D03*
X192024000Y-59182000D03*
X175260000Y-60422000D03*
X192024000Y-56642000D03*
X175260000Y-57882000D03*
X175260000Y-55342000D03*
X192024000Y-54102000D03*
X175260000Y-52802000D03*
X192024000Y-51562000D03*
%LPC*%
D16*
X140000000Y-61500000D03*
D17*
X145500000Y-67450000D03*
D18*
X140280000Y-57300000D03*
D17*
X140500000Y-65250000D03*
D16*
X151000000Y-61500000D03*
D19*
X145500000Y-61500000D03*
D18*
X150720000Y-57300000D03*
D17*
X150500000Y-65250000D03*
D20*
X142225000Y-67450000D03*
X153775000Y-65250000D03*
D21*
X202068357Y-132678843D03*
X199431643Y-135821157D03*
D22*
X136500000Y-101699000D03*
X136500000Y-105801000D03*
D17*
X168500000Y-84250000D03*
D16*
X169000000Y-80500000D03*
D19*
X163500000Y-80500000D03*
D18*
X158280000Y-76300000D03*
D17*
X158500000Y-84250000D03*
D16*
X158000000Y-80500000D03*
D17*
X163500000Y-86450000D03*
D18*
X168720000Y-76300000D03*
D20*
X160225000Y-86450000D03*
X171775000Y-84250000D03*
D19*
X109500000Y-59500000D03*
D18*
X114720000Y-55300000D03*
D16*
X104000000Y-59500000D03*
D18*
X104280000Y-55300000D03*
D17*
X109500000Y-65450000D03*
X104500000Y-63250000D03*
X114500000Y-63250000D03*
D16*
X115000000Y-59500000D03*
D20*
X106225000Y-65450000D03*
X117775000Y-63250000D03*
D23*
X94200000Y-69550000D03*
X88800000Y-69550000D03*
D24*
X88800000Y-68050000D03*
D23*
X94200000Y-68050000D03*
D17*
X91500000Y-113450000D03*
X96500000Y-111250000D03*
X86500000Y-111250000D03*
D19*
X91500000Y-107500000D03*
D16*
X97000000Y-107500000D03*
D18*
X96720000Y-103300000D03*
X86280000Y-103300000D03*
D16*
X86000000Y-107500000D03*
D20*
X88225000Y-113450000D03*
X99775000Y-111250000D03*
D23*
X148200000Y-57550000D03*
X142800000Y-57550000D03*
D24*
X142800000Y-56050000D03*
D23*
X148200000Y-56050000D03*
X94200000Y-86550000D03*
X88800000Y-86550000D03*
D24*
X88800000Y-85050000D03*
D23*
X94200000Y-85050000D03*
X148200000Y-74550000D03*
X142800000Y-74550000D03*
D24*
X142800000Y-73050000D03*
D23*
X148200000Y-73050000D03*
D16*
X179060815Y-122797666D03*
D18*
X170423795Y-115184501D03*
D17*
X171857486Y-126507726D03*
D18*
X180234186Y-118755191D03*
D19*
X173892506Y-120916555D03*
D17*
X177308394Y-126150503D03*
X167911467Y-122730302D03*
D16*
X168724197Y-119035444D03*
D25*
X168779993Y-125387610D03*
X180385887Y-127270619D03*
D22*
X82500000Y-68449000D03*
X82500000Y-72551000D03*
D17*
X109500000Y-116450000D03*
D18*
X104280000Y-106300000D03*
D16*
X115000000Y-110500000D03*
D18*
X114720000Y-106300000D03*
D16*
X104000000Y-110500000D03*
D17*
X104500000Y-114250000D03*
D19*
X109500000Y-110500000D03*
D17*
X114500000Y-114250000D03*
D20*
X106225000Y-116450000D03*
X117775000Y-114250000D03*
D22*
X118500000Y-66449000D03*
X118500000Y-70551000D03*
D26*
X181400000Y-84925000D03*
D27*
X181400000Y-83475000D03*
D26*
X184600000Y-84925000D03*
D27*
X184600000Y-83475000D03*
D22*
X172000000Y-74949000D03*
X172000000Y-79051000D03*
D23*
X112200000Y-55550000D03*
X106800000Y-55550000D03*
D24*
X106800000Y-54050000D03*
D23*
X112200000Y-54050000D03*
D28*
X164468373Y-111837552D03*
X163615519Y-115849914D03*
D23*
X130200000Y-66600000D03*
X124800000Y-66600000D03*
D24*
X124800000Y-65100000D03*
D23*
X130200000Y-65100000D03*
D16*
X97000000Y-73500000D03*
D18*
X86280000Y-69300000D03*
D17*
X91500000Y-79450000D03*
X96500000Y-77250000D03*
D18*
X96720000Y-69300000D03*
D17*
X86500000Y-77250000D03*
D16*
X86000000Y-73500000D03*
D19*
X91500000Y-73500000D03*
D20*
X88225000Y-79450000D03*
X99775000Y-77250000D03*
D23*
X130200000Y-49600000D03*
X124800000Y-49600000D03*
D24*
X124800000Y-48100000D03*
D23*
X130200000Y-48100000D03*
X76200000Y-108550000D03*
X70800000Y-108550000D03*
D24*
X70800000Y-107050000D03*
D23*
X76200000Y-107050000D03*
D18*
X150720000Y-91300000D03*
D19*
X145500000Y-95500000D03*
D16*
X151000000Y-95500000D03*
D17*
X140500000Y-99250000D03*
D16*
X140000000Y-95500000D03*
D17*
X150500000Y-99250000D03*
D18*
X140280000Y-91300000D03*
D17*
X145500000Y-101450000D03*
D20*
X142225000Y-101450000D03*
X153775000Y-99250000D03*
D29*
X186800000Y-87825000D03*
D30*
X184260000Y-87825000D03*
X181720000Y-87825000D03*
X179180000Y-87825000D03*
D22*
X154500000Y-56481500D03*
X154500000Y-60583500D03*
D16*
X115000000Y-76500000D03*
D18*
X104280000Y-72300000D03*
D17*
X104500000Y-80250000D03*
D18*
X114720000Y-72300000D03*
D17*
X109500000Y-82450000D03*
D16*
X104000000Y-76500000D03*
D19*
X109500000Y-76500000D03*
D17*
X114500000Y-80250000D03*
D20*
X106225000Y-82450000D03*
X117775000Y-80250000D03*
D22*
X100500000Y-85268000D03*
X100500000Y-89370000D03*
D16*
X133000000Y-104500000D03*
D18*
X122280000Y-100300000D03*
X132720000Y-100300000D03*
D17*
X122500000Y-108250000D03*
D16*
X122000000Y-104500000D03*
D19*
X127500000Y-104500000D03*
D17*
X132500000Y-108250000D03*
X127500000Y-110450000D03*
D20*
X124225000Y-110450000D03*
X135775000Y-108250000D03*
D23*
X112200000Y-89550000D03*
X106800000Y-89550000D03*
D24*
X106800000Y-88050000D03*
D23*
X112200000Y-88050000D03*
D17*
X122500000Y-91300000D03*
X127500000Y-93500000D03*
X132500000Y-91300000D03*
D16*
X133000000Y-87550000D03*
D18*
X132720000Y-83350000D03*
D16*
X122000000Y-87550000D03*
D18*
X122280000Y-83350000D03*
D19*
X127500000Y-87550000D03*
D20*
X124225000Y-93500000D03*
X135775000Y-91300000D03*
D22*
X154500000Y-90481500D03*
X154500000Y-94583500D03*
X82500000Y-85449000D03*
X82500000Y-89551000D03*
D23*
X148200000Y-91550000D03*
X142800000Y-91550000D03*
D24*
X142800000Y-90050000D03*
D23*
X148200000Y-90050000D03*
D22*
X136500000Y-67749000D03*
X136500000Y-71851000D03*
D23*
X184200000Y-93550000D03*
X178800000Y-93550000D03*
D24*
X178800000Y-92050000D03*
D23*
X184200000Y-92050000D03*
D26*
X178600000Y-84925000D03*
D27*
X178600000Y-83475000D03*
D22*
X118500000Y-49449000D03*
X118500000Y-53551000D03*
X118500000Y-83449000D03*
X118500000Y-87551000D03*
X118500000Y-100449000D03*
X118500000Y-104551000D03*
D19*
X191988865Y-131467462D03*
D18*
X198687325Y-131605427D03*
D17*
X185748189Y-131126191D03*
D18*
X190689821Y-124894724D03*
D17*
X193408634Y-137554067D03*
D16*
X196202109Y-135002794D03*
D17*
X188164279Y-136025426D03*
D16*
X187775621Y-127932130D03*
D31*
X185655483Y-133920297D03*
X195917429Y-139659196D03*
D32*
X183778447Y-118607492D03*
X182375481Y-122462112D03*
D18*
X68280000Y-108300000D03*
D17*
X68500000Y-116250000D03*
D16*
X68000000Y-112500000D03*
D17*
X73500000Y-118450000D03*
X78500000Y-116250000D03*
D19*
X73500000Y-112500000D03*
D16*
X79000000Y-112500000D03*
D18*
X78720000Y-108300000D03*
D20*
X70225000Y-118450000D03*
X81775000Y-116250000D03*
D22*
X136500000Y-84749000D03*
X136500000Y-88851000D03*
D23*
X166200000Y-93550000D03*
X160800000Y-93550000D03*
D24*
X160800000Y-92050000D03*
D23*
X166200000Y-92050000D03*
X112200000Y-106550000D03*
X106800000Y-106550000D03*
D24*
X106800000Y-105050000D03*
D23*
X112200000Y-105050000D03*
D16*
X133000000Y-70550000D03*
D17*
X132500000Y-74300000D03*
D18*
X132720000Y-66350000D03*
D19*
X127500000Y-70550000D03*
D16*
X122000000Y-70550000D03*
D17*
X122500000Y-74300000D03*
D18*
X122280000Y-66350000D03*
D17*
X127500000Y-76500000D03*
D20*
X124225000Y-76500000D03*
X135775000Y-74300000D03*
D17*
X73500000Y-84450000D03*
X78500000Y-82250000D03*
D18*
X78720000Y-74300000D03*
D16*
X79000000Y-78500000D03*
X68000000Y-78500000D03*
D19*
X73500000Y-78500000D03*
D18*
X68280000Y-74300000D03*
D17*
X68500000Y-82250000D03*
D20*
X70225000Y-84450000D03*
X81775000Y-82250000D03*
D22*
X172000000Y-57949000D03*
X172000000Y-62051000D03*
D26*
X187400000Y-84925000D03*
D27*
X187400000Y-83475000D03*
D19*
X145500000Y-78500000D03*
D18*
X150720000Y-74300000D03*
X140280000Y-74300000D03*
D16*
X140000000Y-78500000D03*
D17*
X150500000Y-82250000D03*
X145500000Y-84450000D03*
X140500000Y-82250000D03*
D16*
X151000000Y-78500000D03*
D20*
X142225000Y-84450000D03*
X153775000Y-82250000D03*
D18*
X150767299Y-110306481D03*
X160979160Y-112477079D03*
D17*
X153762925Y-121319978D03*
D16*
X160379812Y-116643514D03*
D19*
X155000000Y-115500000D03*
D17*
X149329593Y-118128495D03*
X159111069Y-120207612D03*
D16*
X149620188Y-114356486D03*
D33*
X150559492Y-120639067D03*
X162314503Y-120888523D03*
D23*
X112200000Y-72550000D03*
X106800000Y-72550000D03*
D24*
X106800000Y-71050000D03*
D23*
X112200000Y-71050000D03*
X130200000Y-100550000D03*
X124800000Y-100550000D03*
D24*
X124800000Y-99050000D03*
D23*
X130200000Y-99050000D03*
D17*
X163500000Y-69450000D03*
X168500000Y-67250000D03*
D16*
X158000000Y-63500000D03*
X169000000Y-63500000D03*
D18*
X168720000Y-59300000D03*
D17*
X158500000Y-67250000D03*
D18*
X158280000Y-59300000D03*
D19*
X163500000Y-63500000D03*
D20*
X160225000Y-69450000D03*
X171775000Y-67250000D03*
D18*
X104280000Y-89300000D03*
X114720000Y-89300000D03*
D16*
X104000000Y-93500000D03*
X115000000Y-93500000D03*
D19*
X109500000Y-93500000D03*
D17*
X109500000Y-99450000D03*
X114500000Y-97250000D03*
X104500000Y-97250000D03*
D20*
X106225000Y-99450000D03*
X117775000Y-97250000D03*
D34*
X196596197Y-130177113D03*
X192459557Y-126706060D03*
D35*
X193423739Y-125556993D03*
D34*
X197560379Y-129028046D03*
D23*
X76200000Y-91550000D03*
X70800000Y-91550000D03*
D24*
X70800000Y-90050000D03*
D23*
X76200000Y-90050000D03*
D36*
X158462250Y-112197678D03*
X153180253Y-111074955D03*
D37*
X153492120Y-109607734D03*
D36*
X158774117Y-110730457D03*
D22*
X190000000Y-91949000D03*
X190000000Y-96051000D03*
D15*
X176784000Y-51562000D03*
X190500000Y-52802000D03*
X176784000Y-54102000D03*
X190500000Y-55342000D03*
X176784000Y-56642000D03*
X190500000Y-57882000D03*
X190500000Y-60422000D03*
X176784000Y-59182000D03*
X176784000Y-61722000D03*
X190500000Y-62962000D03*
X176784000Y-64262000D03*
X190500000Y-65502000D03*
X176784000Y-66802000D03*
X190500000Y-68042000D03*
X190500000Y-70582000D03*
X176784000Y-69342000D03*
X190500000Y-73122000D03*
X176784000Y-71882000D03*
X176784000Y-74422000D03*
X190500000Y-75662000D03*
X190500000Y-78202000D03*
X176784000Y-76962000D03*
X176784000Y-79502000D03*
X190500000Y-80742000D03*
X192024000Y-79502000D03*
X175260000Y-80742000D03*
X175260000Y-78202000D03*
X192024000Y-76962000D03*
X192024000Y-74422000D03*
X175260000Y-75662000D03*
X175260000Y-73122000D03*
X192024000Y-71882000D03*
X175260000Y-70582000D03*
X192024000Y-69342000D03*
X192024000Y-66802000D03*
X175260000Y-68042000D03*
X192024000Y-64262000D03*
X175260000Y-65502000D03*
X192024000Y-61722000D03*
X175260000Y-62962000D03*
X192024000Y-59182000D03*
X175260000Y-60422000D03*
X192024000Y-56642000D03*
X175260000Y-57882000D03*
X175260000Y-55342000D03*
X192024000Y-54102000D03*
X175260000Y-52802000D03*
X192024000Y-51562000D03*
D19*
X127500000Y-53550000D03*
D17*
X132500000Y-57300000D03*
D16*
X122000000Y-53550000D03*
X133000000Y-53550000D03*
D17*
X122500000Y-57300000D03*
X127500000Y-59500000D03*
D18*
X122280000Y-49350000D03*
X132720000Y-49350000D03*
D20*
X124225000Y-59500000D03*
X135775000Y-57300000D03*
D23*
X166200000Y-76550000D03*
X160800000Y-76550000D03*
D24*
X160800000Y-75050000D03*
D23*
X166200000Y-75050000D03*
D38*
X181356000Y-112014000D03*
D39*
X182244000Y-109406000D03*
D40*
X183134000Y-110998000D03*
D39*
X182244000Y-113606000D03*
D41*
X191794000Y-111506000D03*
X184794000Y-111506000D03*
D42*
X181356000Y-110998000D03*
D43*
X189994000Y-109406000D03*
X186994000Y-109406000D03*
D44*
X183134000Y-112014000D03*
D22*
X100500000Y-68268000D03*
X100500000Y-72370000D03*
D16*
X79000000Y-95500000D03*
D19*
X73500000Y-95500000D03*
D17*
X68500000Y-99250000D03*
X78500000Y-99250000D03*
D18*
X68280000Y-91300000D03*
D17*
X73500000Y-101450000D03*
D16*
X68000000Y-95500000D03*
D18*
X78720000Y-91300000D03*
D20*
X70225000Y-101450000D03*
X81775000Y-99250000D03*
D22*
X82500000Y-102449000D03*
X82500000Y-106551000D03*
D23*
X76200000Y-74550000D03*
X70800000Y-74550000D03*
D24*
X70800000Y-73050000D03*
D23*
X76200000Y-73050000D03*
D17*
X91500000Y-96450000D03*
D19*
X91500000Y-90500000D03*
D17*
X96500000Y-94250000D03*
D18*
X96720000Y-86300000D03*
D16*
X97000000Y-90500000D03*
X86000000Y-90500000D03*
D18*
X86280000Y-86300000D03*
D17*
X86500000Y-94250000D03*
D20*
X88225000Y-96450000D03*
X99775000Y-94250000D03*
D23*
X130200000Y-83600000D03*
X124800000Y-83600000D03*
D24*
X124800000Y-82100000D03*
D23*
X130200000Y-82100000D03*
X94200000Y-103550000D03*
X88800000Y-103550000D03*
D24*
X88800000Y-102050000D03*
D23*
X94200000Y-102050000D03*
D22*
X154500000Y-73481500D03*
X154500000Y-77583500D03*
D23*
X166200000Y-59550000D03*
X160800000Y-59550000D03*
D24*
X160800000Y-58050000D03*
D23*
X166200000Y-58050000D03*
D22*
X100500000Y-102268000D03*
X100500000Y-106370000D03*
D45*
X177780655Y-118128224D03*
X172706315Y-116281315D03*
D46*
X173219345Y-114871776D03*
D45*
X178293685Y-116718685D03*
D22*
X136500000Y-50749000D03*
X136500000Y-54851000D03*
D17*
X168500000Y-101250000D03*
D18*
X168720000Y-93300000D03*
D16*
X158000000Y-97500000D03*
D18*
X158280000Y-93300000D03*
D17*
X158500000Y-101250000D03*
D19*
X163500000Y-97500000D03*
D16*
X169000000Y-97500000D03*
D17*
X163500000Y-103450000D03*
D20*
X160225000Y-103450000D03*
X171775000Y-101250000D03*
D22*
X172000000Y-91949000D03*
X172000000Y-96051000D03*
D18*
X176280000Y-93300000D03*
X186720000Y-93300000D03*
D17*
X181500000Y-103450000D03*
D19*
X181500000Y-97500000D03*
D17*
X176500000Y-101250000D03*
X186500000Y-101250000D03*
D16*
X187000000Y-97500000D03*
X176000000Y-97500000D03*
D20*
X178225000Y-103450000D03*
X189775000Y-101250000D03*
M02*
